<?xml version="1.0" standalone="no"?>
<!DOCTYPE svg PUBLIC "-//W3C//DTD SVG 1.1//EN" "http://www.w3.org/Graphics/SVG/1.1/DTD/svg11.dtd" >
<svg>
<metadata>
Created by FontForge 20120731 at Sat Mar  9 05:47:20 2019
 By www-data
Copyright 2014 by Joel Carrouche. All rights reserved.
</metadata>
<defs>
<font id="r0c0iLinotte-Heavy" horiz-adv-x="554" >
  <font-face 
    font-family="r0c0i Linotte"
    font-weight="900"
    font-stretch="normal"
    units-per-em="1000"
    panose-1="0 0 0 0 0 0 0 0 0 0"
    ascent="756"
    descent="-244"
    x-height="462"
    cap-height="684"
    bbox="-99 -246 1167 1147"
    underline-thickness="50"
    underline-position="-50"
    unicode-range="U+000D-1F426"
  />
<missing-glyph horiz-adv-x="668" 
d="M80 680h508v-680h-508v680zM125 45h418v590h-418v-590z" />
    <glyph glyph-name="f_f" unicode="ff" horiz-adv-x="732" 
d="M261 314v-114t1 -135q0 -33 -20 -53t-57 -20q-82 0 -82 71v120v87.5t-1 43.5h-33q-39 0 -56 17t-17 56q0 31 18 51q18 19 47 19l43 1v48q1 100 57 165q55 64 171 64q79 0 79 -76q0 -28 -14 -48q-13 -19 -35 -19h-19h-16q-27 0 -45 -25q-18 -26 -18 -60v-25v-25h166
q0 23 1.5 44t3.5 39q5 38 19 75q15 40 39 65t68 42q45 17 102 17q41 0 73 -22q23 -17 23 -58q0 -23 -15 -44t-36 -21q-12 0 -30 3q-20 3 -31 2q-20 -2 -31 -13q-13 -13 -17 -34q-5 -23 -6 -42q-1 -10 -1 -22.5v-28.5h71q64 0 64 -68q0 -43 -18 -59q-19 -17 -57 -17h-60v-90
v-160q0 -71 -78 -71q-82 0 -82 69v18v35v74v129z" />
    <glyph glyph-name="fi" unicode="fi" horiz-adv-x="615" 
d="M401 458q69 5 95 0q31 -5 51 -30q19 -25 18 -61q-1 -29 -1.5 -104t-0.5 -200q0 -33 -22 -51q-22 -17 -57 -19q-33 -1 -58 14q-24 15 -24 54v253h-41h-90v-253q0 -69 -79 -69q-81 0 -81 67v119v139h-31q-40 0 -57 17q-17 16 -18 54q-1 31 17 51q18 19 48 19h42v18
q7 258 254 258q58 0 102 -23q34 -19 33 -64q-2 -24 -18 -45q-17 -21 -42 -21q-8 0 -20 1.5l-28 3.5l-28 3.5t-20 1.5q-32 0 -54 -21q-23 -21 -24 -55v-55q50 0 82 0.5t48 1.5z" />
    <glyph glyph-name="fl" unicode="fl" horiz-adv-x="661" 
d="M265 318v-162v-44v-47q0 -34 -22 -52q-23 -18 -55 -18q-34 0 -58 15t-23 51l1 88v76v95h-32q-41 0 -57 16q-17 16 -18 54q-1 31 18 52t48 21h41v35q0 107 73 171q74 65 204 65q88 0 126 -6q37 -6 57 -20q13 -8 25 -30q12 -21 12 -40v-94t-1 -131t-1 -131v-95
q0 -9 0.5 -23t1.5 -34q1 -39 0 -57q-1 -37 -18 -55q-16 -17 -60 -22q-45 -5 -69 21q-23 25 -25 90q-4 148 0 481q-23 3 -69 3t-71 -27q-26 -28 -26 -67v-34h59q67 0 68 -67q1 -35 -15 -57q-17 -23 -48 -21h-66z" />
    <glyph glyph-name="f_f_i" unicode="ffi" horiz-adv-x="941" 
d="M720 462q25 1 46 1h38q41 0 62 -27q21 -26 19 -66q-1 -23 -1.5 -98.5t-0.5 -205.5q0 -33 -22 -51q-22 -17 -57 -19q-33 -1 -58 14q-24 15 -24 54v253h-135v-253q0 -69 -79 -69q-81 0 -81 67v257l-164 -1v-114t1 -135q0 -33 -20 -53t-57 -20q-82 0 -82 71v120v87.5
t-1 43.5h-33q-39 0 -56 17t-17 56q0 31 18 51q18 19 47 19h43v49q1 100 57 165q55 64 171 64q79 0 79 -76q0 -28 -14 -48q-13 -19 -35 -19h-19h-16q-27 0 -45 -25q-18 -26 -18 -60v-51h163v31q1 106 62 176q60 69 192 69q61 0 100 -21q33 -18 32 -66q-1 -25 -18 -46t-42 -21
q-8 0 -19.5 1.5t-25.5 3.5t-25.5 3.5t-19.5 1.5q-31 0 -54 -23q-22 -22 -22 -57v-51h78.5t56.5 1h-4z" />
    <glyph glyph-name="f_f_l" unicode="ffl" horiz-adv-x="977" 
d="M581 311v-116.5t1 -135.5q0 -70 -78 -70q-82 0 -82 67v257h-81h-81q-2 -27 0 -102q1 -38 1 -74.5v-72.5q0 -33 -20 -53t-57 -20q-82 0 -82 71v120v87.5t-1 43.5h-33q-39 0 -56 17t-17 56q0 43 26 57q25 13 81 13v46q1 99 56 163q54 63 168 63q79 0 79 -74q0 -29 -15 -48
t-37 -19h-17h-13q-27 0 -42 -20t-18 -45q-3 -26 -3 -64h162v40q0 104 73 168q74 65 204 65q48 0 80 -1.5t49 -3.5q34 -5 54 -18q13 -8 25 -30q12 -21 12 -41v-94.5t-1 -131.5t-1 -132v-96q0 -8 0.5 -21.5t1.5 -33.5q1 -39 0 -58q-1 -24 -8 -39q-18 -37 -71 -37q-43 0 -67 24
t-24 86q-4 148 0 481q-23 3 -69 3q-44 0 -69 -25t-25 -66v-37h57q65 0 68 -66q2 -32 -13 -54t-47 -22z" />
    <glyph glyph-name="f_f_j" unicode="ffj" horiz-adv-x="944" 
d="M588 315v-253q0 -69 -79 -69q-81 0 -81 67v257l-164 -1v-114t1 -135q0 -33 -20 -53t-57 -20q-82 0 -82 71v120v87.5t-1 43.5h-33q-39 0 -56 17t-17 56q0 29 17 49q16 19 47 19l43 1v49q1 100 57 165q55 64 171 64q79 0 79 -76q0 -28 -14 -48q-13 -19 -35 -19h-19h-16
q-27 0 -45 -25q-18 -26 -18 -60v-51h163v31q1 106 62 176q60 69 192 69q62 0 99 -19q34 -17 33 -66q-1 -25 -18 -46t-42 -21q-8 0 -19.5 1t-25.5 3t-25.5 3t-19.5 1q-31 0 -54 -23q-22 -22 -22 -57v-51h79t57 1q17 1 27.5 1h14.5h6q65 0 90 -31q26 -32 26 -106l-1 -368
q0 -90 -52 -142t-142 -52q-55 0 -88 18t-33 70q0 44 30 65q13 9 30 9q7 0 24 -3q15 -3 27 -1q26 2 35 24q9 24 8 72v302z" />
    <glyph glyph-name="f_j" unicode="fj" horiz-adv-x="623" 
d="M407 454q69 5 95 0q32 -6 50 -30t18 -61l-1 -412q0 -90 -52 -142t-142 -52q-55 0 -88 18t-33 70q0 44 30 65q13 9 29 9q7 0 24 -3q15 -3 27 -1q26 2 35 24q9 24 8 72v302h-139v-253q0 -69 -79 -69q-81 0 -81 67v119v139h-31q-40 0 -57 17q-17 16 -18 54q-2 47 24 59
q25 12 81 12v33q0 105 62 175q62 69 180 68q76 0 111 -20q34 -19 34 -66q0 -28 -17 -48q-16 -19 -45 -19q-7 0 -17 1.5t-24 3.5t-25 3.5t-21 1.5q-32 0 -54 -24q-23 -24 -24 -63v-43h96t42 1z" />
    <glyph glyph-name=".notdef" horiz-adv-x="668" 
d="M80 680h508v-680h-508v680zM125 45h418v590h-418v-590z" />
    <glyph glyph-name="NULL" horiz-adv-x="0" 
 />
    <glyph glyph-name="nonmarkingreturn" unicode="&#xd;" horiz-adv-x="250" 
 />
    <glyph glyph-name="space" unicode=" " horiz-adv-x="242" 
 />
    <glyph glyph-name="exclam" unicode="!" horiz-adv-x="271" 
d="M48 607q-1 37 21 58t65 21q49 0 68 -22q19 -23 18 -72q-2 -125 -18 -312q-6 -60 -69 -60q-56 0 -62 57l-11 121zM134 -11q-35 0 -60 23q-24 22 -24 59q0 36 26 64q25 27 63 27t62 -24t24 -61q0 -40 -25 -64q-26 -24 -66 -24z" />
    <glyph glyph-name="quotedbl" unicode="&#x22;" horiz-adv-x="397" 
d="M37 648q-1 31 15 52t57 21q28 0 47 -16q20 -17 20 -42q0 -11 -9 -143q-6 -58 -61 -58q-26 0 -42 13q-17 14 -18 34q-8 79 -12 141zM227 663q0 27 21 42t50 15t48 -16q19 -17 18 -42q-1 -16 -3 -51t-7 -90q-1 -25 -17 -42q-15 -16 -43 -16q-56 0 -59 44q-4 50 -6 89t-2 68
v-1z" />
    <glyph glyph-name="numbersign" unicode="#" horiz-adv-x="651" 
d="M326 135h-77l-11 -74q-10 -70 -76 -70q-35 0 -53 21t-11 57l11 67h-33q-56 0 -54 68q0 65 66 65h41l18 109h-35q-57 0 -55 69q2 31 19 48q18 18 51 18h42l15 93q10 75 75 75q30 0 49 -17q18 -16 13 -48l-16 -102h80l16 95q12 73 75 73q29 0 48 -17q18 -16 13 -48
l-16 -102h45q59 0 59 -70q0 -64 -64 -65h-60l-17 -109h46q55 0 54 -70q-1 -30 -19 -46q-17 -16 -49 -16h-53l-11 -74q-9 -70 -72 -70q-36 0 -54 21t-12 57zM269 268h78l18 109h-79z" />
    <glyph glyph-name="dollar" unicode="$" horiz-adv-x="544" 
d="M215 708q-2 29 15 44q16 15 42 15q28 0 44 -13q17 -14 17 -40v-49q64 -11 111 -33q39 -18 39 -67q0 -25 -19 -48q-20 -24 -46 -24q-18 0 -63 17q-44 15 -76 15q-29 0 -54 -17q-24 -17 -24 -41q0 -23 25 -35q24 -11 76 -22q98 -20 150 -64q53 -45 53 -133q0 -82 -46 -135
q-47 -54 -123 -72l1 -55q1 -30 -16 -43t-45 -13q-26 0 -44 12t-18 37v56q-84 7 -132 36q-49 27 -49 73q0 32 21 56t48 24q24 0 60 -14q3 -2 15 -6l10.5 -3.5t8.5 -3.5q8 -3 19 -6q6 -2 12 -3t13 -2t13.5 -1h14.5q31 0 55 18t24 43q0 45 -91 63q-101 21 -155 64
q-56 44 -56 121q0 72 48 129q47 56 123 76v48z" />
    <glyph glyph-name="percent" unicode="%" horiz-adv-x="823" 
d="M517 643q17 28 40 35q24 7 49 -6q54 -32 24 -81q-4 -7 -20.5 -33t-46.5 -72t-52 -80.5t-36 -57.5q-11 -20 -26 -45.5t-33 -55.5t-27 -45.5t-10 -16.5l-95 -158q-14 -23 -40 -27q-27 -5 -45 6q-22 10 -28 33q-6 22 8 48l171 267l167 288v1zM19 490q0 89 43 141
q44 53 118 53t118 -51q43 -50 43 -136q0 -83 -46 -130q-47 -48 -114 -48q-65 0 -113 45t-48 125zM179 578q-49 0 -49 -81q0 -74 48 -74q23 0 36 25t13 57q0 74 -47 74zM475 165q0 88 42 139t119 51q76 0 121 -50t45 -134q0 -83 -46 -130q-47 -48 -118 -48q-68 0 -115 46
q-48 46 -48 126zM637 256q-49 0 -49 -90q0 -74 46 -74q50 0 50 78q0 86 -47 86z" />
    <glyph glyph-name="ampersand" unicode="&#x26;" horiz-adv-x="677" 
d="M420 605q0 -25 -18 -46t-43 -21q-7 0 -36 8q-17 5 -36 5q-24 0 -42 -15t-18 -40q0 -5 0.5 -9.5t1.5 -9.5q1 -9 6 -18q2 -5 3.5 -8.5t3.5 -6.5q4 -8 10 -15l6 -7.5t4 -4.5l12 -12l11 -11q37 -38 78 -77t87 -80q5 8 5 12q4 53 -29 70q-53 15 -53 66q0 60 72 60h61
q8 0 18.5 0.5t22.5 1.5t21 1.5t16 0.5q67 0 67 -58q0 -46 -32 -57q-19 -7 -53 -9q25 -26 25 -82q0 -44 -23 -96l49 -34q31 -22 31 -54q0 -26 -20 -49q-19 -22 -47 -22q-39 0 -68 23l-39 31q-80 -54 -182 -54q-110 0 -186 59q-75 58 -75 158q0 112 98 174q-41 59 -41 123
q0 76 56 132t146 56q64 0 99 -22q31 -19 31 -57v-6zM294 124q37 0 60 15q-59 55 -123 123l-20 21q-28 -25 -28 -73q0 -35 33 -60q32 -25 80 -25z" />
    <glyph glyph-name="quotesingle" unicode="'" horiz-adv-x="227" 
d="M41 656q0 64 75 64q32 0 51 -16q20 -17 20 -46q0 -61 -9 -136q-5 -59 -68 -59q-29 0 -45 16q-17 16 -18 42q-5 78 -6 135z" />
    <glyph glyph-name="parenleft" unicode="(" horiz-adv-x="326" 
d="M168 681q19 27 36 39q16 12 42 12q28 0 49 -21q20 -21 22 -49q0 -15 -7 -30q-45 -79 -73 -165q-27 -84 -27 -197q0 -73 16 -141q16 -71 33 -111q8 -20 19 -44t25 -52q14 -30 14 -45q0 -27 -24 -48t-54 -21t-45 12t-35 47q-30 51 -51 95q-20 44 -41 128q-21 85 -21 174
q0 230 121 414z" />
    <glyph glyph-name="parenright" unicode=")" horiz-adv-x="327" 
d="M162 674q121 -184 121 -414q0 -89 -21 -174q-11 -43 -21 -74.5t-20 -52.5q-21 -44 -51 -95q-20 -35 -35 -47t-45 -12t-54 21t-24 48q0 15 14 45q14 28 25 52t19 44q16 40 33 111q16 68 16 141q0 113 -27 197q-28 86 -73 165q-7 15 -7 30q1 28 22 49t49 21q25 0 42 -12
q16 -12 36 -39z" />
    <glyph glyph-name="asterisk" unicode="*" horiz-adv-x="374" 
d="M64 490q-46 6 -46 51q1 22 18 36q16 13 39 7l67 -18l-2 74q-1 19 12 31t36 12q21 0 36 -12q16 -12 14 -32l-4 -74l63 24q21 7 39 -6q18 -14 18 -39q0 -40 -32 -46l-62 -15l48 -59q10 -13 10 -30t-15 -30q-14 -13 -34 -13q-15 0 -25 8q-9 7 -21 27l-35 58l-30 -55
q-18 -37 -50 -37q-18 0 -33 12t-15 28q0 20 10 33l43 58z" />
    <glyph glyph-name="plus" unicode="+" horiz-adv-x="500" 
d="M71 202q-33 0 -50 20q-17 19 -15 54q1 28 18 45t45 17h59h57v131q0 31 20 48t48 17q65 0 65 -63v-60v-75q34 0 61.5 0.5t49.5 1.5q63 0 63 -67q0 -29 -15 -48q-15 -20 -45 -21h-29h-43h-42v-47v-49v-32q0 -62 -72 -60q-29 1 -45 18q-16 16 -16 42v128h-64h-48h-2z" />
    <glyph glyph-name="comma" unicode="," horiz-adv-x="247" 
d="M26 -73q0 9 4 17t8 14q3 4 12 15q5 5 7.5 8t3.5 4q11 20 5 27l-7.5 10t-11.5 15q-13 17 -13 39q0 35 26 61q25 25 62 25q39 0 65 -25q27 -26 27 -64q0 -44 -16 -79t-35 -54q-17 -17 -47 -39q-20 -14 -44 -14q-16 0 -30 13q-15 13 -15 30z" />
    <glyph glyph-name="hyphen" unicode="-" horiz-adv-x="370" 
d="M103 166q-35 0 -53 21t-18 53q0 35 18 56t53 21h174q67 0 67 -77q0 -35 -22 -54q-23 -20 -60 -20h-81h-81h3z" />
    <glyph glyph-name="period" unicode="." horiz-adv-x="247" 
d="M118 -9q-38 0 -63 24t-25 62q0 40 27 67t68 27q39 0 65 -24t26 -64q0 -41 -27 -66q-26 -25 -70 -25z" />
    <glyph glyph-name="slash" unicode="/" horiz-adv-x="422" 
d="M255 666q18 49 67 49q28 0 54 -19q27 -20 27 -45q0 -24 -10 -48l-231 -583q-17 -48 -62 -48q-28 0 -55 18t-27 44q0 20 9 44l230 586z" />
    <glyph glyph-name="zero" unicode="0" horiz-adv-x="631" 
d="M36 317q0 170 73 270t205 100q129 0 203 -93q74 -94 74 -256q0 -163 -78 -253t-196 -90q-119 0 -198 85q-80 86 -80 237h-3zM313 535q-116 0 -116 -214q0 -81 30 -129t81 -48q55 0 87 50t32 137q0 90 -29 148q-29 57 -84 57z" />
    <glyph glyph-name="one" unicode="1" horiz-adv-x="434" 
d="M131 432q-20 -11 -45 -11q-26 0 -47 26q-21 25 -21 53q0 23 11 39t33 32q104 72 140 92q38 21 60 20q31 0 48 -11q35 -21 35 -57v-179v-189v-189q0 -30 -24 -48t-58 -18t-57 20t-23 56q0 13 0.5 42t1.5 76t1.5 86.5t0.5 71.5v64v63q-23 -20 -53 -38z" />
    <glyph glyph-name="two" unicode="2" 
d="M252 530q-38 0 -80 -42q-26 -26 -69 -26q-31 0 -52 24t-21 55q0 49 62 96q69 53 154 54q109 2 183 -58q75 -60 75 -160q0 -34 -10 -63q-11 -31 -21 -50q-11 -20 -42 -51q-16 -16 -27.5 -27t-19.5 -18q-14 -12 -61 -52l-67 -55q22 -1 56 -1t81 2l10 1h26h25q29 0 49 -24
q19 -23 19 -55q0 -40 -21 -61t-56 -19h-111q-40 0 -95 0.5t-127 1.5q-37 0 -59 24q-23 25 -23 62q0 32 12 56q11 22 41 52q5 5 22 20.5t47 41.5t52 46t36 34q70 70 84 93q13 19 13 36q0 28 -23 45t-57 17z" />
    <glyph glyph-name="three" unicode="3" horiz-adv-x="550" 
d="M340 223q0 72 -111 72h-19t-17 -1q-29 0 -47 23q-18 22 -18 54q0 36 31 64q10 10 33 30q11 10 21.5 19t19.5 17t17 15.5t16 15.5q-99 -3 -152 -3q-79 0 -79 75q0 32 18 55q18 22 57 22h49h65h100h102q33 0 51 -20t18 -50q0 -42 -30 -69l-127 -126q70 -9 119 -58
q50 -50 51 -127q1 -116 -69 -177q-71 -62 -186 -63q-90 -2 -164 39q-53 29 -53 75q0 34 21 58t49 24q27 0 69 -20q48 -23 75 -23q42 0 68 20t26 60z" />
    <glyph glyph-name="four" unicode="4" horiz-adv-x="592" 
d="M323 350q0 77 72 77q39 0 57 -15t21 -46v-94h43q31 0 49 -18t18 -51q0 -83 -64 -83h-44v-34.5t-1 -28.5q-1 -64 -77 -66q-34 -1 -55 15t-21 49v64h-219q-34 0 -57 29q-22 28 -22 63q0 56 32 106q37 64 180 324q26 47 75 47q33 0 62 -22q30 -23 30 -48q0 -18 -11 -42
q-24 -47 -69 -120q-23 -37 -37 -60t-20 -34l-54 -94l109 2l1 81z" />
    <glyph glyph-name="five" unicode="5" horiz-adv-x="559" 
d="M89 596q4 34 29 57t57 23h246q75 0 75 -77q0 -76 -79 -75l-181 3l-5 -29l-11 -70q9 6 35 12q25 6 42 6q101 0 166 -57q64 -57 64 -153q0 -108 -66 -177t-189 -69q-111 0 -182 40q-29 16 -39 33q-10 16 -10 42q0 31 22 56q23 26 55 26q22 0 48 -14q51 -25 103 -25
q37 0 62 20q24 19 24 60q0 35 -25 54q-26 20 -66 20q-23 0 -61 -13t-63 -13q-38 0 -67 25q-30 25 -25 60q4 37 18 117q7 40 11.5 70.5t7.5 52.5z" />
    <glyph glyph-name="six" unicode="6" horiz-adv-x="591" 
d="M328 534q-44 0 -75 -28q-32 -29 -38 -72q-1 -5 -1.5 -11t-0.5 -13q16 16 51 28q34 12 63 12q101 0 167 -54t66 -161q0 -109 -69 -175t-186 -66q-212 0 -252 217q-9 46 -9 114q0 159 78 261t209 102q84 0 138 -25q49 -22 49 -75q0 -32 -19 -54q-20 -23 -49 -23
q-12 0 -46 9q-46 13 -73 13zM305 314q-42 1 -66 -21q-23 -22 -25 -66q-2 -39 24 -62t63 -23q40 0 69 23q28 22 28 66q0 37 -27 60t-67 24z" />
    <glyph glyph-name="seven" unicode="7" horiz-adv-x="535" 
d="M193 530h-25.5t-31.5 -1t-29 -1h-20q-74 0 -74 81q0 35 21 53t54 18h176h176q37 0 55 -21t18 -52q0 -35 -32 -88q-137 -209 -174 -321l-38 -128q-8 -38 -26 -56t-60 -18q-87 0 -87 76q0 5 0.5 10.5t1.5 10.5q2 13 7 27q3 8 5 14.5t4 11.5t5.5 14.5t8.5 23.5l15 42
q50 138 163 306h-56h-54z" />
    <glyph glyph-name="eight" unicode="8" horiz-adv-x="595" 
d="M538 493q0 -42 -23 -82q-23 -39 -59 -53q46 -13 73 -51q26 -37 28 -87q1 -113 -69 -171t-192 -58q-115 0 -189 56q-73 55 -73 153q0 52 29 95t78 59q-30 10 -55 50q-24 39 -24 81q0 92 71 148q70 55 165 55q102 0 173 -54t71 -141h-4zM297 292q-42 1 -69 -21
q-28 -23 -26 -62q1 -33 25 -52q23 -19 63 -19q95 0 95 79q0 33 -24 54q-23 20 -63 22zM225 479q1 -28 20 -45q17 -16 52 -16q34 0 54 20t20 51q0 23 -22 41q-23 18 -54 18q-30 0 -51 -18t-21 -49z" />
    <glyph glyph-name="nine" unicode="9" horiz-adv-x="598" 
d="M269 154q45 0 80 30t35 83q-47 -38 -120 -38q-95 0 -162 56q-66 55 -66 165q0 105 75 171t187 66q133 0 195 -87q62 -88 62 -231q0 -197 -67 -286q-68 -90 -223 -90q-88 0 -154 32q-44 23 -44 75q0 30 20 56t50 26q24 0 53 -10q48 -16 78 -16zM287 370q43 -1 70 21t27 63
q0 37 -27 60q-28 23 -63 23q-38 0 -64 -22q-27 -23 -27 -64q0 -37 23 -60q22 -22 62 -24z" />
    <glyph glyph-name="colon" unicode=":" horiz-adv-x="247" 
d="M118 285q-38 0 -63 24t-25 62q0 40 27 67t68 27q39 0 65 -24t26 -64q0 -41 -27 -66q-26 -25 -70 -25zM117 -10q-38 0 -63 24t-25 62q0 40 27 67t68 27q39 0 65 -24t26 -64q0 -41 -27 -66q-26 -25 -70 -25z" />
    <glyph glyph-name="semicolon" unicode=";" horiz-adv-x="247" 
d="M26 -73q0 9 4 17t8 14q3 4 12 15q5 5 7.5 8t3.5 4q11 20 5 27l-7.5 10t-11.5 15q-13 17 -13 39q0 35 26 61q25 25 62 25q39 0 65 -25q27 -26 27 -64q0 -44 -16 -79t-35 -54q-17 -17 -47 -39q-20 -14 -44 -14q-16 0 -30 13q-15 13 -15 30zM117 281q-38 0 -63 24t-25 62
q0 40 27 67t68 27q39 0 65 -24t26 -64q0 -41 -27 -66q-26 -25 -70 -25z" />
    <glyph glyph-name="less" unicode="&#x3c;" horiz-adv-x="500" 
d="M436 396q-29 -17 -132 -69q-52 -26 -81.5 -41t-37.5 -19q8 -4 29 -13.5t55 -24.5t64 -29t56 -27q54 -26 63 -34q18 -18 18 -39q0 -24 -18 -46t-42 -22q-22 0 -46 11l-281 148q-53 26 -53 81q0 52 55 83q16 10 84 45.5t190 98.5q22 12 44 12q25 0 42 -24q17 -25 17 -51
q0 -23 -27 -39z" />
    <glyph glyph-name="equal" unicode="=" horiz-adv-x="500" 
d="M85 302q-32 0 -47 23q-15 22 -15 51t20 49q19 19 54 19h47h72h107h90q63 0 63 -73q0 -66 -61 -69h-328h-2zM84 94q-32 0 -47 23q-15 22 -15 51t20 49q19 19 54 19h47h72h107h90q63 0 63 -73q0 -66 -61 -69q-12 -1 -34.5 -1h-56.5h-147h-91z" />
    <glyph glyph-name="greater" unicode="&#x3e;" horiz-adv-x="500" 
d="M64 395q-27 16 -27 39q0 26 17 51q16 24 42 24q22 0 45 -12q122 -63 190 -98.5t84 -45.5q55 -31 55 -83q0 -55 -53 -81l-281 -148q-24 -11 -46 -11q-24 0 -42 23q-18 22 -18 47q0 21 18 39q12 10 63 35q26 13 56 27t64 29t55 24.5t29 13.5q-8 4 -37.5 19t-81.5 41
q-104 52 -132 69v-2z" />
    <glyph glyph-name="question" unicode="?" horiz-adv-x="493" 
d="M22 566q0 42 43 70q76 52 165 52q97 0 164 -59q66 -59 66 -146q0 -101 -124 -162q-43 -22 -43 -51v-14q0 -28 -20 -46t-54 -18q-38 0 -62 25t-24 69q0 67 71 108q2 1 15 8l15 9q2 2 5.5 4t8.5 5t8.5 5t5.5 4l12 9q9 7 11 10q2 2 4 4.5t4 5.5q4 6 6 12q2 8 2 12
q0 27 -19 43t-48 16q-34 0 -71 -25q-36 -24 -66 -24q-26 0 -48 25t-22 51zM129 67q0 36 26 59t66 23q38 0 64 -23q25 -22 25 -57q0 -39 -27 -60t-66 -21q-41 0 -66 21t-25 60z" />
    <glyph glyph-name="at" unicode="@" horiz-adv-x="956" 
d="M676 171q-8 -69 33 -69q36 0 54 49t18 135q0 110 -76 177t-210 67q-137 0 -231 -102q-95 -103 -95 -256q0 -115 77 -195q76 -79 206 -79q66 0 132 25q21 8 38 8q22 0 39 -21q17 -22 17 -47q0 -33 -32 -50q-80 -43 -191 -43q-175 0 -296 113q-120 112 -120 285
q0 204 132 342t335 138q183 0 296 -107t113 -252q0 -154 -59 -230q-59 -75 -162 -75q-41 0 -76 23q-34 22 -43 60q-12 -26 -49 -45q-38 -20 -75 -20q-80 0 -132 50q-51 49 -51 123q0 97 55 161q56 65 153 65q28 0 54 -13q27 -14 42 -33q2 7 9 20q15 23 55 23q31 0 48 -18
t14 -46l-8 -63zM483 288q-39 0 -60 -27t-21 -66q0 -31 18 -52t47 -21q40 0 61 27t21 69q0 29 -21 49q-20 19 -48 19z" />
    <glyph glyph-name="A" unicode="A" horiz-adv-x="669" 
d="M13 69q0 30 19 72q49 106 87 201l116 282q11 27 37 41q27 15 55 15q79 0 102 -59q40 -92 126 -306q9 -15 18 -37q26 -66 43.5 -107.5t25.5 -59.5q12 -26 12 -50q0 -26 -27 -47t-67 -21q-57 0 -75 46q-33 79 -39 102q-11 1 -45 1h-94h-89l-36 -98q-19 -49 -69 -49
q-38 0 -69 20q-30 19 -30 60zM328 476q-10 -35 -36 -112q-26 -75 -33 -99q35 0 69.5 0.5t68.5 1.5q-1 6 -30 94q-14 44 -23 73t-14 44z" />
    <glyph glyph-name="B" unicode="B" horiz-adv-x="618" 
d="M321 679q103 0 168 -56t65 -137q0 -47 -24 -83t-62 -50q52 -11 86 -49q35 -40 35 -94q0 -94 -50 -146q-49 -51 -137 -60q-53 -6 -176 -6l-86 1q-31 0 -52 21t-24 58l1 107l2 130q0 23 -0.5 58t-1.5 82t-1.5 82t-0.5 58q0 31 17 53t42 26q23 4 73 5.5t128 1.5zM230 269
l1 -134h100q39 1 63 18q24 16 24 51q0 68 -93 68zM396 474q0 28 -21 46q-22 19 -54 20h-26h-39h-26v-139h42h45q35 0 57 19t22 54z" />
    <glyph glyph-name="C" unicode="C" horiz-adv-x="611" 
d="M519 658q30 -14 45 -30q15 -17 14 -45q-2 -35 -18 -56q-17 -21 -51 -21q-19 0 -55 14q-43 17 -91 17q-66 0 -114 -57q-47 -56 -49 -148q-2 -84 51 -135q52 -50 116 -52q40 -1 97 20q37 19 57 18q32 0 50 -27q18 -28 17 -61q-2 -42 -75 -75q-72 -33 -162 -31
q-62 2 -118 25q-56 24 -103 66q-45 41 -73 107q-27 63 -25 143q1 105 53 190q51 84 128 126q76 42 159 40q89 -1 146 -26z" />
    <glyph glyph-name="D" unicode="D" horiz-adv-x="692" 
d="M63 594q0 28 12 48q12 19 35 27q25 8 44 11q21 3 50 3h45h41q156 0 263 -84t107 -235q0 -360 -383 -363q-129 0 -151 3q-23 3 -42 24q-19 20 -19 48v179l-1 339h-1zM289 531h-33t-26 -1v-359v-8q0 -2 2 -6q1 -2 3 -4t4 -3t4 -1h6h6h7h8q224 0 224 202q0 92 -58 138
t-144 46z" />
    <glyph glyph-name="E" unicode="E" 
d="M68 609q1 32 24 52q22 19 57 19q32 0 36 -1h137h86h38q30 0 48 -18q17 -17 19 -45q1 -62 -39 -75q-9 -4 -213 -4h-26v-43l-2 -89v-1h23h29t44 1t41.5 1h20.5q45 0 65 -13q21 -14 20 -58q-2 -69 -69 -69h-176q-1 -8 -1 -19.5v-28.5v-38v-38q55 -2 156 0q31 1 49.5 1.5
t24.5 0.5q63 0 63 -73q0 -72 -67 -76h-281q-58 0 -82 15t-28 55q-1 9 -1.5 16.5t-0.5 13.5v15t1 36q2 47 3 118q1 36 1.5 67.5t0.5 57.5v110v110h-1z" />
    <glyph glyph-name="F" unicode="F" horiz-adv-x="538" 
d="M66 480l-4 116q-1 34 20 59q21 24 54 24h46h155t66 1q10 1 23 1h30q25 0 42 -18q17 -19 17 -48q0 -75 -60 -78h-51h-172v-58v-91h77l117 2q28 1 46 -19q18 -21 18 -55q0 -75 -75 -75h-22.5t-34.5 1t-34.5 1h-22.5h-72v-76l1 -99q0 -73 -80 -73q-47 0 -66 18
q-20 18 -20 60v9.5t1 20.5t1 23v18v41v42v253z" />
    <glyph glyph-name="G" unicode="G" horiz-adv-x="718" 
d="M386 684q106 0 182 -43q53 -30 53 -69q0 -29 -18 -53t-47 -24q-30 0 -69 21q-47 24 -102 24q-72 0 -127 -55t-55 -139q0 -96 48 -151t128 -55q65 0 101 36q37 37 38 82h-56q-31 0 -49 19t-18 51q0 69 72 69h130q50 0 68 -27t18 -79q-2 -133 -85 -216q-84 -84 -241 -84
q-134 0 -228 99q-94 98 -94 251q0 151 104 250q103 99 248 99z" />
    <glyph glyph-name="H" unicode="H" horiz-adv-x="712" 
d="M645 64q1 -39 -21 -55t-66 -16q-39 0 -61 18q-23 18 -21 54v66l-1 122h-242l1 -195q0 -64 -89 -64q-81 0 -81 67q0 19 0.5 57.5t1.5 98.5q1 118 0 183l-4 209q-1 37 21 55t66 18q37 0 60 -15t24 -46v-218h33h33h72h74l31 1v122v92q3 65 87 65q37 0 60 -18t23 -52
q0 -67 -0.5 -135.5t-1.5 -139.5z" />
    <glyph glyph-name="I" unicode="I" horiz-adv-x="311" 
d="M73 426v105t-1 77q-1 40 24 58t63 18q34 0 57 -18t23 -49v-123t1 -108v-55v-58v-40l1 -167q1 -34 -24 -52q-26 -18 -61 -18q-37 0 -62 20q-24 20 -23 57v42v49l2 263v-1z" />
    <glyph glyph-name="J" unicode="J" horiz-adv-x="495" 
d="M254 609q-1 34 23 57q25 23 62 23q40 0 66 -20q25 -19 25 -60v-46.5t1 -64.5t1 -67v-53q0 -20 -0.5 -49.5t-1.5 -67.5q-4 -124 -63 -196t-183 -72q-90 0 -148 49q-36 31 -36 71q0 33 21 56t51 23q34 0 62 -22q26 -19 54 -19q41 0 56 45t15 134z" />
    <glyph glyph-name="K" unicode="K" horiz-adv-x="635" 
d="M425 637q36 44 74 44q32 0 59 -24t27 -51q0 -35 -33 -72q-53 -59 -138 -144q-17 -17 -24 -27q31 -40 61.5 -76.5t61.5 -71.5l64 -70q35 -38 35 -74q0 -33 -29 -57t-60 -24q-41 0 -69 37q-11 13 -36 48l-140 188l-24 -27q-8 -9 -13.5 -14.5l-7.5 -7.5l1 -153
q0 -68 -84 -69q-39 -2 -63 18q-24 19 -24 54v43v62v217v225q0 37 24 55t62 18q39 0 62 -18t23 -52v-116.5t-1 -85.5z" />
    <glyph glyph-name="L" unicode="L" horiz-adv-x="517" 
d="M60 617q1 33 27 51q25 18 63 18q77 0 79 -68q0 -2 -3 -195v-169v-105h51t30 1l124 4q36 1 52 -18t16 -52q0 -82 -72 -82l-110 1q-40 0 -70 -0.5t-51 -1.5q-75 -3 -101 13q-27 16 -34 67q-1 10 -1.5 19t-0.5 17q0 32 3 110t3 120v131v135z" />
    <glyph glyph-name="M" unicode="M" horiz-adv-x="867" 
d="M239 388q-6 -44 -21 -183q-8 -70 -11.5 -107.5t-4.5 -42.5q-11 -65 -84 -65q-37 0 -60 23q-23 22 -18 60q11 75 31.5 212t49.5 339q7 28 39 42q31 13 67 12q61 -2 87 -75l120 -357v-3l1 -2l6 15l131 352q0 1 3 7q4 8 6 11q2 2 3.5 5l3.5 7t4.5 7.5t5.5 6.5l12 12
q5 5 15 10q9 5 19 6q28 1 42 0q52 -5 65 -33q2 -7 4.5 -18t5.5 -27t6.5 -39t7.5 -53t7.5 -58.5t6.5 -55.5q6 -54 18 -156q6 -51 11 -94t10 -78q3 -36 -24 -56q-28 -20 -61 -20q-34 0 -57 17q-23 16 -27 48q-17 166 -27 330l-116 -323q-23 -53 -93 -50q-20 1 -33 6
q-12 4 -22 17q-9 12 -12 18q-2 3 -4.5 9.5t-6.5 16.5l-105 311z" />
    <glyph glyph-name="N" unicode="N" horiz-adv-x="724" 
d="M231 76q0 -41 -22 -60t-57 -19q-84 0 -87 70v89t1 133v207v118q2 32 33 50t69 18q50 0 89 -55l210 -293l27 -43v69v69l-2 167q-1 47 20 67q20 19 68 19q35 0 57 -19q23 -20 23 -55v-172v-171v-70v-129q0 -33 -30 -52q-29 -19 -69 -19q-28 0 -48 14q-20 13 -39 42
l-245 353q-2 -71 0 -180q1 -55 1.5 -92.5t0.5 -57.5v2z" />
    <glyph glyph-name="O" unicode="O" horiz-adv-x="744" 
d="M368 685q139 0 241 -96t102 -244q0 -149 -99 -252q-99 -104 -244 -104q-134 0 -234 93q-101 93 -101 243q0 161 104 263q103 102 234 100zM540 343q0 87 -52 138q-53 51 -126 51q-72 0 -117 -56t-45 -143q0 -86 48 -137t122 -51q70 0 120 59t50 138v1z" />
    <glyph glyph-name="P" unicode="P" horiz-adv-x="589" 
d="M64 380v27.5t-1 51.5t-1 51.5v27.5v22v24q0 5 0.5 10t1.5 11q1 11 5 20q21 49 74 54q7 1 43.5 1.5t103.5 2.5q112 1 186 -45q101 -65 96 -194q-1 -80 -51 -145t-129 -81q-34 -7 -111 -7h-51q-2 -26 0 -75q1 -25 1 -42v-28q0 -71 -88 -71q-41 0 -62 18t-21 50q1 64 3 159
q1 48 1 87.5v71.5v-1zM233 357h44q52 0 74 5q25 6 42 32q16 25 18 57q1 31 -14 51q-15 19 -36 27q-24 8 -63 8h-65v-22v-49v-58v-51z" />
    <glyph glyph-name="Q" unicode="Q" horiz-adv-x="765" 
d="M330 -6q-56 9 -106 33q-48 23 -91 63q-42 39 -66 102t-24 141q0 89 41 168t114 128t162 54q1 1 12 1q140 0 244 -92q103 -91 103 -239q0 -120 -45 -198q-46 -79 -112 -110v-2q2 -1 4.5 -3t7.5 -5q9 -6 11 -8q1 -1 3 -2.5l6 -4.5l6 -4.5t3 -2.5l8 -6q5 -4 9 -4q3 0 8 -3
q4 -3 9 -3h9h9q22 0 48 15q25 15 44 15q36 0 59 -21t23 -55q0 -57 -58 -91q-59 -35 -123 -33q-20 1 -45 8q-20 5 -52 26q-30 19 -42 27q-12 7 -51 39q-20 16 -30.5 24.5t-12.5 10.5q-7 5 -11.5 9t-7.5 6q-4 3 -23 10q-17 6 -39 9zM540 341q0 83 -49 135q-50 53 -123 53
q-67 0 -112 -57t-45 -137q0 -85 47 -140q46 -54 129 -54q155 15 155 202z" />
    <glyph glyph-name="R" unicode="R" horiz-adv-x="619" 
d="M62 593q0 41 28 63t72 24q34 1 63 3h35h47q114 0 186 -60t72 -167q0 -60 -30 -111t-80 -75q25 -35 114 -150q19 -23 19 -51q0 -31 -26 -52q-25 -20 -63 -22q-17 0 -30 7q-14 8 -20 15l-7.5 10t-11.5 14l-15 22.5l-37 55.5q-48 72 -75 108h-37h-37v-31.5t1 -47.5t1 -46.5
v-28.5q0 -72 -68 -77q-53 -2 -75 16t-22 65q2 195 0 425v19t-1 26t-1 26v18zM300 542h-37h-36l1 -173h61q46 0 78 21q31 21 33 63q1 43 -23 66q-25 23 -76 23h-1z" />
    <glyph glyph-name="S" unicode="S" horiz-adv-x="579" 
d="M474 651q42 -20 42 -72q0 -26 -21 -50t-49 -24q-21 0 -66 17q-41 15 -81 15q-34 0 -58 -18t-24 -43q0 -26 27 -39t80 -24q106 -21 162 -66t56 -136q0 -104 -72 -162q-72 -59 -181 -60q-114 -1 -198 38q-50 23 -50 74q0 34 21 60t50 26q26 0 65 -15q3 0 20 -7
q9 -4 15.5 -6t11.5 -4q9 -3 28 -6t37 -3q36 0 60 18t24 47q0 46 -99 66q-105 21 -166 65q-60 43 -60 125q0 93 74 158t179 65q104 0 176 -35z" />
    <glyph glyph-name="T" unicode="T" horiz-adv-x="585" 
d="M304 676h12t29 1t40.5 1.5t46.5 0.5h78q65 0 65 -69q0 -80 -65 -80l-135 1v-30q0 -179 3 -429q1 -38 -23 -58q-23 -19 -67 -19q-37 0 -58 18t-20 57l3 352q0 8 -0.5 34.5t-1.5 74.5q-17 -1 -51.5 -1h-86.5q-66 0 -66 76q0 71 70 72h27h75h128z" />
    <glyph glyph-name="U" unicode="U" horiz-adv-x="700" 
d="M63 284q1 108 1.5 187.5t0.5 133.5q0 35 22 54t60 19q48 0 68 -20t20 -66q-1 -32 -1 -107.5v-194.5q0 -70 32 -108q31 -37 90 -37q55 0 84 41q28 40 30 104q4 10 3 159q-1 75 -1.5 112t-0.5 38q0 79 86 79q44 0 63 -22q20 -23 20 -72l2 -278q-1 -139 -78 -226t-211 -87
q-131 0 -210 78t-79 216z" />
    <glyph glyph-name="V" unicode="V" horiz-adv-x="671" 
d="M37 539q-20 60 -20 69q0 35 30 56t67 21q56 0 75 -49q5 -12 13.5 -36t21.5 -61l114 -313q2 6 6 16.5t9 24.5q10 28 12 33l124 337q16 45 75 45q31 0 60 -22q30 -23 30 -54q0 -14 -19 -65q-11 -32 -29 -77t-43 -105q-2 -3 -7 -16q-2 -6 -6.5 -16.5t-11.5 -26.5t-15 -34.5
t-18 -41.5l-74 -166q-24 -62 -101 -62q-29 0 -48 12t-28 25q-5 7 -10 16.5t-12 22.5l-197 468z" />
    <glyph glyph-name="W" unicode="W" horiz-adv-x="875" 
d="M27 596q-7 38 17 64q24 25 66 25q70 0 81 -60q14 -75 29.5 -159t32.5 -178q4 13 12 42q4 14 11.5 39.5t18.5 63.5t23 78t25 83q18 60 93 60q29 0 51 -16q23 -17 32 -45l99 -302l48 286q11 61 30 83q20 23 60 23q39 0 66 -24t21 -62l-102 -513q-11 -44 -30 -65t-67 -22
q-23 0 -40 7q-18 7 -28 22q-12 17 -17 27q-3 6 -6 14t-7 18l-112 317l-113 -352q-7 -23 -33 -40t-60 -15q-52 3 -73 30q-22 28 -32 81q-70 336 -96 491v-1z" />
    <glyph glyph-name="X" unicode="X" horiz-adv-x="647" 
d="M302 204l-128 -177q-26 -35 -67 -35q-33 0 -62 23t-29 54q0 28 17 51l180 227q-2 4 -168 207q-18 24 -18 49q0 29 28 54q29 26 63 26q39 0 65 -32l138 -184l139 186q22 31 66 31q34 0 60 -25q27 -26 27 -55q0 -24 -12 -39q-11 -16 -55 -69.5t-121 -146.5l167 -205
q34 -41 34 -69q0 -30 -30 -55q-29 -25 -66 -25q-43 0 -73 43l-120 170l-17 22z" />
    <glyph glyph-name="Y" unicode="Y" horiz-adv-x="624" 
d="M203 288l-178 270q-16 25 -16 45q0 32 27 56t62 24q39 0 59 -30t58 -92t95 -156q1 1 147 240q23 38 69 38q30 0 56 -22q27 -23 27 -51q0 -27 -17 -50l-200 -303v-194q0 -32 -24 -50t-60 -18q-38 0 -60 22q-23 23 -23 57v15.5t1 23.5t1 24v17v104z" />
    <glyph glyph-name="Z" unicode="Z" horiz-adv-x="575" 
d="M104 525q-33 0 -51 20q-18 19 -18 54q0 36 19 56q19 21 55 21l207 1h73h76q38 0 60 -19t22 -54q0 -32 -33 -78l-13 -19q-11 -16 -30.5 -43t-48.5 -65t-53 -71t-44 -62t-39 -56t-36 -53q-6 -11 -6 -12h50.5t51.5 1q52 1 87 3q17 1 27.5 1.5t13.5 0.5q40 0 58 -22
q18 -23 18 -55q0 -30 -19 -52t-61 -22q-132 -1 -223 -1.5t-143 -0.5q-51 0 -70 39q-5 12 -6 31q2 29 10 49q9 20 32 53l68 92l189 260l4 4h-123h-103z" />
    <glyph glyph-name="bracketleft" unicode="[" horiz-adv-x="341" 
d="M52 652q2 35 25 54q25 20 60 20h119q66 0 66 -74q0 -70 -68 -70h-48q1 -81 0 -160v-169l-1 -290h50q34 1 51 -18q16 -19 16 -52q0 -75 -73 -75l-100 -1q-52 -1 -75 20t-23 72q0 19 3 192q2 87 2.5 144.5t-0.5 86.5q2 48 0 164q-1 58 -1.5 97t-0.5 59h-2z" />
    <glyph glyph-name="backslash" unicode="\" horiz-adv-x="422" 
d="M393 76q9 -24 9 -44q0 -26 -27 -44t-55 -18q-46 0 -62 48l-231 583q-10 24 -10 48q0 25 27 45q26 19 54 19q49 0 67 -49z" />
    <glyph glyph-name="bracketright" unicode="]" horiz-adv-x="341" 
d="M284 652q0 -20 -0.5 -59t-1.5 -97q-2 -116 0 -164q-1 -29 -0.5 -86.5t2.5 -144.5q3 -173 3 -192q0 -50 -24 -72t-76 -21l-98 1q-73 0 -73 75q0 33 16 52t51 18h50q-1 94 -1 166v124v169q-1 79 0 160h-48q-68 0 -68 70q0 74 66 74h119q37 0 60 -19t25 -54h-2z" />
    <glyph glyph-name="asciicircum" unicode="^" horiz-adv-x="500" 
d="M375 276q-17 28 -69 132q-26 52 -41 81.5t-19 37.5q-4 -8 -13.5 -29t-24.5 -55t-29 -64t-27 -56q-26 -54 -34 -63q-18 -18 -39 -18q-24 0 -46 18t-22 42q0 22 11 46l148 281q26 53 81 53q52 0 83 -55q10 -16 45.5 -84t98.5 -190q12 -23 12 -44q0 -26 -24 -42
q-25 -17 -51 -17q-23 0 -39 27z" />
    <glyph glyph-name="underscore" unicode="_" horiz-adv-x="500" 
d="M78 -151q-35 0 -53 21t-18 53q0 35 18 56t51 21h162h182q67 0 67 -76q0 -35 -21 -54q-22 -20 -59 -20h-163h-163z" />
    <glyph glyph-name="grave" unicode="`" horiz-adv-x="282" 
d="M148 533q-35 32 -59 55t-37 37q-18 19 -18 45q0 22 24 43t48 21q34 0 55 -28q5 -6 11.5 -14.5t14.5 -19.5t15.5 -21l13.5 -18q11 -15 19 -28q11 -14 11 -33q0 -20 -18 -36q-19 -17 -36 -17q-26 0 -44 15v-1z" />
    <glyph glyph-name="a" unicode="a" horiz-adv-x="581" 
d="M523 165q0 -51 3 -102q0 -68 -84 -68q-52 0 -70 61q-39 -64 -120 -64q-102 0 -163 64t-61 163q0 113 67 180q68 68 171 68q74 0 112 -53q5 16 12 26q18 25 60 25q76 0 76 -71l-1 -77zM194 222q0 -39 23 -67q22 -27 57 -27q38 0 65 27t27 74q0 46 -25 71q-26 26 -61 26
q-39 0 -63 -27t-24 -76z" />
    <glyph glyph-name="b" unicode="b" horiz-adv-x="590" 
d="M53 650q1 76 78 76q39 0 63 -15t23 -55q-3 -230 -3 -244q36 56 123 56q97 0 160 -67q63 -68 63 -165q0 -104 -66 -174t-171 -70q-38 0 -72 18q-35 18 -51 48l-3 -13q-12 -51 -78 -48t-64 84l3 169l-2 402zM393 233q0 43 -25 68q-26 26 -60 26q-41 0 -67 -25
q-27 -26 -27 -75q0 -43 26 -72q25 -28 60 -28q37 0 65 31q29 32 29 76z" />
    <glyph glyph-name="c" unicode="c" horiz-adv-x="455" 
d="M398 437q28 -21 28 -55q0 -29 -18 -53t-47 -24q-12 0 -47 11q-15 7 -39 7q-35 0 -60 -31t-25 -69q0 -39 27 -64q26 -25 64 -25q22 0 53 16q24 12 42 12q27 0 45 -25q18 -26 18 -57q0 -35 -30 -54q-55 -38 -139 -38q-115 0 -178 69t-63 154q0 102 71 181q70 78 179 78
q72 0 121 -31z" />
    <glyph glyph-name="d" unicode="d" horiz-adv-x="586" 
d="M534 448v-111v-114q0 -5 0.5 -45t1.5 -118q0 -33 -21 -49q-20 -16 -57 -16q-55 0 -69 41l-7 23q-43 -67 -125 -67q-106 0 -166 66t-60 160q0 105 68 178q67 72 173 72q63 0 97 -40v219q0 40 21 61t59 21q42 0 65 -18q22 -18 21 -58zM198 220q0 -39 25 -65q25 -27 61 -27
q40 0 66 27q26 28 26 71q0 49 -25 74q-26 26 -63 26q-41 0 -66 -27q-25 -26 -25 -77z" />
    <glyph glyph-name="e" unicode="e" horiz-adv-x="515" 
d="M199 187q4 -27 29 -42q24 -15 51 -15q40 0 72 18q26 14 51 14q26 0 46 -23q19 -22 19 -54q0 -38 -37 -60q-59 -35 -162 -35q-99 0 -168 66t-69 161q0 109 69 180t171 71q93 0 153 -57t60 -132q0 -48 -16 -67q-17 -20 -64 -21h-33h-31t-42 -1t-49.5 -1h-52.5zM271 340
q-29 0 -50 -18t-23 -41q4 0 124 3q12 0 12 5q0 22 -18 37t-44 15z" />
    <glyph glyph-name="f" unicode="f" horiz-adv-x="403" 
d="M266 315v-162v-44v-47q0 -34 -22 -52q-23 -18 -55 -18q-34 0 -58 15t-23 51l1 88v76v95h-33q-40 0 -55 16q-14 16 -16 54q-2 33 15 53t48 20h42v23v24q3 102 57 165t175 63q44 0 74 -24q19 -15 19 -56q0 -23 -15 -42q-15 -20 -34 -20q-5 0 -12.5 0.5t-17.5 1.5
q-20 1 -33 0q-25 -1 -40 -24q-14 -22 -16 -58q-1 0 -1 -25l1 -26h63q38 0 53 -17q16 -17 17 -50q2 -77 -66 -77z" />
    <glyph glyph-name="g" unicode="g" horiz-adv-x="578" 
d="M262 -80q34 0 66 23q31 22 31 56v39q-15 -20 -43 -33q-27 -13 -60 -13q-101 0 -164 68q-63 67 -63 165q0 103 65 174t165 71q70 0 109 -53l2 7q4 19 26 31q21 12 51 12q34 0 56 -20q21 -20 21 -51v-62.5t-1 -83.5t-1 -83.5v-63.5l2 -108q1 -94 -72 -163q-74 -69 -183 -69
q-97 0 -147 28q-45 24 -45 72q0 32 21 56t50 24q9 0 45 -11q44 -14 70 -14zM191 231q0 -42 24 -67t62 -25q34 0 60 24q25 24 25 72q0 47 -24 71t-57 24q-39 0 -63 -27t-24 -73z" />
    <glyph glyph-name="h" unicode="h" horiz-adv-x="570" 
d="M54 644q0 80 85 80q39 0 59 -19q21 -20 21 -54q0 -5 -3 -242q15 25 48 40t66 15q91 0 138 -57q47 -58 47 -151v-127.5t-1 -71.5q-2 -32 -25 -48q-25 -17 -63 -17q-34 0 -58 18t-22 51q0 10 3 91t3 95q0 38 -16 57q-17 20 -46 20q-28 0 -49 -22q-21 -23 -21 -61v-93v-92
q0 -32 -24 -48q-23 -16 -62 -16q-35 0 -57 18q-23 18 -23 52q0 7 0.5 22.5t1.5 40.5t1.5 41.5t0.5 24.5v459z" />
    <glyph glyph-name="i" unicode="i" horiz-adv-x="279" 
d="M57 400q2 35 25 51q25 17 55 17q83 0 85 -66v-110v-110l1 -115q2 -35 -23 -53q-24 -18 -60 -18q-35 0 -59 15t-24 45v344zM134 547q-44 0 -69 31q-26 31 -18 75q6 34 36 54q29 19 61 19q44 0 68 -26t24 -63q0 -43 -29 -66q-28 -22 -72 -22z" />
    <glyph glyph-name="j" unicode="j" horiz-adv-x="282" 
d="M59 406q0 28 26 45t60 17t57 -15t23 -47v-110v-117v-76v-94v-41.5t-1 -37.5q-2 -68 -60 -117q-59 -50 -138 -51q-123 -2 -123 87q0 32 17 54q16 21 41 21q8 0 26 -3q20 -3 29 -2q25 1 36 24q10 21 10 71q0 60 -0.5 119.5t-1.5 120.5q-2 43 -2.5 81t0.5 71h1zM130 542
q-43 0 -68 24q-26 24 -26 68t30 68t72 24q46 0 73 -27t27 -67q0 -91 -106 -91z" />
    <glyph glyph-name="k" unicode="k" horiz-adv-x="506" 
d="M469 113q18 -23 18 -45q0 -27 -27 -51t-58 -24q-32 0 -60 37l-105 137l-25 -23l-1 -82q-2 -68 -78 -68q-37 0 -60 20q-23 19 -21 54l2 96v76t-1 125q-2 148 0 237v29v29q0 31 26 49q25 18 57 18q38 0 60 -16q23 -17 23 -48q0 -20 -1.5 -107.5t-3.5 -244.5l122 125
q31 31 63 31q28 0 53 -25q26 -26 26 -51t-20 -45q-5 -5 -105 -96z" />
    <glyph glyph-name="l" unicode="l" horiz-adv-x="284" 
d="M62 646q1 36 25 55q23 19 61 19q40 0 63 -18q22 -18 21 -55q-3 -155 -3 -462q0 -9 0.5 -23t1.5 -34q1 -39 0 -57q-1 -37 -18 -55q-16 -17 -60 -22q-45 -5 -69 21q-23 25 -25 90q-5 150 0 543z" />
    <glyph glyph-name="m" unicode="m" horiz-adv-x="831" 
d="M53 243q1 26 1 44v29v43v33q0 71 85 71q27 0 44 -13q19 -14 23 -33l4 -18q13 25 48 45t69 20q91 0 135 -72q22 31 60 51q37 19 74 21q92 2 137 -50q45 -51 45 -142l1 -112q0 -35 -0.5 -63t-1.5 -48q-3 -59 -82 -59q-38 0 -60 18t-22 47q0 13 0.5 35.5t1.5 54.5t1.5 59
t0.5 49q0 75 -51 75q-26 0 -44 -18t-18 -45q-1 -20 -1 -48.5v-65.5v-56t-1 -40q-1 -31 -25 -46q-25 -15 -59 -14q-36 1 -57 18q-21 16 -21 48q0 14 0.5 35.5t1.5 50.5q2 57 0 110q0 30 -15 54t-41 24q-69 0 -67 -104v-170q0 -32 -24 -48q-23 -16 -61 -16q-34 0 -57 17
t-23 54v36t1 27l1 120z" />
    <glyph glyph-name="n" unicode="n" horiz-adv-x="571" 
d="M57 379q-2 84 82 84q64 0 73 -51l3 -18q13 31 51 51t76 20q86 0 132 -52q47 -53 47 -150v-59v-62v-79q0 -69 -88 -69q-34 0 -57 17q-22 16 -22 51v30t1 47t1 48v33q0 50 -12 79t-46 30q-48 1 -64 -30t-16 -103l1 -137q0 -34 -24 -49t-55 -15q-41 0 -63 15t-22 54
q0 16 0.5 46.5t1.5 76.5q1 91 0 142v50z" />
    <glyph glyph-name="o" unicode="o" 
d="M295 470q23 0 38 -4q93 -17 141 -82q48 -66 48 -151q0 -105 -71 -173t-180 -68q-101 0 -171 64t-70 163q0 113 70 180q71 68 195 71zM361 237q0 33 -23 64q-23 30 -57 29q-43 -2 -65 -30q-23 -29 -23 -79q0 -36 23 -64q22 -27 54 -27q39 0 65 30q26 31 26 77z" />
    <glyph glyph-name="p" unicode="p" horiz-adv-x="588" 
d="M53 402q1 69 82 69q53 0 67 -45l5 -20q19 31 55 49t77 18q100 0 159 -66q59 -67 59 -171q0 -105 -66 -174t-173 -69q-67 0 -102 41v-27v-31v-17.5t1 -33.5t1 -38.5v-31.5q0 -41 -22 -60t-70 -19q-72 0 -72 74l2 386l-1 164zM392 237q0 42 -26 68t-60 26q-37 0 -64 -27
t-27 -70q0 -103 90 -103q39 0 63 30t24 78v-2z" />
    <glyph glyph-name="q" unicode="q" horiz-adv-x="583" 
d="M523 62v-47.5t1 -66.5t1 -66.5v-47.5q-3 -64 -83 -64q-41 0 -63 18q-23 18 -21 54q1 67 1.5 116.5t0.5 81.5q-16 -22 -42 -35q-28 -14 -59 -14q-105 0 -168 66t-63 164q0 110 69 179t177 69q28 0 57 -15q30 -16 47 -37l9 19q16 33 68 33q31 0 52 -18t21 -46
q-1 -25 -1.5 -58.5t-0.5 -76.5l-2 -211zM192 222q0 -38 25 -64q25 -27 60 -27q37 0 63 29q25 28 25 72q0 45 -24 71t-58 26q-41 0 -66 -28t-25 -78v-1z" />
    <glyph glyph-name="r" unicode="r" horiz-adv-x="388" 
d="M54 393q0 36 21 54t59 18q48 0 60 -42l7 -25q14 30 46 51q33 21 66 21q69 0 69 -75q0 -32 -16 -55q-17 -24 -46 -24h-13q-92 0 -92 -127q0 -5 0.5 -20t1.5 -39q1 -48 0 -70q-1 -32 -24 -49q-22 -16 -59 -16q-80 0 -80 75v50t1 70t1 68v45v90h-2z" />
    <glyph glyph-name="s" unicode="s" horiz-adv-x="458" 
d="M232 469q86 0 136 -21q39 -17 39 -53q0 -69 -61 -69q-18 0 -54 10t-54 10q-54 0 -54 -28q0 -3 2 -7q1 -3 6 -6q3 -2 7 -4q3 -2 10 -3q10 -2 12 -2h5.5t8.5 -1q10 -2 14 -3q86 -12 131 -45t45 -98q0 -75 -53 -117t-153 -42q-78 0 -129 22q-53 23 -53 55q0 75 62 75
q25 0 66 -12q40 -12 73 -12q41 0 41 27q0 14 -15 20q-8 3 -22.5 6t-36.5 7q-165 24 -165 132q0 70 58 115t138 45z" />
    <glyph glyph-name="t" unicode="t" horiz-adv-x="395" 
d="M60 318q-58 0 -58 70q0 28 18 48q18 19 45 19h31l2 53q3 86 89 86q32 0 49 -16q18 -17 18 -45q0 -4 -0.5 -22.5t-1.5 -52.5h57q32 2 48 -16q17 -19 17 -52q0 -28 -14 -48t-39 -20h-69v-130q0 -54 33 -54q10 0 21 3q10 3 18 3q26 0 41 -19q15 -20 15 -45q0 -49 -27 -67
q-29 -20 -96 -20q-73 0 -118 46t-45 141v24.5t1 41.5q2 50 0 77h-34z" />
    <glyph glyph-name="u" unicode="u" horiz-adv-x="576" 
d="M143 462q37 0 55 -19q18 -20 18 -64v-147q0 -48 12 -75t49 -27q74 0 74 122v134q0 37 24 57q23 19 62 19q38 0 59 -18t21 -54v-141.5t1 -77.5v-27.5t1 -27.5t1.5 -24.5t0.5 -18.5v-21q0 -28 -24 -43t-57 -15q-59 0 -69 45q-5 19 -6 27q-48 -75 -128 -75q-93 0 -138 58
t-45 157v92v90q0 76 90 76z" />
    <glyph glyph-name="v" unicode="v" horiz-adv-x="518" 
d="M49 310q-3 4 -9 18q-3 7 -5 11.5t-3 6.5t-2 5t-3 8t-2.5 8.5t-1.5 5.5q-2 4 -3 12q-1 5 -1 13q1 31 30 51q28 19 60 19q29 0 44 -12q16 -13 26 -40q1 -2 9.5 -25l25.5 -69q33 -92 48 -129q4 10 23.5 65t54.5 158q17 50 69 50q31 0 60 -18q28 -18 30 -45q1 -29 -9 -54
l-135 -295q-29 -59 -96 -59t-94 62l-116 255v-2z" />
    <glyph glyph-name="w" unicode="w" horiz-adv-x="758" 
d="M20 391q-1 3 -1 6q0 29 30 49q29 19 64 19q55 0 69 -51q1 -5 9 -42q4 -19 8.5 -40t9.5 -45t10 -43.5t10 -34.5q7 19 30 93q22 73 36 108q19 46 81 46q60 0 84 -57l66 -190l29 124q7 43 21 84q16 43 70 43q32 0 60 -19q28 -20 30 -48q0 -12 -4 -27q-38 -128 -66 -204
l-35 -100q-10 -34 -32 -51t-66 -17q-66 0 -86 53q-5 11 -10.5 26t-11.5 33t-12.5 38.5t-14.5 43.5q-15 46 -21 66l-64 -173q-15 -45 -36 -66t-64 -21q-31 0 -51 11q-19 10 -27 23t-17 38q-90 297 -96 322z" />
    <glyph glyph-name="x" unicode="x" horiz-adv-x="499" 
d="M120 194l31 35l-13 15q-5 5 -16 17t-28 31q-35 37 -51 57q-16 19 -16 45t26 47q26 22 53 23q38 2 60 -28l81 -102q4 5 8 10.5t9 11.5t11.5 14t14.5 19t16.5 21t16.5 20q25 34 62 34q32 0 58 -22q27 -23 27 -54q0 -10 -3 -19q-3 -10 -12 -20q-9 -11 -15 -18q-3 -4 -8 -9
l-13 -13t-13 -13.5t-9 -9.5l-54 -59l94 -96q20 -20 27 -31t7 -33q0 -25 -25 -49q-26 -24 -57 -24q-37 0 -68 40l-71 88l-74 -96q-24 -33 -61 -33q-32 0 -59 24t-27 52q0 29 18 49z" />
    <glyph glyph-name="y" unicode="y" horiz-adv-x="525" 
d="M261 190l7.5 17.5t9.5 24.5t12.5 33.5t16.5 44.5t18 49.5t18 48.5q21 56 67 56q34 0 62 -19q29 -20 29 -45q0 -28 -17 -65q-11 -23 -27 -57.5t-37 -81.5t-40.5 -89.5t-38.5 -82.5t-37 -77.5t-36 -72.5q-54 -100 -158 -100q-98 0 -98 79q0 34 20 54t54 20q25 0 39 13
q16 15 29 43l15 30l12 24l-16 31l-129 268q-18 36 -18 64q0 29 28 48q29 20 58 20q25 0 41 -8q14 -7 25 -30l28 -70l28 -70q27 -71 39 -99z" />
    <glyph glyph-name="z" unicode="z" horiz-adv-x="465" 
d="M205 320h-19.5t-32.5 -1q-39 -2 -60 0q-65 2 -65 75q0 28 17 48q16 19 51 19h98h92h11.5t30.5 1q40 1 42 0q38 -3 50 -30q7 -15 8 -39q-5 -47 -42 -90q-11 -14 -29 -32.5t-42 -42.5l-41 -41t-27 -28l-17 -20l70 1q5 0 14 0.5t23 1.5t22.5 1.5t13.5 0.5q31 0 49 -19
q18 -20 18 -52q0 -74 -76 -75h-16.5t-29.5 1t-31.5 1h-23.5h-20.5t-37.5 -1t-45 -1h-42q-86 0 -86 74q0 41 44 93l154 158h-19z" />
    <glyph glyph-name="braceleft" unicode="{" horiz-adv-x="316" 
d="M-2 266q0 35 32 65q7 7 24 18q16 10 26 20q9 9 9 23q0 34 -15 87q-14 50 -16 90q0 69 54 114t129 45q31 0 48 -18q17 -19 17 -48q0 -27 -14 -49q-14 -21 -36 -21q-20 0 -33 -15q-13 -14 -13 -35q0 -30 17 -81q17 -50 18 -82q0 -76 -86 -108q47 -23 68 -46q23 -25 23 -60
q0 -33 -18 -93t-18 -95q0 -20 11 -33q10 -12 27 -12q21 0 36 -18t15 -45q0 -30 -18 -49t-49 -19q-85 0 -133 50q-48 49 -48 120q0 30 17 90q17 59 18 91q0 10 -9 19q-10 10 -25 21t-24 20q-32 20 -32 62z" />
    <glyph glyph-name="bar" unicode="|" horiz-adv-x="295" 
d="M67 661q2 36 23 53q22 17 53 17q76 0 81 -65v-134v-218v-134l1 -304q2 -35 -21 -53t-57 -18t-57 17q-22 16 -22 48v319v474z" />
    <glyph glyph-name="braceright" unicode="}" horiz-adv-x="318" 
d="M315 277q0 -42 -32 -62q-6 -6 -24 -19q-15 -11 -25 -21q-9 -9 -9 -19q1 -32 18 -91q17 -60 17 -90q0 -71 -48 -120q-48 -50 -133 -50q-31 0 -49 19t-18 49q0 28 15 46t37 18q16 0 27 12q11 13 11 33q0 35 -18 95t-18 93q0 35 23 60q21 23 68 46q-86 32 -86 108
q2 34 18 83q17 51 17 81q0 21 -13 35q-14 15 -33 15q-23 0 -36 21q-14 22 -14 49q0 30 17 49q16 18 48 18q75 0 129 -45t54 -114q-2 -40 -16 -90q-15 -53 -15 -87q0 -13 9 -22q9 -10 26 -20q16 -11 24 -18q32 -30 32 -65z" />
    <glyph glyph-name="asciitilde" unicode="~" horiz-adv-x="500" 
d="M150 205q-21 -36 -65 -36q-28 0 -46 21q-18 22 -17 54q1 45 42 84q40 38 90 40q38 0 69 -16q33 -17 53 -33t32 -16q28 0 41 28q16 31 63 31q26 0 46 -21q19 -20 19 -48q0 -48 -39 -87t-94 -39q-28 0 -57 17q-14 8 -27.5 16.5t-25.5 16.5q-25 17 -39 17q-29 0 -45 -27v-2z
" />
    <glyph glyph-name="uni00A0" unicode="&#xa0;" horiz-adv-x="242" 
 />
    <glyph glyph-name="exclamdown" unicode="&#xa1;" horiz-adv-x="278" 
d="M73 178q6 57 62 57q63 0 69 -60q16 -188 18 -312q1 -50 -18 -72t-68 -22q-43 0 -65 21t-21 58l13 211zM135 464q40 0 66 -24q25 -24 25 -64q0 -37 -24 -61t-62 -24t-63 27q-26 28 -26 64t24 59q25 23 60 23z" />
    <glyph glyph-name="cent" unicode="&#xa2;" horiz-adv-x="493" 
d="M414 538q29 -18 29 -55q0 -29 -18 -53t-48 -24q-12 0 -47 11q-15 7 -41 7q-37 0 -61 -30t-24 -71t27 -66q26 -25 65 -25q25 0 54 17q24 12 43 12q27 0 45 -25q18 -26 18 -57q0 -35 -30 -54q-36 -26 -85 -33v-55q1 -32 -18 -45t-43 -13t-43 12t-19 40v65q-86 20 -131 83
t-45 135q0 85 48 156q48 70 126 94v69q-1 31 17 46t41 15q25 0 45 -12t20 -40l-1 -70q44 -6 78 -28z" />
    <glyph glyph-name="sterling" unicode="&#xa3;" horiz-adv-x="551" 
d="M101 260q-29 0 -45 19t-16 51q0 29 17 49q16 19 48 19h15q-2 14 -3.5 28t-1.5 28q-3 101 58 163q61 63 153 63q72 0 113 -28q34 -24 34 -65q0 -24 -15 -48t-34 -28q-15 -4 -40 2q-24 6 -36 6q-62 0 -62 -83q0 -5 1 -14t3 -23h40h39q63 0 63 -66q0 -39 -18 -55
q-18 -17 -61 -18h-37q12 -59 -10 -109q46 -15 68 -15q24 0 36 15q19 25 59 25q28 0 51 -21q22 -21 22 -51q-1 -56 -36 -88q-34 -31 -91 -31q-38 0 -126 17q-86 16 -93 18q-33 0 -47 -14l-4 -4q-3 -3 -3 -4t-3 -4t-4 -3t-5 -2t-6 -2q-4 0 -7 -1t-9 -1h-10h-12q-34 0 -56 22
q-23 23 -23 57q0 41 24 74q24 34 60 38q6 1 27 0l16.5 -1.5t6.5 -0.5q19 37 9 91h-45z" />
    <glyph glyph-name="currency" unicode="&#xa4;" horiz-adv-x="594" 
d="M306 527q34 1 84 -24l38 48q27 32 63 32q29 0 53 -24t24 -55v-13q0 -4 -2 -12l-3 -9l-6 -9q-3 -4 -6 -7l-8 -8l-10 -10l-42 -45q16 -45 16 -72q0 -37 -21 -86l43 -43q18 -18 24 -31q6 -14 6 -36q0 -27 -25 -51q-26 -24 -57 -24q-34 0 -64 38l-37 41q-50 -22 -87 -22
q-41 0 -81 18l-40 -45q-26 -33 -58 -33t-58 23q-25 22 -25 53q0 33 16 50l61 60q-19 39 -19 79q0 36 17 81l-52 50q-30 25 -30 63q0 37 22 56t54 21q37 1 63 -30l49 -55q43 25 102 27zM364 323q0 30 -19 50q-20 21 -48 20q-72 -2 -72 -81q0 -32 19 -50q19 -17 49 -19
q33 -2 51 21q18 22 18 60z" />
    <glyph glyph-name="yen" unicode="&#xa5;" horiz-adv-x="606" 
d="M159 209q-48 0 -48 55q0 23 13 36q14 14 34 14h41l-171 242q-16 20 -16 46q0 29 25 54q26 26 57 26q50 0 72 -37l137 -226l138 225q24 39 66 39q29 0 57 -23q27 -23 27 -50q0 -28 -23 -60q-59 -82 -100 -141t-66 -96h33q52 0 52 -51q0 -24 -13 -38q-14 -15 -36 -15h-55
v-22h50q53 0 53 -52q0 -49 -46 -49h-56v-20q0 -33 -24 -51t-60 -18q-41 0 -63 21t-22 56v14h-54q-54 0 -54 54q0 46 52 46h58v21h-34h-24v0z" />
    <glyph glyph-name="brokenbar" unicode="&#xa6;" horiz-adv-x="298" 
d="M70 150q2 36 23 53q22 17 53 17q76 0 80 -67v-133v-23.5t1 -39.5t1 -44.5v-37.5q1 -35 -21 -54t-57 -19t-57 18t-22 49l2 146l-1 136zM64 537l-1 125q2 35 25 53q24 18 57 18q78 0 78 -71l-1 -119v-159q2 -35 -22 -53t-58 -18q-32 0 -54 20q-21 19 -21 51z" />
    <glyph glyph-name="section" unicode="&#xa7;" horiz-adv-x="505" 
d="M28 288q-2 63 60 122q-34 28 -36 92q-2 77 62 137q63 60 145 60q85 0 140 -28q37 -18 39 -57q1 -26 -15 -48q-17 -23 -42 -24q-19 -1 -59 11q-39 12 -62 12q-22 0 -42 -14t-18 -38q0 -11 8 -21q7 -8 29 -16q21 -8 27 -9q6 -2 30 -6q84 -18 129 -54t48 -118
q2 -75 -54 -134q19 -37 19 -72q0 -91 -56 -147q-55 -55 -144 -55q-66 0 -129 24q-58 22 -58 69q0 30 18 54t44 24q19 0 45 -9q44 -14 76 -14q29 0 47 8q17 8 17 33q0 20 -20 29q-21 10 -65 20l-12 3q-80 19 -123 59q-41 39 -43 110zM235 338l-24.5 7t-18.5 5
q-22 -23 -22 -46q0 -41 56 -56l85 -22q13 33 9 54q-10 43 -84 58h-1z" />
    <glyph glyph-name="dieresis" unicode="&#xa8;" horiz-adv-x="403" 
d="M111 534q-31 0 -52 21t-21 51q0 33 22 54t55 21q30 0 51 -21t21 -52q0 -33 -21 -54t-56 -21zM291 536q-31 0 -52 21t-21 51q0 31 21 54q21 22 54 22q32 0 53 -21t21 -52q0 -33 -21 -54t-56 -21h1z" />
    <glyph glyph-name="copyright" unicode="&#xa9;" horiz-adv-x="762" 
d="M383 685q141 0 239 -97q99 -98 99 -244q0 -148 -99 -253t-244 -105q-63 0 -123 24t-108 66t-78 107q-30 64 -30 141q0 109 52 194q53 86 130 129q78 43 162 42v-4zM613 339q-1 109 -65 177q-63 68 -173 68q-96 0 -161 -74t-65 -180q0 -110 64 -174q65 -65 171 -65
q103 0 168 74t63 176zM484 485q22 -16 22 -37q0 -51 -44 -51q-13 0 -37 10q-15 7 -30 7q-32 0 -51 -25q-20 -26 -20 -60t23 -55q22 -21 53 -21q9 0 42 14q18 9 30 9q20 0 32 -15t12 -36q0 -26 -24 -41q-44 -30 -99 -30q-81 0 -128 53t-47 117q0 77 49 132q50 56 126 56
q50 0 91 -26v-1z" />
    <glyph glyph-name="ordfeminine" unicode="&#xaa;" horiz-adv-x="406" 
d="M375 449q0 -12 0.5 -30t1.5 -42q0 -49 -61 -49q-26 0 -39 18q-7 13 -9 20q-25 -40 -84 -40q-74 0 -117 45q-43 44 -43 115q0 81 48 129t122 48q51 0 78 -35q4 10 7 14q14 20 43 20q56 0 56 -52q-1 -16 -1 -55.5v-104.5zM142 492q0 -29 15 -47t41 -18t44 18t18 50
q0 29 -17 48q-17 18 -41 18q-27 0 -43 -18q-16 -17 -16 -51h-1z" />
    <glyph glyph-name="guillemotleft" unicode="&#xab;" horiz-adv-x="573" 
d="M180 233l91 -105q17 -20 17 -43q0 -16 -16 -32q-17 -17 -33 -18q-24 -1 -40 12l-138 123q-29 29 -29 63q0 33 25 58q67 67 135 126q16 12 39 12q19 0 39 -17q19 -16 19 -36q0 -17 -15 -33zM431 233l91 -105q17 -20 17 -43q0 -16 -16 -32q-17 -17 -33 -18q-24 -1 -40 12
l-138 123q-29 29 -29 63q0 33 25 58q67 67 135 126q16 12 39 12q19 0 39 -17q19 -16 19 -36q0 -17 -15 -33z" />
    <glyph glyph-name="logicalnot" unicode="&#xac;" horiz-adv-x="500" 
d="M90 194q-30 0 -47 20t-17 53q0 70 79 70h302q29 0 46 -21q16 -20 16 -52v-24v-56v-81q0 -33 -21 -49q-21 -17 -53 -15q-32 1 -51 18q-19 16 -19 45v95h-55.5t-77.5 -1t-70 -1h-32v-1z" />
    <glyph glyph-name="uni00AD" unicode="&#xad;" horiz-adv-x="370" 
d="M103 166q-35 0 -53 21t-18 53q0 35 18 56t53 21h174q67 0 67 -77q0 -35 -22 -54q-23 -20 -60 -20h-81h-81h3z" />
    <glyph glyph-name="registered" unicode="&#xae;" horiz-adv-x="765" 
d="M382 690q137 -1 240 -98q102 -96 102 -244q0 -152 -99 -255q-99 -104 -245 -104q-134 0 -237 94t-103 244q0 82 30 153t78 116q49 46 110 71q62 26 125 24zM616 343q-2 109 -66 177q-65 68 -177 68q-100 0 -162 -71t-62 -183q0 -109 65 -176q64 -66 171 -66q103 0 168 75
q64 75 63 177v-1zM255 480q0 23 15 35q16 13 38 14h3h6h12h24h37q55 0 93 -33t38 -90q0 -62 -52 -98l53 -67q11 -14 11 -31q0 -18 -14 -30q-13 -11 -35 -13q-22 0 -42 26l-60 92h-33q0 -17 0.5 -36t1.5 -39q0 -44 -42 -45q-29 -2 -42 9q-13 10 -13 36l-1 47v84v86v50z
M350 445v-39v-39h26q46 0 48 36q1 19 -9 30q-11 11 -28 11z" />
    <glyph glyph-name="macron" unicode="&#xaf;" horiz-adv-x="392" 
d="M107 548q-35 0 -51 18q-16 17 -16 44t17 46q16 18 48 18h35h38h22.5t30.5 1t32 1h27q62 0 62 -63q0 -28 -20 -45q-19 -16 -57 -16h-83h-43h-42v-4z" />
    <glyph glyph-name="degree" unicode="&#xb0;" horiz-adv-x="291" 
d="M147 681q56 0 89 -36t33 -85q0 -52 -35 -87q-34 -34 -90 -34q-51 0 -88 33t-37 83q0 57 36 93t94 36zM189 558q0 20 -13 33q-14 14 -33 14t-33 -14q-13 -13 -13 -36q0 -20 14 -32q13 -12 33 -12q19 0 33 14q13 13 13 36z" />
    <glyph glyph-name="plusminus" unicode="&#xb1;" horiz-adv-x="500" 
d="M91 306q-33 0 -49 21q-17 21 -15 56q1 28 18 45t45 17h94v90q0 31 20 48t50 17q32 0 49 -16q18 -17 18 -46l1 -94l93 2q61 0 61 -69q0 -29 -15 -48t-44 -21h-23h-38h-36v-34v-33v-21q0 -62 -74 -60q-29 1 -46 18q-16 16 -16 42l1 89h-24.5t-30.5 -1t-26.5 -1h-12.5v-1z
M82 1q-31 0 -46 21t-15 50t20 49q19 19 54 19h45h70h188q63 0 63 -71q0 -65 -61 -68q-23 -1 -46 -1h-48h-57t-71 1t-62.5 1h-31.5z" />
    <glyph glyph-name="twosuperior" unicode="&#xb2;" horiz-adv-x="327" 
d="M152 650q-19 0 -36 -20q-15 -17 -46 -17q-19 0 -34 16t-15 37q0 31 42 63q43 28 85 28q64 1 108 -33q43 -34 43 -93q0 -23 -6 -41q-6 -17 -27 -40t-30 -30q-9 -8 -45 -36l-10 -7h45h24h9q48 0 48 -54q0 -55 -53 -55h-18h-25h-14h-124q-23 0 -39 16t-16 42q0 39 34 70
l77 71q2 2 5 4.5t7 5.5q40 37 42 48q0 10 -9 18q-8 7 -21 7h-1z" />
    <glyph glyph-name="threesuperior" unicode="&#xb3;" horiz-adv-x="326" 
d="M186 497q0 27 -50 27h-21q-19 0 -30 14t-11 35q0 18 23 41q23 24 42 37h-30h-30q-54 0 -54 51q0 23 12 38t37 15h65h112q20 0 32 -15t12 -34q0 -28 -16 -41l-13 -13l-22 -22q-7 -7 -13.5 -13t-12.5 -12q34 -7 58 -34q23 -26 25 -70q1 -66 -42 -100t-108 -34q-54 0 -91 19
q-34 18 -34 52q0 22 15 39t32 17q15 0 44 -12q18 -8 30 -8q40 0 40 25z" />
    <glyph glyph-name="acute" unicode="&#xb4;" horiz-adv-x="281" 
d="M128 528q-20 -14 -42 -14q-16 0 -37 18t-21 37q0 18 12 36l81 96q25 30 54 30q25 0 50 -23q24 -23 24 -50q0 -22 -21 -43q-35 -35 -102 -87h2z" />
    <glyph glyph-name="mu" unicode="&#xb5;" horiz-adv-x="576" 
d="M138 460q33 0 52 -19t19 -51v-71v-89q0 -30 3 -49q3 -20 18 -36t41 -16q44 0 59 39t15 117v51v51q0 38 23 56q22 18 59 18q39 0 62 -18q22 -18 24 -53v-25v-67v-80q0 -64 23 -87t23 -60q0 -31 -19 -54q-20 -24 -52 -24q-46 0 -68 17q-17 12 -24 24q-8 12 -15 37
q-20 -41 -48 -60t-80 -19q-26 0 -39 10q0 -23 -1.5 -46t-5.5 -48q-12 -127 -106 -127q-41 0 -64 19q-24 19 -24 60q0 37 21 90q20 51 22 99q1 66 0 214v64v61q0 76 90 76z" />
    <glyph glyph-name="paragraph" unicode="&#xb6;" horiz-adv-x="678" 
d="M466 539l-66 -1v-58v-141v-270q0 -71 -79 -71q-76 0 -76 72v218h-14q-198 0 -201 183q-1 100 59 156q59 55 170 55h159h114q41 -2 63 -22q23 -21 23 -56v-93v-126v-317q0 -34 -21 -52t-56 -18q-78 0 -78 77z" />
    <glyph glyph-name="periodcentered" unicode="&#xb7;" horiz-adv-x="247" 
d="M118 150q-38 0 -63 24t-25 62q0 40 27 67t68 27q39 0 65 -24t26 -64q0 -41 -27 -66q-26 -25 -70 -25z" />
    <glyph glyph-name="cedilla" unicode="&#xb8;" horiz-adv-x="287" 
d="M100 -1l81 1l-12 -40q29 0 52 -22q24 -23 24 -64q0 -52 -33 -82t-86 -30q-31 0 -58 12q-30 13 -30 46q0 20 13 32t30 12q8 0 23 -6t23 -6q27 0 27 20t-23 20l-21 1q-18 1 -27 21t-2 39z" />
    <glyph glyph-name="onesuperior" unicode="&#xb9;" horiz-adv-x="260" 
d="M84 602q-13 -7 -30 -7q-19 0 -33 17t-14 36q0 28 32 49q26 16 44 29t20 14q26 16 49 16q22 0 40 -15t18 -31v-93v-102v-102q0 -19 -16 -31q-17 -12 -39 -12q-55 0 -55 51v29t1 60t1 64v40q0 -2 -16 -12h-2z" />
    <glyph glyph-name="ordmasculine" unicode="&#xba;" horiz-adv-x="403" 
d="M378 492q0 -73 -49 -119q-50 -47 -132 -47q-74 0 -123 45t-49 114q0 80 50 128q49 48 123 48q79 -2 129 -45q50 -44 50 -123zM143 493q0 -29 15 -47t41 -18q25 0 42 18q17 19 17 50q0 29 -15 47t-38 18q-27 0 -43 -18q-16 -17 -16 -51z" />
    <glyph glyph-name="guillemotright" unicode="&#xbb;" horiz-adv-x="573" 
d="M45 343q-15 16 -15 33q0 20 19 36q20 17 39 17q22 0 39 -12q67 -59 135 -126q25 -25 25 -58q0 -34 -29 -63l-138 -123q-16 -13 -40 -12q-17 1 -33 18q-16 16 -16 32q0 23 17 43l91 105zM297 343q-15 16 -15 33q0 20 19 36q20 17 39 17q22 0 39 -12q67 -59 135 -126
q25 -25 25 -58q0 -34 -29 -63l-138 -123q-16 -13 -40 -12q-17 1 -33 18q-16 16 -16 32q0 23 17 43l91 105z" />
    <glyph glyph-name="onequarter" unicode="&#xbc;" horiz-adv-x="790" 
d="M603 185q0 25 13 38q14 14 34 14q52 0 55 -35v-39h14q43 0 43 -47q0 -57 -42 -57h-14v-24q-2 -41 -54 -42q-49 -1 -49 40v26h-116q-20 0 -35 21t-15 42q0 36 24 72l90 162q21 31 50 31q23 0 44 -15t21 -33q0 -13 -8 -27l-90 -151l36 1v25zM484 639q23 38 49 38
q21 0 37 -14q15 -14 15 -32q0 -16 -12 -37l-22.5 -36t-46.5 -76t-50 -82.5t-34 -56.5l-191 -321q-16 -28 -45 -28q-17 0 -34 14q-16 13 -16 35q0 16 15 42l336 556zM95 524q-13 -7 -30 -7q-19 0 -33 17t-14 36q0 28 32 49q26 16 44 29t20 14q26 16 49 16q22 0 40 -15t18 -31
v-93v-102v-102q0 -19 -16 -31q-17 -12 -39 -12q-55 0 -55 51v29t1 60t1 64v40q0 -2 -16 -12h-2z" />
    <glyph glyph-name="onehalf" unicode="&#xbd;" horiz-adv-x="790" 
d="M481 641q23 38 49 38q21 0 37 -14q15 -14 15 -32q0 -16 -12 -37l-22.5 -36t-46.5 -76t-50 -82.5t-34 -56.5l-191 -321q-16 -28 -45 -28q-17 0 -34 14q-16 13 -16 35q0 16 15 42l336 556zM94 526q-13 -7 -30 -7q-19 0 -33 17t-14 36q0 28 32 49q26 16 44 29t20 14
q26 16 49 16q22 0 40 -15t18 -31v-93v-102v-102q0 -19 -16 -31q-17 -12 -39 -12q-55 0 -55 51v29t1 60t1 64v40q0 -2 -16 -12h-2zM598 278q-19 0 -36 -20q-15 -17 -46 -17q-19 0 -34 16t-15 37q0 31 42 63q43 28 85 28q64 1 108 -33q43 -34 43 -93q0 -23 -6 -41
q-6 -17 -27 -40t-30 -30q-9 -8 -45 -36l-10 -7h45h24h9q48 0 48 -54q0 -55 -53 -55h-58h-124q-23 0 -39 16t-16 42q0 39 34 70l77 71q2 2 5 4.5t7 5.5q40 37 42 48q0 10 -9 18q-8 7 -21 7z" />
    <glyph glyph-name="threequarters" unicode="&#xbe;" horiz-adv-x="820" 
d="M631 185q0 25 13 38q14 14 34 14q52 0 55 -35v-39h14q43 0 43 -47q0 -57 -42 -57h-14v-24q-2 -41 -54 -42q-49 -1 -49 40v26h-116q-20 0 -35 21t-15 42q0 36 24 72l90 162q21 31 50 31q23 0 44 -15t21 -33q0 -13 -8 -27l-90 -151l36 1v25zM526 639q23 38 49 38
q21 0 37 -14q15 -14 15 -32q0 -16 -12 -37l-22.5 -36t-46.5 -76t-50 -82.5t-34 -56.5l-191 -321q-16 -28 -45 -28q-17 0 -34 14q-16 13 -16 35q0 16 15 42l336 556zM199 419q0 27 -50 27h-21q-19 0 -30 14t-11 35q0 18 23 41q24 24 42 37h-31h-31q-54 0 -54 51q0 23 12 38
t37 15h65h112q20 0 32 -15t12 -34q0 -28 -16 -41l-13 -13l-22 -22q-7 -7 -13.5 -13t-12.5 -12q34 -7 58 -34q23 -26 25 -70q1 -66 -42 -100t-108 -34q-54 0 -91 19q-34 18 -34 52q0 22 15 39t32 17q15 0 44 -12q18 -8 30 -8q40 0 40 25z" />
    <glyph glyph-name="questiondown" unicode="&#xbf;" horiz-adv-x="493" 
d="M459 -107q0 -42 -43 -70q-76 -52 -165 -52q-96 0 -163 59q-66 58 -66 146q0 101 124 162q43 22 43 51v14q0 28 20 46q19 18 54 18q38 0 62 -25q24 -26 24 -69q0 -67 -71 -108q-2 -1 -15 -8q-11 -6 -15 -9q-2 -2 -5.5 -4t-8.5 -5t-8.5 -5t-5.5 -4q-5 -3 -12 -9t-10 -10
q-4 -6 -7 -10q-5 -6 -6 -12q-1 -4 -1 -12q0 -26 20 -43q19 -16 48 -16q34 0 71 25q36 24 66 24q26 0 48 -25q23 -26 23 -51zM352 392q0 -36 -26 -59t-66 -23q-38 0 -64 23q-25 22 -25 57q0 39 27 60t66 21q40 0 66 -21q25 -21 25 -60z" />
    <glyph glyph-name="Agrave" unicode="&#xc0;" horiz-adv-x="669" 
d="M13 69q0 30 19 72q49 106 87 201l116 282q11 27 37 41q27 15 55 15q79 0 102 -59q40 -92 126 -306q9 -15 18 -37q26 -66 43.5 -107.5t25.5 -59.5q12 -26 12 -50q0 -26 -27 -47t-67 -21q-57 0 -75 46q-33 79 -39 102q-11 1 -45 1h-94h-89l-36 -98q-19 -49 -69 -49
q-38 0 -69 20q-30 19 -30 60zM328 476q-10 -35 -36 -112q-26 -75 -33 -99q35 0 69.5 0.5t68.5 1.5q-1 6 -30 94q-14 44 -23 73t-14 44zM326 715q-35 32 -59 55t-37 37q-18 19 -18 45q0 22 24 43t48 21q34 0 55 -28q5 -6 11.5 -14.5t14.5 -19.5t15.5 -21l13.5 -18
q11 -15 19 -28q11 -14 11 -33q0 -20 -18 -36q-19 -17 -36 -17q-26 0 -44 15v-1z" />
    <glyph glyph-name="Aacute" unicode="&#xc1;" horiz-adv-x="669" 
d="M13 69q0 30 19 72q49 106 87 201l116 282q11 27 37 41q27 15 55 15q79 0 102 -59q40 -92 126 -306q9 -15 18 -37q26 -66 43.5 -107.5t25.5 -59.5q12 -26 12 -50q0 -26 -27 -47t-67 -21q-57 0 -75 46q-33 79 -39 102q-11 1 -45 1h-94h-89l-36 -98q-19 -49 -69 -49
q-38 0 -69 20q-30 19 -30 60zM328 476q-10 -35 -36 -112q-26 -75 -33 -99q35 0 69.5 0.5t68.5 1.5q-1 6 -30 94q-14 44 -23 73t-14 44zM336 710q-20 -14 -42 -14q-16 0 -37 18t-21 37q0 18 12 36l81 96q25 30 54 30q25 0 50 -23q24 -23 24 -50q0 -22 -21 -43
q-35 -35 -102 -87h2z" />
    <glyph glyph-name="Acircumflex" unicode="&#xc2;" horiz-adv-x="669" 
d="M13 69q0 30 19 72q49 106 87 201l116 282q11 27 37 41q27 15 55 15q79 0 102 -59q40 -92 126 -306q9 -15 18 -37q26 -66 43.5 -107.5t25.5 -59.5q12 -26 12 -50q0 -26 -27 -47t-67 -21q-57 0 -75 46q-33 79 -39 102q-11 1 -45 1h-94h-89l-36 -98q-19 -49 -69 -49
q-38 0 -69 20q-30 19 -30 60zM328 476q-10 -35 -36 -112q-26 -75 -33 -99q35 0 69.5 0.5t68.5 1.5q-1 6 -30 94q-14 44 -23 73t-14 44zM429 702q-20 -2 -39 16q-33 30 -60 62q-19 -22 -33 -37t-23 -23q-19 -19 -43 -19q-16 0 -35 17q-18 16 -18 33q0 20 13 36q15 18 84 93
q20 23 56 23q30 0 52 -22t43.5 -45t42.5 -48q13 -16 13 -36q0 -15 -16 -32q-17 -18 -36 -18h-1z" />
    <glyph glyph-name="Atilde" unicode="&#xc3;" horiz-adv-x="669" 
d="M13 69q0 30 19 72q49 106 87 201l116 282q11 27 37 41q27 15 55 15q79 0 102 -59q40 -92 126 -306q9 -15 18 -37q26 -66 43.5 -107.5t25.5 -59.5q12 -26 12 -50q0 -26 -27 -47t-67 -21q-57 0 -75 46q-33 79 -39 102q-11 1 -45 1h-94h-89l-36 -98q-19 -49 -69 -49
q-38 0 -69 20q-30 19 -30 60zM328 476q-10 -35 -36 -112q-26 -75 -33 -99q35 0 69.5 0.5t68.5 1.5q-1 6 -30 94q-14 44 -23 73t-14 44zM256 747q-1 -13 -14 -24q-11 -10 -34 -10t-39 15q-17 15 -18 45q3 47 32 74q28 27 75 27q30 0 50 -13q21 -14 36 -27q15 -14 27 -15
q19 0 20 19q4 36 51 36q19 0 36 -15q16 -15 16 -37q0 -56 -28 -84q-29 -29 -75 -29q-35 0 -68 27q-32 26 -47 28q-8 0 -14 -6t-7 -13z" />
    <glyph glyph-name="Adieresis" unicode="&#xc4;" horiz-adv-x="669" 
d="M13 69q0 30 19 72q49 106 87 201l116 282q11 27 37 41q27 15 55 15q79 0 102 -59q40 -92 126 -306q9 -15 18 -37q26 -66 43.5 -107.5t25.5 -59.5q12 -26 12 -50q0 -26 -27 -47t-67 -21q-57 0 -75 46q-33 79 -39 102q-11 1 -45 1h-94h-89l-36 -98q-19 -49 -69 -49
q-38 0 -69 20q-30 19 -30 60zM328 476q-10 -35 -36 -112q-26 -75 -33 -99q35 0 69.5 0.5t68.5 1.5q-1 6 -30 94q-14 44 -23 73t-14 44zM238 716q-31 0 -52 21t-21 51q0 33 22 54t55 21q30 0 51 -21t21 -52q0 -33 -21 -54t-56 -21zM418 718q-31 0 -52 21t-21 51q0 31 21 54
q21 22 54 22q32 0 53 -21t21 -52q0 -33 -21 -54t-56 -21h1z" />
    <glyph glyph-name="Aring" unicode="&#xc5;" horiz-adv-x="669" 
d="M330 847q53 0 87 -31q35 -32 35 -81q0 -53 -40 -90q10 -14 15 -24q40 -92 126 -306q9 -15 18 -37q26 -66 43.5 -107.5t25.5 -59.5q12 -26 12 -50q0 -26 -27 -47t-67 -21q-57 0 -75 46q-33 79 -39 102q-11 1 -45 1h-94h-89l-36 -98q-19 -49 -69 -49q-38 0 -69 20
q-30 19 -30 60q0 30 19 72q49 106 87 201l116 282q4 10 12 18q-41 32 -41 84q0 53 39 86t87 33zM328 478q-10 -35 -36 -112q-26 -75 -33 -99q35 0 69.5 0.5t68.5 1.5q-1 6 -30 94q-14 44 -23 73t-14 44zM369 731q0 18 -13 30q-14 12 -33 12q-18 0 -30 -12t-12 -32
q0 -18 13 -31t31 -13q19 0 33 14q13 13 13 32h-2z" />
    <glyph glyph-name="AE" unicode="&#xc6;" horiz-adv-x="922" 
d="M13 90q2 26 34 69q29 39 72.5 103t101.5 154q115 178 150 228q29 41 98 36l343 2q29 0 49 -18q19 -18 21 -45q2 -60 -42 -74q-17 -5 -237 -5v-42l-2 -90v-1h23h149q34 0 51 -21q17 -22 17 -49q0 -69 -71 -69h-173q-1 -8 -1 -19v-27v-38v-38q23 -1 55.5 -0.5t74.5 2.5
q84 3 98 3q31 0 49 -19q18 -20 18 -54q0 -36 -21 -57q-20 -20 -59 -22q-19 -1 -34.5 -1h-29.5h-84h-93q-70 0 -100 15q-31 15 -35 58l-1 73h-182q-1 -2 -7 -12l-18 -30q-24 -39 -42 -66q-29 -44 -87 -42q-35 1 -60 27q-26 25 -24 66zM317 279l117 2v23v23v67v39v39z" />
    <glyph glyph-name="Ccedilla" unicode="&#xc7;" horiz-adv-x="611" 
d="M314 -10q-119 13 -204 104q-84 90 -81 232q1 105 53 190q51 84 128 126q76 42 159 40q89 -1 146 -26q30 -14 45 -30q15 -17 14 -45q-2 -35 -18 -56q-17 -21 -51 -21q-19 0 -55 14q-43 17 -91 17q-66 0 -114 -57q-47 -56 -49 -148q-2 -84 51 -135q52 -50 116 -52
q40 -1 97 20q37 19 57 18q32 0 50 -27q18 -28 17 -61q-2 -36 -57 -66q-54 -29 -132 -37l-9 -30q29 0 52 -22q24 -23 24 -64q0 -52 -33 -82t-86 -30q-31 0 -58 12q-30 13 -30 46q0 20 13 32t30 12q8 0 23 -6t23 -6q27 0 27 20t-23 20l-21 1q-18 1 -27 21t-2 39z" />
    <glyph glyph-name="Egrave" unicode="&#xc8;" 
d="M68 609q1 32 24 52q22 19 57 19q32 0 36 -1h137h86h38q30 0 48 -18q17 -17 19 -45q1 -62 -39 -75q-9 -4 -213 -4h-26v-43l-2 -89v-1h23h29t44 1t41.5 1h20.5q45 0 65 -13q21 -14 20 -58q-2 -69 -69 -69h-176q-1 -8 -1 -19.5v-28.5v-38v-38q55 -2 156 0q31 1 49.5 1.5
t24.5 0.5q63 0 63 -73q0 -72 -67 -76h-281q-58 0 -82 15t-28 55q-1 9 -1.5 16.5t-0.5 13.5v15t1 36q2 47 3 118q1 36 1.5 67.5t0.5 57.5v110v110h-1zM299 723q-35 32 -59 55t-37 37q-18 19 -18 45q0 22 24 43t48 21q34 0 55 -28q5 -6 11.5 -14.5t14.5 -19.5t15.5 -21
l13.5 -18q11 -15 19 -28q11 -14 11 -33q0 -20 -18 -36q-19 -17 -36 -17q-26 0 -44 15v-1z" />
    <glyph glyph-name="Eacute" unicode="&#xc9;" 
d="M68 609q1 32 24 52q22 19 57 19q32 0 36 -1h137h86h38q30 0 48 -18q17 -17 19 -45q1 -62 -39 -75q-9 -4 -213 -4h-26v-43l-2 -89v-1h23h29t44 1t41.5 1h20.5q45 0 65 -13q21 -14 20 -58q-2 -69 -69 -69h-176q-1 -8 -1 -19.5v-28.5v-38v-38q55 -2 156 0q31 1 49.5 1.5
t24.5 0.5q63 0 63 -73q0 -72 -67 -76h-281q-58 0 -82 15t-28 55q-1 9 -1.5 16.5t-0.5 13.5v15t1 36q2 47 3 118q1 36 1.5 67.5t0.5 57.5v110v110h-1zM309 718q-20 -14 -42 -14q-16 0 -37 18t-21 37q0 18 12 36l81 96q25 30 54 30q25 0 50 -23q24 -23 24 -50q0 -22 -21 -43
q-35 -35 -102 -87h2z" />
    <glyph glyph-name="Ecircumflex" unicode="&#xca;" 
d="M68 609q1 32 24 52q22 19 57 19q32 0 36 -1h137h86h38q30 0 48 -18q17 -17 19 -45q1 -62 -39 -75q-9 -4 -213 -4h-26v-43l-2 -89v-1h23h29t44 1t41.5 1h20.5q45 0 65 -13q21 -14 20 -58q-2 -69 -69 -69h-176q-1 -8 -1 -19.5v-28.5v-38v-38q55 -2 156 0q31 1 49.5 1.5
t24.5 0.5q63 0 63 -73q0 -72 -67 -76h-281q-58 0 -82 15t-28 55q-1 9 -1.5 16.5t-0.5 13.5v15t1 36q2 47 3 118q1 36 1.5 67.5t0.5 57.5v110v110h-1zM402 710q-20 -2 -39 16q-33 30 -60 62q-19 -22 -33 -37t-23 -23q-19 -19 -43 -19q-16 0 -35 17q-18 16 -18 33q0 20 13 36
q15 18 84 93q20 23 56 23q30 0 52 -22t43.5 -45t42.5 -48q13 -16 13 -36q0 -15 -16 -32q-17 -18 -36 -18h-1z" />
    <glyph glyph-name="Edieresis" unicode="&#xcb;" 
d="M68 609q1 32 24 52q22 19 57 19q32 0 36 -1h137h86h38q30 0 48 -18q17 -17 19 -45q1 -62 -39 -75q-9 -4 -213 -4h-26v-43l-2 -89v-1h23h29t44 1t41.5 1h20.5q45 0 65 -13q21 -14 20 -58q-2 -69 -69 -69h-176q-1 -8 -1 -19.5v-28.5v-38v-38q55 -2 156 0q31 1 49.5 1.5
t24.5 0.5q63 0 63 -73q0 -72 -67 -76h-281q-58 0 -82 15t-28 55q-1 9 -1.5 16.5t-0.5 13.5v15t1 36q2 47 3 118q1 36 1.5 67.5t0.5 57.5v110v110h-1zM211 724q-31 0 -52 21t-21 51q0 33 21 54t56 21q30 0 51 -21t21 -52q0 -33 -21 -54t-56 -21zM391 726q-31 0 -52 21t-21 51
q0 31 21 54q21 22 54 22q32 0 53 -21t21 -52q0 -33 -21 -54t-56 -21h1z" />
    <glyph glyph-name="Igrave" unicode="&#xcc;" horiz-adv-x="311" 
d="M73 426v105t-1 77q-1 40 24 58t63 18q34 0 57 -18t23 -49v-123t1 -108v-55v-58v-40l1 -167q1 -34 -24 -52q-26 -18 -61 -18q-37 0 -62 20q-24 20 -23 57v42v49l2 263v-1zM155 722q-35 32 -59 55t-37 37q-18 19 -18 45q0 22 24 43t48 21q34 0 55 -28q5 -6 11.5 -14.5
t14.5 -19.5t15.5 -21l13.5 -18q11 -15 19 -28q11 -14 11 -33q0 -20 -18 -36q-19 -17 -36 -17q-26 0 -44 15v-1z" />
    <glyph glyph-name="Iacute" unicode="&#xcd;" horiz-adv-x="311" 
d="M73 426v105t-1 77q-1 40 24 58t63 18q34 0 57 -18t23 -49v-123t1 -108v-55v-58v-40l1 -167q1 -34 -24 -52q-26 -18 -61 -18q-37 0 -62 20q-24 20 -23 57v42v49l2 263v-1zM165 717q-20 -14 -42 -14q-16 0 -37 18t-21 37q0 18 12 36l81 96q25 30 54 30q25 0 50 -23
q24 -23 24 -50q0 -22 -21 -43q-35 -35 -102 -87h2z" />
    <glyph glyph-name="Icircumflex" unicode="&#xce;" horiz-adv-x="311" 
d="M73 426v105t-1 77q-1 40 24 58t63 18q34 0 57 -18t23 -49v-123t1 -108v-55v-58v-40l1 -167q1 -34 -24 -52q-26 -18 -61 -18q-37 0 -62 20q-24 20 -23 57v42v49l2 263v-1zM258 709q-20 -2 -39 16q-33 30 -60 62q-19 -22 -33 -37t-23 -23q-19 -19 -43 -19q-16 0 -35 17
q-18 16 -18 33q0 20 13 36q15 18 84 93q20 23 56 23q30 0 52 -22t43.5 -45t42.5 -48q13 -16 13 -36q0 -15 -16 -32q-17 -18 -36 -18h-1z" />
    <glyph glyph-name="Idieresis" unicode="&#xcf;" horiz-adv-x="311" 
d="M73 426v105t-1 77q-1 40 24 58t63 18q34 0 57 -18t23 -49v-123t1 -108v-55v-58v-40l1 -167q1 -34 -24 -52q-26 -18 -61 -18q-37 0 -62 20q-24 20 -23 57v42v49l2 263v-1zM67 723q-31 0 -52 21t-21 51q0 33 22 54t55 21q30 0 51 -21t21 -52q0 -33 -21 -54t-56 -21z
M247 725q-31 0 -52 21t-21 51q0 31 21 54q21 22 54 22q32 0 53 -21t21 -52q0 -33 -21 -54t-56 -21h1z" />
    <glyph glyph-name="Eth" unicode="&#xd0;" horiz-adv-x="696" 
d="M67 594q0 28 12 48q12 19 35 27q25 8 44 11q21 3 50 3h45h41q156 0 263 -84t107 -235q0 -360 -383 -363q-129 0 -151 3q-23 3 -42 24q-19 20 -19 48v184h-10q-66 0 -66 71q0 72 66 72h9v191h-1zM293 531h-33t-26 -1v-131h48q66 0 66 -73q0 -71 -76 -71h-38v-84v-8
q0 -2 2 -6q1 -2 3 -4t4 -3t4 -1h6h6h7h8q224 0 224 202q0 92 -58 138t-144 46z" />
    <glyph glyph-name="Ntilde" unicode="&#xd1;" horiz-adv-x="724" 
d="M231 76q0 -41 -22 -60t-57 -19q-84 0 -87 70v89t1 133v207v118q2 32 33 50t69 18q50 0 89 -55l210 -293l27 -43v69v69l-2 167q-1 47 20 67q20 19 68 19q35 0 57 -19q23 -20 23 -55v-172v-171v-70v-129q0 -33 -30 -52q-29 -19 -69 -19q-28 0 -48 14q-20 13 -39 42
l-245 353q-2 -71 0 -180q1 -55 1.5 -92.5t0.5 -57.5v2zM289 757q-1 -13 -14 -24q-11 -10 -34 -10t-39 15q-17 15 -18 45q3 47 32 74q28 27 75 27q30 0 50 -13q21 -14 36 -27q15 -14 27 -15q19 0 20 19q4 36 51 36q19 0 36 -15q16 -15 16 -37q0 -56 -28 -84q-29 -29 -75 -29
q-35 0 -68 27q-32 26 -47 28q-8 0 -14 -6t-7 -13z" />
    <glyph glyph-name="Ograve" unicode="&#xd2;" horiz-adv-x="744" 
d="M368 685q139 0 241 -96t102 -244q0 -149 -99 -252q-99 -104 -244 -104q-134 0 -234 93q-101 93 -101 243q0 161 104 263q103 102 234 100zM540 343q0 87 -52 138q-53 51 -126 51q-72 0 -117 -56t-45 -143q0 -86 48 -137t122 -51q70 0 120 59t50 138v1zM363 721
q-35 32 -59 55t-37 37q-18 19 -18 45q0 22 24 43t48 21q34 0 55 -28q5 -6 11.5 -14.5t14.5 -19.5t15.5 -21l13.5 -18q11 -15 19 -28q11 -14 11 -33q0 -20 -18 -36q-19 -17 -36 -17q-26 0 -44 15v-1z" />
    <glyph glyph-name="Oacute" unicode="&#xd3;" horiz-adv-x="744" 
d="M368 685q139 0 241 -96t102 -244q0 -149 -99 -252q-99 -104 -244 -104q-134 0 -234 93q-101 93 -101 243q0 161 104 263q103 102 234 100zM540 343q0 87 -52 138q-53 51 -126 51q-72 0 -117 -56t-45 -143q0 -86 48 -137t122 -51q70 0 120 59t50 138v1zM373 716
q-20 -14 -42 -14q-16 0 -37 18t-21 37q0 18 12 36l81 96q25 30 54 30q25 0 50 -23q24 -23 24 -50q0 -22 -21 -43q-35 -35 -102 -87h2z" />
    <glyph glyph-name="Ocircumflex" unicode="&#xd4;" horiz-adv-x="744" 
d="M368 685q139 0 241 -96t102 -244q0 -149 -99 -252q-99 -104 -244 -104q-134 0 -234 93q-101 93 -101 243q0 161 104 263q103 102 234 100zM540 343q0 87 -52 138q-53 51 -126 51q-72 0 -117 -56t-45 -143q0 -86 48 -137t122 -51q70 0 120 59t50 138v1zM466 708
q-20 -2 -39 16q-33 30 -60 62q-19 -22 -33 -37t-23 -23q-19 -19 -43 -19q-16 0 -35 17q-18 16 -18 33q0 20 13 36q15 18 84 93q20 23 56 23q30 0 52 -22t43.5 -45t42.5 -48q13 -16 13 -36q0 -15 -16 -32q-17 -18 -36 -18h-1z" />
    <glyph glyph-name="Otilde" unicode="&#xd5;" horiz-adv-x="744" 
d="M368 685q139 0 241 -96t102 -244q0 -149 -99 -252q-99 -104 -244 -104q-134 0 -234 93q-101 93 -101 243q0 161 104 263q103 102 234 100zM540 343q0 87 -52 138q-53 51 -126 51q-72 0 -117 -56t-45 -143q0 -86 48 -137t122 -51q70 0 120 59t50 138v1zM293 753
q-1 -13 -14 -24q-11 -10 -34 -10t-39 15q-17 15 -18 45q3 47 32 74q28 27 75 27q30 0 50 -13q21 -14 36 -27q15 -14 27 -15q19 0 20 19q4 36 51 36q19 0 36 -15q16 -15 16 -37q0 -56 -28 -84q-29 -29 -75 -29q-35 0 -68 27q-32 26 -47 28q-8 0 -14 -6t-7 -13z" />
    <glyph glyph-name="Odieresis" unicode="&#xd6;" horiz-adv-x="744" 
d="M368 685q139 0 241 -96t102 -244q0 -149 -99 -252q-99 -104 -244 -104q-134 0 -234 93q-101 93 -101 243q0 161 104 263q103 102 234 100zM540 343q0 87 -52 138q-53 51 -126 51q-72 0 -117 -56t-45 -143q0 -86 48 -137t122 -51q70 0 120 59t50 138v1zM275 722
q-31 0 -52 21t-21 51q0 33 21 54t56 21q30 0 51 -21t21 -52q0 -33 -21 -54t-56 -21zM455 724q-31 0 -52 21t-21 51q0 31 21 54q21 22 54 22q32 0 53 -21t21 -52q0 -33 -21 -54t-56 -21h1z" />
    <glyph glyph-name="multiply" unicode="&#xd7;" horiz-adv-x="500" 
d="M122 236l29 31l-102 102q-14 19 -14 43q0 23 24 46t49 24q31 1 60 -30l77 -86l75 82q30 36 59 36q31 0 56 -22q26 -23 26 -51q0 -12 -6 -24t-12 -18l-24 -24l-25 -25l-51 -52l87 -82q18 -16 24 -29q6 -12 6 -33q0 -26 -24 -48q-25 -23 -55 -23q-28 0 -64 40l-69 75
l-72 -82q-31 -34 -57 -34q-31 0 -57 23t-26 50t17 46z" />
    <glyph glyph-name="Oslash" unicode="&#xd8;" horiz-adv-x="744" 
d="M370 687q81 0 150 -34l21 31q10 18 34 18q17 0 31 -13q15 -14 15 -28q0 -11 -5 -19l-24 -36q120 -101 120 -261q0 -149 -99 -252q-99 -104 -244 -104q-85 0 -159 38l-27 -41q-11 -18 -30 -18q-16 0 -31 12t-15 28q0 13 7 24l28 43q-109 96 -109 250q0 161 104 263
q103 102 234 100zM542 345q0 76 -40 125l-204 -307q31 -16 74 -16q70 0 120 59t50 138v1zM202 337q0 -71 33 -120l199 304q-36 14 -70 14q-72 0 -117 -56t-45 -143v1z" />
    <glyph glyph-name="Ugrave" unicode="&#xd9;" horiz-adv-x="700" 
d="M63 284q1 108 1.5 187.5t0.5 133.5q0 35 22 54t60 19q48 0 68 -20t20 -66q-1 -32 -1 -107.5v-194.5q0 -70 32 -108q31 -37 90 -37q55 0 84 41q28 40 30 104q4 10 3 159q-1 75 -1.5 112t-0.5 38q0 79 86 79q44 0 63 -22q20 -23 20 -72l2 -278q-1 -139 -78 -226t-211 -87
q-131 0 -210 78t-79 216zM351 720q-35 32 -59 55t-37 37q-18 19 -18 45q0 22 24 43t48 21q34 0 55 -28q5 -6 11.5 -14.5t14.5 -19.5t15.5 -21l13.5 -18q11 -15 19 -28q11 -14 11 -33q0 -20 -18 -36q-19 -17 -36 -17q-26 0 -44 15v-1z" />
    <glyph glyph-name="Uacute" unicode="&#xda;" horiz-adv-x="700" 
d="M63 284q1 108 1.5 187.5t0.5 133.5q0 35 22 54t60 19q48 0 68 -20t20 -66q-1 -32 -1 -107.5v-194.5q0 -70 32 -108q31 -37 90 -37q55 0 84 41q28 40 30 104q4 10 3 159q-1 75 -1.5 112t-0.5 38q0 79 86 79q44 0 63 -22q20 -23 20 -72l2 -278q-1 -139 -78 -226t-211 -87
q-131 0 -210 78t-79 216zM361 715q-20 -14 -42 -14q-16 0 -37 18t-21 37q0 18 12 36l81 96q25 30 54 30q25 0 50 -23q24 -23 24 -50q0 -22 -21 -43q-35 -35 -102 -87h2z" />
    <glyph glyph-name="Ucircumflex" unicode="&#xdb;" horiz-adv-x="700" 
d="M63 284q1 108 1.5 187.5t0.5 133.5q0 35 22 54t60 19q48 0 68 -20t20 -66q-1 -32 -1 -107.5v-194.5q0 -70 32 -108q31 -37 90 -37q55 0 84 41q28 40 30 104q4 10 3 159q-1 75 -1.5 112t-0.5 38q0 79 86 79q44 0 63 -22q20 -23 20 -72l2 -278q-1 -139 -78 -226t-211 -87
q-131 0 -210 78t-79 216zM454 707q-20 -2 -39 16q-33 30 -60 62q-19 -22 -33 -37t-23 -23q-19 -19 -43 -19q-16 0 -35 17q-18 16 -18 33q0 20 13 36q15 18 84 93q20 23 56 23q30 0 52 -22t43.5 -45t42.5 -48q13 -16 13 -36q0 -15 -16 -32q-17 -18 -36 -18h-1z" />
    <glyph glyph-name="Udieresis" unicode="&#xdc;" horiz-adv-x="700" 
d="M63 284q1 108 1.5 187.5t0.5 133.5q0 35 22 54t60 19q48 0 68 -20t20 -66q-1 -32 -1 -107.5v-194.5q0 -70 32 -108q31 -37 90 -37q55 0 84 41q28 40 30 104q4 10 3 159q-1 75 -1.5 112t-0.5 38q0 79 86 79q44 0 63 -22q20 -23 20 -72l2 -278q-1 -139 -78 -226t-211 -87
q-131 0 -210 78t-79 216zM263 721q-31 0 -52 21t-21 51q0 33 21 54t56 21q30 0 51 -21t21 -52q0 -33 -21 -54t-56 -21zM443 723q-31 0 -52 21t-21 51q0 31 21 54q21 22 54 22q32 0 53 -21t21 -52q0 -33 -21 -54t-56 -21h1z" />
    <glyph glyph-name="Yacute" unicode="&#xdd;" horiz-adv-x="624" 
d="M203 288l-178 270q-16 25 -16 45q0 32 27 56t62 24q39 0 59 -30t58 -92t95 -156q1 1 147 240q23 38 69 38q30 0 56 -22q27 -23 27 -51q0 -27 -17 -50l-200 -303v-194q0 -32 -24 -50t-60 -18q-38 0 -60 22q-23 23 -23 57v15.5t1 23.5t1 24v17v104zM319 718
q-20 -14 -42 -14q-16 0 -37 18t-21 37q0 18 12 36l81 96q25 30 54 30q25 0 50 -23q24 -23 24 -50q0 -22 -21 -43q-35 -35 -102 -87h2z" />
    <glyph glyph-name="Thorn" unicode="&#xde;" horiz-adv-x="588" 
d="M56 607q0 38 24 59t63 21q42 0 65 -21q22 -21 21 -58v-47l61 2q59 2 107 -9q47 -10 87 -35q39 -24 60 -69q21 -44 19 -108q-2 -80 -52 -139q-51 -60 -132 -75q-28 -5 -131 -5h-23v-56q0 -35 -24 -54q-23 -19 -61 -19q-40 0 -62 20q-21 19 -21 51v35.5t1 63.5t1 69v50z
M228 259q67 0 93 3q73 10 75 81q1 21 -6 36q-8 16 -18 23q-11 7 -27 12q-16 4 -29 6q-6 1 -13.5 1h-15.5h-29h-30v-162z" />
    <glyph glyph-name="germandbls" unicode="&#xdf;" horiz-adv-x="615" 
d="M287 333q0 36 38 80t38 63q0 60 -69 60t-71 -113q0 -10 0.5 -45t1.5 -95q1 -120 0 -196q-2 -53 -22 -72q-21 -19 -68 -21q-31 -1 -52 21q-20 22 -22 57v326q0 144 66 213t178 69q96 0 153 -51t57 -138q0 -31 -20 -63q-19 -30 -39 -52t-20 -28q0 -12 11 -21q10 -9 33 -18
q11 -5 17.5 -7.5t8.5 -3.5q84 -44 84 -136q0 -78 -48 -126t-143 -48q-128 0 -128 67q0 77 60 77q20 0 39 -4t38 -4q15 0 24 9t9 23q0 38 -67 60q-87 31 -87 117z" />
    <glyph glyph-name="agrave" unicode="&#xe0;" horiz-adv-x="581" 
d="M523 165q0 -51 3 -102q0 -68 -84 -68q-52 0 -70 61q-39 -64 -120 -64q-102 0 -163 64t-61 163q0 113 67 180q68 68 171 68q74 0 112 -53q5 16 12 26q18 25 60 25q76 0 76 -71l-1 -77zM194 222q0 -39 23 -67q22 -27 57 -27q38 0 65 27t27 74q0 46 -25 71q-26 26 -61 26
q-39 0 -63 -27t-24 -76zM275 531q-35 32 -59 55t-37 37q-18 19 -18 45q0 22 24 43t48 21q34 0 55 -28q5 -6 11.5 -14.5t14.5 -19.5t15.5 -21l13.5 -18q11 -15 19 -28q11 -14 11 -33q0 -20 -18 -36q-19 -17 -36 -17q-26 0 -44 15v-1z" />
    <glyph glyph-name="aacute" unicode="&#xe1;" horiz-adv-x="581" 
d="M523 165q0 -51 3 -102q0 -68 -84 -68q-52 0 -70 61q-39 -64 -120 -64q-102 0 -163 64t-61 163q0 113 67 180q68 68 171 68q74 0 112 -53q5 16 12 26q18 25 60 25q76 0 76 -71l-1 -77zM194 222q0 -39 23 -67q22 -27 57 -27q38 0 65 27t27 74q0 46 -25 71q-26 26 -61 26
q-39 0 -63 -27t-24 -76zM285 526q-20 -14 -42 -14q-16 0 -37 18t-21 37q0 18 12 36l81 96q25 30 54 30q25 0 50 -23q24 -23 24 -50q0 -22 -21 -43q-35 -35 -102 -87h2z" />
    <glyph glyph-name="acircumflex" unicode="&#xe2;" horiz-adv-x="581" 
d="M523 165q0 -51 3 -102q0 -68 -84 -68q-52 0 -70 61q-39 -64 -120 -64q-102 0 -163 64t-61 163q0 113 67 180q68 68 171 68q74 0 112 -53q5 16 12 26q18 25 60 25q76 0 76 -71l-1 -77zM194 222q0 -39 23 -67q22 -27 57 -27q38 0 65 27t27 74q0 46 -25 71q-26 26 -61 26
q-39 0 -63 -27t-24 -76zM378 518q-20 -2 -39 16q-33 30 -60 62q-19 -22 -33 -37t-23 -23q-19 -19 -43 -19q-16 0 -35 17q-18 16 -18 33q0 20 13 36q15 18 84 93q20 23 56 23q30 0 52 -22t43.5 -45t42.5 -48q13 -16 13 -36q0 -15 -16 -32q-17 -18 -36 -18h-1z" />
    <glyph glyph-name="atilde" unicode="&#xe3;" horiz-adv-x="581" 
d="M523 165q0 -51 3 -102q0 -68 -84 -68q-52 0 -70 61q-39 -64 -120 -64q-102 0 -163 64t-61 163q0 113 67 180q68 68 171 68q74 0 112 -53q5 16 12 26q18 25 60 25q76 0 76 -71l-1 -77zM194 222q0 -39 23 -67q22 -27 57 -27q38 0 65 27t27 74q0 46 -25 71q-26 26 -61 26
q-39 0 -63 -27t-24 -76zM205 563q-1 -13 -14 -24q-11 -10 -34 -10t-39 15q-17 15 -18 45q3 47 32 74q28 27 75 27q30 0 50 -13q21 -14 36 -27q15 -14 27 -15q19 0 20 19q4 36 51 36q19 0 36 -15q16 -15 16 -37q0 -56 -28 -84q-29 -29 -75 -29q-35 0 -68 27q-32 26 -47 28
q-8 0 -14 -6t-7 -13z" />
    <glyph glyph-name="adieresis" unicode="&#xe4;" horiz-adv-x="581" 
d="M523 165q0 -51 3 -102q0 -68 -84 -68q-52 0 -70 61q-39 -64 -120 -64q-102 0 -163 64t-61 163q0 113 67 180q68 68 171 68q74 0 112 -53q5 16 12 26q18 25 60 25q76 0 76 -71l-1 -77zM194 222q0 -39 23 -67q22 -27 57 -27q38 0 65 27t27 74q0 46 -25 71q-26 26 -61 26
q-39 0 -63 -27t-24 -76zM187 532q-31 0 -52 21t-21 51q0 33 21 54t56 21q30 0 51 -21t21 -52q0 -33 -21 -54t-56 -21zM367 534q-31 0 -52 21t-21 51q0 31 21 54q21 22 54 22q32 0 53 -21t21 -52q0 -33 -21 -54t-56 -21h1z" />
    <glyph glyph-name="aring" unicode="&#xe5;" horiz-adv-x="581" 
d="M523 165q0 -51 3 -102q0 -68 -84 -68q-52 0 -70 61q-39 -64 -120 -64q-102 0 -163 64t-61 163q0 113 67 180q68 68 171 68q74 0 112 -53q5 16 12 26q18 25 60 25q76 0 76 -71l-1 -77zM194 222q0 -39 23 -67q22 -27 57 -27q38 0 65 27t27 74q0 46 -25 71q-26 26 -61 26
q-39 0 -63 -27t-24 -76zM278 739q53 0 87 -31q35 -32 35 -81q0 -50 -36 -84q-37 -35 -87 -35t-87 31t-37 82q0 53 38 86q37 33 86 33zM318 627q0 16 -12 27q-13 11 -31 11q-16 0 -28 -12t-12 -30q0 -16 12 -28t29 -12q18 0 30 13t12 30v1z" />
    <glyph glyph-name="ae" unicode="&#xe6;" horiz-adv-x="799" 
d="M485 191q4 -26 27 -42q22 -16 51 -16q42 0 75 14q33 15 52 15q25 0 45 -23q19 -22 19 -54q0 -40 -51 -67t-147 -27q-45 0 -93 23q-46 22 -66 53q-25 -31 -68 -54q-41 -22 -94 -22q-94 0 -150 38q-55 37 -55 110q0 65 51 104t141 39q9 0 31.5 -1.5t57.5 -3.5q-8 53 -81 53
q-23 0 -60 -12q-38 -12 -51 -12q-27 0 -45 20q-18 19 -18 48q0 34 27 54q52 40 158 40q51 0 93 -19q43 -20 66 -51q25 31 69 50q46 20 90 20q94 0 153 -58q60 -59 60 -133q0 -49 -16 -66t-66 -19h-52h-52zM556 337q-30 0 -52 -18q-23 -18 -24 -42h70t44 1q20 0 20 7
q0 23 -16 38q-17 15 -42 15v-1zM237 117q52 0 70 45l5 22q-35 3 -80 3q-24 0 -39 -9t-15 -25q0 -35 58 -35z" />
    <glyph glyph-name="ccedilla" unicode="&#xe7;" horiz-adv-x="455" 
d="M206 -9q-88 16 -135 80t-47 136q0 102 71 181q70 78 179 78q72 0 121 -31q28 -21 28 -55q0 -29 -18 -53t-47 -24q-12 0 -47 11q-15 7 -39 7q-35 0 -60 -31t-25 -69q0 -39 27 -64q26 -25 64 -25q22 0 53 16q24 12 42 12q27 0 45 -25q18 -26 18 -57q0 -35 -30 -54
q-46 -32 -117 -37l-8 -27q29 0 52 -22q24 -23 24 -64q0 -52 -33 -82t-86 -30q-31 0 -58 12q-30 13 -30 46q0 20 13 32t30 12q8 0 23 -6t23 -6q27 0 27 20t-23 20l-21 1q-18 1 -27 21t-2 39z" />
    <glyph glyph-name="egrave" unicode="&#xe8;" horiz-adv-x="515" 
d="M199 187q4 -27 29 -42q24 -15 51 -15q40 0 72 18q26 14 51 14q26 0 46 -23q19 -22 19 -54q0 -38 -37 -60q-59 -35 -162 -35q-99 0 -168 66t-69 161q0 109 69 180t171 71q93 0 153 -57t60 -132q0 -48 -16 -67q-17 -20 -64 -21h-33h-31t-42 -1t-49.5 -1h-52.5zM271 340
q-29 0 -50 -18t-23 -41q4 0 124 3q12 0 12 5q0 22 -18 37t-44 15zM266 530q-35 32 -59 55t-37 37q-18 19 -18 45q0 22 24 43t48 21q34 0 55 -28q5 -6 11.5 -14.5t14.5 -19.5t15.5 -21l13.5 -18q11 -15 19 -28q11 -14 11 -33q0 -20 -18 -36q-19 -17 -36 -17q-26 0 -44 15v-1z
" />
    <glyph glyph-name="eacute" unicode="&#xe9;" horiz-adv-x="515" 
d="M199 187q4 -27 29 -42q24 -15 51 -15q40 0 72 18q26 14 51 14q26 0 46 -23q19 -22 19 -54q0 -38 -37 -60q-59 -35 -162 -35q-99 0 -168 66t-69 161q0 109 69 180t171 71q93 0 153 -57t60 -132q0 -48 -16 -67q-17 -20 -64 -21h-33h-31t-42 -1t-49.5 -1h-52.5zM271 340
q-29 0 -50 -18t-23 -41q4 0 124 3q12 0 12 5q0 22 -18 37t-44 15zM276 525q-20 -14 -42 -14q-16 0 -37 18t-21 37q0 18 12 36l81 96q25 30 54 30q25 0 50 -23q24 -23 24 -50q0 -22 -21 -43q-35 -35 -102 -87h2z" />
    <glyph glyph-name="ecircumflex" unicode="&#xea;" horiz-adv-x="515" 
d="M199 187q4 -27 29 -42q24 -15 51 -15q40 0 72 18q26 14 51 14q26 0 46 -23q19 -22 19 -54q0 -38 -37 -60q-59 -35 -162 -35q-99 0 -168 66t-69 161q0 109 69 180t171 71q93 0 153 -57t60 -132q0 -48 -16 -67q-17 -20 -64 -21h-33h-31t-42 -1t-49.5 -1h-52.5zM271 340
q-29 0 -50 -18t-23 -41q4 0 124 3q12 0 12 5q0 22 -18 37t-44 15zM369 517q-20 -2 -39 16q-33 30 -60 62q-19 -22 -33 -37t-23 -23q-19 -19 -43 -19q-16 0 -35 17q-18 16 -18 33q0 20 13 36q15 18 84 93q20 23 56 23q30 0 52 -22t43.5 -45t42.5 -48q13 -16 13 -36
q0 -15 -16 -32q-17 -18 -36 -18h-1z" />
    <glyph glyph-name="edieresis" unicode="&#xeb;" horiz-adv-x="515" 
d="M199 187q4 -27 29 -42q24 -15 51 -15q40 0 72 18q26 14 51 14q26 0 46 -23q19 -22 19 -54q0 -38 -37 -60q-59 -35 -162 -35q-99 0 -168 66t-69 161q0 109 69 180t171 71q93 0 153 -57t60 -132q0 -48 -16 -67q-17 -20 -64 -21h-33h-31t-42 -1t-49.5 -1h-52.5zM271 340
q-29 0 -50 -18t-23 -41q4 0 124 3q12 0 12 5q0 22 -18 37t-44 15zM178 531q-31 0 -52 21t-21 51q0 33 21 54t56 21q30 0 51 -21t21 -52q0 -33 -21 -54t-56 -21zM358 533q-31 0 -52 21t-21 51q0 31 21 54q21 22 54 22q32 0 53 -21t21 -52q0 -33 -21 -54t-56 -21h1z" />
    <glyph glyph-name="igrave" unicode="&#xec;" horiz-adv-x="275" 
d="M55 400q2 35 25 51q25 17 55 17q83 0 85 -66v-110v-110l1 -115q2 -35 -23 -53q-24 -18 -60 -18q-35 0 -59 15t-24 45v344zM136 533q-35 32 -59 55t-37 37q-18 19 -18 45q0 22 24 43t48 21q34 0 55 -28q5 -6 11.5 -14.5t14.5 -19.5t15.5 -21l13.5 -18q11 -15 19 -28
q11 -14 11 -33q0 -20 -18 -36q-19 -17 -36 -17q-26 0 -44 15v-1z" />
    <glyph glyph-name="iacute" unicode="&#xed;" horiz-adv-x="275" 
d="M55 400q2 35 25 51q25 17 55 17q83 0 85 -66v-110v-110l1 -115q2 -35 -23 -53q-24 -18 -60 -18q-35 0 -59 15t-24 45v344zM146 528q-20 -14 -42 -14q-16 0 -37 18t-21 37q0 18 12 36l81 96q25 30 54 30q25 0 50 -23q24 -23 24 -50q0 -22 -21 -43q-35 -35 -102 -87h2z" />
    <glyph glyph-name="icircumflex" unicode="&#xee;" horiz-adv-x="275" 
d="M55 400q2 35 25 51q25 17 55 17q83 0 85 -66v-110v-110l1 -115q2 -35 -23 -53q-24 -18 -60 -18q-35 0 -59 15t-24 45v344zM239 520q-20 -2 -39 16q-33 30 -60 62q-19 -22 -33 -37t-23 -23q-19 -19 -43 -19q-16 0 -35 17q-18 16 -18 33q0 20 13 36q15 18 84 93
q20 23 56 23q30 0 52 -22t43.5 -45t42.5 -48q13 -16 13 -36q0 -15 -16 -32q-17 -18 -36 -18h-1z" />
    <glyph glyph-name="idieresis" unicode="&#xef;" horiz-adv-x="275" 
d="M55 400q2 35 25 51q25 17 55 17q83 0 85 -66v-110v-110l1 -115q2 -35 -23 -53q-24 -18 -60 -18q-35 0 -59 15t-24 45v344zM48 534q-31 0 -52 21t-21 51q0 33 21 54t56 21q30 0 51 -21t21 -52q0 -33 -21 -54t-56 -21zM228 536q-31 0 -52 21t-21 51q0 31 21 54q21 22 54 22
q32 0 53 -21t21 -52q0 -33 -21 -54t-56 -21h1z" />
    <glyph glyph-name="eth" unicode="&#xf0;" horiz-adv-x="572" 
d="M445 588q89 -119 87 -284q0 -73 -3 -94q-16 -106 -84 -163t-168 -57q-105 0 -178 65q-72 64 -72 168q0 106 68 168t161 62q50 0 90 -37q-3 45 -40 86l-42 -26q-10 -7 -23 -7t-27 14q-13 13 -13 27q0 22 23 36l16 10q-32 19 -65 30t-45 40q-12 30 3 57q36 70 127 42
q64 -20 126 -75l39 25q10 7 21 7q16 0 28 -15t12 -32q0 -15 -31 -37zM267 315q-31 -1 -55 -24t-24 -60q0 -43 23 -68q22 -24 57 -24q34 0 60 27t24 65t-25 60q-24 23 -59 21z" />
    <glyph glyph-name="ntilde" unicode="&#xf1;" horiz-adv-x="571" 
d="M57 379q-2 84 82 84q64 0 73 -51l3 -18q13 31 51 51t76 20q86 0 132 -52q47 -53 47 -150v-59v-62v-79q0 -69 -88 -69q-34 0 -57 17q-22 16 -22 51v30t1 47t1 48v33q0 50 -12 79t-46 30q-48 1 -64 -30t-16 -103l1 -137q0 -34 -24 -49t-55 -15q-41 0 -63 15t-22 54
q0 16 0.5 46.5t1.5 76.5q1 91 0 142v50zM221 561q-1 -13 -14 -24q-11 -10 -34 -10t-39 15q-17 15 -18 45q3 47 32 74q28 27 75 27q30 0 50 -13q21 -14 36 -27q15 -14 27 -15q19 0 20 19q4 36 51 36q19 0 36 -15q16 -15 16 -37q0 -56 -28 -84q-29 -29 -75 -29q-35 0 -68 27
q-32 26 -47 28q-8 0 -14 -6t-7 -13z" />
    <glyph glyph-name="ograve" unicode="&#xf2;" 
d="M295 470q23 0 38 -4q93 -17 141 -82q48 -66 48 -151q0 -105 -71 -173t-180 -68q-101 0 -171 64t-70 163q0 113 70 180q71 68 195 71zM361 237q0 33 -23 64q-23 30 -57 29q-43 -2 -65 -30q-23 -29 -23 -79q0 -36 23 -64q22 -27 54 -27q39 0 65 30q26 31 26 77zM269 533
q-35 32 -59 55t-37 37q-18 19 -18 45q0 22 24 43t48 21q34 0 55 -28q5 -6 11.5 -14.5t14.5 -19.5t15.5 -21l13.5 -18q11 -15 19 -28q11 -14 11 -33q0 -20 -18 -36q-19 -17 -36 -17q-26 0 -44 15v-1z" />
    <glyph glyph-name="oacute" unicode="&#xf3;" 
d="M295 470q23 0 38 -4q93 -17 141 -82q48 -66 48 -151q0 -105 -71 -173t-180 -68q-101 0 -171 64t-70 163q0 113 70 180q71 68 195 71zM361 237q0 33 -23 64q-23 30 -57 29q-43 -2 -65 -30q-23 -29 -23 -79q0 -36 23 -64q22 -27 54 -27q39 0 65 30q26 31 26 77zM279 528
q-20 -14 -42 -14q-16 0 -37 18t-21 37q0 18 12 36l81 96q25 30 54 30q25 0 50 -23q24 -23 24 -50q0 -22 -21 -43q-35 -35 -102 -87h2z" />
    <glyph glyph-name="ocircumflex" unicode="&#xf4;" 
d="M295 470q23 0 38 -4q93 -17 141 -82q48 -66 48 -151q0 -105 -71 -173t-180 -68q-101 0 -171 64t-70 163q0 113 70 180q71 68 195 71zM361 237q0 33 -23 64q-23 30 -57 29q-43 -2 -65 -30q-23 -29 -23 -79q0 -36 23 -64q22 -27 54 -27q39 0 65 30q26 31 26 77zM372 520
q-20 -2 -39 16q-33 30 -60 62q-19 -22 -33 -37t-23 -23q-19 -19 -43 -19q-16 0 -35 17q-18 16 -18 33q0 20 13 36q15 18 84 93q20 23 56 23q30 0 52 -22t43.5 -45t42.5 -48q13 -16 13 -36q0 -15 -16 -32q-17 -18 -36 -18h-1z" />
    <glyph glyph-name="otilde" unicode="&#xf5;" 
d="M295 470q23 0 38 -4q93 -17 141 -82q48 -66 48 -151q0 -105 -71 -173t-180 -68q-101 0 -171 64t-70 163q0 113 70 180q71 68 195 71zM361 237q0 33 -23 64q-23 30 -57 29q-43 -2 -65 -30q-23 -29 -23 -79q0 -36 23 -64q22 -27 54 -27q39 0 65 30q26 31 26 77zM199 565
q-1 -13 -14 -24q-11 -10 -34 -10t-39 15q-17 15 -18 45q3 47 32 74q28 27 75 27q30 0 50 -13q21 -14 36 -27q15 -14 27 -15q19 0 20 19q4 36 51 36q19 0 36 -15q16 -15 16 -37q0 -56 -28 -84q-29 -29 -75 -29q-35 0 -68 27q-32 26 -47 28q-8 0 -14 -6t-7 -13z" />
    <glyph glyph-name="odieresis" unicode="&#xf6;" 
d="M295 470q23 0 38 -4q93 -17 141 -82q48 -66 48 -151q0 -105 -71 -173t-180 -68q-101 0 -171 64t-70 163q0 113 70 180q71 68 195 71zM361 237q0 33 -23 64q-23 30 -57 29q-43 -2 -65 -30q-23 -29 -23 -79q0 -36 23 -64q22 -27 54 -27q39 0 65 30q26 31 26 77zM181 534
q-31 0 -52 21t-21 51q0 33 22 54t55 21q30 0 51 -21t21 -52q0 -33 -21 -54t-56 -21zM361 536q-31 0 -52 21t-21 51q0 31 21 54q21 22 54 22q32 0 53 -21t21 -52q0 -33 -21 -54t-56 -21h1z" />
    <glyph glyph-name="divide" unicode="&#xf7;" horiz-adv-x="500" 
d="M85 202q-28 -1 -43 20t-15 50q0 27 16 44q17 18 42 17l326 -2q30 0 45 -19q15 -20 15 -46q0 -28 -16 -45t-42 -19q-27 -1 -163 0q-137 1 -165 0zM251 371q-35 0 -57 21t-22 56q0 34 24 57q25 23 61 23q34 0 57 -21t23 -55q0 -36 -24 -58q-23 -22 -63 -22zM242 8
q-33 0 -54 21t-21 54q0 34 23 57t59 23q33 0 56 -21t23 -55t-23 -57q-22 -22 -60 -22h-3z" />
    <glyph glyph-name="oslash" unicode="&#xf8;" 
d="M295 469q23 0 38 -4q22 -5 39 -12l15 23q10 18 30 18q13 0 27 -10q15 -11 15 -22q0 -13 -9 -28l-11 -18q83 -69 83 -183q0 -105 -71 -173t-180 -68q-44 0 -88 14l-18 -29q-11 -18 -27 -18q-11 0 -27 11q-15 10 -15 24q0 10 9 25l13 22q-88 66 -88 178q0 113 70 180
q71 68 195 71v-1zM193 220q0 -26 10 -45l93 152q-5 1 -9 1.5t-6 0.5q-43 -2 -65 -30q-23 -29 -23 -79zM361 236q0 19 -9 39l-90 -146h8q39 0 65 30q26 31 26 77z" />
    <glyph glyph-name="ugrave" unicode="&#xf9;" horiz-adv-x="576" 
d="M143 462q37 0 55 -19q18 -20 18 -64v-147q0 -48 12 -75t49 -27q74 0 74 122v134q0 37 24 57q23 19 62 19q38 0 59 -18t21 -54v-141.5t1 -77.5v-27.5t1 -27.5t1.5 -24.5t0.5 -18.5v-21q0 -28 -24 -43t-57 -15q-59 0 -69 45q-5 19 -6 27q-48 -75 -128 -75q-93 0 -138 58
t-45 157v92v90q0 76 90 76zM280 531q-35 32 -59 55t-37 37q-18 19 -18 45q0 22 24 43t48 21q34 0 55 -28q5 -6 11.5 -14.5t14.5 -19.5t15.5 -21l13.5 -18q11 -15 19 -28q11 -14 11 -33q0 -20 -18 -36q-19 -17 -36 -17q-26 0 -44 15v-1z" />
    <glyph glyph-name="uacute" unicode="&#xfa;" horiz-adv-x="576" 
d="M143 462q37 0 55 -19q18 -20 18 -64v-147q0 -48 12 -75t49 -27q74 0 74 122v134q0 37 24 57q23 19 62 19q38 0 59 -18t21 -54v-141.5t1 -77.5v-27.5t1 -27.5t1.5 -24.5t0.5 -18.5v-21q0 -28 -24 -43t-57 -15q-59 0 -69 45q-5 19 -6 27q-48 -75 -128 -75q-93 0 -138 58
t-45 157v92v90q0 76 90 76zM290 526q-20 -14 -42 -14q-16 0 -37 18t-21 37q0 18 12 36l81 96q25 30 54 30q25 0 50 -23q24 -23 24 -50q0 -22 -21 -43q-35 -35 -102 -87h2z" />
    <glyph glyph-name="ucircumflex" unicode="&#xfb;" horiz-adv-x="576" 
d="M143 462q37 0 55 -19q18 -20 18 -64v-147q0 -48 12 -75t49 -27q74 0 74 122v134q0 37 24 57q23 19 62 19q38 0 59 -18t21 -54v-141.5t1 -77.5v-27.5t1 -27.5t1.5 -24.5t0.5 -18.5v-21q0 -28 -24 -43t-57 -15q-59 0 -69 45q-5 19 -6 27q-48 -75 -128 -75q-93 0 -138 58
t-45 157v92v90q0 76 90 76zM383 518q-20 -2 -39 16q-33 30 -60 62q-19 -22 -33 -37t-23 -23q-19 -19 -43 -19q-16 0 -35 17q-18 16 -18 33q0 20 13 36q15 18 84 93q20 23 56 23q30 0 52 -22t43.5 -45t42.5 -48q13 -16 13 -36q0 -15 -16 -32q-17 -18 -36 -18h-1z" />
    <glyph glyph-name="udieresis" unicode="&#xfc;" horiz-adv-x="576" 
d="M143 462q37 0 55 -19q18 -20 18 -64v-147q0 -48 12 -75t49 -27q74 0 74 122v134q0 37 24 57q23 19 62 19q38 0 59 -18t21 -54v-141.5t1 -77.5v-27.5t1 -27.5t1.5 -24.5t0.5 -18.5v-21q0 -28 -24 -43t-57 -15q-59 0 -69 45q-5 19 -6 27q-48 -75 -128 -75q-93 0 -138 58
t-45 157v92v90q0 76 90 76zM192 532q-31 0 -52 21t-21 51q0 33 22 54t55 21q30 0 51 -21t21 -52q0 -33 -21 -54t-56 -21zM372 534q-31 0 -52 21t-21 51q0 31 21 54q21 22 54 22q32 0 53 -21t21 -52q0 -33 -21 -54t-56 -21h1z" />
    <glyph glyph-name="yacute" unicode="&#xfd;" horiz-adv-x="525" 
d="M261 190l7.5 17.5t9.5 24.5t12.5 33.5t16.5 44.5t18 49.5t18 48.5q21 56 67 56q34 0 62 -19q29 -20 29 -45q0 -28 -17 -65q-11 -23 -27 -57.5t-37 -81.5t-40.5 -89.5t-38.5 -82.5t-37 -77.5t-36 -72.5q-54 -100 -158 -100q-98 0 -98 79q0 34 20 54t54 20q25 0 39 13
q16 15 29 43l15 30l12 24l-16 31l-129 268q-18 36 -18 64q0 29 28 48q29 20 58 20q25 0 41 -8q14 -7 25 -30l28 -70l28 -70q27 -71 39 -99zM245 527q-20 -14 -42 -14q-16 0 -37 18t-21 37q0 18 12 36l81 96q25 30 54 30q25 0 50 -23q24 -23 24 -50q0 -22 -21 -43
q-35 -35 -102 -87h2z" />
    <glyph glyph-name="thorn" unicode="&#xfe;" horiz-adv-x="589" 
d="M206 -149q-1 -70 -84 -70q-43 0 -64 18t-19 56l4 394l-2 392q2 40 22 59q22 20 55 20q39 0 63 -15t23 -55q-3 -215 -3 -238q36 57 122 57q98 0 161 -67q63 -68 63 -165q0 -104 -67 -174q-68 -71 -166 -71q-74 0 -107 57v-197zM382 233q0 42 -24 69t-60 27q-43 0 -68 -27
q-26 -28 -26 -76q0 -44 24 -71t62 -27q39 0 66 30t27 77z" />
    <glyph glyph-name="ydieresis" unicode="&#xff;" horiz-adv-x="525" 
d="M261 190l7.5 17.5t9.5 24.5t12.5 33.5t16.5 44.5t18 49.5t18 48.5q21 56 67 56q34 0 62 -19q29 -20 29 -45q0 -28 -17 -65q-11 -23 -27 -57.5t-37 -81.5t-40.5 -89.5t-38.5 -82.5t-37 -77.5t-36 -72.5q-54 -100 -158 -100q-98 0 -98 79q0 34 20 54t54 20q25 0 39 13
q16 15 29 43l15 30l12 24l-16 31l-129 268q-18 36 -18 64q0 29 28 48q29 20 58 20q25 0 41 -8q14 -7 25 -30l28 -70l28 -70q27 -71 39 -99zM147 533q-31 0 -52 21t-21 51q0 33 22 54t55 21q30 0 51 -21t21 -52q0 -33 -21 -54t-56 -21zM327 535q-31 0 -52 21t-21 51
q0 31 21 54q21 22 54 22q32 0 53 -21t21 -52q0 -33 -21 -54t-56 -21h1z" />
    <glyph glyph-name="Amacron" unicode="&#x100;" horiz-adv-x="669" 
d="M13 69q0 30 19 72q49 106 87 201l116 282q11 27 37 41q27 15 55 15q79 0 102 -59q40 -92 126 -306q9 -15 18 -37q26 -66 43.5 -107.5t25.5 -59.5q12 -26 12 -50q0 -26 -27 -47t-67 -21q-57 0 -75 46q-33 79 -39 102q-11 1 -45 1h-94h-89l-36 -98q-19 -49 -69 -49
q-38 0 -69 20q-30 19 -30 60zM328 476q-10 -35 -36 -112q-26 -75 -33 -99q35 0 69.5 0.5t68.5 1.5q-1 6 -30 94q-14 44 -23 73t-14 44zM243 730q-35 0 -51 18q-16 17 -16 44t17 46q16 18 48 18h35h38h23.5t30.5 1t32 1h28q62 0 62 -63q0 -28 -20 -45q-19 -16 -57 -16h-83
h-43h-42z" />
    <glyph glyph-name="amacron" unicode="&#x101;" horiz-adv-x="581" 
d="M523 165q0 -51 3 -102q0 -68 -84 -68q-52 0 -70 61q-39 -64 -120 -64q-102 0 -163 64t-61 163q0 113 67 180q68 68 171 68q74 0 112 -53q5 16 12 26q18 25 60 25q76 0 76 -71l-1 -77zM194 222q0 -39 23 -67q22 -27 57 -27q38 0 65 27t27 74q0 46 -25 71q-26 26 -61 26
q-39 0 -63 -27t-24 -76zM194 546q-35 0 -51 18q-16 17 -16 44t17 46q16 18 48 18h35h38h22.5t30.5 1t32 1h27q62 0 62 -63q0 -28 -20 -45q-19 -16 -57 -16h-83h-43h-42v-4z" />
    <glyph glyph-name="Abreve" unicode="&#x102;" horiz-adv-x="669" 
d="M13 69q0 30 19 72q49 106 87 201l116 282q11 27 37 41q27 15 55 15q79 0 102 -59q40 -92 126 -306q9 -15 18 -37q26 -66 43.5 -107.5t25.5 -59.5q12 -26 12 -50q0 -26 -27 -47t-67 -21q-57 0 -75 46q-33 79 -39 102q-11 1 -45 1h-94h-89l-36 -98q-19 -49 -69 -49
q-38 0 -69 20q-30 19 -30 60zM328 476q-10 -35 -36 -112q-26 -75 -33 -99q35 0 69.5 0.5t68.5 1.5q-1 6 -30 94q-14 44 -23 73t-14 44zM430 886q25 0 38 -13q14 -14 14 -31q0 -62 -41 -103q-40 -40 -110 -40q-59 0 -102 37q-44 37 -45 96q-1 22 14 39t38 17q21 0 35 -12
t15 -28q3 -19 15 -31t28 -12q19 0 33 12q13 12 15 29t15 29t36 12z" />
    <glyph glyph-name="abreve" unicode="&#x103;" horiz-adv-x="581" 
d="M523 165q0 -51 3 -102q0 -68 -84 -68q-52 0 -70 61q-39 -64 -120 -64q-102 0 -163 64t-61 163q0 113 67 180q68 68 171 68q74 0 112 -53q5 16 12 26q18 25 60 25q76 0 76 -71l-1 -77zM194 222q0 -39 23 -67q22 -27 57 -27q38 0 65 27t27 74q0 46 -25 71q-26 26 -61 26
q-39 0 -63 -27t-24 -76zM379 702q25 0 38 -13q14 -14 14 -31q0 -62 -41 -103q-40 -40 -110 -40q-59 0 -102 37q-44 37 -45 96q-1 22 14 39t38 17q21 0 35 -12t15 -28q3 -19 15 -31t28 -12q19 0 33 12q13 12 15 29t15 29t36 12z" />
    <glyph glyph-name="Aogonek" unicode="&#x104;" horiz-adv-x="669" 
d="M552 -96q0 -27 27 -27q5 0 15 2t15 2q20 0 30 -16q11 -17 11 -42q0 -29 -22 -45t-60 -16q-54 0 -91 26q-36 25 -36 84q0 69 74 126q-21 10 -33 39q-33 79 -39 102q-11 1 -45 1h-94h-89l-36 -98q-19 -49 -69 -49q-38 0 -69 20q-30 19 -30 60q0 30 19 72q49 106 87 201
l116 282q11 27 37 41q27 15 55 15q79 0 102 -59q40 -92 126 -306q9 -15 18 -37q26 -66 43.5 -107.5t25.5 -59.5q12 -26 12 -50q0 -31 -34 -53q-63 -62 -63 -102zM326 476q-10 -35 -36 -112q-26 -75 -33 -99q35 0 69.5 0.5t68.5 1.5q-1 6 -30 94q-14 44 -23 73t-14 44z" />
    <glyph glyph-name="aogonek" unicode="&#x105;" horiz-adv-x="581" 
d="M523 162q0 -50 3 -99q0 -42 -30 -61q-69 -56 -69 -96q0 -27 27 -27q8 0 13 1t15 1q19 0 31 -15t12 -41q0 -30 -22 -46t-60 -16q-55 0 -91 27t-36 86q0 70 86 129q-26 15 -30 49q-39 -64 -120 -64q-102 0 -163 64t-61 163q0 113 67 180q68 68 171 68q74 0 112 -53
q1 2 1.5 6t2.5 9q4 16 24 27t44 11q76 0 76 -71l-1 -77zM191 219q0 -39 23 -67q22 -27 59 -27q39 0 65 27q26 28 26 74q0 45 -24 71t-60 26q-39 0 -63 -27t-24 -76z" />
    <glyph glyph-name="Cacute" unicode="&#x106;" horiz-adv-x="611" 
d="M519 658q30 -14 45 -30q15 -17 14 -45q-2 -35 -18 -56q-17 -21 -51 -21q-19 0 -55 14q-43 17 -91 17q-66 0 -114 -57q-47 -56 -49 -148q-2 -84 51 -135q52 -50 116 -52q40 -1 97 20q37 19 57 18q32 0 50 -27q18 -28 17 -61q-2 -42 -75 -75q-72 -33 -162 -31
q-62 2 -118 25q-56 24 -103 66q-45 41 -73 107q-27 63 -25 143q1 105 53 190q51 84 128 126q76 42 159 40q89 -1 146 -26zM371 716q-20 -14 -42 -14q-16 0 -37 18t-21 37q0 18 12 36l81 96q25 30 54 30q25 0 50 -23q24 -23 24 -50q0 -22 -21 -43q-35 -35 -102 -87h2z" />
    <glyph glyph-name="cacute" unicode="&#x107;" horiz-adv-x="455" 
d="M398 437q28 -21 28 -55q0 -29 -18 -53t-47 -24q-12 0 -47 11q-15 7 -39 7q-35 0 -60 -31t-25 -69q0 -39 27 -64q26 -25 64 -25q22 0 53 16q24 12 42 12q27 0 45 -25q18 -26 18 -57q0 -35 -30 -54q-55 -38 -139 -38q-115 0 -178 69t-63 154q0 102 71 181q70 78 179 78
q72 0 121 -31zM271 526q-20 -14 -42 -14q-16 0 -37 18t-21 37q0 18 12 36l81 96q25 30 54 30q25 0 50 -23q24 -23 24 -50q0 -22 -21 -43q-35 -35 -102 -87h2z" />
    <glyph glyph-name="Ccircumflex" unicode="&#x108;" horiz-adv-x="611" 
d="M519 658q30 -14 45 -30q15 -17 14 -45q-2 -35 -18 -56q-17 -21 -51 -21q-19 0 -55 14q-43 17 -91 17q-66 0 -114 -57q-47 -56 -49 -148q-2 -84 51 -135q52 -50 116 -52q40 -1 97 20q37 19 57 18q32 0 50 -27q18 -28 17 -61q-2 -42 -75 -75q-72 -33 -162 -31
q-62 2 -118 25q-56 24 -103 66q-45 41 -73 107q-27 63 -25 143q1 105 53 190q51 84 128 126q76 42 159 40q89 -1 146 -26zM464 708q-20 -2 -39 16q-33 30 -60 62q-19 -22 -33 -37t-23 -23q-19 -19 -43 -19q-16 0 -35 17q-18 16 -18 33q0 20 13 36q15 18 84 93q20 23 56 23
q30 0 52 -22t43.5 -45t42.5 -48q13 -16 13 -36q0 -15 -16 -32q-17 -18 -36 -18h-1z" />
    <glyph glyph-name="ccircumflex" unicode="&#x109;" horiz-adv-x="455" 
d="M398 437q28 -21 28 -55q0 -29 -18 -53t-47 -24q-12 0 -47 11q-15 7 -39 7q-35 0 -60 -31t-25 -69q0 -39 27 -64q26 -25 64 -25q22 0 53 16q24 12 42 12q27 0 45 -25q18 -26 18 -57q0 -35 -30 -54q-55 -38 -139 -38q-115 0 -178 69t-63 154q0 102 71 181q70 78 179 78
q72 0 121 -31zM364 518q-20 -2 -39 16q-33 30 -60 62q-19 -22 -33 -37t-23 -23q-19 -19 -43 -19q-16 0 -35 17q-18 16 -18 33q0 20 13 36q15 18 84 93q20 23 56 23q30 0 52 -22t43.5 -45t42.5 -48q13 -16 13 -36q0 -15 -16 -32q-17 -18 -36 -18h-1z" />
    <glyph glyph-name="Cdotaccent" unicode="&#x10a;" horiz-adv-x="611" 
d="M519 658q30 -14 45 -30q15 -17 14 -45q-2 -35 -18 -56q-17 -21 -51 -21q-19 0 -55 14q-43 17 -91 17q-66 0 -114 -57q-47 -56 -49 -148q-2 -84 51 -135q52 -50 116 -52q40 -1 97 20q37 19 57 18q32 0 50 -27q18 -28 17 -61q-2 -42 -75 -75q-72 -33 -162 -31
q-62 2 -118 25q-56 24 -103 66q-45 41 -73 107q-27 63 -25 143q1 105 53 190q51 84 128 126q76 42 159 40q89 -1 146 -26zM361 723q-40 0 -66 29q-25 28 -19 69q4 31 32 51t59 20q40 0 63 -24q23 -25 23 -60q0 -40 -26 -63q-25 -22 -66 -22z" />
    <glyph glyph-name="cdotaccent" unicode="&#x10b;" horiz-adv-x="455" 
d="M398 437q28 -21 28 -55q0 -29 -18 -53t-47 -24q-12 0 -47 11q-15 7 -39 7q-35 0 -60 -31t-25 -69q0 -39 27 -64q26 -25 64 -25q22 0 53 16q24 12 42 12q27 0 45 -25q18 -26 18 -57q0 -35 -30 -54q-55 -38 -139 -38q-115 0 -178 69t-63 154q0 102 71 181q70 78 179 78
q72 0 121 -31zM261 533q-40 0 -66 29q-25 28 -19 69q4 31 32 51t59 20q40 0 63 -24q23 -25 23 -60q0 -40 -26 -63q-25 -22 -66 -22z" />
    <glyph glyph-name="Ccaron" unicode="&#x10c;" horiz-adv-x="611" 
d="M519 658q30 -14 45 -30q15 -17 14 -45q-2 -35 -18 -56q-17 -21 -51 -21q-19 0 -55 14q-43 17 -91 17q-66 0 -114 -57q-47 -56 -49 -148q-2 -84 51 -135q52 -50 116 -52q40 -1 97 20q37 19 57 18q32 0 50 -27q18 -28 17 -61q-2 -42 -75 -75q-72 -33 -162 -31
q-62 2 -118 25q-56 24 -103 66q-45 41 -73 107q-27 63 -25 143q1 105 53 190q51 84 128 126q76 42 159 40q89 -1 146 -26zM268 906q21 0 38 -16q33 -30 60 -62q19 22 33 37t23 23q19 19 43 19q18 0 35 -16q18 -17 18 -33q0 -20 -13 -36q-15 -18 -84 -93q-19 -22 -57 -22
q-31 0 -52 21q-22 22 -43.5 45t-42.5 48q-13 16 -13 36q0 15 17 32t36 17h2z" />
    <glyph glyph-name="ccaron" unicode="&#x10d;" horiz-adv-x="455" 
d="M398 437q28 -21 28 -55q0 -29 -18 -53t-47 -24q-12 0 -47 11q-15 7 -39 7q-35 0 -60 -31t-25 -69q0 -39 27 -64q26 -25 64 -25q22 0 53 16q24 12 42 12q27 0 45 -25q18 -26 18 -57q0 -35 -30 -54q-55 -38 -139 -38q-115 0 -178 69t-63 154q0 102 71 181q70 78 179 78
q72 0 121 -31zM168 716q21 0 38 -16q33 -30 60 -62q19 22 33 37t23 23q19 19 43 19q18 0 35 -16q18 -17 18 -33q0 -20 -13 -36q-15 -18 -84 -93q-19 -22 -57 -22q-31 0 -52 21q-22 22 -43.5 45t-42.5 48q-13 16 -13 36q0 15 17 32t36 17h2z" />
    <glyph glyph-name="Dcaron" unicode="&#x10e;" horiz-adv-x="692" 
d="M63 594q0 28 12 48q12 19 35 27q25 8 44 11q21 3 50 3h45h41q156 0 263 -84t107 -235q0 -360 -383 -363q-129 0 -151 3q-23 3 -42 24q-19 20 -19 48v179l-1 339h-1zM289 531h-33t-26 -1v-359v-8q0 -2 2 -6q1 -2 3 -4t4 -3t4 -1h6h6h7h8q224 0 224 202q0 92 -58 138
t-144 46zM242 904q21 0 38 -16q33 -30 60 -62q19 22 33 37t23 23q19 19 43 19q18 0 35 -16q18 -17 18 -33q0 -20 -13 -36q-15 -18 -84 -93q-19 -22 -57 -22q-31 0 -52 21q-22 22 -43.5 45t-42.5 48q-13 16 -13 36q0 15 17 32t36 17h2z" />
    <glyph glyph-name="dcaron" unicode="&#x10f;" horiz-adv-x="718" 
d="M620 595q-18 3 -31 19t-13 43q-2 30 21 51q22 21 51 21q37 0 60 -22q24 -23 24 -63q0 -43 -24 -80q-24 -38 -61 -60q-12 -9 -26 -9q-12 0 -25 11q-12 10 -12 24q0 16 12 27q25 22 25 36v1zM533 449v-111v-114q0 -5 0.5 -45t1.5 -118q0 -33 -21 -49q-20 -16 -57 -16
q-55 0 -69 41l-7 23q-43 -67 -125 -67q-106 0 -166 66t-60 160q0 105 68 178q67 72 173 72q63 0 97 -40v219q0 40 21 61t59 21q42 0 65 -18q22 -18 21 -58zM197 221q0 -39 25 -65q25 -27 61 -27q40 0 66 27q26 28 26 71q0 49 -25 74q-26 26 -63 26q-41 0 -66 -27
q-25 -26 -25 -77z" />
    <glyph glyph-name="Dcroat" unicode="&#x110;" horiz-adv-x="696" 
d="M67 594q0 28 12 48q12 19 35 27q25 8 44 11q21 3 50 3h45h41q156 0 263 -84t107 -235q0 -360 -383 -363q-129 0 -151 3q-23 3 -42 24q-19 20 -19 48v184h-10q-66 0 -66 71q0 72 66 72h9v191h-1zM293 531h-33t-26 -1v-131h48q66 0 66 -73q0 -71 -76 -71h-38v-84v-8
q0 -2 2 -6q1 -2 3 -4t4 -3t4 -1h6h6h7h8q224 0 224 202q0 92 -58 138t-144 46z" />
    <glyph glyph-name="dcroat" unicode="&#x111;" horiz-adv-x="586" 
d="M533 632h16q62 0 62 -64q0 -63 -68 -63h-10v-57v-96v-96v-32q0 -5 0.5 -45t1.5 -118q0 -34 -21 -50q-22 -17 -57 -17q-56 0 -69 42l-7 23q-43 -67 -125 -67q-106 0 -166 66t-60 160q0 105 68 178q67 72 173 72q63 0 97 -40v78h-44q-32 0 -49 16q-18 16 -18 48q0 63 68 63
h43v20q0 72 86 72q37 0 57 -19q21 -20 21 -51zM197 220q0 -39 25 -65q25 -27 61 -27q40 0 66 27q26 28 26 71q0 49 -25 74q-26 26 -63 26q-41 0 -66 -27q-25 -26 -25 -77z" />
    <glyph glyph-name="Emacron" unicode="&#x112;" 
d="M68 609q1 32 24 52q22 19 57 19q32 0 36 -1h137h86h38q30 0 48 -18q17 -17 19 -45q1 -62 -39 -75q-9 -4 -213 -4h-26v-43l-2 -89v-1h23h29t44 1t41.5 1h20.5q45 0 65 -13q21 -14 20 -58q-2 -69 -69 -69h-176q-1 -8 -1 -19.5v-28.5v-38v-38q55 -2 156 0q31 1 49.5 1.5
t24.5 0.5q63 0 63 -73q0 -72 -67 -76h-281q-58 0 -82 15t-28 55q-1 9 -1.5 16.5t-0.5 13.5v15t1 36q2 47 3 118q1 36 1.5 67.5t0.5 57.5v110v110h-1zM218 738q-35 0 -51 18q-16 17 -16 44t17 46q16 18 48 18h35h38h22.5t30.5 1t32 1h27q62 0 62 -63q0 -28 -20 -45
q-19 -16 -57 -16h-83h-43h-42v-4z" />
    <glyph glyph-name="emacron" unicode="&#x113;" horiz-adv-x="515" 
d="M199 187q4 -27 29 -42q24 -15 51 -15q40 0 72 18q26 14 51 14q26 0 46 -23q19 -22 19 -54q0 -38 -37 -60q-59 -35 -162 -35q-99 0 -168 66t-69 161q0 109 69 180t171 71q93 0 153 -57t60 -132q0 -48 -16 -67q-17 -20 -64 -21h-33h-31t-42 -1t-49.5 -1h-52.5zM271 340
q-29 0 -50 -18t-23 -41q4 0 124 3q12 0 12 5q0 22 -18 37t-44 15zM185 545q-35 0 -51 18q-16 17 -16 44t17 46q16 18 48 18h35h38h22.5t30.5 1t32 1h27q62 0 62 -63q0 -28 -20 -45q-19 -16 -57 -16h-83h-43h-42v-4z" />
    <glyph glyph-name="Ebreve" unicode="&#x114;" 
d="M68 609q1 32 24 52q22 19 57 19q32 0 36 -1h137h86h38q30 0 48 -18q17 -17 19 -45q1 -62 -39 -75q-9 -4 -213 -4h-26v-43l-2 -89v-1h23h29t44 1t41.5 1h20.5q45 0 65 -13q21 -14 20 -58q-2 -69 -69 -69h-176q-1 -8 -1 -19.5v-28.5v-38v-38q55 -2 156 0q31 1 49.5 1.5
t24.5 0.5q63 0 63 -73q0 -72 -67 -76h-281q-58 0 -82 15t-28 55q-1 9 -1.5 16.5t-0.5 13.5v15t1 36q2 47 3 118q1 36 1.5 67.5t0.5 57.5v110v110h-1zM403 894q25 0 38 -13q14 -14 14 -31q0 -62 -41 -103q-40 -40 -110 -40q-59 0 -102 37q-44 37 -45 96q-1 22 14 39t38 17
q21 0 35 -12t15 -28q3 -19 15 -31t28 -12q19 0 33 12q13 12 15 29t15 29t36 12z" />
    <glyph glyph-name="ebreve" unicode="&#x115;" horiz-adv-x="515" 
d="M199 187q4 -27 29 -42q24 -15 51 -15q40 0 72 18q26 14 51 14q26 0 46 -23q19 -22 19 -54q0 -38 -37 -60q-59 -35 -162 -35q-99 0 -168 66t-69 161q0 109 69 180t171 71q93 0 153 -57t60 -132q0 -48 -16 -67q-17 -20 -64 -21h-33h-31t-42 -1t-49.5 -1h-52.5zM271 340
q-29 0 -50 -18t-23 -41q4 0 124 3q12 0 12 5q0 22 -18 37t-44 15zM370 701q25 0 38 -13q14 -14 14 -31q0 -62 -41 -103q-40 -40 -110 -40q-59 0 -102 37q-44 37 -45 96q-1 22 14 39t38 17q21 0 35 -12t15 -28q3 -19 15 -31t28 -12q19 0 33 12q13 12 15 29t15 29t36 12z" />
    <glyph glyph-name="Edotaccent" unicode="&#x116;" 
d="M68 609q1 32 24 52q22 19 57 19q32 0 36 -1h137h86h38q30 0 48 -18q17 -17 19 -45q1 -62 -39 -75q-9 -4 -213 -4h-26v-43l-2 -89v-1h23h29t44 1t41.5 1h20.5q45 0 65 -13q21 -14 20 -58q-2 -69 -69 -69h-176q-1 -8 -1 -19.5v-28.5v-38v-38q55 -2 156 0q31 1 49.5 1.5
t24.5 0.5q63 0 63 -73q0 -72 -67 -76h-281q-58 0 -82 15t-28 55q-1 9 -1.5 16.5t-0.5 13.5v15t1 36q2 47 3 118q1 36 1.5 67.5t0.5 57.5v110v110h-1zM299 725q-40 0 -66 29q-25 28 -19 69q4 31 32 51t59 20q40 0 63 -24q23 -25 23 -60q0 -40 -26 -63q-25 -22 -66 -22z" />
    <glyph glyph-name="edotaccent" unicode="&#x117;" horiz-adv-x="515" 
d="M199 187q4 -27 29 -42q24 -15 51 -15q40 0 72 18q26 14 51 14q26 0 46 -23q19 -22 19 -54q0 -38 -37 -60q-59 -35 -162 -35q-99 0 -168 66t-69 161q0 109 69 180t171 71q93 0 153 -57t60 -132q0 -48 -16 -67q-17 -20 -64 -21h-33h-31t-42 -1t-49.5 -1h-52.5zM271 340
q-29 0 -50 -18t-23 -41q4 0 124 3q12 0 12 5q0 22 -18 37t-44 15zM266 532q-40 0 -66 29q-25 28 -19 69q4 31 32 51t59 20q40 0 63 -24q23 -25 23 -60q0 -40 -26 -63q-25 -22 -66 -22z" />
    <glyph glyph-name="Eogonek" unicode="&#x118;" 
d="M405 -92q0 -27 27 -27q10 0 15 1t15 1q40 0 40 -57q0 -45 -49 -58q-12 -4 -33 -4q-55 0 -91 27t-36 86q0 71 68 119h-191q-58 0 -82 15t-28 55q-2 10 -2 30v15t1 36q2 47 3 118q1 36 1.5 67.5t0.5 57.5v110v110q3 33 25 52t57 19q32 0 36 -1h137h86h38q30 0 48 -18
q17 -17 19 -45q1 -62 -39 -75q-9 -4 -213 -4h-26v-47t-1 -85v-1h23h34.5t46.5 1t44 1h29q33 0 50 -15t17 -55q0 -69 -79 -69h-166v-124h111h118q63 0 63 -71q0 -65 -52 -75q-30 -17 -44 -40q-15 -24 -15 -48z" />
    <glyph glyph-name="eogonek" unicode="&#x119;" horiz-adv-x="515" 
d="M197 188q4 -27 29 -42q24 -15 51 -15q40 0 72 18q26 14 51 14q26 0 46 -23q19 -22 19 -54q0 -36 -37 -60q-84 -56 -84 -117q0 -27 27 -27q5 0 15 2t15 2q20 0 30 -16q11 -17 11 -42q0 -29 -22 -45t-60 -16q-54 0 -91 26q-36 25 -36 84q0 64 62 114q-5 -1 -11.5 -1h-15.5
q-99 0 -168 66t-69 161q0 109 69 180t171 71q93 0 153 -57t60 -132q0 -48 -16 -67q-17 -20 -64 -21h-33h-31t-42 -1t-49.5 -1h-52.5zM269 341q-29 0 -50 -18t-23 -41q4 0 124 3q12 0 12 5q0 22 -18 37t-44 15z" />
    <glyph glyph-name="Ecaron" unicode="&#x11a;" 
d="M68 609q1 32 24 52q22 19 57 19q32 0 36 -1h137h86h38q30 0 48 -18q17 -17 19 -45q1 -62 -39 -75q-9 -4 -213 -4h-26v-43l-2 -89v-1h23h29t44 1t41.5 1h20.5q45 0 65 -13q21 -14 20 -58q-2 -69 -69 -69h-176q-1 -8 -1 -19.5v-28.5v-38v-38q55 -2 156 0q31 1 49.5 1.5
t24.5 0.5q63 0 63 -73q0 -72 -67 -76h-281q-58 0 -82 15t-28 55q-1 9 -1.5 16.5t-0.5 13.5v15t1 36q2 47 3 118q1 36 1.5 67.5t0.5 57.5v110v110h-1zM206 908q21 0 38 -16q33 -30 60 -62q19 22 33 37t23 23q19 19 43 19q18 0 35 -16q18 -17 18 -33q0 -20 -13 -36
q-15 -18 -84 -93q-19 -22 -57 -22q-31 0 -52 21q-22 22 -43.5 45t-42.5 48q-13 16 -13 36q0 15 17 32t36 17h2z" />
    <glyph glyph-name="ecaron" unicode="&#x11b;" horiz-adv-x="515" 
d="M199 187q4 -27 29 -42q24 -15 51 -15q40 0 72 18q26 14 51 14q26 0 46 -23q19 -22 19 -54q0 -38 -37 -60q-59 -35 -162 -35q-99 0 -168 66t-69 161q0 109 69 180t171 71q93 0 153 -57t60 -132q0 -48 -16 -67q-17 -20 -64 -21h-33h-31t-42 -1t-49.5 -1h-52.5zM271 340
q-29 0 -50 -18t-23 -41q4 0 124 3q12 0 12 5q0 22 -18 37t-44 15zM173 715q21 0 38 -16q33 -30 60 -62q19 22 33 37t23 23q19 19 43 19q18 0 35 -16q18 -17 18 -33q0 -20 -13 -36q-15 -18 -84 -93q-19 -22 -57 -22q-31 0 -52 21q-22 22 -43.5 45t-42.5 48q-13 16 -13 36
q0 15 17 32t36 17h2z" />
    <glyph glyph-name="Gcircumflex" unicode="&#x11c;" horiz-adv-x="718" 
d="M386 684q106 0 182 -43q53 -30 53 -69q0 -29 -18 -53t-47 -24q-30 0 -69 21q-47 24 -102 24q-72 0 -127 -55t-55 -139q0 -96 48 -151t128 -55q65 0 101 36q37 37 38 82h-56q-31 0 -49 19t-18 51q0 69 72 69h130q50 0 68 -27t18 -79q-2 -133 -85 -216q-84 -84 -241 -84
q-134 0 -228 99q-94 98 -94 251q0 151 104 250q103 99 248 99zM483 704q-20 -2 -39 16q-33 30 -60 62q-19 -22 -33 -37t-23 -23q-19 -19 -43 -19q-16 0 -35 17q-18 16 -18 33q0 20 13 36q15 18 84 93q20 23 56 23q30 0 52 -22t43.5 -45t42.5 -48q13 -16 13 -36
q0 -15 -16 -32q-17 -18 -36 -18h-1z" />
    <glyph glyph-name="gcircumflex" unicode="&#x11d;" horiz-adv-x="578" 
d="M262 -80q34 0 66 23q31 22 31 56v39q-15 -20 -43 -33q-27 -13 -60 -13q-101 0 -164 68q-63 67 -63 165q0 103 65 174t165 71q70 0 109 -53l2 7q4 19 26 31q21 12 51 12q34 0 56 -20q21 -20 21 -51v-62.5t-1 -83.5t-1 -83.5v-63.5l2 -108q1 -94 -72 -163q-74 -69 -183 -69
q-97 0 -147 28q-45 24 -45 72q0 32 21 56t50 24q9 0 45 -11q44 -14 70 -14zM191 231q0 -42 24 -67t62 -25q34 0 60 24q25 24 25 72q0 47 -24 71t-57 24q-39 0 -63 -27t-24 -73zM387 523q-20 -2 -39 16q-33 30 -60 62q-19 -22 -33 -37t-23 -23q-19 -19 -43 -19q-16 0 -35 17
q-18 16 -18 33q0 20 13 36q15 18 84 93q20 23 56 23q30 0 52 -22t43.5 -45t42.5 -48q13 -16 13 -36q0 -15 -16 -32q-17 -18 -36 -18h-1z" />
    <glyph glyph-name="Gbreve" unicode="&#x11e;" horiz-adv-x="718" 
d="M386 684q106 0 182 -43q53 -30 53 -69q0 -29 -18 -53t-47 -24q-30 0 -69 21q-47 24 -102 24q-72 0 -127 -55t-55 -139q0 -96 48 -151t128 -55q65 0 101 36q37 37 38 82h-56q-31 0 -49 19t-18 51q0 69 72 69h130q50 0 68 -27t18 -79q-2 -133 -85 -216q-84 -84 -241 -84
q-134 0 -228 99q-94 98 -94 251q0 151 104 250q103 99 248 99zM484 888q25 0 38 -13q14 -14 14 -31q0 -62 -41 -103q-40 -40 -110 -40q-59 0 -102 37q-44 37 -45 96q-1 22 14 39t38 17q21 0 35 -12t15 -28q3 -19 15 -31t28 -12q19 0 33 12q13 12 15 29t15 29t36 12z" />
    <glyph glyph-name="gbreve" unicode="&#x11f;" horiz-adv-x="578" 
d="M262 -80q34 0 66 23q31 22 31 56v39q-15 -20 -43 -33q-27 -13 -60 -13q-101 0 -164 68q-63 67 -63 165q0 103 65 174t165 71q70 0 109 -53l2 7q4 19 26 31q21 12 51 12q34 0 56 -20q21 -20 21 -51v-62.5t-1 -83.5t-1 -83.5v-63.5l2 -108q1 -94 -72 -163q-74 -69 -183 -69
q-97 0 -147 28q-45 24 -45 72q0 32 21 56t50 24q9 0 45 -11q44 -14 70 -14zM191 231q0 -42 24 -67t62 -25q34 0 60 24q25 24 25 72q0 47 -24 71t-57 24q-39 0 -63 -27t-24 -73zM388 707q25 0 38 -13q14 -14 14 -31q0 -62 -41 -103q-40 -40 -110 -40q-59 0 -102 37
q-44 37 -45 96q-1 22 14 39t38 17q21 0 35 -12t15 -28q3 -19 15 -31t28 -12q19 0 33 12q13 12 15 29t15 29t36 12z" />
    <glyph glyph-name="Gdotaccent" unicode="&#x120;" horiz-adv-x="718" 
d="M386 684q106 0 182 -43q53 -30 53 -69q0 -29 -18 -53t-47 -24q-30 0 -69 21q-47 24 -102 24q-72 0 -127 -55t-55 -139q0 -96 48 -151t128 -55q65 0 101 36q37 37 38 82h-56q-31 0 -49 19t-18 51q0 69 72 69h130q50 0 68 -27t18 -79q-2 -133 -85 -216q-84 -84 -241 -84
q-134 0 -228 99q-94 98 -94 251q0 151 104 250q103 99 248 99zM380 719q-40 0 -66 29q-25 28 -19 69q4 31 32 51t59 20q40 0 63 -24q23 -25 23 -60q0 -40 -26 -63q-25 -22 -66 -22z" />
    <glyph glyph-name="gdotaccent" unicode="&#x121;" horiz-adv-x="578" 
d="M262 -80q34 0 66 23q31 22 31 56v39q-15 -20 -43 -33q-27 -13 -60 -13q-101 0 -164 68q-63 67 -63 165q0 103 65 174t165 71q70 0 109 -53l2 7q4 19 26 31q21 12 51 12q34 0 56 -20q21 -20 21 -51v-62.5t-1 -83.5t-1 -83.5v-63.5l2 -108q1 -94 -72 -163q-74 -69 -183 -69
q-97 0 -147 28q-45 24 -45 72q0 32 21 56t50 24q9 0 45 -11q44 -14 70 -14zM191 231q0 -42 24 -67t62 -25q34 0 60 24q25 24 25 72q0 47 -24 71t-57 24q-39 0 -63 -27t-24 -73zM283 538q-40 0 -66 29q-25 28 -19 69q4 31 32 51t59 20q40 0 63 -24q23 -25 23 -60
q0 -40 -26 -63q-25 -22 -66 -22z" />
    <glyph glyph-name="Gcommaaccent" unicode="&#x122;" horiz-adv-x="718" 
d="M386 684q106 0 182 -43q53 -30 53 -69q0 -29 -18 -53t-47 -24q-30 0 -69 21q-47 24 -102 24q-72 0 -127 -55t-55 -139q0 -96 48 -151t128 -55q65 0 101 36q37 37 38 82h-56q-31 0 -49 19t-18 51q0 69 72 69h130q50 0 68 -27t18 -79q-2 -133 -85 -216q-84 -84 -241 -84
q-134 0 -228 99q-94 98 -94 251q0 151 104 250q103 99 248 99zM284 -216q0 13 30 39q8 14 2 20q-3 3 -7 8t-9 12q-10 13 -10 29q0 25 20 45q19 19 48 19q31 0 52 -18t21 -49t-14 -57t-27 -38q-14 -12 -39 -30q-13 -10 -34 -10q-14 0 -24 9t-10 23z" />
    <glyph glyph-name="gcommaaccent" unicode="&#x123;" horiz-adv-x="578" 
d="M341 678q0 -8 -13 -24q-14 -17 -15 -27q0 -5 12 -20t12 -36q0 -25 -20 -45q-19 -19 -50 -19t-52 18t-21 50t15 59q15 28 28 39q13 12 39 30q11 10 33 10q14 0 23 -9t9 -22v-4zM262 -84q34 0 66 23q31 22 31 56v39q-15 -20 -43 -33q-27 -13 -60 -13q-101 0 -164 68
q-63 67 -63 165q0 103 65 174t165 71q70 0 109 -53l2 7q4 19 26 31q21 12 51 12q34 0 56 -20q21 -20 21 -51v-62.5t-1 -83.5t-1 -83.5v-63.5l2 -108q1 -94 -72 -163q-74 -69 -183 -69q-97 0 -147 28q-45 24 -45 72q0 32 21 56t50 24q9 0 45 -11q44 -14 70 -14zM191 227
q0 -42 24 -67t62 -25q34 0 60 24q25 24 25 72q0 47 -24 71t-57 24q-39 0 -63 -27t-24 -73z" />
    <glyph glyph-name="Hcircumflex" unicode="&#x124;" horiz-adv-x="712" 
d="M645 64q1 -39 -21 -55t-66 -16q-39 0 -61 18q-23 18 -21 54v66l-1 122h-242l1 -195q0 -64 -89 -64q-81 0 -81 67q0 19 0.5 57.5t1.5 98.5q1 118 0 183l-4 209q-1 37 21 55t66 18q37 0 60 -15t24 -46v-218h33h33h72h74l31 1v122v92q3 65 87 65q37 0 60 -18t23 -52
q0 -67 -0.5 -135.5t-1.5 -139.5zM450 707q-20 -2 -39 16q-33 30 -60 62q-19 -22 -33 -37t-23 -23q-19 -19 -43 -19q-16 0 -35 17q-18 16 -18 33q0 20 13 36q15 18 84 93q20 23 56 23q30 0 52 -22t43.5 -45t42.5 -48q13 -16 13 -36q0 -15 -16 -32q-17 -18 -36 -18h-1z" />
    <glyph glyph-name="hcircumflex" unicode="&#x125;" horiz-adv-x="570" 
d="M54 644q0 80 85 80q39 0 59 -19q21 -20 21 -54q0 -5 -3 -242q15 25 48 40t66 15q91 0 138 -57q47 -58 47 -151v-127.5t-1 -71.5q-2 -32 -25 -48q-25 -17 -63 -17q-34 0 -58 18t-22 51q0 10 3 91t3 95q0 38 -16 57q-17 20 -46 20q-28 0 -49 -22q-21 -23 -21 -61v-93v-92
q0 -32 -24 -48q-23 -16 -62 -16q-35 0 -57 18q-23 18 -23 52q0 7 0.5 22.5t1.5 40.5t1.5 41.5t0.5 24.5v459zM232 729q-20 -2 -39 16q-33 30 -60 62q-19 -22 -33 -37t-23 -23q-19 -19 -43 -19q-16 0 -35 17q-18 16 -18 33q0 20 13 36q15 18 84 93q20 23 56 23q30 0 52 -22
t43.5 -45t42.5 -48q13 -16 13 -36q0 -15 -16 -32q-17 -18 -36 -18h-1z" />
    <glyph glyph-name="Hbar" unicode="&#x126;" horiz-adv-x="712" 
d="M647 65q1 -39 -21 -55t-66 -16q-41 0 -63 18q-23 18 -21 54v66v60v60h-242v-96v-98q0 -64 -89 -64q-81 0 -81 67v364v43h-12q-52 0 -52 55q0 27 15 41q16 14 41 14h8v32q0 75 85 75q37 0 60 -17t23 -48v-41h245v34q0 36 23 54q22 18 63 18q81 0 81 -73v-34h13
q55 0 55 -52q0 -57 -56 -57h-12v-131zM476 402v65h-244v-65h244z" />
    <glyph glyph-name="hbar" unicode="&#x127;" horiz-adv-x="570" 
d="M54 644q0 80 85 80q39 0 59 -19q21 -20 21 -54v-34h37q60 0 60 -58q0 -56 -68 -56h-31q-1 -14 -1 -37v-57q15 25 48 40t66 15q91 0 138 -57q47 -58 47 -151v-127.5t-1 -71.5q-2 -32 -25 -48q-25 -17 -63 -17q-34 0 -58 18t-22 51q0 10 3 91t3 95q0 38 -16 57
q-17 20 -46 20q-28 0 -49 -22q-21 -23 -21 -61v-93v-92q0 -32 -24 -48q-23 -16 -62 -16q-35 0 -57 18q-23 18 -23 52q0 7 0.5 22.5t1.5 40.5t1.5 41.5t0.5 24.5v319h-14q-59 0 -59 55q0 59 57 59h16v26z" />
    <glyph glyph-name="Itilde" unicode="&#x128;" horiz-adv-x="311" 
d="M73 426v105t-1 77q-1 40 24 58t63 18q34 0 57 -18t23 -49v-123t1 -108v-55v-58v-40l1 -167q1 -34 -24 -52q-26 -18 -61 -18q-37 0 -62 20q-24 20 -23 57v42v49l2 263v-1zM85 754q-1 -13 -14 -24q-11 -10 -34 -10t-39 15q-17 15 -18 45q3 47 32 74q28 27 75 27
q30 0 50 -13q21 -14 36 -27q15 -14 27 -15q19 0 20 19q4 36 51 36q19 0 36 -15q16 -15 16 -37q0 -56 -28 -84q-29 -29 -75 -29q-35 0 -68 27q-32 26 -47 28q-8 0 -14 -6t-7 -13z" />
    <glyph glyph-name="itilde" unicode="&#x129;" horiz-adv-x="275" 
d="M55 400q2 35 25 51q25 17 55 17q83 0 85 -66v-110v-110l1 -115q2 -35 -23 -53q-24 -18 -60 -18q-35 0 -59 15t-24 45v344zM66 565q-1 -13 -14 -24q-11 -10 -34 -10t-39 15q-17 15 -18 45q3 47 32 74q28 27 75 27q30 0 50 -13q21 -14 36 -27q15 -14 27 -15q19 0 20 19
q4 36 51 36q19 0 36 -15q16 -15 16 -37q0 -56 -28 -84q-29 -29 -75 -29q-35 0 -68 27q-32 26 -47 28q-8 0 -14 -6t-7 -13z" />
    <glyph glyph-name="Imacron" unicode="&#x12a;" horiz-adv-x="311" 
d="M73 426v105t-1 77q-1 40 24 58t63 18q34 0 57 -18t23 -49v-123t1 -108v-55v-58v-40l1 -167q1 -34 -24 -52q-26 -18 -61 -18q-37 0 -62 20q-24 20 -23 57v42v49l2 263v-1zM72 737q-35 0 -51 18q-16 17 -16 44t17 46q16 18 48 18h35h38h23.5t30.5 1t32 1h28q62 0 62 -63
q0 -28 -20 -45q-19 -16 -57 -16h-83h-43h-42z" />
    <glyph glyph-name="imacron" unicode="&#x12b;" horiz-adv-x="275" 
d="M55 400q2 35 25 51q25 17 55 17q83 0 85 -66v-110v-110l1 -115q2 -35 -23 -53q-24 -18 -60 -18q-35 0 -59 15t-24 45v344zM55 548q-35 0 -51 18q-16 17 -16 44t17 46q16 18 48 18h35h38h22.5t30.5 1t32 1h27q62 0 62 -63q0 -28 -20 -45q-19 -16 -57 -16h-83h-43h-42v-4z
" />
    <glyph glyph-name="Ibreve" unicode="&#x12c;" horiz-adv-x="311" 
d="M73 426v105t-1 77q-1 40 24 58t63 18q34 0 57 -18t23 -49v-123t1 -108v-55v-58v-40l1 -167q1 -34 -24 -52q-26 -18 -61 -18q-37 0 -62 20q-24 20 -23 57v42v49l2 263v-1zM259 893q25 0 38 -13q14 -14 14 -31q0 -62 -41 -103q-40 -40 -110 -40q-59 0 -102 37
q-44 37 -45 96q-1 22 14 39t38 17q21 0 35 -12t15 -28q3 -19 15 -31t28 -12q19 0 33 12q13 12 15 29t15 29t36 12z" />
    <glyph glyph-name="ibreve" unicode="&#x12d;" horiz-adv-x="275" 
d="M55 400q2 35 25 51q25 17 55 17q83 0 85 -66v-110v-110l1 -115q2 -35 -23 -53q-24 -18 -60 -18q-35 0 -59 15t-24 45v344zM240 704q25 0 38 -13q14 -14 14 -31q0 -62 -41 -103q-40 -40 -110 -40q-59 0 -102 37q-44 37 -45 96q-1 22 14 39t38 17q21 0 35 -12t15 -28
q3 -19 15 -31t28 -12q19 0 33 12q13 12 15 29t15 29t36 12z" />
    <glyph glyph-name="Iogonek" unicode="&#x12e;" horiz-adv-x="311" 
d="M74 427v105t-1 77q-1 40 24 58t63 18q32 0 56 -18t24 -49v-81v-103v-48v-55v-58v-40v-84v-84q0 -38 -32 -58q-64 -54 -64 -98q0 -27 27 -27q5 0 15 2t15 2q20 0 30 -16q11 -17 11 -42q0 -29 -22 -45t-60 -16q-54 0 -91 26q-36 25 -36 84q0 75 76 129q-38 18 -38 67v30v62
v54.5t1 76.5t1 76.5v54.5h1z" />
    <glyph glyph-name="iogonek" unicode="&#x12f;" horiz-adv-x="279" 
d="M56 397q2 35 25 51q25 17 55 17q83 0 85 -66v-110v-110l1 -115q0 -38 -34 -60q-62 -56 -62 -96q0 -27 27 -27q5 0 15 2t15 2q20 0 30 -16q11 -17 11 -42q0 -29 -22 -45t-60 -16q-54 0 -91 26q-36 25 -36 84q0 69 80 126q-38 17 -38 54v344zM133 544q-44 0 -69 31
q-26 31 -18 75q6 34 36 54q29 19 61 19q44 0 68 -26t24 -63q0 -43 -29 -66q-28 -22 -72 -22z" />
    <glyph glyph-name="Idotaccent" unicode="&#x130;" horiz-adv-x="311" 
d="M73 426v105t-1 77q-1 40 24 58t63 18q34 0 57 -18t23 -49v-123t1 -108v-55v-58v-40l1 -167q1 -34 -24 -52q-26 -18 -61 -18q-37 0 -62 20q-24 20 -23 57v42v49l2 263v-1zM155 724q-40 0 -66 29q-25 28 -19 69q4 31 32 51t59 20q40 0 63 -24q23 -25 23 -60q0 -40 -26 -63
q-25 -22 -66 -22z" />
    <glyph glyph-name="dotlessi" unicode="&#x131;" horiz-adv-x="275" 
d="M55 400q2 35 25 51q25 17 55 17q83 0 85 -66v-110v-110l1 -115q2 -35 -23 -53q-24 -18 -60 -18q-35 0 -59 15t-24 45v344v0z" />
    <glyph glyph-name="IJ" unicode="&#x132;" horiz-adv-x="806" 
d="M73 426v105t-1 77q-1 40 24 58t63 18q34 0 57 -18t23 -49v-123t1 -108v-55v-58v-40l1 -167q1 -34 -24 -52q-26 -18 -61 -18q-37 0 -62 20q-24 20 -23 57v42v49l2 263v-1zM565 608q-1 34 23 57q25 23 62 23q40 0 66 -20q25 -19 25 -60v-46.5t1 -64.5t1 -67v-53
q0 -20 -0.5 -49.5t-1.5 -67.5q-4 -124 -63 -196t-183 -72q-90 0 -148 49q-36 31 -36 71q0 33 21 56t51 23q34 0 62 -22q26 -19 54 -19q41 0 56 45t15 134z" />
    <glyph glyph-name="ij" unicode="&#x133;" horiz-adv-x="561" 
d="M57 400q2 35 25 51q25 17 55 17q83 0 85 -66v-110v-110l1 -115q2 -35 -23 -53q-24 -18 -60 -18q-35 0 -59 15t-24 45v344zM134 547q-44 0 -69 31q-26 31 -18 75q6 34 36 54q29 19 61 19q44 0 68 -26t24 -63q0 -43 -29 -66q-28 -22 -72 -22zM337 404q0 28 26 45t60 17
t57 -15t23 -47v-110v-117v-76v-94v-41.5t-1 -37.5q-2 -68 -60 -117q-59 -50 -138 -51q-123 -2 -123 87q0 32 17 54q16 21 41 21q8 0 26 -3q20 -3 29 -2q25 1 36 24q10 21 10 71q0 60 -0.5 119.5t-1.5 120.5q-2 43 -2.5 81t0.5 71h1zM408 540q-43 0 -68 24q-26 24 -26 68
t30 68t72 24q46 0 73 -27t27 -67q0 -91 -106 -91z" />
    <glyph glyph-name="Jcircumflex" unicode="&#x134;" horiz-adv-x="495" 
d="M254 609q-1 34 23 57q25 23 62 23q40 0 66 -20q25 -19 25 -60v-46.5t1 -64.5t1 -67v-53q0 -20 -0.5 -49.5t-1.5 -67.5q-4 -124 -63 -196t-183 -72q-90 0 -148 49q-36 31 -36 71q0 33 21 56t51 23q34 0 62 -22q26 -19 54 -19q41 0 56 45t15 134zM441 713q-20 -2 -39 16
q-33 30 -60 62q-19 -22 -33 -37t-23 -23q-19 -19 -43 -19q-16 0 -35 17q-18 16 -18 33q0 20 13 36q15 18 84 93q20 23 56 23q30 0 52 -22t43.5 -45t42.5 -48q13 -16 13 -36q0 -15 -16 -32q-17 -18 -36 -18h-1z" />
    <glyph glyph-name="jcircumflex" unicode="&#x135;" horiz-adv-x="279" 
d="M57 406q0 28 26 45t60 17t57 -15t23 -47v-110v-117v-76v-94v-41.5t-1 -37.5q-2 -68 -60 -117q-59 -50 -138 -51q-123 -2 -123 87q0 32 17 54q16 21 41 21q8 0 26 -3q20 -3 29 -2q25 1 36 24q10 21 10 71q0 60 -0.5 119.5t-1.5 120.5q-2 43 -2.5 81t0.5 71h1zM242 520
q-20 -2 -39 16q-33 30 -60 62q-19 -22 -33 -37t-23 -23q-19 -19 -43 -19q-16 0 -35 17q-18 16 -18 33q0 20 13 36q15 18 84 93q20 23 56 23q30 0 52 -22t43.5 -45t42.5 -48q13 -16 13 -36q0 -15 -16 -32q-17 -18 -36 -18h-1z" />
    <glyph glyph-name="Kcommaaccent" unicode="&#x136;" horiz-adv-x="635" 
d="M425 637q36 44 74 44q32 0 59 -24t27 -51q0 -35 -33 -72q-53 -59 -138 -144q-17 -17 -24 -27q31 -40 61.5 -76.5t61.5 -71.5l64 -70q35 -38 35 -74q0 -33 -29 -57t-60 -24q-41 0 -69 37q-11 13 -36 48l-140 188l-24 -27q-8 -9 -13.5 -14.5l-7.5 -7.5l1 -153
q0 -68 -84 -69q-39 -2 -63 18q-24 19 -24 54v43v62v217v225q0 37 24 55t62 18q39 0 62 -18t23 -52v-116.5t-1 -85.5zM246 -213q0 13 30 39q8 14 2 20q-3 3 -7 8t-9 12q-10 13 -10 29q0 25 20 45q19 19 48 19q31 0 52 -18t21 -49t-14 -57t-27 -38q-14 -12 -39 -30
q-11 -10 -34 -10q-14 0 -24 9t-10 23z" />
    <glyph glyph-name="kcommaaccent" unicode="&#x137;" horiz-adv-x="506" 
d="M469 113q18 -23 18 -45q0 -27 -27 -51t-58 -24q-32 0 -60 37l-105 137l-25 -23l-1 -82q-2 -68 -78 -68q-37 0 -60 20q-23 19 -21 54l2 96v76t-1 125q-2 148 0 237v29v29q0 31 26 49q25 18 57 18q38 0 60 -16q23 -17 23 -48q0 -20 -1.5 -107.5t-3.5 -244.5l122 125
q31 31 63 31q28 0 53 -25q26 -26 26 -51t-20 -45q-5 -5 -105 -96zM189 -211q0 13 30 39q8 14 2 20q-3 3 -7 8t-9 12q-10 13 -10 29q0 25 20 45q19 19 48 19q31 0 52 -18t21 -49t-14 -57t-27 -38q-14 -12 -39 -30q-11 -10 -34 -10q-14 0 -24 9t-10 23z" />
    <glyph glyph-name="kgreenlandic" unicode="&#x138;" horiz-adv-x="506" 
d="M460 119q24 -26 24 -50q0 -27 -26 -51t-57 -24q-32 0 -60 37l-105 135h-25l-1 -103q-2 -68 -78 -68q-37 0 -60 20q-23 19 -21 54l1 103l-1 223q0 35 25 54t57 19q35 0 58 -18q22 -18 22 -52l-1 -87h21q14 2 29 25q16 26 32 56q16 31 32 45q34 29 82 29q32 0 53 -23
t20 -54q-2 -51 -42 -66q-26 -9 -51 -46q-26 -38 -30 -42z" />
    <glyph glyph-name="Lacute" unicode="&#x139;" horiz-adv-x="517" 
d="M60 617q1 33 27 51q25 18 63 18q77 0 79 -68q0 -2 -3 -195v-169v-105h51t30 1l124 4q36 1 52 -18t16 -52q0 -82 -72 -82l-110 1q-40 0 -70 -0.5t-51 -1.5q-75 -3 -101 13q-27 16 -34 67q-1 10 -1.5 19t-0.5 17q0 32 3 110t3 120v131v135zM154 722q-20 -14 -42 -14
q-16 0 -37 18t-21 37q0 18 12 36l81 96q25 30 54 30q25 0 50 -23q24 -23 24 -50q0 -22 -21 -43q-35 -35 -102 -87h2z" />
    <glyph glyph-name="lacute" unicode="&#x13a;" horiz-adv-x="284" 
d="M181 753q-17 -15 -45 -15q-18 0 -39 18t-21 38q0 18 12 36l60 75q24 31 55 31q26 0 51 -23q24 -23 24 -50q0 -20 -21 -42zM63 645q1 36 25 55q23 19 61 19q40 0 63 -18q22 -18 21 -55q-3 -155 -3 -462q0 -9 0.5 -23t1.5 -34q1 -39 0 -57q-1 -37 -18 -55q-16 -17 -60 -22
q-45 -5 -69 21q-23 25 -25 90q-5 150 0 543z" />
    <glyph glyph-name="Lcommaaccent" unicode="&#x13b;" horiz-adv-x="517" 
d="M60 617q1 33 27 51q25 18 63 18q77 0 79 -68q0 -2 -3 -195v-169v-105h51t30 1l124 4q36 1 52 -18t16 -52q0 -82 -72 -82l-110 1q-40 0 -70 -0.5t-51 -1.5q-75 -3 -101 13q-27 16 -34 67q-1 10 -1.5 19t-0.5 17q0 32 3 110t3 120v131v135zM205 -206q0 13 30 39q8 14 2 20
q-3 3 -7 8t-9 12q-10 13 -10 29q0 25 20 45q19 19 48 19q31 0 52 -18t21 -49t-14 -57t-27 -38q-14 -12 -39 -30q-11 -10 -34 -10q-14 0 -24 9t-10 23z" />
    <glyph glyph-name="lcommaaccent" unicode="&#x13c;" horiz-adv-x="284" 
d="M62 646q1 36 25 55q23 19 61 19q40 0 63 -18q22 -18 21 -55q-3 -155 -3 -462q0 -9 0.5 -23t1.5 -34q1 -39 0 -57q-1 -37 -18 -55q-16 -17 -60 -22q-45 -5 -69 21q-23 25 -25 90q-5 150 0 543zM74 -212q0 13 30 39q8 14 2 20q-3 3 -7 8t-9 12q-10 13 -10 29q0 25 20 45
q19 19 48 19q31 0 52 -18t21 -49t-14 -57t-27 -38q-14 -12 -39 -30q-11 -10 -34 -10q-14 0 -24 9t-10 23z" />
    <glyph glyph-name="Lcaron" unicode="&#x13d;" horiz-adv-x="527" 
d="M403 541q-19 3 -33 20q-14 16 -15 45q0 33 24 56q25 23 55 23q38 0 64 -24q25 -24 25 -67q0 -45 -25 -85q-26 -41 -66 -66q-12 -9 -28 -9q-14 0 -27 11q-12 10 -12 24q0 20 13 30q27 24 27 38v2zM58 619q1 33 27 51q25 18 63 18q77 0 79 -68q0 -2 -3 -195v-169v-105h51
t30 1l124 4q36 1 52 -18t16 -52q0 -82 -72 -82l-110 1q-40 0 -70 -0.5t-51 -1.5q-75 -3 -101 13q-27 16 -34 67q-1 10 -1.5 19t-0.5 17q0 32 3 110t3 120v131v135z" />
    <glyph glyph-name="lcaron" unicode="&#x13e;" horiz-adv-x="408" 
d="M310 595q-18 3 -31 19t-13 43q-2 30 21 51q22 21 51 21q37 0 60 -22q24 -23 24 -63q0 -43 -24 -80q-24 -38 -61 -60q-12 -9 -26 -9q-12 0 -25 11q-12 10 -12 24q0 16 12 27q25 22 25 36v1zM61 647q1 36 25 55q23 19 61 19q40 0 63 -18q22 -18 21 -55q-3 -155 -3 -462
q0 -9 0.5 -23t1.5 -34q1 -39 0 -57q-1 -37 -18 -55q-16 -17 -60 -22q-45 -5 -69 21q-23 25 -25 90q-5 150 0 543z" />
    <glyph glyph-name="Ldot" unicode="&#x13f;" horiz-adv-x="517" 
d="M60 617q1 33 27 51q25 18 63 18q77 0 79 -68q0 -2 -3 -195v-169v-105h51t30 1l124 4q36 1 52 -18t16 -52q0 -82 -72 -82l-110 1q-40 0 -70 -0.5t-51 -1.5q-75 -3 -101 13q-27 16 -34 67q-1 10 -1.5 19t-0.5 17q0 32 3 110t3 120v131v135zM403 275q-38 0 -63 24t-25 62
q0 40 27 67t68 27q39 0 65 -24t26 -64q0 -41 -27 -66q-26 -25 -70 -25z" />
    <glyph glyph-name="ldot" unicode="&#x140;" horiz-adv-x="461" 
d="M62 646q1 36 25 55q23 19 61 19q40 0 63 -18q22 -18 21 -55q-3 -155 -3 -462q0 -9 0.5 -23t1.5 -34q1 -39 0 -57q-1 -37 -18 -55q-16 -17 -60 -22q-45 -5 -69 21q-23 25 -25 90q-5 150 0 543zM368 205q-38 0 -63 24t-25 62q0 40 27 67t68 27q39 0 65 -24t26 -64
q0 -41 -27 -66q-26 -25 -70 -25z" />
    <glyph glyph-name="Lslash" unicode="&#x141;" horiz-adv-x="517" 
d="M61 614q1 33 27 51q25 18 63 18q80 0 81 -70l-2 -120v-52l22 13q25 15 54 15q22 0 40 -24t18 -51q0 -36 -45 -60l-89 -50v-32l-1 -105h51t30 1l124 4q36 1 52 -18t16 -52q0 -82 -72 -82l-233 -1q-74 -3 -105 18t-30 73l3 83v23l-6 -3q-13 -7 -24 -7q-24 0 -43 24
q-19 23 -19 49q0 39 42 62l50 28v264z" />
    <glyph glyph-name="lslash" unicode="&#x142;" horiz-adv-x="310" 
d="M70 201l-9 -6q-11 -7 -25 -7q-24 0 -42 23q-18 22 -18 48q0 39 42 65l52 35v141v140q0 38 23 59q22 21 62 21t63 -18q22 -18 21 -55q-1 -70 -1.5 -116.5t-0.5 -69.5l2 2q10 6 27 6q26 0 44 -22q18 -23 18 -51q0 -38 -46 -66l-44 -28v-134q0 -8 0.5 -20t1.5 -29t1.5 -28
t0.5 -16q0 -36 -18 -58t-56 -22q-52 0 -74 24q-23 25 -23 84z" />
    <glyph glyph-name="Nacute" unicode="&#x143;" horiz-adv-x="724" 
d="M231 76q0 -41 -22 -60t-57 -19q-84 0 -87 70v89t1 133v207v118q2 32 33 50t69 18q50 0 89 -55l210 -293l27 -43v69v69l-2 167q-1 47 20 67q20 19 68 19q35 0 57 -19q23 -20 23 -55v-172v-171v-70v-129q0 -33 -30 -52q-29 -19 -69 -19q-28 0 -48 14q-20 13 -39 42
l-245 353q-2 -71 0 -180q1 -55 1.5 -92.5t0.5 -57.5v2zM369 720q-20 -14 -42 -14q-16 0 -37 18t-21 37q0 18 12 36l81 96q25 30 54 30q25 0 50 -23q24 -23 24 -50q0 -22 -21 -43q-35 -35 -102 -87h2z" />
    <glyph glyph-name="nacute" unicode="&#x144;" horiz-adv-x="571" 
d="M57 379q-2 84 82 84q64 0 73 -51l3 -18q13 31 51 51t76 20q86 0 132 -52q47 -53 47 -150v-59v-62v-79q0 -69 -88 -69q-34 0 -57 17q-22 16 -22 51v30t1 47t1 48v33q0 50 -12 79t-46 30q-48 1 -64 -30t-16 -103l1 -137q0 -34 -24 -49t-55 -15q-41 0 -63 15t-22 54
q0 16 0.5 46.5t1.5 76.5q1 91 0 142v50zM301 524q-20 -14 -42 -14q-16 0 -37 18t-21 37q0 18 12 36l81 96q25 30 54 30q25 0 50 -23q24 -23 24 -50q0 -22 -21 -43q-35 -35 -102 -87h2z" />
    <glyph glyph-name="Ncommaaccent" unicode="&#x145;" horiz-adv-x="724" 
d="M231 76q0 -41 -22 -60t-57 -19q-84 0 -87 70v89t1 133v207v118q2 32 33 50t69 18q50 0 89 -55l210 -293l27 -43v69v69l-2 167q-1 47 20 67q20 19 68 19q35 0 57 -19q23 -20 23 -55v-172v-171v-70v-129q0 -33 -30 -52q-29 -19 -69 -19q-28 0 -48 14q-20 13 -39 42
l-245 353q-2 -71 0 -180q1 -55 1.5 -92.5t0.5 -57.5v2zM286 -208q0 13 30 39q8 14 2 20q-3 3 -7 8t-9 12q-10 13 -10 29q0 25 20 45q19 19 48 19q31 0 52 -18t21 -49t-14 -57t-27 -38q-14 -12 -39 -30q-11 -10 -34 -10q-14 0 -24 9t-10 23z" />
    <glyph glyph-name="ncommaaccent" unicode="&#x146;" horiz-adv-x="571" 
d="M57 379q-2 84 82 84q64 0 73 -51l3 -18q13 31 51 51t76 20q86 0 132 -52q47 -53 47 -150v-59v-62v-79q0 -69 -88 -69q-34 0 -57 17q-22 16 -22 51v30t1 47t1 48v33q0 50 -12 79t-46 30q-48 1 -64 -30t-16 -103l1 -137q0 -34 -24 -49t-55 -15q-41 0 -63 15t-22 54
q0 16 0.5 46.5t1.5 76.5q1 91 0 142v50zM214 -214q0 13 30 39q8 14 2 20q-3 3 -7 8t-9 12q-10 13 -10 29q0 25 20 45q19 19 48 19q31 0 52 -18t21 -49t-14 -57t-27 -38q-14 -12 -39 -30q-11 -10 -34 -10q-14 0 -24 9t-10 23z" />
    <glyph glyph-name="Ncaron" unicode="&#x147;" horiz-adv-x="724" 
d="M231 76q0 -41 -22 -60t-57 -19q-84 0 -87 70v89t1 133v207v118q2 32 33 50t69 18q50 0 89 -55l210 -293l27 -43v69v69l-2 167q-1 47 20 67q20 19 68 19q35 0 57 -19q23 -20 23 -55v-172v-171v-70v-129q0 -33 -30 -52q-29 -19 -69 -19q-28 0 -48 14q-20 13 -39 42
l-245 353q-2 -71 0 -180q1 -55 1.5 -92.5t0.5 -57.5v2zM266 910q21 0 38 -16q33 -30 60 -62q19 22 33 37t23 23q19 19 43 19q18 0 35 -16q18 -17 18 -33q0 -20 -13 -36q-15 -18 -84 -93q-19 -22 -57 -22q-31 0 -52 21q-22 22 -43.5 45t-42.5 48q-13 16 -13 36q0 15 17 32
t36 17h2z" />
    <glyph glyph-name="ncaron" unicode="&#x148;" horiz-adv-x="571" 
d="M57 379q-2 84 82 84q64 0 73 -51l3 -18q13 31 51 51t76 20q86 0 132 -52q47 -53 47 -150v-59v-62v-79q0 -69 -88 -69q-34 0 -57 17q-22 16 -22 51v30t1 47t1 48v33q0 50 -12 79t-46 30q-48 1 -64 -30t-16 -103l1 -137q0 -34 -24 -49t-55 -15q-41 0 -63 15t-22 54
q0 16 0.5 46.5t1.5 76.5q1 91 0 142v50zM198 714q21 0 38 -16q33 -30 60 -62q19 22 33 37t23 23q19 19 43 19q18 0 35 -16q18 -17 18 -33q0 -20 -13 -36q-15 -18 -84 -93q-19 -22 -57 -22q-31 0 -52 21q-22 22 -43.5 45t-42.5 48q-13 16 -13 36q0 15 17 32t36 17h2z" />
    <glyph glyph-name="napostrophe" unicode="&#x149;" horiz-adv-x="571" 
d="M36 595q-18 3 -31 19t-13 43q-2 30 21 51q22 21 51 21q37 0 60 -22q24 -23 24 -63q0 -43 -24 -80q-24 -38 -61 -60q-12 -9 -26 -9q-12 0 -25 11q-12 10 -12 24q0 16 12 27q25 22 25 36v1zM56 380q-2 84 82 84q64 0 73 -51l3 -18q13 31 51 51t76 20q86 0 132 -52
q47 -53 47 -150v-59v-62v-79q0 -69 -88 -69q-34 0 -57 17q-22 16 -22 51v30t1 47t1 48v33q0 50 -12 79t-46 30q-48 1 -64 -30t-16 -103l1 -137q0 -34 -24 -49t-55 -15q-41 0 -63 15t-22 54q0 16 0.5 46.5t1.5 76.5q1 91 0 142v50z" />
    <glyph glyph-name="Eng" unicode="&#x14a;" horiz-adv-x="724" 
d="M230 74q0 -41 -22 -60t-57 -19q-84 0 -87 70v89t1 133v207v118q2 32 33 50t69 18q50 0 89 -55l210 -293l27 -43l-1 138l-2 167q-1 47 20 67q20 19 68 19q35 0 57 -19q23 -20 23 -55v-634q0 -94 -49 -155q-50 -62 -139 -63q-26 0 -45 3t-37 12q-17 9 -28 27q-10 17 -10 45
q0 33 18 53t42 20q4 0 9 -0.5t12 -1.5q14 -2 26 0q25 1 33 23q7 20 7 71v13l-268 385q-2 -71 0 -180q1 -55 1.5 -92.5t0.5 -57.5h-1z" />
    <glyph glyph-name="eng" unicode="&#x14b;" horiz-adv-x="571" 
d="M360 218q0 50 -12 79q-12 28 -47 30q-48 1 -64 -30t-16 -103l1 -137q0 -34 -24 -49t-55 -15q-41 0 -63 15t-22 54q0 16 0.5 46.5t1.5 76.5q1 91 0 142l-1 54q-2 84 82 84q64 0 73 -51l3 -18q13 31 51 51t76 20q86 0 132 -52q47 -53 47 -150v-313q0 -92 -57 -140
q-56 -47 -142 -49q-53 -1 -87 17q-33 18 -33 70q0 34 16 54q16 21 40 21q8 0 23 -3q17 -3 26 -2q25 1 36 24q11 24 11 71v208z" />
    <glyph glyph-name="Omacron" unicode="&#x14c;" horiz-adv-x="744" 
d="M368 685q139 0 241 -96t102 -244q0 -149 -99 -252q-99 -104 -244 -104q-134 0 -234 93q-101 93 -101 243q0 161 104 263q103 102 234 100zM540 343q0 87 -52 138q-53 51 -126 51q-72 0 -117 -56t-45 -143q0 -86 48 -137t122 -51q70 0 120 59t50 138v1zM282 736
q-35 0 -51 18q-16 17 -16 44t17 46q16 18 48 18h35h38h22.5t30.5 1t32 1h27q62 0 62 -63q0 -28 -20 -45q-19 -16 -57 -16h-83h-43h-42v-4z" />
    <glyph glyph-name="omacron" unicode="&#x14d;" 
d="M295 470q23 0 38 -4q93 -17 141 -82q48 -66 48 -151q0 -105 -71 -173t-180 -68q-101 0 -171 64t-70 163q0 113 70 180q71 68 195 71zM361 237q0 33 -23 64q-23 30 -57 29q-43 -2 -65 -30q-23 -29 -23 -79q0 -36 23 -64q22 -27 54 -27q39 0 65 30q26 31 26 77zM186 548
q-35 0 -51 18q-16 17 -16 44t17 46q16 18 48 18h35h38h23.5t30.5 1t32 1h28q62 0 62 -63q0 -28 -20 -45q-19 -16 -57 -16h-83h-43h-42z" />
    <glyph glyph-name="Obreve" unicode="&#x14e;" horiz-adv-x="744" 
d="M368 685q139 0 241 -96t102 -244q0 -149 -99 -252q-99 -104 -244 -104q-134 0 -234 93q-101 93 -101 243q0 161 104 263q103 102 234 100zM540 343q0 87 -52 138q-53 51 -126 51q-72 0 -117 -56t-45 -143q0 -86 48 -137t122 -51q70 0 120 59t50 138v1zM467 892
q25 0 38 -13q14 -14 14 -31q0 -62 -41 -103q-40 -40 -110 -40q-59 0 -102 37q-44 37 -45 96q-1 22 14 39t38 17q21 0 35 -12t15 -28q3 -19 15 -31t28 -12q19 0 33 12q13 12 15 29t15 29t36 12z" />
    <glyph glyph-name="obreve" unicode="&#x14f;" 
d="M295 470q23 0 38 -4q93 -17 141 -82q48 -66 48 -151q0 -105 -71 -173t-180 -68q-101 0 -171 64t-70 163q0 113 70 180q71 68 195 71zM361 237q0 33 -23 64q-23 30 -57 29q-43 -2 -65 -30q-23 -29 -23 -79q0 -36 23 -64q22 -27 54 -27q39 0 65 30q26 31 26 77zM373 704
q25 0 38 -13q14 -14 14 -31q0 -62 -41 -103q-40 -40 -110 -40q-59 0 -102 37q-44 37 -45 96q-1 22 14 39t38 17q21 0 35 -12t15 -28q3 -19 15 -31t28 -12q19 0 33 12q13 12 15 29t15 29t36 12z" />
    <glyph glyph-name="Ohungarumlaut" unicode="&#x150;" horiz-adv-x="744" 
d="M368 685q139 0 241 -96t102 -244q0 -149 -99 -252q-99 -104 -244 -104q-134 0 -234 93q-101 93 -101 243q0 161 104 263q103 102 234 100zM540 343q0 87 -52 138q-53 51 -126 51q-72 0 -117 -56t-45 -143q0 -86 48 -137t122 -51q70 0 120 59t50 138v1zM320 725
q-17 -20 -39 -20q-19 0 -36 14q-16 13 -16 35q0 14 10 30l58 93q19 34 48 34q26 0 45 -16t19 -42q0 -21 -12 -37zM491 720q-19 -19 -36 -19q-21 0 -39 12t-18 32q0 10 12 33l60 92q23 35 51 35q25 0 45 -16q21 -17 21 -37q0 -26 -16 -45z" />
    <glyph glyph-name="ohungarumlaut" unicode="&#x151;" 
d="M295 470q23 0 38 -4q93 -17 141 -82q48 -66 48 -151q0 -105 -71 -173t-180 -68q-101 0 -171 64t-70 163q0 113 70 180q71 68 195 71zM361 237q0 33 -23 64q-23 30 -57 29q-43 -2 -65 -30q-23 -29 -23 -79q0 -36 23 -64q22 -27 54 -27q39 0 65 30q26 31 26 77zM225 537
q-17 -20 -39 -20q-19 0 -36 14q-16 13 -16 35q0 14 10 30l58 93q19 34 48 34q26 0 45 -16t19 -42q0 -21 -12 -37zM396 532q-19 -19 -36 -19q-21 0 -39 12t-18 32q0 10 12 33l60 92q23 35 51 35q25 0 45 -16q21 -17 21 -37q0 -26 -16 -45z" />
    <glyph glyph-name="OE" unicode="&#x152;" horiz-adv-x="1073" 
d="M377 689q75 0 129 -25q55 -25 76 -57q0 8 5 25q16 49 75 49h62.5t51.5 -1h67.5t61.5 1t44.5 1h17.5q31 0 50 -19q20 -20 20 -46q0 -78 -62 -78h-233v-21v-21l-2 -91h26h131t56 -1q43 -12 42 -69q-2 -69 -72 -69h-185q-1 -8 -1 -19v-27v-38v-38q46 -2 138 0q46 1 71.5 1.5
t30.5 0.5q65 0 65 -72q0 -75 -92 -75q-80 0 -142 -0.5t-108 -1.5q-89 -2 -111 55q-4 8 -7 27q-28 -40 -84 -64t-128 -24q-137 0 -237 93t-100 244q0 109 52 192q52 84 131 126t164 41zM574 346q-3 85 -56 138q-52 52 -138 52q-74 0 -126 -57q-52 -56 -52 -142t54 -138
q54 -53 132 -51q83 1 136 59q53 57 51 140z" />
    <glyph glyph-name="oe" unicode="&#x153;" horiz-adv-x="858" 
d="M293 463q40 4 87 -18q46 -22 69 -59q22 36 69 60q46 24 96 24q95 0 155 -57t60 -133q0 -48 -15 -66t-65 -18h-49t-63 -1t-60 -1h-40q4 -26 30 -43q25 -16 54 -16q25 0 66 15q40 15 65 15t45 -24q19 -23 19 -55q0 -27 -24 -49q-50 -46 -179 -46q-50 0 -96 24t-70 58
q-74 -81 -183 -81q-98 0 -168 67t-70 159q0 103 72 177q72 73 171 73q9 0 17 -3q7 -3 11 -3zM360 237q0 37 -24 66t-59 27q-42 -2 -66 -30q-24 -29 -24 -79q0 -37 24 -64t56 -27q40 0 67 29q27 28 27 78h-1zM610 343q-30 0 -54 -18q-25 -18 -26 -42q144 0 144 7q0 24 -18 39
t-46 15v-1z" />
    <glyph glyph-name="Racute" unicode="&#x154;" horiz-adv-x="619" 
d="M62 593q0 41 28 63t72 24q34 1 63 3h35h47q114 0 186 -60t72 -167q0 -60 -30 -111t-80 -75q25 -35 114 -150q19 -23 19 -51q0 -31 -26 -52q-25 -20 -63 -22q-17 0 -30 7q-14 8 -20 15l-7.5 10t-11.5 14l-15 22.5l-37 55.5q-48 72 -75 108h-37h-37v-31.5t1 -47.5t1 -46.5
v-28.5q0 -72 -68 -77q-53 -2 -75 16t-22 65q2 195 0 425v19t-1 26t-1 26v18zM300 542h-37h-36l1 -173h61q46 0 78 21q31 21 33 63q1 43 -23 66q-25 23 -76 23h-1zM305 720q-20 -14 -42 -14q-16 0 -37 18t-21 37q0 18 12 36l81 96q25 30 54 30q25 0 50 -23q24 -23 24 -50
q0 -22 -21 -43q-35 -35 -102 -87h2z" />
    <glyph glyph-name="racute" unicode="&#x155;" horiz-adv-x="388" 
d="M54 393q0 36 21 54t59 18q48 0 60 -42l7 -25q14 30 46 51q33 21 66 21q69 0 69 -75q0 -32 -16 -55q-17 -24 -46 -24h-13q-92 0 -92 -127q0 -5 0.5 -20t1.5 -39q1 -48 0 -70q-1 -32 -24 -49q-22 -16 -59 -16q-80 0 -80 75v50t1 70t1 68v45v90h-2zM219 528q-20 -14 -42 -14
q-16 0 -37 18t-21 37q0 18 12 36l81 96q25 30 54 30q25 0 50 -23q24 -23 24 -50q0 -22 -21 -43q-35 -35 -102 -87h2z" />
    <glyph glyph-name="Rcommaaccent" unicode="&#x156;" horiz-adv-x="619" 
d="M62 593q0 41 28 63t72 24q34 1 63 3h35h47q114 0 186 -60t72 -167q0 -60 -30 -111t-80 -75q25 -35 114 -150q19 -23 19 -51q0 -31 -26 -52q-25 -20 -63 -22q-17 0 -30 7q-14 8 -20 15l-7.5 10t-11.5 14l-15 22.5l-37 55.5q-48 72 -75 108h-37h-37v-31.5t1 -47.5t1 -46.5
v-28.5q0 -72 -68 -77q-53 -2 -75 16t-22 65q2 195 0 425v19t-1 26t-1 26v18zM300 542h-37h-36l1 -173h61q46 0 78 21q31 21 33 63q1 43 -23 66q-25 23 -76 23h-1zM245 -208q0 13 30 39q8 14 2 20q-3 3 -7 8t-9 12q-10 13 -10 29q0 25 20 45q19 19 48 19q31 0 52 -18t21 -49
t-14 -57t-27 -38q-14 -12 -39 -30q-11 -10 -34 -10q-14 0 -24 9t-10 23z" />
    <glyph glyph-name="rcommaaccent" unicode="&#x157;" horiz-adv-x="388" 
d="M54 393q0 36 21 54t59 18q48 0 60 -42l7 -25q14 30 46 51q33 21 66 21q69 0 69 -75q0 -32 -16 -55q-17 -24 -46 -24h-13q-92 0 -92 -127q0 -5 0.5 -20t1.5 -39q1 -48 0 -70q-1 -32 -24 -49q-22 -16 -59 -16q-80 0 -80 75v50t1 70t1 68v45v90h-2zM56 -210q0 13 30 39
q8 14 2 20q-3 3 -7 8t-9 12q-10 13 -10 29q0 25 20 45q19 19 48 19q31 0 52 -18t21 -49t-14 -57t-27 -38q-14 -12 -39 -30q-13 -10 -34 -10q-14 0 -24 9t-10 23z" />
    <glyph glyph-name="Rcaron" unicode="&#x158;" horiz-adv-x="619" 
d="M62 593q0 41 28 63t72 24q34 1 63 3h35h47q114 0 186 -60t72 -167q0 -60 -30 -111t-80 -75q25 -35 114 -150q19 -23 19 -51q0 -31 -26 -52q-25 -20 -63 -22q-17 0 -30 7q-14 8 -20 15l-7.5 10t-11.5 14l-15 22.5l-37 55.5q-48 72 -75 108h-37h-37v-31.5t1 -47.5t1 -46.5
v-28.5q0 -72 -68 -77q-53 -2 -75 16t-22 65q2 195 0 425v19t-1 26t-1 26v18zM300 542h-37h-36l1 -173h61q46 0 78 21q31 21 33 63q1 43 -23 66q-25 23 -76 23h-1zM202 910q21 0 38 -16q33 -30 60 -62q19 22 33 37t23 23q19 19 43 19q18 0 35 -16q18 -17 18 -33
q0 -20 -13 -36q-15 -18 -84 -93q-19 -22 -57 -22q-31 0 -52 21q-22 22 -43.5 45t-42.5 48q-13 16 -13 36q0 15 17 32t36 17h2z" />
    <glyph glyph-name="rcaron" unicode="&#x159;" horiz-adv-x="388" 
d="M54 393q0 36 21 54t59 18q48 0 60 -42l7 -25q14 30 46 51q33 21 66 21q69 0 69 -75q0 -32 -16 -55q-17 -24 -46 -24h-13q-92 0 -92 -127q0 -5 0.5 -20t1.5 -39q1 -48 0 -70q-1 -32 -24 -49q-22 -16 -59 -16q-80 0 -80 75v50t1 70t1 68v45v90h-2zM116 718q21 0 38 -16
q33 -30 60 -62q19 22 33 37t23 23q19 19 43 19q18 0 35 -16q18 -17 18 -33q0 -20 -13 -36q-15 -18 -84 -93q-19 -22 -57 -22q-31 0 -52 21q-22 22 -43.5 45t-42.5 48q-13 16 -13 36q0 15 17 32t36 17h2z" />
    <glyph glyph-name="Sacute" unicode="&#x15a;" horiz-adv-x="579" 
d="M474 651q42 -20 42 -72q0 -26 -21 -50t-49 -24q-21 0 -66 17q-41 15 -81 15q-34 0 -58 -18t-24 -43q0 -26 27 -39t80 -24q106 -21 162 -66t56 -136q0 -104 -72 -162q-72 -59 -181 -60q-114 -1 -198 38q-50 23 -50 74q0 34 21 60t50 26q26 0 65 -15q3 0 20 -7
q9 -4 15.5 -6t11.5 -4q9 -3 28 -6t37 -3q36 0 60 18t24 47q0 46 -99 66q-105 21 -166 65q-60 43 -60 125q0 93 74 158t179 65q104 0 176 -35zM305 714q-20 -14 -42 -14q-16 0 -37 18t-21 37q0 18 12 36l81 96q25 30 54 30q25 0 50 -23q24 -23 24 -50q0 -22 -21 -43
q-35 -35 -102 -87h2z" />
    <glyph glyph-name="sacute" unicode="&#x15b;" horiz-adv-x="458" 
d="M232 469q86 0 136 -21q39 -17 39 -53q0 -69 -61 -69q-18 0 -54 10t-54 10q-54 0 -54 -28q0 -3 2 -7q1 -3 6 -6q3 -2 7 -4q3 -2 10 -3q10 -2 12 -2h5.5t8.5 -1q10 -2 14 -3q86 -12 131 -45t45 -98q0 -75 -53 -117t-153 -42q-78 0 -129 22q-53 23 -53 55q0 75 62 75
q25 0 66 -12q40 -12 73 -12q41 0 41 27q0 14 -15 20q-8 3 -22.5 6t-36.5 7q-165 24 -165 132q0 70 58 115t138 45zM237 527q-20 -14 -42 -14q-16 0 -37 18t-21 37q0 18 12 36l81 96q25 30 54 30q25 0 50 -23q24 -23 24 -50q0 -22 -21 -43q-35 -35 -102 -87h2z" />
    <glyph glyph-name="Scircumflex" unicode="&#x15c;" horiz-adv-x="579" 
d="M474 651q42 -20 42 -72q0 -26 -21 -50t-49 -24q-21 0 -66 17q-41 15 -81 15q-34 0 -58 -18t-24 -43q0 -26 27 -39t80 -24q106 -21 162 -66t56 -136q0 -104 -72 -162q-72 -59 -181 -60q-114 -1 -198 38q-50 23 -50 74q0 34 21 60t50 26q26 0 65 -15q3 0 20 -7
q9 -4 15.5 -6t11.5 -4q9 -3 28 -6t37 -3q36 0 60 18t24 47q0 46 -99 66q-105 21 -166 65q-60 43 -60 125q0 93 74 158t179 65q104 0 176 -35zM398 706q-20 -2 -39 16q-33 30 -60 62q-19 -22 -33 -37t-23 -23q-19 -19 -43 -19q-16 0 -35 17q-18 16 -18 33q0 20 13 36
q15 18 84 93q20 23 56 23q30 0 52 -22t43.5 -45t42.5 -48q13 -16 13 -36q0 -15 -16 -32q-17 -18 -36 -18h-1z" />
    <glyph glyph-name="scircumflex" unicode="&#x15d;" horiz-adv-x="458" 
d="M232 469q86 0 136 -21q39 -17 39 -53q0 -69 -61 -69q-18 0 -54 10t-54 10q-54 0 -54 -28q0 -3 2 -7q1 -3 6 -6q3 -2 7 -4q3 -2 10 -3q10 -2 12 -2h5.5t8.5 -1q10 -2 14 -3q86 -12 131 -45t45 -98q0 -75 -53 -117t-153 -42q-78 0 -129 22q-53 23 -53 55q0 75 62 75
q25 0 66 -12q40 -12 73 -12q41 0 41 27q0 14 -15 20q-8 3 -22.5 6t-36.5 7q-165 24 -165 132q0 70 58 115t138 45zM330 519q-20 -2 -39 16q-33 30 -60 62q-19 -22 -33 -37t-23 -23q-19 -19 -43 -19q-16 0 -35 17q-18 16 -18 33q0 20 13 36q15 18 84 93q20 23 56 23
q30 0 52 -22t43.5 -45t42.5 -48q13 -16 13 -36q0 -15 -16 -32q-17 -18 -36 -18h-1z" />
    <glyph glyph-name="Scedilla" unicode="&#x15e;" horiz-adv-x="579" 
d="M237 -11q-89 7 -150 36q-50 23 -50 74q0 34 21 60t50 26q26 0 65 -15q3 0 20 -7q9 -4 15.5 -6t11.5 -4q9 -3 28 -6t37 -3q36 0 60 18t24 47q0 46 -99 66q-105 21 -166 65q-60 43 -60 125q0 93 74 158t179 65q104 0 176 -35q42 -20 42 -72q0 -26 -21 -50t-49 -24
q-21 0 -66 17q-41 15 -81 15q-34 0 -58 -18t-24 -43q0 -26 27 -39t80 -24q106 -21 162 -66t56 -136q0 -95 -61 -153q-62 -59 -159 -69l-9 -31q29 0 52 -22q24 -23 24 -64q0 -52 -33 -82t-86 -30q-31 0 -58 12q-30 13 -30 46q0 20 13 32t30 12q8 0 23 -6t23 -6q27 0 27 20
t-23 20l-21 1q-18 1 -27 21t-2 39z" />
    <glyph glyph-name="scedilla" unicode="&#x15f;" horiz-adv-x="458" 
d="M185 -12q-66 4 -109 26q-42 21 -42 51q0 75 62 75q25 0 66 -12q40 -12 73 -12q41 0 41 27q0 14 -15 20q-8 3 -22.5 6t-36.5 7q-165 24 -165 132q0 70 58 115t138 45q86 0 136 -21q39 -17 39 -53q0 -69 -61 -69q-18 0 -54 10t-54 10q-54 0 -54 -28q0 -3 2 -7q1 -3 6 -6
q3 -2 7 -4q3 -2 10 -3q10 -2 12 -2h5.5t8.5 -1q10 -2 14 -3q86 -12 131 -45t45 -98t-39 -105q-39 -41 -114 -51l-9 -30q29 0 52 -22q24 -23 24 -64q0 -52 -33 -82t-86 -30q-30 0 -57 12q-30 13 -30 42q0 18 12 32t26 14q9 0 24 -6t23 -6q27 0 27 20t-23 20l-21 1
q-18 1 -27 21t-2 39z" />
    <glyph glyph-name="Scaron" unicode="&#x160;" horiz-adv-x="579" 
d="M474 651q42 -20 42 -72q0 -26 -21 -50t-49 -24q-21 0 -66 17q-41 15 -81 15q-34 0 -58 -18t-24 -43q0 -26 27 -39t80 -24q106 -21 162 -66t56 -136q0 -104 -72 -162q-72 -59 -181 -60q-114 -1 -198 38q-50 23 -50 74q0 34 21 60t50 26q26 0 65 -15q3 0 20 -7
q9 -4 15.5 -6t11.5 -4q9 -3 28 -6t37 -3q36 0 60 18t24 47q0 46 -99 66q-105 21 -166 65q-60 43 -60 125q0 93 74 158t179 65q104 0 176 -35zM202 904q21 0 38 -16q33 -30 60 -62q19 22 33 37t23 23q19 19 43 19q18 0 35 -16q18 -17 18 -33q0 -20 -13 -36q-15 -18 -84 -93
q-19 -22 -57 -22q-31 0 -52 21q-22 22 -43.5 45t-42.5 48q-13 16 -13 36q0 15 17 32t36 17h2z" />
    <glyph glyph-name="scaron" unicode="&#x161;" horiz-adv-x="458" 
d="M232 469q86 0 136 -21q39 -17 39 -53q0 -69 -61 -69q-18 0 -54 10t-54 10q-54 0 -54 -28q0 -3 2 -7q1 -3 6 -6q3 -2 7 -4q3 -2 10 -3q10 -2 12 -2h5.5t8.5 -1q10 -2 14 -3q86 -12 131 -45t45 -98q0 -75 -53 -117t-153 -42q-78 0 -129 22q-53 23 -53 55q0 75 62 75
q25 0 66 -12q40 -12 73 -12q41 0 41 27q0 14 -15 20q-8 3 -22.5 6t-36.5 7q-165 24 -165 132q0 70 58 115t138 45zM134 717q21 0 38 -16q33 -30 60 -62q19 22 33 37t23 23q19 19 43 19q18 0 35 -16q18 -17 18 -33q0 -20 -13 -36q-15 -18 -84 -93q-19 -22 -57 -22
q-31 0 -52 21q-22 22 -43.5 45t-42.5 48q-13 16 -13 36q0 15 17 32t36 17h2z" />
    <glyph glyph-name="uni0162" unicode="&#x162;" horiz-adv-x="585" 
d="M300 673h12t29 1t40.5 1.5t46.5 0.5h78q65 0 65 -69q0 -80 -65 -80l-135 1v-30q0 -179 3 -429q2 -59 -54 -74l-9 -36q29 0 52 -22q24 -23 24 -64q0 -52 -33 -82t-86 -30q-31 0 -58 12q-30 13 -30 46q0 20 13 32t30 12q8 0 23 -6t23 -6q27 0 27 20t-23 20l-21 1
q-18 1 -27 21t-2 39l20 51q-34 18 -33 67l3 352q0 8 -0.5 34.5t-1.5 74.5q-17 -1 -51.5 -1h-86.5q-66 0 -66 76q0 71 70 72h27h75h128z" />
    <glyph glyph-name="uni0163" unicode="&#x163;" horiz-adv-x="395" 
d="M56 317q-58 0 -58 70q0 28 18 48q18 19 45 19h31l2 53q3 86 89 86q32 0 49 -16q18 -17 18 -45q0 -4 -0.5 -22.5t-1.5 -52.5h57q32 2 48 -16q17 -19 17 -52q0 -28 -14 -48t-39 -20h-69v-130q0 -54 33 -54q10 0 21 3q10 3 18 3q26 0 41 -19q15 -20 15 -45q0 -49 -27 -67
q-29 -20 -81 -21l-9 -30q29 0 52 -22q24 -23 24 -64q0 -52 -33 -82t-86 -30q-31 0 -58 12q-30 13 -30 46q0 20 13 32t30 12q8 0 23 -6t23 -6q27 0 27 20t-23 20l-21 1q-18 1 -27 21t-2 39l20 52q-97 34 -97 174v24.5t1 41.5q2 50 0 77h-34z" />
    <glyph glyph-name="Tcaron" unicode="&#x164;" horiz-adv-x="585" 
d="M304 676h12t29 1t40.5 1.5t46.5 0.5h78q65 0 65 -69q0 -80 -65 -80l-135 1v-30q0 -179 3 -429q1 -38 -23 -58q-23 -19 -67 -19q-37 0 -58 18t-20 57l3 352q0 8 -0.5 34.5t-1.5 74.5q-17 -1 -51.5 -1h-86.5q-66 0 -66 76q0 71 70 72h27h75h128zM193 906q21 0 38 -16
q33 -30 60 -62q19 22 33 37t23 23q19 19 43 19q18 0 35 -16q18 -17 18 -33q0 -20 -13 -36q-15 -18 -84 -93q-19 -22 -57 -22q-31 0 -52 21q-22 22 -43.5 45t-42.5 48q-13 16 -13 36q0 15 17 32t36 17h2z" />
    <glyph glyph-name="tcaron" unicode="&#x165;" horiz-adv-x="504" 
d="M408 584q-17 1 -30 18q-14 17 -15 43q-2 32 21 53q22 21 51 21q38 0 60 -22q23 -23 23 -63q0 -43 -24 -80q-24 -38 -61 -60q-12 -9 -27 -9q-12 0 -25 11q-12 10 -12 24q0 16 12 27q25 22 25 36v2zM62 317q-58 0 -58 70q0 28 18 48q18 19 45 19h31l2 53q3 86 89 86
q32 0 49 -16q18 -17 18 -45q0 -4 -0.5 -22.5t-1.5 -52.5h57q32 2 48 -16q17 -19 17 -52q0 -28 -14 -48t-39 -20h-69v-130q0 -54 33 -54q10 0 21 3q10 3 18 3q26 0 41 -19q15 -20 15 -45q0 -49 -27 -67q-29 -20 -96 -20q-73 0 -118 46t-45 141v24.5t1 41.5q2 50 0 77h-34z
" />
    <glyph glyph-name="Tbar" unicode="&#x166;" horiz-adv-x="581" 
d="M304 678h40q19 0 40.5 0.5t45.5 1.5t43.5 1h33.5q65 0 65 -69q0 -80 -65 -80l-133 1v-140h63q64 0 64 -70q0 -66 -77 -66h-50l3 -183q1 -38 -23 -58q-23 -19 -67 -19q-37 0 -58 18t-20 57l2 185h-60q-34 0 -52 18t-18 47q0 31 18 51t50 20h62l-1 139q-17 -1 -51.5 -1
h-85.5q-66 0 -66 76q0 71 70 72h26h74h128z" />
    <glyph glyph-name="tbar" unicode="&#x167;" horiz-adv-x="395" 
d="M59 319q-58 0 -58 70q0 28 18 48q18 19 45 19h31l2 53q3 86 89 86q32 0 49 -16q18 -17 18 -45q0 -4 -0.5 -22.5t-1.5 -52.5h57q32 2 48 -16q17 -19 17 -52q0 -28 -14 -48t-39 -20h-69v-31h37q56 0 56 -58q0 -57 -65 -57h-28v-5q0 -33 33 -33q10 0 21 3q10 3 18 3
q26 0 41 -19q15 -20 15 -45q0 -49 -27 -67q-29 -20 -96 -20q-74 0 -117 43t-43 132v8h-25q-59 0 -59 58q0 57 59 57h24v31h-34z" />
    <glyph glyph-name="Utilde" unicode="&#x168;" horiz-adv-x="700" 
d="M63 284q1 108 1.5 187.5t0.5 133.5q0 35 22 54t60 19q48 0 68 -20t20 -66q-1 -32 -1 -107.5v-194.5q0 -70 32 -108q31 -37 90 -37q55 0 84 41q28 40 30 104q4 10 3 159q-1 75 -1.5 112t-0.5 38q0 79 86 79q44 0 63 -22q20 -23 20 -72l2 -278q-1 -139 -78 -226t-211 -87
q-131 0 -210 78t-79 216zM281 752q-1 -13 -14 -24q-11 -10 -34 -10t-39 15q-17 15 -18 45q3 47 32 74q28 27 75 27q30 0 50 -13q21 -14 36 -27q15 -14 27 -15q19 0 20 19q4 36 51 36q19 0 36 -15q16 -15 16 -37q0 -56 -28 -84q-29 -29 -75 -29q-35 0 -68 27q-32 26 -47 28
q-8 0 -14 -6t-7 -13z" />
    <glyph glyph-name="utilde" unicode="&#x169;" horiz-adv-x="576" 
d="M143 462q37 0 55 -19q18 -20 18 -64v-147q0 -48 12 -75t49 -27q74 0 74 122v134q0 37 24 57q23 19 62 19q38 0 59 -18t21 -54v-141.5t1 -77.5v-27.5t1 -27.5t1.5 -24.5t0.5 -18.5v-21q0 -28 -24 -43t-57 -15q-59 0 -69 45q-5 19 -6 27q-48 -75 -128 -75q-93 0 -138 58
t-45 157v92v90q0 76 90 76zM210 563q-1 -13 -14 -24q-11 -10 -34 -10t-39 15q-17 15 -18 45q3 47 32 74q28 27 75 27q30 0 50 -13q21 -14 36 -27q15 -14 27 -15q19 0 20 19q4 36 51 36q19 0 36 -15q16 -15 16 -37q0 -56 -28 -84q-29 -29 -75 -29q-35 0 -68 27q-32 26 -47 28
q-8 0 -14 -6t-7 -13z" />
    <glyph glyph-name="Umacron" unicode="&#x16a;" horiz-adv-x="700" 
d="M63 284q1 108 1.5 187.5t0.5 133.5q0 35 22 54t60 19q48 0 68 -20t20 -66q-1 -32 -1 -107.5v-194.5q0 -70 32 -108q31 -37 90 -37q55 0 84 41q28 40 30 104q4 10 3 159q-1 75 -1.5 112t-0.5 38q0 79 86 79q44 0 63 -22q20 -23 20 -72l2 -278q-1 -139 -78 -226t-211 -87
q-131 0 -210 78t-79 216zM270 735q-35 0 -51 18q-16 17 -16 44t17 46q16 18 48 18h35h38h22.5t30.5 1t32 1h27q62 0 62 -63q0 -28 -20 -45q-19 -16 -57 -16h-83h-43h-42v-4z" />
    <glyph glyph-name="umacron" unicode="&#x16b;" horiz-adv-x="576" 
d="M143 462q37 0 55 -19q18 -20 18 -64v-147q0 -48 12 -75t49 -27q74 0 74 122v134q0 37 24 57q23 19 62 19q38 0 59 -18t21 -54v-141.5t1 -77.5v-27.5t1 -27.5t1.5 -24.5t0.5 -18.5v-21q0 -28 -24 -43t-57 -15q-59 0 -69 45q-5 19 -6 27q-48 -75 -128 -75q-93 0 -138 58
t-45 157v92v90q0 76 90 76zM197 546q-35 0 -51 18q-16 17 -16 44t17 46q16 18 48 18h35h38h23.5t30.5 1t32 1h28q62 0 62 -63q0 -28 -20 -45q-19 -16 -57 -16h-83h-43h-42z" />
    <glyph glyph-name="Ubreve" unicode="&#x16c;" horiz-adv-x="700" 
d="M63 284q1 108 1.5 187.5t0.5 133.5q0 35 22 54t60 19q48 0 68 -20t20 -66q-1 -32 -1 -107.5v-194.5q0 -70 32 -108q31 -37 90 -37q55 0 84 41q28 40 30 104q4 10 3 159q-1 75 -1.5 112t-0.5 38q0 79 86 79q44 0 63 -22q20 -23 20 -72l2 -278q-1 -139 -78 -226t-211 -87
q-131 0 -210 78t-79 216zM455 891q25 0 38 -13q14 -14 14 -31q0 -62 -41 -103q-40 -40 -110 -40q-59 0 -102 37q-44 37 -45 96q-1 22 14 39t38 17q21 0 35 -12t15 -28q3 -19 15 -31t28 -12q19 0 33 12q13 12 15 29t15 29t36 12z" />
    <glyph glyph-name="ubreve" unicode="&#x16d;" horiz-adv-x="576" 
d="M143 462q37 0 55 -19q18 -20 18 -64v-147q0 -48 12 -75t49 -27q74 0 74 122v134q0 37 24 57q23 19 62 19q38 0 59 -18t21 -54v-141.5t1 -77.5v-27.5t1 -27.5t1.5 -24.5t0.5 -18.5v-21q0 -28 -24 -43t-57 -15q-59 0 -69 45q-5 19 -6 27q-48 -75 -128 -75q-93 0 -138 58
t-45 157v92v90q0 76 90 76zM384 702q25 0 38 -13q14 -14 14 -31q0 -62 -41 -103q-40 -40 -110 -40q-59 0 -102 37q-44 37 -45 96q-1 22 14 39t38 17q21 0 35 -12t15 -28q3 -19 15 -31t28 -12q19 0 33 12q13 12 15 29t15 29t36 12z" />
    <glyph glyph-name="Uring" unicode="&#x16e;" horiz-adv-x="700" 
d="M63 284q1 108 1.5 187.5t0.5 133.5q0 35 22 54t60 19q48 0 68 -20t20 -66q-1 -32 -1 -107.5v-194.5q0 -70 32 -108q31 -37 90 -37q55 0 84 41q28 40 30 104q4 10 3 159q-1 75 -1.5 112t-0.5 38q0 79 86 79q44 0 63 -22q20 -23 20 -72l2 -278q-1 -139 -78 -226t-211 -87
q-131 0 -210 78t-79 216zM354 908q53 0 87 -31q35 -32 35 -81q0 -50 -36 -84q-37 -35 -87 -35t-87 31t-37 82q0 53 38 86q37 33 86 33zM394 796q0 16 -12 27q-13 11 -31 11q-16 0 -28 -12t-12 -30q0 -16 12 -28t29 -12q18 0 30 13t12 30v1z" />
    <glyph glyph-name="uring" unicode="&#x16f;" horiz-adv-x="576" 
d="M143 462q37 0 55 -19q18 -20 18 -64v-147q0 -48 12 -75t49 -27q74 0 74 122v134q0 37 24 57q23 19 62 19q38 0 59 -18t21 -54v-141.5t1 -77.5v-27.5t1 -27.5t1.5 -24.5t0.5 -18.5v-21q0 -28 -24 -43t-57 -15q-59 0 -69 45q-5 19 -6 27q-48 -75 -128 -75q-93 0 -138 58
t-45 157v92v90q0 76 90 76zM283 739q53 0 87 -31q35 -32 35 -81q0 -50 -36 -84q-37 -35 -87 -35t-87 31t-37 82q0 53 38 86q37 33 86 33zM323 627q0 16 -12 27q-13 11 -31 11q-16 0 -28 -12t-12 -30q0 -16 12 -28t29 -12q18 0 30 13t12 30v1z" />
    <glyph glyph-name="Uhungarumlaut" unicode="&#x170;" horiz-adv-x="700" 
d="M63 284q1 108 1.5 187.5t0.5 133.5q0 35 22 54t60 19q48 0 68 -20t20 -66q-1 -32 -1 -107.5v-194.5q0 -70 32 -108q31 -37 90 -37q55 0 84 41q28 40 30 104q4 10 3 159q-1 75 -1.5 112t-0.5 38q0 79 86 79q44 0 63 -22q20 -23 20 -72l2 -278q-1 -139 -78 -226t-211 -87
q-131 0 -210 78t-79 216zM306 724q-17 -20 -39 -20q-19 0 -36 14q-16 13 -16 35q0 14 10 30l58 93q19 34 48 34q26 0 45 -16t19 -42q0 -21 -12 -37zM477 719q-19 -19 -36 -19q-21 0 -39 12t-18 32q0 10 12 33l60 92q23 35 51 35q25 0 45 -16q21 -17 21 -37q0 -26 -16 -45z
" />
    <glyph glyph-name="uhungarumlaut" unicode="&#x171;" horiz-adv-x="576" 
d="M143 462q37 0 55 -19q18 -20 18 -64v-147q0 -48 12 -75t49 -27q74 0 74 122v134q0 37 24 57q23 19 62 19q38 0 59 -18t21 -54v-141.5t1 -77.5v-27.5t1 -27.5t1.5 -24.5t0.5 -18.5v-21q0 -28 -24 -43t-57 -15q-59 0 -69 45q-5 19 -6 27q-48 -75 -128 -75q-93 0 -138 58
t-45 157v92v90q0 76 90 76zM235 535q-17 -20 -39 -20q-19 0 -36 14q-16 13 -16 35q0 14 10 30l58 93q19 34 48 34q26 0 45 -16t19 -42q0 -21 -12 -37zM406 530q-19 -19 -36 -19q-21 0 -39 12t-18 32q0 10 12 33l60 92q23 35 51 35q25 0 45 -16q21 -17 21 -37q0 -26 -16 -45z
" />
    <glyph glyph-name="Uogonek" unicode="&#x172;" horiz-adv-x="700" 
d="M367 -90q0 -27 27 -27q5 0 15 2t15 2q20 0 30 -16q11 -17 11 -42q0 -29 -22 -45t-60 -16q-54 0 -91 26q-36 25 -36 84q0 65 70 120q-119 11 -191 84t-72 206q1 108 1.5 187.5t0.5 133.5q0 35 22 54t60 19q48 0 68 -20t20 -66q-1 -32 -1 -107.5v-194.5q0 -70 32 -108
q31 -37 90 -37q55 0 84 41q28 40 30 104q4 10 3 159q-1 75 -1.5 112t-0.5 38q0 79 86 79q44 0 63 -22q20 -23 20 -72l2 -278q-2 -116 -55 -198q-54 -82 -152 -108q-66 -54 -66 -94h-2z" />
    <glyph glyph-name="uogonek" unicode="&#x173;" horiz-adv-x="576" 
d="M421 -92q0 -27 27 -27q5 0 15 2t15 2q20 0 30 -16q11 -17 11 -42q0 -29 -22 -45t-60 -16q-54 0 -91 26q-36 25 -36 84q0 73 81 129q-17 10 -21 33l-6 27q-48 -75 -128 -75q-93 0 -138 58t-45 157v92v90q0 76 90 76q37 0 55 -19q18 -20 18 -64v-147q0 -48 12 -75t49 -27
q74 0 74 122v134q0 37 24 57q23 19 62 19q38 0 59 -18t21 -54v-141.5t1 -77.5v-27.5t1 -27.5t1.5 -24.5t0.5 -18.5v-21q0 -33 -32 -48q-66 -54 -66 -95z" />
    <glyph glyph-name="Wcircumflex" unicode="&#x174;" horiz-adv-x="875" 
d="M27 596q-7 38 17 64q24 25 66 25q70 0 81 -60q14 -75 29.5 -159t32.5 -178q4 13 12 42q4 14 11.5 39.5t18.5 63.5t23 78t25 83q18 60 93 60q29 0 51 -16q23 -17 32 -45l99 -302l48 286q11 61 30 83q20 23 60 23q39 0 66 -24t21 -62l-102 -513q-11 -44 -30 -65t-67 -22
q-23 0 -40 7q-18 7 -28 22q-12 17 -17 27q-3 6 -6 14t-7 18l-112 317l-113 -352q-7 -23 -33 -40t-60 -15q-52 3 -73 30q-22 28 -32 81q-70 336 -96 491v-1zM533 709q-20 -2 -39 16q-33 30 -60 62q-19 -22 -33 -37t-23 -23q-19 -19 -43 -19q-16 0 -35 17q-18 16 -18 33
q0 20 13 36q15 18 84 93q20 23 56 23q30 0 52 -22t43.5 -45t42.5 -48q13 -16 13 -36q0 -15 -16 -32q-17 -18 -36 -18h-1z" />
    <glyph glyph-name="wcircumflex" unicode="&#x175;" horiz-adv-x="758" 
d="M20 391q-1 3 -1 6q0 29 30 49q29 19 64 19q55 0 69 -51q1 -5 9 -42q4 -19 8.5 -40t9.5 -45t10 -43.5t10 -34.5q7 19 30 93q22 73 36 108q19 46 81 46q60 0 84 -57l66 -190l29 124q7 43 21 84q16 43 70 43q32 0 60 -19q28 -20 30 -48q0 -12 -4 -27q-38 -128 -66 -204
l-35 -100q-10 -34 -32 -51t-66 -17q-66 0 -86 53q-5 11 -10.5 26t-11.5 33t-12.5 38.5t-14.5 43.5q-15 46 -21 66l-64 -173q-15 -45 -36 -66t-64 -21q-31 0 -51 11q-19 10 -27 23t-17 38q-90 297 -96 322zM470 518q-20 -2 -39 16q-33 30 -60 62q-19 -22 -33 -37t-23 -23
q-19 -19 -43 -19q-16 0 -35 17q-18 16 -18 33q0 20 13 36q15 18 84 93q20 23 56 23q30 0 52 -22t43.5 -45t42.5 -48q13 -16 13 -36q0 -15 -16 -32q-17 -18 -36 -18h-1z" />
    <glyph glyph-name="Ycircumflex" unicode="&#x176;" horiz-adv-x="624" 
d="M203 288l-178 270q-16 25 -16 45q0 32 27 56t62 24q39 0 59 -30t58 -92t95 -156q1 1 147 240q23 38 69 38q30 0 56 -22q27 -23 27 -51q0 -27 -17 -50l-200 -303v-194q0 -32 -24 -50t-60 -18q-38 0 -60 22q-23 23 -23 57v15.5t1 23.5t1 24v17v104zM412 710q-20 -2 -39 16
q-33 30 -60 62q-19 -22 -33 -37t-23 -23q-19 -19 -43 -19q-16 0 -35 17q-18 16 -18 33q0 20 13 36q15 18 84 93q20 23 56 23q30 0 52 -22t43.5 -45t42.5 -48q13 -16 13 -36q0 -15 -16 -32q-17 -18 -36 -18h-1z" />
    <glyph glyph-name="ycircumflex" unicode="&#x177;" horiz-adv-x="525" 
d="M261 190l7.5 17.5t9.5 24.5t12.5 33.5t16.5 44.5t18 49.5t18 48.5q21 56 67 56q34 0 62 -19q29 -20 29 -45q0 -28 -17 -65q-11 -23 -27 -57.5t-37 -81.5t-40.5 -89.5t-38.5 -82.5t-37 -77.5t-36 -72.5q-54 -100 -158 -100q-98 0 -98 79q0 34 20 54t54 20q25 0 39 13
q16 15 29 43l15 30l12 24l-16 31l-129 268q-18 36 -18 64q0 29 28 48q29 20 58 20q25 0 41 -8q14 -7 25 -30l28 -70l28 -70q27 -71 39 -99zM338 519q-20 -2 -39 16q-33 30 -60 62q-19 -22 -33 -37t-23 -23q-19 -19 -43 -19q-16 0 -35 17q-18 16 -18 33q0 20 13 36
q15 18 84 93q20 23 56 23q30 0 52 -22t43.5 -45t42.5 -48q13 -16 13 -36q0 -15 -16 -32q-17 -18 -36 -18h-1z" />
    <glyph glyph-name="Ydieresis" unicode="&#x178;" horiz-adv-x="624" 
d="M203 288l-178 270q-16 25 -16 45q0 32 27 56t62 24q39 0 59 -30t58 -92t95 -156q1 1 147 240q23 38 69 38q30 0 56 -22q27 -23 27 -51q0 -27 -17 -50l-200 -303v-194q0 -32 -24 -50t-60 -18q-38 0 -60 22q-23 23 -23 57v15.5t1 23.5t1 24v17v104zM221 724q-31 0 -52 21
t-21 51q0 33 21 54t56 21q30 0 51 -21t21 -52q0 -33 -21 -54t-56 -21zM401 726q-31 0 -52 21t-21 51q0 31 21 54q21 22 54 22q32 0 53 -21t21 -52q0 -33 -21 -54t-56 -21h1z" />
    <glyph glyph-name="Zacute" unicode="&#x179;" horiz-adv-x="575" 
d="M104 525q-33 0 -51 20q-18 19 -18 54q0 36 19 56q19 21 55 21l207 1h73h76q38 0 60 -19t22 -54q0 -32 -33 -78l-13 -19q-11 -16 -30.5 -43t-48.5 -65t-53 -71t-44 -62t-39 -56t-36 -53q-6 -11 -6 -12h50.5t51.5 1q52 1 87 3q17 1 27.5 1.5t13.5 0.5q40 0 58 -22
q18 -23 18 -55q0 -30 -19 -52t-61 -22q-132 -1 -223 -1.5t-143 -0.5q-51 0 -70 39q-5 12 -6 31q2 29 10 49q9 20 32 53l68 92l189 260l4 4h-123h-103zM288 717q-20 -14 -42 -14q-16 0 -37 18t-21 37q0 18 12 36l81 96q25 30 54 30q25 0 50 -23q24 -23 24 -50q0 -22 -21 -43
q-35 -35 -102 -87h2z" />
    <glyph glyph-name="zacute" unicode="&#x17a;" horiz-adv-x="465" 
d="M205 320h-19.5t-32.5 -1q-39 -2 -60 0q-65 2 -65 75q0 28 17 48q16 19 51 19h98h92h11.5t30.5 1q40 1 42 0q38 -3 50 -30q7 -15 8 -39q-5 -47 -42 -90q-11 -14 -29 -32.5t-42 -42.5l-41 -41t-27 -28l-17 -20l70 1q5 0 14 0.5t23 1.5t22.5 1.5t13.5 0.5q31 0 49 -19
q18 -20 18 -52q0 -74 -76 -75h-16.5t-29.5 1t-31.5 1h-23.5h-20.5t-37.5 -1t-45 -1h-42q-86 0 -86 74q0 41 44 93l154 158h-19zM234 525q-20 -14 -42 -14q-16 0 -37 18t-21 37q0 18 12 36l81 96q25 30 54 30q25 0 50 -23q24 -23 24 -50q0 -22 -21 -43q-35 -35 -102 -87h2z
" />
    <glyph glyph-name="Zdotaccent" unicode="&#x17b;" horiz-adv-x="575" 
d="M104 525q-33 0 -51 20q-18 19 -18 54q0 36 19 56q19 21 55 21l207 1h73h76q38 0 60 -19t22 -54q0 -32 -33 -78l-13 -19q-11 -16 -30.5 -43t-48.5 -65t-53 -71t-44 -62t-39 -56t-36 -53q-6 -11 -6 -12h50.5t51.5 1q52 1 87 3q17 1 27.5 1.5t13.5 0.5q40 0 58 -22
q18 -23 18 -55q0 -30 -19 -52t-61 -22q-132 -1 -223 -1.5t-143 -0.5q-51 0 -70 39q-5 12 -6 31q2 29 10 49q9 20 32 53l68 92l189 260l4 4h-123h-103zM278 724q-40 0 -66 29q-25 28 -19 69q4 31 32 51t59 20q40 0 63 -24q23 -25 23 -60q0 -40 -26 -63q-25 -22 -66 -22z" />
    <glyph glyph-name="zdotaccent" unicode="&#x17c;" horiz-adv-x="465" 
d="M205 320h-19.5t-32.5 -1q-39 -2 -60 0q-65 2 -65 75q0 28 17 48q16 19 51 19h98h92h11.5t30.5 1q40 1 42 0q38 -3 50 -30q7 -15 8 -39q-5 -47 -42 -90q-11 -14 -29 -32.5t-42 -42.5l-41 -41t-27 -28l-17 -20l70 1q5 0 14 0.5t23 1.5t22.5 1.5t13.5 0.5q31 0 49 -19
q18 -20 18 -52q0 -74 -76 -75h-16.5t-29.5 1t-31.5 1h-23.5h-20.5t-37.5 -1t-45 -1h-42q-86 0 -86 74q0 41 44 93l154 158h-19zM222 532q-40 0 -66 29q-25 28 -19 69q4 31 32 51t59 20q40 0 63 -24q23 -25 23 -60q0 -40 -26 -63q-25 -22 -66 -22z" />
    <glyph glyph-name="Zcaron" unicode="&#x17d;" horiz-adv-x="575" 
d="M104 525q-33 0 -51 20q-18 19 -18 54q0 36 19 56q19 21 55 21l207 1h73h76q38 0 60 -19t22 -54q0 -32 -33 -78l-13 -19q-11 -16 -30.5 -43t-48.5 -65t-53 -71t-44 -62t-39 -56t-36 -53q-6 -11 -6 -12h50.5t51.5 1q52 1 87 3q17 1 27.5 1.5t13.5 0.5q40 0 58 -22
q18 -23 18 -55q0 -30 -19 -52t-61 -22q-132 -1 -223 -1.5t-143 -0.5q-51 0 -70 39q-5 12 -6 31q2 29 10 49q9 20 32 53l68 92l189 260l4 4h-123h-103zM185 907q21 0 38 -16q33 -30 60 -62q19 22 33 37t23 23q19 19 43 19q18 0 35 -16q18 -17 18 -33q0 -20 -13 -36
q-15 -18 -84 -93q-19 -22 -57 -22q-31 0 -52 21q-22 22 -43.5 45t-42.5 48q-13 16 -13 36q0 15 17 32t36 17h2z" />
    <glyph glyph-name="zcaron" unicode="&#x17e;" horiz-adv-x="465" 
d="M205 320h-19.5t-32.5 -1q-39 -2 -60 0q-65 2 -65 75q0 28 17 48q16 19 51 19h98h92h11.5t30.5 1q40 1 42 0q38 -3 50 -30q7 -15 8 -39q-5 -47 -42 -90q-11 -14 -29 -32.5t-42 -42.5l-41 -41t-27 -28l-17 -20l70 1q5 0 14 0.5t23 1.5t22.5 1.5t13.5 0.5q31 0 49 -19
q18 -20 18 -52q0 -74 -76 -75h-16.5t-29.5 1t-31.5 1h-23.5h-20.5t-37.5 -1t-45 -1h-42q-86 0 -86 74q0 41 44 93l154 158h-19zM131 715q21 0 38 -16q33 -30 60 -62q19 22 33 37t23 23q19 19 43 19q18 0 35 -16q18 -17 18 -33q0 -20 -13 -36q-15 -18 -84 -93
q-19 -22 -57 -22q-31 0 -52 21q-22 22 -43.5 45t-42.5 48q-13 16 -13 36q0 15 17 32t36 17h2z" />
    <glyph glyph-name="florin" unicode="&#x192;" horiz-adv-x="489" 
d="M303 319l-42 -340q-14 -106 -70 -158q-58 -53 -139 -53q-58 0 -84 14q-29 15 -29 69q0 28 18 49t46 21h36q31 0 46 23q15 22 21 71l38 307h-32q-36 0 -51 17q-15 16 -15 54q0 31 21 51q22 20 53 20h43q6 48 15 83q5 18 11.5 36.5t16.5 37.5q20 38 47 62t72 39t103 15
q72 0 72 -75q0 -28 -16 -48q-17 -21 -40 -21h-12t-12 1t-11.5 1h-10.5q-59 0 -75 -133h60q36 0 50 -17q13 -16 15 -50q2 -33 -19 -55t-55 -22z" />
    <glyph glyph-name="AEacute" unicode="&#x1fc;" horiz-adv-x="922" 
d="M13 90q2 26 34 69q29 39 72.5 103t101.5 154q115 178 150 228q29 41 98 36l343 2q29 0 49 -18q19 -18 21 -45q2 -60 -42 -74q-17 -5 -237 -5v-42l-2 -90v-1h23h149q34 0 51 -21q17 -22 17 -49q0 -69 -71 -69h-173q-1 -8 -1 -19v-27v-38v-38q23 -1 55.5 -0.5t74.5 2.5
q84 3 98 3q31 0 49 -19q18 -20 18 -54q0 -36 -21 -57q-20 -20 -59 -22q-19 -1 -34.5 -1h-29.5h-84h-93q-70 0 -100 15q-31 15 -35 58l-1 73h-182q-1 -2 -7 -12l-18 -30q-24 -39 -42 -66q-29 -44 -87 -42q-35 1 -60 27q-26 25 -24 66zM317 279l117 2v23v23v67v39v39zM543 722
q-20 -14 -42 -14q-16 0 -37 18t-21 37q0 18 12 36l81 96q25 30 54 30q25 0 50 -23q24 -23 24 -50q0 -22 -21 -43q-35 -35 -102 -87h2z" />
    <glyph glyph-name="aeacute" unicode="&#x1fd;" horiz-adv-x="799" 
d="M485 191q4 -26 27 -42q22 -16 51 -16q42 0 75 14q33 15 52 15q25 0 45 -23q19 -22 19 -54q0 -40 -51 -67t-147 -27q-45 0 -93 23q-46 22 -66 53q-25 -31 -68 -54q-41 -22 -94 -22q-94 0 -150 38q-55 37 -55 110q0 65 51 104t141 39q9 0 31.5 -1.5t57.5 -3.5q-8 53 -81 53
q-23 0 -60 -12q-38 -12 -51 -12q-27 0 -45 20q-18 19 -18 48q0 34 27 54q52 40 158 40q51 0 93 -19q43 -20 66 -51q25 31 69 50q46 20 90 20q94 0 153 -58q60 -59 60 -133q0 -49 -16 -66t-66 -19h-52h-52zM556 337q-30 0 -52 -18q-23 -18 -24 -42h70t44 1q20 0 20 7
q0 23 -16 38q-17 15 -42 15v-1zM237 117q52 0 70 45l5 22q-35 3 -80 3q-24 0 -39 -9t-15 -25q0 -35 58 -35zM417 525q-20 -14 -42 -14q-16 0 -37 18t-21 37q0 18 12 36l81 96q25 30 54 30q25 0 50 -23q24 -23 24 -50q0 -22 -21 -43q-35 -35 -102 -87h2z" />
    <glyph glyph-name="Oslashacute" unicode="&#x1fe;" horiz-adv-x="744" 
d="M370 687q81 0 150 -34l21 31q10 18 34 18q17 0 31 -13q15 -14 15 -28q0 -11 -5 -19l-24 -36q120 -101 120 -261q0 -149 -99 -252q-99 -104 -244 -104q-85 0 -159 38l-27 -41q-11 -18 -30 -18q-16 0 -31 12t-15 28q0 13 7 24l28 43q-109 96 -109 250q0 161 104 263
q103 102 234 100zM542 345q0 76 -40 125l-204 -307q31 -16 74 -16q70 0 120 59t50 138v1zM202 337q0 -71 33 -120l199 304q-36 14 -70 14q-72 0 -117 -56t-45 -143v1zM375 719q-20 -14 -42 -14q-16 0 -37 18t-21 37q0 18 12 36l81 96q25 30 54 30q25 0 50 -23q24 -23 24 -50
q0 -22 -21 -43q-35 -35 -102 -87h2z" />
    <glyph glyph-name="oslashacute" unicode="&#x1ff;" 
d="M295 469q23 0 38 -4q22 -5 39 -12l15 23q10 18 30 18q13 0 27 -10q15 -11 15 -22q0 -13 -9 -28l-11 -18q83 -69 83 -183q0 -105 -71 -173t-180 -68q-44 0 -88 14l-18 -29q-11 -18 -27 -18q-11 0 -27 11q-15 10 -15 24q0 10 9 25l13 22q-88 66 -88 178q0 113 70 180
q71 68 195 71v-1zM193 220q0 -26 10 -45l93 152q-5 1 -9 1.5t-6 0.5q-43 -2 -65 -30q-23 -29 -23 -79zM361 236q0 19 -9 39l-90 -146h8q39 0 65 30q26 31 26 77zM279 527q-20 -14 -42 -14q-16 0 -37 18t-21 37q0 18 12 36l81 96q25 30 54 30q25 0 50 -23q24 -23 24 -50
q0 -22 -21 -43q-35 -35 -102 -87h2z" />
    <glyph glyph-name="uni0218" unicode="&#x218;" horiz-adv-x="579" 
d="M474 651q42 -20 42 -72q0 -26 -21 -50t-49 -24q-21 0 -66 17q-41 15 -81 15q-34 0 -58 -18t-24 -43q0 -26 27 -39t80 -24q106 -21 162 -66t56 -136q0 -104 -72 -162q-72 -59 -181 -60q-114 -1 -198 38q-50 23 -50 74q0 34 21 60t50 26q26 0 65 -15q3 0 20 -7
q9 -4 15.5 -6t11.5 -4q9 -3 28 -6t37 -3q36 0 60 18t24 47q0 46 -99 66q-105 21 -166 65q-60 43 -60 125q0 93 74 158t179 65q104 0 176 -35zM224 -214q0 13 30 39q8 14 2 20q-3 3 -7 8t-9 12q-10 13 -10 29q0 25 20 45q19 19 48 19q31 0 52 -18t21 -49t-14 -57t-27 -38
q-14 -12 -39 -30q-13 -10 -34 -10q-14 0 -24 9t-10 23z" />
    <glyph glyph-name="uni0219" unicode="&#x219;" horiz-adv-x="458" 
d="M232 469q86 0 136 -21q39 -17 39 -53q0 -69 -61 -69q-18 0 -54 10t-54 10q-54 0 -54 -28q0 -3 2 -7q1 -3 6 -6q3 -2 7 -4q3 -2 10 -3q10 -2 12 -2h5.5t8.5 -1q10 -2 14 -3q86 -12 131 -45t45 -98q0 -75 -53 -117t-153 -42q-78 0 -129 22q-53 23 -53 55q0 75 62 75
q25 0 66 -12q40 -12 73 -12q41 0 41 27q0 14 -15 20q-8 3 -22.5 6t-36.5 7q-165 24 -165 132q0 70 58 115t138 45zM161 -211q0 13 30 39q8 14 2 20q-3 3 -7 8t-9 12q-10 13 -10 29q0 25 20 45q19 19 48 19q31 0 52 -18t21 -49t-14 -57t-27 -38q-14 -12 -39 -30
q-13 -10 -34 -10q-14 0 -24 9t-10 23z" />
    <glyph glyph-name="uni021A" unicode="&#x21a;" horiz-adv-x="585" 
d="M304 676h12t29 1t40.5 1.5t46.5 0.5h78q65 0 65 -69q0 -80 -65 -80l-135 1v-30q0 -179 3 -429q1 -38 -23 -58q-23 -19 -67 -19q-37 0 -58 18t-20 57l3 352q0 8 -0.5 34.5t-1.5 74.5q-17 -1 -51.5 -1h-86.5q-66 0 -66 76q0 71 70 72h27h75h128zM216 -212q0 13 30 39
q8 14 2 20q-3 3 -7 8t-9 12q-10 13 -10 29q0 25 20 45q19 19 48 19q31 0 52 -18t21 -49t-14 -57t-27 -38q-14 -12 -39 -30q-13 -10 -34 -10q-14 0 -24 9t-10 23z" />
    <glyph glyph-name="uni021B" unicode="&#x21b;" horiz-adv-x="395" 
d="M60 318q-58 0 -58 70q0 28 18 48q18 19 45 19h31l2 53q3 86 89 86q32 0 49 -16q18 -17 18 -45q0 -4 -0.5 -22.5t-1.5 -52.5h57q32 2 48 -16q17 -19 17 -52q0 -28 -14 -48t-39 -20h-69v-130q0 -54 33 -54q10 0 21 3q10 3 18 3q26 0 41 -19q15 -20 15 -45q0 -49 -27 -67
q-29 -20 -96 -20q-73 0 -118 46t-45 141v24.5t1 41.5q2 50 0 77h-34zM157 -215q0 13 30 39q8 14 2 20q-3 3 -7 8t-9 12q-10 13 -10 29q0 25 20 45q19 19 48 19q31 0 52 -18t21 -49t-14 -57t-27 -38q-14 -12 -39 -30q-11 -10 -34 -10q-14 0 -24 9t-10 23z" />
    <glyph glyph-name="dotlessj" unicode="&#x237;" horiz-adv-x="279" 
d="M57 406q0 28 26 45t60 17t57 -15t23 -47v-110v-117v-76v-94v-41.5t-1 -37.5q-2 -68 -60 -117q-59 -50 -138 -51q-123 -2 -123 87q0 32 17 54q16 21 41 21q8 0 26 -3q20 -3 29 -2q25 1 36 24q10 21 10 71q0 60 -0.5 119.5t-1.5 120.5q-2 43 -2.5 81t0.5 71h1z" />
    <glyph glyph-name="circumflex" unicode="&#x2c6;" horiz-adv-x="388" 
d="M293 520q-20 -2 -39 16q-33 30 -60 62q-19 -22 -33 -37t-23 -23q-19 -19 -43 -19q-16 0 -35 17q-18 16 -18 33q0 20 13 36q15 18 84 93q20 23 56 23q30 0 52 -22t43.5 -45t42.5 -48q13 -16 13 -36q0 -15 -16 -32q-17 -18 -36 -18h-1z" />
    <glyph glyph-name="caron" unicode="&#x2c7;" horiz-adv-x="386" 
d="M97 720q21 0 38 -16q33 -30 60 -62q19 22 33 37t23 23q19 19 43 19q18 0 35 -16q18 -17 18 -33q0 -20 -13 -36q-15 -18 -84 -93q-19 -22 -57 -22q-31 0 -52 21q-22 22 -43.5 45t-42.5 48q-13 16 -13 36q0 15 17 32t36 17h2z" />
    <glyph glyph-name="breve" unicode="&#x2d8;" horiz-adv-x="384" 
d="M292 707q25 0 38 -13q14 -14 14 -31q0 -62 -41 -103q-40 -40 -110 -40q-59 0 -102 37q-44 37 -45 96q-1 22 14 39t38 17q21 0 35 -12t15 -28q3 -19 15 -31t28 -12q19 0 33 12q13 12 15 29t15 29t36 12z" />
    <glyph glyph-name="dotaccent" unicode="&#x2d9;" horiz-adv-x="251" 
d="M121 535q-40 0 -66 29q-25 28 -19 69q4 31 32 51t59 20q40 0 63 -24q23 -25 23 -60q0 -40 -26 -63q-25 -22 -66 -22z" />
    <glyph glyph-name="ring" unicode="&#x2da;" horiz-adv-x="325" 
d="M165 741q53 0 87 -31q35 -32 35 -81q0 -50 -36 -84q-37 -35 -87 -35t-87 31t-37 82q0 53 38 86q37 33 86 33zM205 629q0 16 -12 27q-13 11 -31 11q-16 0 -28 -12t-12 -30q0 -16 12 -28t29 -12q18 0 30 13t12 30v1z" />
    <glyph glyph-name="ogonek" unicode="&#x2db;" horiz-adv-x="289" 
d="M151 -91q0 -27 27 -27q5 0 15 2t15 2q20 0 30 -16q11 -17 11 -42q0 -29 -22 -45t-60 -16q-54 0 -91 26q-36 25 -36 84q0 76 91 134l102 4q-81 -63 -81 -105z" />
    <glyph glyph-name="tilde" unicode="&#x2dc;" horiz-adv-x="425" 
d="M146 565q-1 -13 -14 -24q-11 -10 -34 -10t-39 15q-17 15 -18 45q3 47 32 74q28 27 75 27q30 0 50 -13q21 -14 36 -27q15 -14 27 -15q19 0 20 19q4 36 51 36q19 0 36 -15q16 -15 16 -37q0 -56 -28 -84q-29 -29 -75 -29q-35 0 -68 27q-32 26 -47 28q-8 0 -14 -6t-7 -13z
" />
    <glyph glyph-name="hungarumlaut" unicode="&#x2dd;" horiz-adv-x="427" 
d="M131 537q-17 -20 -39 -20q-19 0 -36 14q-16 13 -16 35q0 14 10 30l58 93q19 34 48 34q26 0 45 -16t19 -42q0 -21 -12 -37zM302 532q-19 -19 -36 -19q-21 0 -39 12t-18 32q0 10 12 33l60 92q23 35 51 35q25 0 45 -16q21 -17 21 -37q0 -26 -16 -45z" />
    <glyph glyph-name="pi" unicode="&#x3c0;" horiz-adv-x="685" 
d="M282 539v-31q0 -180 3 -430q2 -39 -23 -59t-67 -20q-37 0 -58 18t-20 57q3 351 3 353q0 8 -0.5 34.5t-1.5 74.5h-10.5t-15.5 -1t-15 -1h-10q-65 0 -65 77q0 69 70 72q11 -1 29 -1h43h43t29 -1q32 0 82 0.5t119 1.5t119 1.5t82 0.5q30 0 47 -18q17 -19 17 -51
q0 -41 -15 -60t-49 -19h-38v-30q0 -180 3 -430q2 -39 -23 -59t-67 -20q-37 0 -58 18t-19 57q3 351 3 352l-1 112z" />
    <glyph glyph-name="Wgrave" unicode="&#x1e80;" horiz-adv-x="875" 
d="M27 596q-7 38 17 64q24 25 66 25q70 0 81 -60q14 -75 29.5 -159t32.5 -178q4 13 12 42q4 14 11.5 39.5t18.5 63.5t23 78t25 83q18 60 93 60q29 0 51 -16q23 -17 32 -45l99 -302l48 286q11 61 30 83q20 23 60 23q39 0 66 -24t21 -62l-102 -513q-11 -44 -30 -65t-67 -22
q-23 0 -40 7q-18 7 -28 22q-12 17 -17 27q-3 6 -6 14t-7 18l-112 317l-113 -352q-7 -23 -33 -40t-60 -15q-52 3 -73 30q-22 28 -32 81q-70 336 -96 491v-1zM430 722q-35 32 -59 55t-37 37q-18 19 -18 45q0 22 24 43t48 21q34 0 55 -28q5 -6 11.5 -14.5t14.5 -19.5t15.5 -21
l13.5 -18q11 -15 19 -28q11 -14 11 -33q0 -20 -18 -36q-19 -17 -36 -17q-26 0 -44 15v-1z" />
    <glyph glyph-name="wgrave" unicode="&#x1e81;" horiz-adv-x="758" 
d="M20 391q-1 3 -1 6q0 29 30 49q29 19 64 19q55 0 69 -51q1 -5 9 -42q4 -19 8.5 -40t9.5 -45t10 -43.5t10 -34.5q7 19 30 93q22 73 36 108q19 46 81 46q60 0 84 -57l66 -190l29 124q7 43 21 84q16 43 70 43q32 0 60 -19q28 -20 30 -48q0 -12 -4 -27q-38 -128 -66 -204
l-35 -100q-10 -34 -32 -51t-66 -17q-66 0 -86 53q-5 11 -10.5 26t-11.5 33t-12.5 38.5t-14.5 43.5q-15 46 -21 66l-64 -173q-15 -45 -36 -66t-64 -21q-31 0 -51 11q-19 10 -27 23t-17 38q-90 297 -96 322zM367 531q-35 32 -59 55t-37 37q-18 19 -18 45q0 22 24 43t48 21
q34 0 55 -28q5 -6 11.5 -14.5t14.5 -19.5t15.5 -21l13.5 -18q11 -15 19 -28q11 -14 11 -33q0 -20 -18 -36q-19 -17 -36 -17q-26 0 -44 15v-1z" />
    <glyph glyph-name="Wacute" unicode="&#x1e82;" horiz-adv-x="875" 
d="M27 596q-7 38 17 64q24 25 66 25q70 0 81 -60q14 -75 29.5 -159t32.5 -178q4 13 12 42q4 14 11.5 39.5t18.5 63.5t23 78t25 83q18 60 93 60q29 0 51 -16q23 -17 32 -45l99 -302l48 286q11 61 30 83q20 23 60 23q39 0 66 -24t21 -62l-102 -513q-11 -44 -30 -65t-67 -22
q-23 0 -40 7q-18 7 -28 22q-12 17 -17 27q-3 6 -6 14t-7 18l-112 317l-113 -352q-7 -23 -33 -40t-60 -15q-52 3 -73 30q-22 28 -32 81q-70 336 -96 491v-1zM440 717q-20 -14 -42 -14q-16 0 -37 18t-21 37q0 18 12 36l81 96q25 30 54 30q25 0 50 -23q24 -23 24 -50
q0 -22 -21 -43q-35 -35 -102 -87h2z" />
    <glyph glyph-name="wacute" unicode="&#x1e83;" horiz-adv-x="758" 
d="M20 391q-1 3 -1 6q0 29 30 49q29 19 64 19q55 0 69 -51q1 -5 9 -42q4 -19 8.5 -40t9.5 -45t10 -43.5t10 -34.5q7 19 30 93q22 73 36 108q19 46 81 46q60 0 84 -57l66 -190l29 124q7 43 21 84q16 43 70 43q32 0 60 -19q28 -20 30 -48q0 -12 -4 -27q-38 -128 -66 -204
l-35 -100q-10 -34 -32 -51t-66 -17q-66 0 -86 53q-5 11 -10.5 26t-11.5 33t-12.5 38.5t-14.5 43.5q-15 46 -21 66l-64 -173q-15 -45 -36 -66t-64 -21q-31 0 -51 11q-19 10 -27 23t-17 38q-90 297 -96 322zM377 526q-20 -14 -42 -14q-16 0 -37 18t-21 37q0 18 12 36l81 96
q25 30 54 30q25 0 50 -23q24 -23 24 -50q0 -22 -21 -43q-35 -35 -102 -87h2z" />
    <glyph glyph-name="Wdieresis" unicode="&#x1e84;" horiz-adv-x="875" 
d="M27 596q-7 38 17 64q24 25 66 25q70 0 81 -60q14 -75 29.5 -159t32.5 -178q4 13 12 42q4 14 11.5 39.5t18.5 63.5t23 78t25 83q18 60 93 60q29 0 51 -16q23 -17 32 -45l99 -302l48 286q11 61 30 83q20 23 60 23q39 0 66 -24t21 -62l-102 -513q-11 -44 -30 -65t-67 -22
q-23 0 -40 7q-18 7 -28 22q-12 17 -17 27q-3 6 -6 14t-7 18l-112 317l-113 -352q-7 -23 -33 -40t-60 -15q-52 3 -73 30q-22 28 -32 81q-70 336 -96 491v-1zM342 723q-31 0 -52 21t-21 51q0 33 21 54t56 21q30 0 51 -21t21 -52q0 -33 -21 -54t-56 -21zM522 725q-31 0 -52 21
t-21 51q0 31 21 54q21 22 54 22q32 0 53 -21t21 -52q0 -33 -21 -54t-56 -21h1z" />
    <glyph glyph-name="wdieresis" unicode="&#x1e85;" horiz-adv-x="758" 
d="M20 391q-1 3 -1 6q0 29 30 49q29 19 64 19q55 0 69 -51q1 -5 9 -42q4 -19 8.5 -40t9.5 -45t10 -43.5t10 -34.5q7 19 30 93q22 73 36 108q19 46 81 46q60 0 84 -57l66 -190l29 124q7 43 21 84q16 43 70 43q32 0 60 -19q28 -20 30 -48q0 -12 -4 -27q-38 -128 -66 -204
l-35 -100q-10 -34 -32 -51t-66 -17q-66 0 -86 53q-5 11 -10.5 26t-11.5 33t-12.5 38.5t-14.5 43.5q-15 46 -21 66l-64 -173q-15 -45 -36 -66t-64 -21q-31 0 -51 11q-19 10 -27 23t-17 38q-90 297 -96 322zM279 532q-31 0 -52 21t-21 51q0 33 22 54t55 21q30 0 51 -21t21 -52
q0 -33 -21 -54t-56 -21zM459 534q-31 0 -52 21t-21 51q0 31 21 54q21 22 54 22q32 0 53 -21t21 -52q0 -33 -21 -54t-56 -21h1z" />
    <glyph glyph-name="uni1E9E" unicode="&#x1e9e;" horiz-adv-x="686" 
d="M421 527q-44 12 -78 12q-46 0 -79 -39t-33 -94q0 -4 0.5 -34.5t1.5 -89.5q1 -117 0 -196q-2 -50 -24 -69q-23 -20 -69 -21q-34 -1 -57 20t-23 56v42v103v178q0 136 84 216q83 79 213 79q116 0 193 -44q20 -11 35 -33q15 -23 15 -48q0 -29 -16 -49l-114 -130
q79 -29 108 -47q73 -48 73 -142q0 -84 -59 -143t-156 -59q-68 0 -110 21t-42 59q0 34 18 58t48 24q21 0 45 -7t41 -7q25 0 41 14q15 13 15 39q0 32 -32 50t-87 33q-59 17 -59 81q0 34 23 62z" />
    <glyph glyph-name="Ygrave" unicode="&#x1ef2;" horiz-adv-x="624" 
d="M203 288l-178 270q-16 25 -16 45q0 32 27 56t62 24q39 0 59 -30t58 -92t95 -156q1 1 147 240q23 38 69 38q30 0 56 -22q27 -23 27 -51q0 -27 -17 -50l-200 -303v-194q0 -32 -24 -50t-60 -18q-38 0 -60 22q-23 23 -23 57v15.5t1 23.5t1 24v17v104zM309 723q-35 32 -59 55
t-37 37q-18 19 -18 45q0 22 24 43t48 21q34 0 55 -28q5 -6 11.5 -14.5t14.5 -19.5t15.5 -21l13.5 -18q11 -15 19 -28q11 -14 11 -33q0 -20 -18 -36q-19 -17 -36 -17q-26 0 -44 15v-1z" />
    <glyph glyph-name="ygrave" unicode="&#x1ef3;" horiz-adv-x="525" 
d="M261 190l7.5 17.5t9.5 24.5t12.5 33.5t16.5 44.5t18 49.5t18 48.5q21 56 67 56q34 0 62 -19q29 -20 29 -45q0 -28 -17 -65q-11 -23 -27 -57.5t-37 -81.5t-40.5 -89.5t-38.5 -82.5t-37 -77.5t-36 -72.5q-54 -100 -158 -100q-98 0 -98 79q0 34 20 54t54 20q25 0 39 13
q16 15 29 43l15 30l12 24l-16 31l-129 268q-18 36 -18 64q0 29 28 48q29 20 58 20q25 0 41 -8q14 -7 25 -30l28 -70l28 -70q27 -71 39 -99zM235 532q-35 32 -59 55t-37 37q-18 19 -18 45q0 22 24 43t48 21q34 0 55 -28q5 -6 11.5 -14.5t14.5 -19.5t15.5 -21l13.5 -18
q11 -15 19 -28q11 -14 11 -33q0 -20 -18 -36q-19 -17 -36 -17q-26 0 -44 15v-1z" />
    <glyph glyph-name="endash" unicode="&#x2013;" horiz-adv-x="500" 
d="M78 166q-35 0 -53 21t-18 53q0 35 18 56t51 21h162h182q67 0 67 -76q0 -35 -21 -54q-22 -20 -59 -20h-163h-163z" />
    <glyph glyph-name="emdash" unicode="&#x2014;" horiz-adv-x="1000" 
d="M93 166q-35 0 -53 21t-18 53q0 35 18 56t51 21h399h419q67 0 67 -76q0 -35 -21 -54q-22 -20 -59 -20h-400h-402z" />
    <glyph glyph-name="quoteleft" unicode="&#x2018;" horiz-adv-x="236" 
d="M146 606q20 -3 35 -21q14 -17 16 -48q1 -34 -24 -58q-26 -24 -57 -24q-40 0 -66 26t-26 71q0 48 27 90t68 68q16 10 30 10q16 0 30 -12q13 -12 13 -27q0 -20 -14 -32q-28 -25 -28 -40v-2z" />
    <glyph glyph-name="quoteright" unicode="&#x2019;" horiz-adv-x="236" 
d="M83 565q-19 3 -34 21q-14 17 -16 48q-2 35 24 59q25 24 57 24q41 0 66 -25q26 -26 26 -70q0 -48 -27 -90q-26 -41 -68 -67q-16 -10 -30 -10q-17 0 -30 12t-13 27q0 20 14 32q28 25 28 40v2z" />
    <glyph glyph-name="quotesinglbase" unicode="&#x201a;" horiz-adv-x="236" 
d="M83 -1q-19 3 -34 21q-14 17 -16 48q-2 35 24 59q25 24 57 24q41 0 66 -25q26 -26 26 -70q0 -48 -27 -90q-26 -41 -68 -67q-16 -10 -30 -10q-17 0 -30 12t-13 27q0 20 14 32q28 25 28 40v2z" />
    <glyph glyph-name="quotedblleft" unicode="&#x201c;" horiz-adv-x="432" 
d="M146 608q20 -3 35 -21q14 -17 16 -48q1 -34 -24 -58q-26 -24 -57 -24q-40 0 -66 26t-26 71q0 48 27 90t68 68q16 10 30 10q16 0 30 -12q13 -12 13 -27q0 -20 -14 -32q-28 -25 -28 -40v-2zM338 607q20 -3 35 -21q14 -17 16 -48q1 -34 -24 -58q-26 -24 -57 -24
q-40 0 -66 26t-26 71q0 48 27 90t68 68q16 10 30 10q16 0 30 -12q13 -12 13 -27q0 -20 -14 -32q-28 -25 -28 -40v-2z" />
    <glyph glyph-name="quotedblright" unicode="&#x201d;" horiz-adv-x="432" 
d="M83 565q-19 3 -34 21q-14 17 -16 48q-2 35 24 59q25 24 57 24q41 0 66 -25q26 -26 26 -70q0 -48 -27 -90q-26 -41 -68 -67q-16 -10 -30 -10q-17 0 -30 12t-13 27q0 20 14 32q28 25 28 40v2zM282 562q-19 3 -34 21q-14 17 -16 48q-2 35 24 59q25 24 57 24q41 0 66 -25
q26 -26 26 -70q0 -48 -27 -90q-26 -41 -68 -67q-16 -10 -30 -10q-17 0 -30 12t-13 27q0 20 14 32q28 25 28 40v2z" />
    <glyph glyph-name="quotedblbase" unicode="&#x201e;" horiz-adv-x="432" 
d="M83 -1q-19 3 -34 21q-14 17 -16 48q-2 35 24 59q25 24 57 24q41 0 66 -25q26 -26 26 -70q0 -48 -27 -90q-26 -41 -68 -67q-16 -10 -30 -10q-17 0 -30 12t-13 27q0 20 14 32q28 25 28 40v2zM282 -4q-19 3 -34 21q-14 17 -16 48q-2 35 24 59q25 24 57 24q41 0 66 -25
q26 -26 26 -70q0 -48 -27 -90q-26 -41 -68 -67q-16 -10 -30 -10q-17 0 -30 12t-13 27q0 20 14 32q28 25 28 40v2z" />
    <glyph glyph-name="dagger" unicode="&#x2020;" horiz-adv-x="550" 
d="M95 357q-72 0 -72 74q0 34 18 54t49 20h21.5t28.5 -1t29.5 -1h24.5l-1 148q0 80 83 80q43 0 63 -18t20 -64v-37.5t-1 -41.5t-1 -39v-30l105 1q67 0 67 -74q0 -72 -75 -72l-97 1v-241v-234q0 -37 -22 -56q-23 -20 -60 -20q-35 0 -58 19q-24 19 -24 51v120v120v121v122
l-98 -1v-1z" />
    <glyph glyph-name="daggerdbl" unicode="&#x2021;" horiz-adv-x="550" 
d="M93 353q-72 0 -72 76q0 68 65 68h30h37h18t19 1l-2 161q0 27 23 45q22 18 60 18q81 0 81 -68v-25.5t-1 -36.5t-1 -44.5v-49.5l108 2q67 0 67 -74q0 -72 -75 -72l-100 2q-1 -43 0 -115q1 -36 1 -56v-24l107 2q67 0 67 -74q0 -72 -75 -72l-99 2q0 -11 0.5 -28.5t1.5 -40.5
t1.5 -40.5t0.5 -28.5q0 -39 -24 -57t-60 -18q-35 0 -59 18t-24 51l2 147l-97 -1q-34 0 -52 20q-18 19 -18 51q0 34 18 54t51 20l100 -2v40v156l-97 -2z" />
    <glyph glyph-name="bullet" unicode="&#x2022;" horiz-adv-x="350" 
d="M172 93q-61 0 -102 38q-40 37 -40 98q0 67 42 109t108 42q58 0 99 -41t41 -101q0 -68 -40 -105q-41 -38 -109 -38z" />
    <glyph glyph-name="ellipsis" unicode="&#x2026;" horiz-adv-x="741" 
d="M118 -9q-38 0 -63 24t-25 62q0 40 27 67t68 27q39 0 65 -24t26 -64q0 -41 -27 -66q-26 -25 -70 -25zM364 -10q-38 0 -63 24t-25 62q0 40 27 67t68 27q39 0 65 -24t26 -64q0 -41 -27 -66q-26 -25 -70 -25zM610 -11q-38 0 -63 24t-25 62q0 40 27 67t68 27q39 0 65 -24
t26 -64q0 -41 -27 -66q-26 -25 -70 -25z" />
    <glyph glyph-name="perthousand" unicode="&#x2030;" horiz-adv-x="1188" 
d="M517 643q17 28 40 35q24 7 49 -6q54 -32 24 -81q-4 -7 -20.5 -33t-46.5 -72t-52 -80.5t-36 -57.5q-11 -20 -26 -45.5t-33 -55.5t-27 -45.5t-10 -16.5l-95 -158q-14 -23 -40 -27q-27 -5 -45 6q-22 10 -28 33q-6 22 8 48l171 267l167 288v1zM19 490q0 89 43 141
q44 53 118 53t118 -51q43 -50 43 -136q0 -83 -46 -130q-47 -48 -114 -48q-65 0 -113 45t-48 125zM179 578q-49 0 -49 -81q0 -74 48 -74q23 0 36 25t13 57q0 74 -47 74zM475 165q0 88 42 139t119 51q76 0 121 -50t45 -134q0 -83 -46 -130q-47 -48 -118 -48q-68 0 -115 46
q-48 46 -48 126zM637 256q-49 0 -49 -90q0 -74 46 -74q50 0 50 78q0 86 -47 86zM840 165q0 88 42 139t119 51q76 0 121 -50t45 -134q0 -83 -46 -130q-47 -48 -118 -48q-68 0 -115 46q-48 46 -48 126zM1002 256q-49 0 -49 -90q0 -74 46 -74q50 0 50 78q0 86 -47 86z" />
    <glyph glyph-name="guilsinglleft" unicode="&#x2039;" horiz-adv-x="335" 
d="M187 233l91 -105q17 -20 17 -43q0 -16 -16 -32q-17 -17 -33 -18q-24 -1 -40 12l-138 123q-29 29 -29 63q0 33 25 58q67 67 135 126q16 12 39 12q19 0 39 -17q19 -16 19 -36q0 -17 -15 -33z" />
    <glyph glyph-name="guilsinglright" unicode="&#x203a;" horiz-adv-x="335" 
d="M53 343q-15 16 -15 33q0 20 19 36q20 17 39 17q22 0 39 -12q67 -59 135 -126q25 -25 25 -58q0 -34 -29 -63l-138 -123q-16 -13 -40 -12q-17 1 -33 18q-16 16 -16 32q0 23 17 43l91 105z" />
    <glyph glyph-name="fraction" unicode="&#x2044;" horiz-adv-x="472" 
d="M360 641q23 38 49 38q21 0 37 -14q15 -14 15 -32q0 -16 -12 -37l-22.5 -36t-46.5 -76t-50 -82.5t-34 -56.5l-191 -321q-16 -28 -45 -28q-17 0 -34 14q-16 13 -16 35q0 16 15 42l336 556z" />
    <glyph glyph-name="zerosuperior" unicode="&#x2070;" horiz-adv-x="370" 
d="M22 548q0 101 44 156q43 54 117 54q76 0 120 -51q43 -50 43 -144q0 -95 -45 -144q-45 -50 -112 -50q-71 0 -118 46q-48 46 -48 135zM184 653q-50 0 -50 -98q0 -41 13 -63t34 -22q27 0 41 24q14 25 14 66q0 93 -52 93z" />
    <glyph glyph-name="foursuperior" unicode="&#x2074;" horiz-adv-x="353" 
d="M181 558q0 25 13 38q14 14 34 14q52 0 55 -35v-39h14q43 0 43 -47q0 -57 -42 -57h-14v-24q-2 -41 -54 -42q-49 -1 -49 40v26h-116q-20 0 -35 21t-15 42q0 36 24 72l90 162q21 31 50 31q23 0 44 -15t21 -33q0 -13 -8 -27l-90 -151l36 1v25z" />
    <glyph glyph-name="fivesuperior" unicode="&#x2075;" horiz-adv-x="331" 
d="M52 699q3 23 17 39q13 15 36 15h134q51 0 51 -53q0 -50 -53 -50l-87 2l-3 -14l-2 -16q6 6 28 6q59 0 97 -32q37 -31 37 -90q0 -62 -36 -101t-110 -39q-63 0 -104 23q-31 18 -31 50q0 21 15 38t39 17q8 0 29 -9q24 -11 52 -11q34 0 34 27q0 14 -13 21q-14 8 -30 8
q-8 0 -27 -6q-20 -6 -34 -6q-24 0 -43 17q-18 16 -13 41q3 21 9 60q6 37 9 65z" />
    <glyph glyph-name="sixsuperior" unicode="&#x2076;" horiz-adv-x="350" 
d="M197 650q-40 0 -48 -23q-2 -8 -2 -15q30 14 49 14q59 0 95 -30t36 -93q0 -62 -39 -99q-38 -37 -109 -37q-120 0 -145 120q-2 14 -3.5 30t-1.5 33q0 92 45 149t120 57q51 0 78 -13q32 -17 32 -48q0 -23 -13 -37q-14 -15 -34 -15q-12 0 -27 4q-25 5 -33 5v-2zM183 534
q-15 1 -28 -8q-12 -9 -12 -27q0 -32 34 -32q43 0 43 33q0 15 -10 24q-11 10 -27 11v-1z" />
    <glyph glyph-name="sevensuperior" unicode="&#x2077;" horiz-adv-x="317" 
d="M160 652h-48h-52q-26 0 -37 14q-10 13 -10 41q0 25 15 37t37 12h95h97q24 0 36 -15t12 -36q0 -26 -19 -54q-59 -86 -90 -159q-8 -20 -14 -37t-9 -33q-6 -27 -18 -39t-41 -12q-28 0 -43 15t-15 37q0 23 26 87q32 79 78 143v-1z" />
    <glyph glyph-name="eightsuperior" unicode="&#x2078;" horiz-adv-x="353" 
d="M319 643q0 -22 -11 -44t-30 -29q50 -15 50 -74q1 -66 -39 -99q-41 -33 -114 -33q-66 0 -109 32q-42 31 -42 90q0 26 15 50t40 33q-16 4 -28 27q-12 22 -12 46q0 52 41 84t93 32q63 0 104 -31q42 -32 42 -81v-3zM174 528q-16 0 -25 -10q-9 -11 -9 -25t9 -21q8 -7 23 -7
q39 0 39 30q0 15 -9 24t-26 9h-2zM148 639q0 -26 25 -26q32 0 32 28q0 9 -9 15t-22 6q-11 0 -18 -7q-8 -8 -8 -18v2z" />
    <glyph glyph-name="ninesuperior" unicode="&#x2079;" horiz-adv-x="355" 
d="M159 474q18 0 32 9t15 25q-22 -11 -53 -11q-53 0 -90 31t-37 93t42 98t107 36q55 0 90 -27q35 -28 47 -64q12 -38 12 -85q0 -108 -39 -160t-129 -52q-50 0 -89 19q-27 12 -27 49q0 21 14 38t35 17q6 0 30 -6q19 -6 41 -6zM167 587q40 -1 40 36q0 14 -10 23q-11 9 -24 9
q-16 0 -26 -9q-11 -9 -11 -26q0 -14 9 -23q8 -8 23 -10h-1z" />
    <glyph glyph-name="zeroinferior" unicode="&#x2080;" horiz-adv-x="370" 
d="M22 8q0 101 44 156q43 54 117 54q76 0 120 -51q43 -50 43 -144q0 -95 -45 -144q-45 -50 -112 -50q-71 0 -118 46q-48 46 -48 135zM184 113q-50 0 -50 -98q0 -41 13 -63t34 -22q27 0 41 24q14 25 14 66q0 93 -52 93z" />
    <glyph glyph-name="oneinferior" unicode="&#x2081;" horiz-adv-x="260" 
d="M84 62q-13 -7 -30 -7q-19 0 -33 17t-14 36q0 28 32 49q26 16 44 29t20 14q26 16 49 16q22 0 40 -15t18 -31v-93v-102v-102q0 -19 -16 -31q-17 -12 -39 -12q-55 0 -55 51v29t1 60t1 64v40q0 -2 -16 -12h-2z" />
    <glyph glyph-name="twoinferior" unicode="&#x2082;" horiz-adv-x="327" 
d="M152 110q-19 0 -36 -20q-15 -17 -46 -17q-19 0 -34 16t-15 37q0 31 42 63q43 28 85 28q64 1 108 -33q43 -34 43 -93q0 -23 -6 -41q-6 -17 -27 -40t-30 -30q-9 -8 -45 -36l-10 -7h45h24h9q48 0 48 -54q0 -55 -53 -55h-18h-25h-14h-124q-23 0 -39 16t-16 42q0 39 34 70
l77 71q2 2 5 4.5t7 5.5q40 37 42 48q0 10 -9 18q-8 7 -21 7h-1z" />
    <glyph glyph-name="threeinferior" unicode="&#x2083;" horiz-adv-x="326" 
d="M186 -43q0 27 -50 27h-21q-19 0 -30 14t-11 35q0 18 23 41q12 12 22.5 21t19.5 16h-30h-30q-54 0 -54 51q0 23 12 38t37 15h65h112q20 0 32 -15t12 -34q0 -28 -16 -41l-13 -13l-22 -22q-7 -7 -13.5 -13t-12.5 -12q34 -7 58 -34q23 -26 25 -70q1 -66 -42 -100t-108 -34
q-54 0 -91 19q-34 18 -34 52q0 22 15 39t32 17q15 0 44 -12q18 -8 30 -8q40 0 40 25z" />
    <glyph glyph-name="fourinferior" unicode="&#x2084;" horiz-adv-x="353" 
d="M181 18q0 25 13 38q14 14 34 14q52 0 55 -35v-39h14q43 0 43 -47q0 -57 -42 -57h-14v-24q-2 -41 -54 -42q-49 -1 -49 40v26h-116q-20 0 -35 21t-15 42q0 36 24 72l90 162q21 31 50 31q23 0 44 -15t21 -33q0 -13 -8 -27l-90 -151l36 1v25z" />
    <glyph glyph-name="fiveinferior" unicode="&#x2085;" horiz-adv-x="331" 
d="M52 159q3 23 17 39q13 15 36 15h134q51 0 51 -53q0 -50 -53 -50l-87 2l-3 -14l-2 -16q6 6 28 6q59 0 97 -32q37 -31 37 -90q0 -62 -36 -101t-110 -39q-63 0 -104 23q-31 18 -31 50q0 21 15 38t39 17q8 0 29 -9q24 -11 52 -11q34 0 34 27q0 14 -13 21q-14 8 -30 8
q-8 0 -27 -6q-20 -6 -34 -6q-24 0 -43 17q-18 16 -13 41q3 21 9 60q6 37 9 65z" />
    <glyph glyph-name="sixinferior" unicode="&#x2086;" horiz-adv-x="350" 
d="M197 110q-40 0 -48 -23q-2 -8 -2 -15q30 14 49 14q59 0 95 -30t36 -93q0 -62 -39 -99q-38 -37 -109 -37q-120 0 -145 120q-2 14 -3.5 30t-1.5 33q0 92 45 149t120 57q51 0 78 -13q32 -17 32 -48q0 -23 -13 -37q-14 -15 -34 -15q-12 0 -27 4q-25 5 -33 5v-2zM183 -6
q-15 1 -28 -8q-12 -9 -12 -27q0 -32 34 -32q43 0 43 33q0 15 -10 24q-11 10 -27 11v-1z" />
    <glyph glyph-name="seveninferior" unicode="&#x2087;" horiz-adv-x="317" 
d="M160 112h-48h-52q-26 0 -37 14q-10 13 -10 41q0 25 15 37t37 12h95h97q24 0 36 -15t12 -36q0 -26 -19 -54q-59 -86 -90 -159q-8 -20 -14 -37t-9 -33q-6 -27 -18 -39t-41 -12q-28 0 -43 15t-15 37q0 23 26 87q32 79 78 143v-1z" />
    <glyph glyph-name="eightinferior" unicode="&#x2088;" horiz-adv-x="353" 
d="M319 103q0 -22 -11 -44t-30 -29q50 -15 50 -74q1 -66 -39 -99q-41 -33 -114 -33q-66 0 -109 32q-42 31 -42 90q0 26 15 50t40 33q-16 4 -28 27q-12 22 -12 46q0 52 41 84t93 32q63 0 104 -31q42 -32 42 -81v-3zM174 -12q-16 0 -25 -10q-9 -11 -9 -25t9 -21q8 -7 23 -7
q39 0 39 30q0 15 -9 24t-26 9h-2zM148 99q0 -26 25 -26q32 0 32 28q0 9 -9 15t-22 6q-11 0 -18 -7q-8 -8 -8 -18v2z" />
    <glyph glyph-name="nineinferior" unicode="&#x2089;" horiz-adv-x="355" 
d="M159 -66q18 0 32 9t15 25q-22 -11 -53 -11q-53 0 -90 31t-37 93t42 98t107 36q55 0 90 -27q35 -28 47 -64q12 -38 12 -85q0 -108 -39 -160t-129 -52q-50 0 -89 19q-27 12 -27 49q0 21 14 38t35 17q6 0 30 -6q19 -6 41 -6zM167 47q40 -1 40 36q0 14 -10 23q-11 9 -24 9
q-16 0 -26 -9q-11 -9 -11 -26q0 -14 9 -23q8 -8 23 -10h-1z" />
    <glyph glyph-name="franc" unicode="&#x20a3;" horiz-adv-x="561" 
d="M64 90q-24 0 -43 13t-19 45q0 67 59 67h29v262q0 11 -0.5 27t-1.5 36t-1.5 33.5t-0.5 20.5q-2 29 12 50q23 35 63 35h22h24h45.5t79.5 1t78.5 1h44.5q84 0 84 -66q0 -35 -15 -57t-45 -22l-222 1v-59v-54l156 1q30 0 47 -20t17 -53q0 -73 -75 -73h-148v-63h69q63 0 63 -61
t-71 -61h-60v-26q0 -73 -79 -73q-42 0 -64 18t-22 49v32h-22z" />
    <glyph glyph-name="lira" unicode="&#x20a4;" horiz-adv-x="561" 
d="M113 216q-57 0 -57 52q0 49 54 49h27v20h-29q-25 0 -39 11q-13 10 -13 36q0 49 54 49h25v23v23q0 87 63 144t149 57q64 0 103 -21q42 -23 42 -69q0 -26 -18 -53t-46 -27q-12 0 -32 5t-33 5q-29 0 -44 -18t-15 -44v-24h67q54 0 54 -44q0 -27 -12 -39q-11 -11 -42 -13h-66
v-20h63q25 0 36 -12q11 -13 11 -37q0 -26 -12 -39t-43 -13h-55v-63q70 -16 76 -16q17 0 42 20t53 20q31 0 52 -21t21 -51q0 -59 -36 -89t-89 -30q-20 0 -51 4.5t-73 12.5t-65 12.5t-27 5.5q-24 0 -38 -14l-4 -4l-5 -5q-1 -1 -2 -1.5t-3 -2.5t-6 -4t-7 -3l-9 -3q-3 -1 -12 -1
h-15q-23 0 -46 14q-33 22 -31 63q1 37 21 67q19 29 54 43q9 4 36 4v44h-25z" />
    <glyph glyph-name="Euro" unicode="&#x20ac;" horiz-adv-x="593" 
d="M515 666q46 -19 46 -69q0 -30 -18 -55t-49 -25q-12 0 -39 8t-42 8q-39 0 -70 -14q-29 -13 -52 -54q30 1 64.5 1h72.5q49 0 49 -56q0 -23 -15 -36q-14 -13 -37 -13h-164q-1 -10 -1.5 -17.5t-0.5 -12.5v-8h77h77q48 0 48 -49q0 -30 -15 -43q-14 -13 -48 -13h-64t-53 1
q39 -68 130 -68q14 0 48 8t50 8q27 0 45 -30t18 -61q0 -84 -184 -81q-99 1 -176 62t-104 166h-35q-26 0 -39 16t-13 39q0 22 14 36q13 13 38 13h24v6v19t1 13h-16q-48 0 -48 48q0 23 15 38t41 15h31q38 104 120 164t177 58q61 -2 99 -18z" />
    <glyph glyph-name="uni20B9" unicode="&#x20b9;" horiz-adv-x="536" 
d="M89 545q-32 0 -48 18q-16 17 -16 44q0 28 17 47q16 18 47 18h179h171q62 0 62 -65q0 -29 -19 -45q-20 -17 -54 -17h-39q10 -19 15 -38h37q60 0 60 -64q0 -29 -18 -45q-19 -17 -53 -17h-29q-32 -93 -106 -129l143 -137q21 -21 21 -51q0 -31 -25 -52q-25 -20 -61 -22
q-15 0 -31 8t-23 15q-4 4 -9 9.5t-12 13.5l-167 177h-34q-29 0 -46 20q-16 19 -16 48q0 35 18 50q19 16 54 17h48q52 0 79 35h-141q-32 0 -48 18q-16 17 -16 44q0 31 16 47q17 17 48 17h57h92q-20 33 -63 39h-83z" />
    <glyph glyph-name="uni20BA" unicode="&#x20ba;" horiz-adv-x="575" 
d="M291 260v-93q68 -1 97 53q27 52 84 51q32 -2 51 -22t19 -60q0 -65 -65 -121q-64 -55 -158 -66q-19 -2 -43 -3.5t-53 -1.5q-105 0 -102 82v125l-23 -8q-29 -9 -50 3q-20 12 -25 32q-11 51 48 69l52 17v31l-29 -10q-62 -20 -75 33q-14 51 46 69l58 20l1 149q0 77 83 77
t83 -70v-98l48 17q61 18 78 -33q15 -49 -41 -69l-83 -28v-31l54 19q61 18 78 -35q13 -49 -42 -67z" />
    <glyph glyph-name="uni20BD" unicode="&#x20bd;" horiz-adv-x="643" 
d="M93 247q-70 0 -70 64q0 66 66 66l30 1v168q0 28 3 48q3 19 12 40t30 33q20 11 54 13q54 3 126 3q123 0 194 -52q72 -53 72 -159q0 -110 -66 -165q-67 -56 -190 -56h-66v-39h86q66 0 66 -61q0 -32 -19 -48t-51 -16h-80v-19q0 -76 -84 -76q-43 0 -64 21t-21 54v22h-27
q-69 0 -69 60q0 66 70 66h25v37h-26zM287 379h38h38q86 0 86 83q0 78 -98 78h-30h-33v-122z" />
    <glyph glyph-name="uni2113" unicode="&#x2113;" horiz-adv-x="447" 
d="M248 -4q-64 0 -111 35q-46 34 -55 87q-2 10 -3 22q-19 -4 -30 -1q-17 4 -27 24q-10 19 -10 42q0 49 56 63q1 1 5 3q2 1 5 1l-1 40l-5 60q-2 24 -3 41t-1 27v24t1 32q3 40 12 72q9 31 27 60t52 45q33 16 84 16q74 0 117 -46q44 -47 48 -115q4 -74 -33 -147t-101 -135
q-24 -26 -54 -48v-5q0 -64 44 -64q19 0 49 13q25 12 45 12q21 0 38 -21q17 -22 17 -46q0 -38 -27 -54q-59 -38 -130 -38zM199 463v-15t1 -30q1 -38 0 -57q20 20 40 54q25 46 27 84q0 62 -30 62q-37 0 -37 -99z" />
    <glyph glyph-name="trademark" unicode="&#x2122;" horiz-adv-x="688" 
d="M169 679h30h48q35 0 35 -38q0 -45 -35 -45h-56l1 -171v-17v-18q0 -41 -49 -41q-21 0 -33 9t-10 29l1 165v20.5t-1 21.5h-57q-35 0 -35 43q0 38 37 39h111zM386 517l-14 -135q-4 -34 -44 -34q-20 0 -33 12t-10 32q4 34 39 258q7 30 56 30q34 -2 47 -39l49 -157l57 160
q3 10 14 21t26 14h22q25 -2 36 -21l30 -222l7 -49q1 -19 -14 -30q-14 -10 -33 -10q-39 0 -42 34l-14 130l-45 -129q-12 -25 -49 -24q-13 0 -22 6q-10 6 -12 10q-2 2 -7 15z" />
    <glyph glyph-name="Omega" unicode="&#x2126;" horiz-adv-x="716" 
d="M93 2q-32 0 -52 20q-19 19 -19 54q0 37 21 60t56 23q1 0 15 -0.5t41 -1.5q-122 74 -122 216q0 137 93 227t228 90q145 0 237 -87q91 -87 91 -217q0 -139 -118 -232h31h24q74 0 74 -77q0 -76 -73 -76h-169q-22 -1 -45 20t-23 56q0 48 35 89q52 48 78 96q26 49 26 119
q0 71 -49 116q-50 45 -120 45t-115 -47t-45 -123q0 -67 29 -113t84 -95q33 -32 33 -87q0 -31 -20 -54t-54 -24z" />
    <glyph glyph-name="estimated" unicode="&#x212e;" horiz-adv-x="691" 
d="M190 292v-212q71 -50 153 -50q70 0 129 38q58 37 91 90q5 5 12 2l23 -16q1 -2 0 -6q-44 -65 -109 -105q-67 -41 -145 -41q-128 0 -213 94q-86 95 -86 225t86 224q85 93 213 93t215 -93t87 -225v-12q0 -5 -4 -5zM495 329v209q-69 51 -152 51q-85 0 -153 -53v-207h305z" />
    <glyph glyph-name="onethird" unicode="&#x2153;" horiz-adv-x="790" 
d="M481 641q23 38 49 38q21 0 37 -14q15 -14 15 -32q0 -16 -12 -37l-22.5 -36t-46.5 -76t-50 -82.5t-34 -56.5l-191 -321q-16 -28 -45 -28q-17 0 -34 14q-16 13 -16 35q0 16 15 42l336 556zM651 119q0 27 -50 27h-21q-19 0 -30 14t-11 35q0 18 23 41q23 24 42 37h-30h-30
q-54 0 -54 51q0 23 12 38t37 15h65h112q20 0 32 -15t12 -34q0 -28 -16 -41l-13 -13l-22 -22q-7 -7 -13.5 -13t-12.5 -12q34 -7 58 -34q23 -26 25 -70q1 -66 -42 -100t-108 -34q-54 0 -91 19q-34 18 -34 52q0 22 15 39t32 17q15 0 44 -12q18 -8 30 -8q40 0 40 25zM93 524
q-13 -7 -30 -7q-19 0 -33 17t-14 36q0 28 32 49q26 16 44 29t20 14q26 16 49 16q22 0 40 -15t18 -31v-93v-102v-102q0 -19 -16 -31q-17 -12 -39 -12q-55 0 -55 51v29t1 60t1 64v40q0 -2 -16 -12h-2z" />
    <glyph glyph-name="twothirds" unicode="&#x2154;" horiz-adv-x="830" 
d="M544 641q23 38 49 38q21 0 37 -14q15 -14 15 -32q0 -16 -12 -37l-22.5 -36t-46.5 -76t-50 -82.5t-34 -56.5l-191 -321q-16 -28 -45 -28q-17 0 -34 14q-16 13 -16 35q0 16 15 42l336 556zM691 119q0 27 -50 27h-21q-19 0 -30 14t-11 35q0 18 23 41q23 24 42 37h-30h-30
q-54 0 -54 51q0 23 12 38t37 15h65h112q20 0 32 -15t12 -34q0 -28 -16 -41l-13 -13l-22 -22q-7 -7 -13.5 -13t-12.5 -12q34 -7 58 -34q23 -26 25 -70q1 -66 -42 -100t-108 -34q-54 0 -91 19q-34 18 -34 52q0 22 15 39t32 17q15 0 44 -12q18 -8 30 -8q40 0 40 25zM162 572
q-19 0 -36 -20q-15 -17 -46 -17q-19 0 -34 16t-15 37q0 31 42 63q43 28 85 28q64 1 108 -33q43 -34 43 -93q0 -23 -6 -41q-6 -17 -27 -40t-30 -30q-9 -8 -45 -36l-10 -7h45h24h9q48 0 48 -54q0 -55 -53 -55h-58h-124q-23 0 -39 16t-16 42q0 39 34 70l77 71q2 2 5 4.5t7 5.5
q40 37 42 48q0 10 -9 18q-8 7 -21 7z" />
    <glyph glyph-name="oneeighth" unicode="&#x215b;" horiz-adv-x="810" 
d="M484 641q23 38 49 38q21 0 37 -14q15 -14 15 -32q0 -16 -12 -37l-22.5 -36t-46.5 -76t-50 -82.5t-34 -56.5l-191 -321q-16 -28 -45 -28q-17 0 -34 14q-16 13 -16 35q0 16 15 42l336 556zM767 265q0 -22 -11 -44t-30 -29q50 -15 50 -74q1 -66 -39 -99q-41 -33 -114 -33
q-66 0 -109 32q-42 31 -42 90q0 26 15 50t40 33q-16 4 -28 27q-12 22 -12 46q0 52 41 84t93 32q63 0 104 -31q42 -32 42 -81v-3zM622 150q-16 0 -25 -10q-9 -11 -9 -25t9 -21q8 -7 23 -7q39 0 39 30q0 15 -9 24t-26 9h-2zM596 261q0 -26 25 -26q32 0 32 28q0 9 -9 15t-22 6
q-11 0 -18 -7q-8 -8 -8 -18v2zM95 525q-13 -7 -30 -7q-19 0 -33 17t-14 36q0 28 32 49q26 16 44 29t20 14q26 16 49 16q22 0 40 -15t18 -31v-93v-102v-102q0 -19 -16 -31q-17 -12 -39 -12q-55 0 -55 51v29t1 60t1 64v40q0 -2 -16 -12h-2z" />
    <glyph glyph-name="threeeighths" unicode="&#x215c;" horiz-adv-x="840" 
d="M531 641q23 38 49 38q21 0 37 -14q15 -14 15 -32q0 -16 -12 -37l-22.5 -36t-46.5 -76t-50 -82.5t-34 -56.5l-191 -321q-16 -28 -45 -28q-17 0 -34 14q-16 13 -16 35q0 16 15 42l336 556zM794 265q0 -22 -11 -44t-30 -29q50 -15 50 -74q1 -66 -39 -99q-41 -33 -114 -33
q-66 0 -109 32q-42 31 -42 90q0 26 15 50t40 33q-16 4 -28 27q-12 22 -12 46q0 52 41 84t93 32q63 0 104 -31q42 -32 42 -81v-3zM649 150q-16 0 -25 -10q-9 -11 -9 -25t9 -21q8 -7 23 -7q39 0 39 30q0 15 -9 24t-26 9h-2zM623 261q0 -26 25 -26q32 0 32 28q0 9 -9 15t-22 6
q-11 0 -18 -7q-8 -8 -8 -18v2zM196 420q0 27 -50 27h-21q-19 0 -30 14t-11 35q0 18 23 41q24 24 42 37h-31h-31q-54 0 -54 51q0 23 12 38t37 15h65h112q20 0 32 -15t12 -34q0 -28 -16 -41l-13 -13l-22 -22q-7 -7 -13.5 -13t-12.5 -12q34 -7 58 -34q23 -26 25 -70
q1 -66 -42 -100t-108 -34q-54 0 -91 19q-34 18 -34 52q0 22 15 39t32 17q15 0 44 -12q18 -8 30 -8q40 0 40 25z" />
    <glyph glyph-name="fiveeighths" unicode="&#x215d;" horiz-adv-x="840" 
d="M531 641q23 38 49 38q21 0 37 -14q15 -14 15 -32q0 -16 -12 -37l-22.5 -36t-46.5 -76t-50 -82.5t-34 -56.5l-191 -321q-16 -28 -45 -28q-17 0 -34 14q-16 13 -16 35q0 16 15 42l336 556zM794 265q0 -22 -11 -44t-30 -29q50 -15 50 -74q1 -66 -39 -99q-41 -33 -114 -33
q-66 0 -109 32q-42 31 -42 90q0 26 15 50t40 33q-16 4 -28 27q-12 22 -12 46q0 52 41 84t93 32q63 0 104 -31q42 -32 42 -81v-3zM649 150q-16 0 -25 -10q-9 -11 -9 -25t9 -21q8 -7 23 -7q39 0 39 30q0 15 -9 24t-26 9h-2zM623 261q0 -26 25 -26q32 0 32 28q0 9 -9 15t-22 6
q-11 0 -18 -7q-8 -8 -8 -18v2zM60 622q3 23 17 39q13 15 36 15h134q51 0 51 -53q0 -50 -53 -50l-87 2l-3 -14l-2 -16q6 6 28 6q59 0 97 -32q37 -31 37 -90q0 -62 -36 -101t-110 -39q-63 0 -104 23q-31 18 -31 50q0 21 15 38t39 17q8 0 29 -9q24 -11 52 -11q34 0 34 27
q0 14 -13 21q-14 8 -30 8q-8 0 -27 -6q-20 -6 -34 -6q-24 0 -43 17q-18 16 -13 41q3 21 9 60q6 37 9 65z" />
    <glyph glyph-name="seveneighths" unicode="&#x215e;" horiz-adv-x="810" 
d="M481 641q23 38 49 38q21 0 37 -14q15 -14 15 -32q0 -16 -12 -37l-22.5 -36t-46.5 -76t-50 -82.5t-34 -56.5l-191 -321q-16 -28 -45 -28q-17 0 -34 14q-16 13 -16 35q0 16 15 42l336 556zM766 265q0 -22 -11 -44t-30 -29q50 -15 50 -74q1 -66 -39 -99q-41 -33 -114 -33
q-66 0 -109 32q-42 31 -42 90q0 26 15 50t40 33q-16 4 -28 27q-12 22 -12 46q0 52 41 84t93 32q63 0 104 -31q42 -32 42 -81v-3zM621 150q-16 0 -25 -10q-9 -11 -9 -25t9 -21q8 -7 23 -7q39 0 39 30q0 15 -9 24t-26 9h-2zM595 261q0 -26 25 -26q32 0 32 28q0 9 -9 15t-22 6
q-11 0 -18 -7q-8 -8 -8 -18v2zM168 575h-48h-52q-26 0 -37 14q-10 13 -10 41q0 25 15 37t37 12h95h97q24 0 36 -15t12 -36q0 -26 -19 -54q-59 -86 -90 -159q-8 -20 -14 -37t-9 -33q-6 -27 -18 -39t-41 -12q-28 0 -43 15t-15 37q0 23 26 87q32 79 78 143v-1z" />
    <glyph glyph-name="arrowleft" unicode="&#x2190;" horiz-adv-x="732" 
d="M32 235q0 46 38 82l164 150q17 14 42 14q31 0 51 -21q19 -20 19 -52q0 -11 -6 -21q-7 -12 -10 -15q-2 -2 -6.5 -6t-11.5 -10l-67 -53l386 4q32 0 50 -18t18 -52t-19 -52q-20 -18 -51 -18l-127 2l-258 3l65 -50q35 -27 35 -58q0 -29 -19 -48t-51 -19q-29 0 -46 16
l-156 142q-39 30 -39 82z" />
    <glyph glyph-name="arrowup" unicode="&#x2191;" horiz-adv-x="577" 
d="M291 689q46 0 86 -43l145 -159q18 -20 18 -41q0 -32 -19 -51t-51 -19q-29 0 -57 31l-55 68l3 -413q0 -65 -70 -65q-33 0 -52 17q-18 16 -18 48l6 413l-65 -76q-23 -30 -60 -30q-29 0 -48 19t-19 51q0 23 19 43l156 167q30 39 82 39z" />
    <glyph glyph-name="arrowright" unicode="&#x2192;" horiz-adv-x="732" 
d="M699 240q0 -52 -39 -82l-158 -146q-17 -16 -46 -16q-31 0 -51 20t-20 48q0 29 36 58l67 53l-258 -3l-127 -2q-32 0 -51 18t-19 53q0 34 18 52t50 18l386 -4l-70 56q-13 10 -18 17q-2 3 -5 7t-6 9q-6 10 -6 21q0 30 20 52q19 21 51 21q25 0 42 -15l166 -154q38 -36 38 -82
v1z" />
    <glyph glyph-name="arrowdown" unicode="&#x2193;" horiz-adv-x="577" 
d="M292 -6q-52 0 -81 38l-159 171q-19 20 -19 45q0 31 21 51q22 20 50 20q35 0 60 -34l64 -78l-6 412q0 31 18 48q19 17 53 17q70 0 70 -65l-3 -413l55 70q28 33 56 33q33 0 53 -19q21 -20 21 -51q0 -22 -18 -41l-148 -162q-41 -42 -87 -42z" />
    <glyph glyph-name="partialdiff" unicode="&#x2202;" horiz-adv-x="574" 
d="M211 581q-50 14 -50 63q0 52 47 72q46 19 102 -3q34 -11 72 -36q39 -26 75 -67q39 -43 62 -106q25 -66 26 -138q1 -89 -15 -156q-28 -106 -99 -163t-171 -57q-97 0 -164 56q-65 55 -67 147q0 105 69 183t177 78q64 0 96 -35q-17 70 -55 107q-39 38 -103 57zM277 309
q-38 -2 -63 -28t-25 -65q-2 -38 18 -59q19 -21 51 -21q36 0 66 27t30 65q0 39 -21 62q-21 22 -57 21z" />
    <glyph glyph-name="Delta" unicode="&#x2206;" horiz-adv-x="651" 
d="M557 -1h-215h-249q-38 0 -59 21t-21 56q0 30 19 72q40 92 61.5 142t25.5 58l116 284q10 25 35 39t53 14q77 0 96 -58l141 -343l57 -136q20 -49 20 -76q0 -30 -21 -51t-58 -21zM208 143h119h115l-117 327z" />
    <glyph glyph-name="product" unicode="&#x220f;" horiz-adv-x="595" 
d="M227 539v-28q0 -281 3 -531q2 -41 -22 -60q-23 -19 -66 -19q-37 0 -58 18t-20 57q3 351 3 453q0 12 -0.5 41t-1.5 77q-4 64 20 101q24 36 82 35q57 -1 122.5 -1h141.5q48 0 73 -37q25 -38 24 -93v-43q0 -281 3 -531q2 -41 -22 -60q-23 -19 -66 -19q-37 0 -58 18t-19 57
q3 351 3 452l-1 109z" />
    <glyph glyph-name="summation" unicode="&#x2211;" horiz-adv-x="553" 
d="M87 495q-29 29 -41 53q-11 23 -13 59q1 34 23 56q21 21 56 23q28 2 44.5 2t22.5 -1h138h89h39q31 0 49 -19q17 -19 19 -48q1 -72 -58 -73q-5 -1 -111 -1h-114l142 -159q39 -39 42 -83v-9t-1 -9t-1.5 -8.5t-1.5 -7.5q-2 -10 -4 -15q-2 -4 -3 -7t-2 -5q-1 -4 -6 -10t-6 -9
q-1 -2 -2 -3.5t-3 -3.5l-4 -6l-152 -180q57 -1 157 0q31 1 49 1.5t23 0.5q66 0 66 -72q0 -76 -69 -76h-304q-109 0 -109 83q0 45 53 112l172 211z" />
    <glyph glyph-name="minus" unicode="&#x2212;" horiz-adv-x="500" 
d="M85 200q-32 0 -47 23q-15 22 -15 51t20 49q19 19 54 19h47h72h107h90q63 0 63 -73q0 -66 -61 -69h-328h-2z" />
    <glyph glyph-name="uni2215" unicode="&#x2215;" horiz-adv-x="472" 
d="M353 641q23 38 49 38q21 0 37 -14q15 -14 15 -32q0 -16 -12 -37l-22.5 -36t-46.5 -76t-50 -82.5t-34 -56.5l-191 -321q-16 -28 -45 -28q-17 0 -34 14q-16 13 -16 35q0 16 15 42l336 556z" />
    <glyph glyph-name="uni2219" unicode="&#x2219;" horiz-adv-x="247" 
d="M118 151q-38 0 -63 24t-25 62q0 40 27 67t68 27q39 0 65 -24t26 -64q0 -41 -27 -66q-26 -25 -70 -25z" />
    <glyph glyph-name="radical" unicode="&#x221a;" horiz-adv-x="662" 
d="M96 306q-36 -7 -61 12q-26 19 -27 60q-5 64 69 81l83 20q42 8 65 -4q25 -12 41 -55l84 -211q1 4 12 39q10 32 15 46l111 344q15 46 69 47q34 1 60 -18q26 -20 26 -51q1 -14 -15 -66q-29 -86 -120 -324q-5 -11 -13 -30.5t-19 -48.5t-20 -50.5t-15 -37.5q-26 -66 -93 -66
q-42 0 -59 16q-18 16 -36 57q-10 20 -21 46t-25 58l-45 105q-9 21 -13.5 32t-5.5 13z" />
    <glyph glyph-name="infinity" unicode="&#x221e;" horiz-adv-x="727" 
d="M218 461q85 0 138 -84q23 40 63 65q41 26 87 26q89 0 145 -54q55 -54 55 -148t-51 -151t-141 -57q-47 0 -90 27q-44 27 -72 66q-56 -83 -150 -81q-77 2 -128 57t-51 138q0 89 55 144q56 56 138 56zM496 330q-23 0 -45 -21q-23 -21 -33 -45q11 -19 34 -42q24 -24 46 -24
q28 0 45 18q16 17 16 46q0 31 -16 48q-17 18 -46 18zM213 204q23 0 46 24q22 23 28 42q-33 55 -71 55q-26 0 -42 -16t-16 -43q0 -26 15 -42q15 -17 41 -17z" />
    <glyph glyph-name="integral" unicode="&#x222b;" horiz-adv-x="363" 
d="M268 698q26 0 47 -18t21 -52q0 -74 -54 -74h-17h-18q-21 0 -28 -22q-7 -21 -7 -75q0 -39 40 -171q41 -134 42 -205q1 -83 -36 -150q-16 -30 -59 -57q-42 -27 -97 -27q-39 0 -63 21t-24 55q0 37 17 57t44 20h20h17q21 0 27 21t-3 77q-7 30 -14.5 63t-16.5 68t-15 60.5
t-10 41.5t-7 33t-6 35q-6 36 -6 68q0 37 19 84q20 49 42 71q42 42 75 59q34 18 78 18z" />
    <glyph glyph-name="approxequal" unicode="&#x2248;" horiz-adv-x="500" 
d="M161 318q-25 -34 -69 -34q-28 0 -46 22t-16 55q1 37 44 72q41 34 92 34q37 0 64 -13q28 -14 48 -27q20 -14 34 -15q19 0 33 14q27 28 63 28q27 0 45 -19q18 -20 18 -46q0 -47 -33 -78q-32 -31 -88 -31q-37 0 -83 27q-47 28 -66 29q-30 0 -41 -17zM157 112q-5 -6 -9 -10
l-6 -6q-6 -6 -19 -11q-15 -6 -33 -6q-26 0 -44 21q-18 20 -16 53q1 37 39 69t90 32q43 0 90 -24q45 -23 60 -25q24 0 34 13l18 15q6 4 18 9q11 4 27 4q28 0 47 -19q20 -20 20 -48q0 -47 -33 -77t-88 -30q-37 0 -83 25q-47 25 -66 27q-31 0 -44 -12h-2z" />
    <glyph glyph-name="notequal" unicode="&#x2260;" horiz-adv-x="500" 
d="M234 92l-14 -39q-12 -36 -48 -36q-21 0 -37 13t-16 33q0 5 3 17l5 13h-42q-32 0 -47 23q-15 22 -15 51t20 49q19 19 54 19h83l24 67h-118q-32 0 -47 23q-15 22 -15 51t20 49q19 19 54 19h159l16 43q15 34 47 34q18 0 35 -12t17 -28q0 -14 -4 -22l-6 -15h51q63 0 63 -73
q0 -66 -61 -69h-104l-24 -67h126q63 0 63 -73q0 -66 -61 -69z" />
    <glyph glyph-name="lessequal" unicode="&#x2264;" horiz-adv-x="500" 
d="M85 0q-32 0 -47 21t-15 50q0 30 20 47t54 17h47h72h106h90q63 0 63 -68q0 -64 -61 -67h-326h-3zM427 492q-14 -7 -44 -20.5t-77 -33.5t-78 -34.5t-47 -22.5q11 -5 31.5 -13.5t51.5 -20.5t59 -23t54 -22q51 -21 63 -30q21 -14 21 -42q0 -29 -18 -50q-18 -22 -47 -20
q-23 2 -38 10l-281 135q-52 24 -52 81q0 54 54 80l274 136q24 14 47 12q25 -2 42 -24q17 -23 17 -51q0 -31 -29 -45z" />
    <glyph glyph-name="greaterequal" unicode="&#x2265;" horiz-adv-x="500" 
d="M83 -2q-61 3 -61 67q0 68 63 68h90h106h72h47q35 0 54 -16q20 -17 20 -46t-15 -50t-47 -21zM63 493q-12 4 -21 18q-9 13 -9 27q0 28 17 51q16 22 42 24q23 2 47 -12l274 -136q54 -26 54 -80q0 -57 -52 -81l-281 -134q-20 -11 -39 -12q-29 -2 -47 20q-18 21 -18 50
q0 27 22 42q8 5 39.5 19t87.5 37t88.5 36.5t42.5 18.5q-16 8 -46.5 22.5t-77.5 34.5t-77 33.5t-44 20.5z" />
    <glyph glyph-name="star" unicode="&#x22c6;" horiz-adv-x="536" 
d="M470 344q15 1 24 -6q9 -8 9 -20q0 -14 -21 -30q-8 -5 -22 -15t-36 -24q-44 -29 -60 -39q20 -40 38 -76.5t33 -70.5q3 -9 3 -12q0 -14 -10 -23q-11 -9 -21 -9q-9 0 -17 5q-11 9 -26.5 23.5t-36.5 34.5t-36 33.5t-24 21.5q-17 -14 -48 -45q-16 -16 -27 -26.5t-18 -16.5
q-2 -2 -5 -4.5t-7 -5.5t-6 -5l-4 -4q-4 -4 -7 -6q-2 -2 -4 -2.5t-4 -1.5t-7 -1q-14 0 -24 9t-10 22q0 2 2 12q12 28 36 78q24 49 33 69q0 2 -3 7q-20 12 -57 36q-19 12 -35 22.5t-30 18.5q-13 9 -13 22q0 11 8 21q8 9 18 8q5 0 20.5 -1t41.5 -3t45.5 -3t32.5 -1q6 0 15 30
q9 29 18 71q5 20 7.5 32t3.5 15q8 26 30 26q28 0 31 -23q6 -29 18 -84q6 -28 9.5 -44.5t4.5 -21.5q41 1 76 3t64 5z" />
    <glyph glyph-name="triagup" unicode="&#x25b2;" horiz-adv-x="456" 
d="M178 410q1 1 3 5q1 2 3 4l3 3l3 3l3 3l4 2q2 2 5 2h6h7q22 0 33 -20q19 -32 51 -93q31 -62 48 -87q4 -7 8.5 -14.5t9.5 -16.5t9.5 -15.5t7.5 -11.5t6.5 -10t7.5 -12t6.5 -12l4.5 -9t4 -7.5t4 -7.5q4 -7 6 -14q2 -8 2 -11q0 -15 -11 -26t-26 -11q-7 0 -16 3t-15 6t-15 9
q-11 7 -13 8q-44 27 -93 27h-9t-9 -1l-15 -2q-6 -2 -15 -6q-8 -4 -14 -6t-16 -7t-16 -7q-6 -4 -16 -9q-6 -3 -10.5 -5.5t-8.5 -4.5q-6 -4 -18 -7q-11 -3 -19 -3q-17 0 -27 12q-10 11 -10 26q0 10 7 23l51 98q30 52 93 204z" />
    <glyph glyph-name="triagrt" unicode="&#x25ba;" horiz-adv-x="442" 
d="M386 280q3 -3 7 -6t7 -6l4 -6q3 -5 3 -9v-12q0 -23 -19 -33q-5 -4 -23.5 -14.5t-50.5 -28.5q-63 -36 -93 -57q-113 -79 -145 -79q-16 0 -26 12q-11 13 -11 27q0 7 3 16t6 15q3 7 10 16l9 14q29 49 29 97q0 13 -3 27q-2 7 -3 12t-2 8q-2 7 -12 26q-5 10 -8 15.5t-4 7.5
q-2 3 -9 17l-9 19q-3 7 -6 18q-3 10 -3 20q0 16 11 27q10 10 24 10q8 0 21 -7l103 -52q78 -47 189 -93z" />
    <glyph glyph-name="triagdn" unicode="&#x25bc;" horiz-adv-x="444" 
d="M177 78q-48 115 -93 195l-51 98q-7 13 -7 23q0 15 10 26q10 12 27 12q14 0 23 -4q12 -5 29 -15q19 -11 20 -12q6 -2 16 -7t16 -7t14 -6q9 -5 15 -6l15 -2q5 -1 9 -1h9q49 0 93 27q4 1 14 8q9 6 15 9t15 6t16 3q15 0 26 -11t11 -26q0 -7 -1 -11q-2 -7 -6 -14
q-2 -4 -3.5 -7.5t-3.5 -7.5l-4.5 -9t-6.5 -12q-8 -15 -13 -22q-3 -5 -7 -11.5t-9 -15.5t-9.5 -16.5t-8.5 -14.5l-97 -172q-11 -20 -33 -20q-7 0 -10 1q-6 2 -7 2q-3 0 -6 3q-2 2 -2.5 3t-1.5 2l-4 6l-4 6h-5z" />
    <glyph glyph-name="triaglf" unicode="&#x25c4;" horiz-adv-x="442" 
d="M57 277q121 54 192 93l101 52q13 7 21 7q14 0 24 -10q11 -11 11 -27q0 -13 -3 -23q-4 -13 -13 -29q-11 -19 -12 -20l-9 -19q-3 -7 -5 -11.5t-4 -7.5t-3.5 -7t-3.5 -9q-4 -10 -6 -20q-1 -5 -1 -10v-10q0 -48 29 -97l9 -13q7 -9 10 -16q3 -6 6 -15t3 -16q0 -15 -12 -27
t-25 -12q-32 0 -145 79q-11 8 -23 15.5t-26 15.5t-29 17t-32 19q-35 19 -57 33q-19 10 -19 33v12q0 4 3 9l4 6q3 3 7 6t7 6z" />
    <glyph glyph-name="lozenge" unicode="&#x25ca;" horiz-adv-x="557" 
d="M56 433q33 51 61.5 96t51.5 87q43 74 105 76q37 1 63 -14t51 -55l132 -215q17 -32 17 -56q0 -31 -17 -63q-13 -22 -31.5 -52t-43.5 -69t-43 -67.5t-29 -47.5q-35 -57 -99 -57q-65 0 -96 58l-125 209q-33 50 -32 84q2 38 33 86h2zM382 347l-102 183l-102 -183l102 -180z
" />
    <glyph glyph-name="uni261A" unicode="&#x261a;" horiz-adv-x="1031" 
d="M971 409v-58v-58v-46.5t1 -64.5t1 -64.5v-46.5v-12.5t-1 -10.5q-2 -10 -7 -15l-9 -9q-3 -3 -16 -4q-7 -1 -11.5 -1.5t-6.5 -0.5h-24q-10 -1 -24 -1h-34h-7h-20.5t-13.5 1q-12 2 -21 7q-11 6 -14 18t-3 34q-59 -2 -148 -25q-98 -27 -193 -27q-21 0 -40 3q-18 3 -41 11
q-20 7 -34 24q-13 16 -13 39q0 13 6 21q-26 6 -42 25t-16 45q0 20 16 27q-22 7 -39 23q-16 15 -16 36q0 31 13 40h-57t-42 1q-97 1 -97 66q0 8 2 18q1 7 8 14l10 10q3 3 14 7q5 2 8.5 2.5t5.5 1.5q6 2 17 2h17h19h17q151 0 270 -3q-23 7 -39 30q-16 22 -16 39q0 28 17 47
q16 18 44 18q15 0 23 -6q99 -68 160 -99q12 -6 26 -12t31 -11q57 -22 123 -25q7 30 55 30h22.5t31.5 -1t31.5 -1h21.5q11 0 25 -9q13 -9 13 -21z" />
    </font>
</defs>
</svg>
