<?xml version="1.0" standalone="no"?>
<!DOCTYPE svg PUBLIC "-//W3C//DTD SVG 1.1//EN" "http://www.w3.org/Graphics/SVG/1.1/DTD/svg11.dtd" >
<svg>
<metadata>
Created by FontForge 20120731 at Sat Mar  9 05:50:51 2019
 By www-data
Copyright 2014 by Joel Carrouche. All rights reserved.
</metadata>
<defs>
<font id="r0c0iLinotte-SemiBold" horiz-adv-x="548" >
  <font-face 
    font-family="r0c0i Linotte"
    font-weight="600"
    font-stretch="normal"
    units-per-em="1000"
    panose-1="0 0 0 0 0 0 0 0 0 0"
    ascent="758"
    descent="-242"
    x-height="459"
    cap-height="682"
    bbox="-89 -242 1110 1122.8"
    underline-thickness="50"
    underline-position="-50"
    unicode-range="U+000D-1F426"
  />
<missing-glyph horiz-adv-x="668" 
d="M80 680h508v-680h-508v680zM125 45h418v590h-418v-590z" />
    <glyph glyph-name="f_f" unicode="ff" horiz-adv-x="680" 
d="M227 360v-67v-109v-132q0 -57 -53 -57q-54 0 -54 54v173.5t-1 136.5h-47q-35 0 -49 10q-15 10 -15 39q0 49 54 49h57v55q1 97 50 159q48 62 155 62q72 0 72 -54q0 -20 -10 -33t-27 -13q-8 0 -23 3q-16 3 -24 2q-41 0 -63 -36q-23 -37 -23 -84v-30v-30h202q0 46 3 81
q3 34 15 75q12 40 33 66q21 25 60 42q40 17 93 17q34 0 61 -15q20 -12 20 -41q0 -16 -11 -30q-10 -13 -26 -13q-9 0 -30 3q-23 3 -32 2q-24 0 -40 -13q-17 -14 -24 -30q-8 -17 -12 -46q-2 -15 -3.5 -27t-1.5 -21v-51h96q49 0 49 -48q0 -50 -52 -50l-93 1v-69v-112v-133
q0 -52 -53 -52q-29 0 -42 12t-13 42v14v31v50v87v129z" />
    <glyph glyph-name="fi" unicode="fi" horiz-adv-x="588" 
d="M397 451q24 2 40 2t24 -1q58 -6 57 -67q-1 -29 -1 -114v-228q0 -54 -53 -54q-55 -1 -55 51v313h-24h-79h-81v-153v-158q0 -50 -53 -50q-55 0 -55 49v178.5t1 136.5l-47 -1q-32 0 -48 11q-14 10 -16 38q0 49 55 49h57v38q4 111 60 177q55 66 171 66q54 0 89 -16
q33 -14 33 -46q-2 -18 -13 -32q-12 -15 -28 -15q-13 0 -43 6t-51 6q-51 0 -81 -33q-29 -32 -31 -87v-62q32 0 75 0.5t100 1.5z" />
    <glyph glyph-name="fl" unicode="fl" horiz-adv-x="616" 
d="M224 356v-111v-111v-47v-48q0 -23 -15 -35t-38 -12q-24 0 -39 12t-14 39v89v106v118h-63q-49 0 -49 47q-1 22 14 36q16 14 42 14h57v45q0 103 62 168t180 65q117 0 153 -17q30 -14 30 -63q-1 -81 -1 -200v-280q0 -5 3 -125q-2 -47 -54 -51q-29 -2 -44 15q-14 16 -16 60
q-3 84 -3 223.5t2 338.5q-17 2 -38.5 3t-49.5 1q-56 0 -87 -39q-31 -38 -31 -93v-49h90q27 0 39 -12q11 -11 13 -35q0 -51 -45 -51z" />
    <glyph glyph-name="f_f_i" unicode="ffi" horiz-adv-x="894" 
d="M709 459q16 1 31.5 1h31.5q32 0 47 -18q15 -19 14 -49q-1 -22 -1 -107v-235q0 -54 -53 -54q-54 -2 -54 51v313h-94h-93v-156v-156q0 -50 -53 -50q-54 0 -54 49v314h-203v-67v-109v-132q0 -57 -53 -57q-54 0 -54 54v173.5t-1 136.5h-46q-35 0 -49 10q-15 10 -15 39
q0 49 54 49h56v55q1 97 50 159q48 62 155 62q72 0 72 -54q0 -20 -10 -33t-27 -13q-5 0 -10.5 0.5t-13.5 1.5t-13.5 1.5t-9.5 0.5q-40 0 -64 -36t-24 -84v-62h203v44q0 106 57 171t170 65q52 0 87 -15q33 -14 32 -48q0 -17 -11 -33q-11 -15 -29 -15q-14 0 -42 6q-29 6 -49 6
q-51 0 -81 -34q-30 -35 -30 -88v-59h87h83z" />
    <glyph glyph-name="f_f_l" unicode="ffl" horiz-adv-x="914" 
d="M523 352v-153t1 -157q0 -54 -52 -54q-55 0 -55 51v314h-199v-40.5t1 -78.5t1 -96v-93q0 -56 -53 -56q-54 0 -54 53v174.5t-1 137.5h-47q-35 0 -49 10q-15 10 -15 39q0 17 7 27q8 11 25 15q18 4 33 6q8 1 19.5 1h27.5v55q2 98 49 157q48 60 153 60q72 0 72 -52
q0 -20 -10 -33t-27 -13q-5 0 -11 0.5t-13 1.5t-12 1.5t-9 0.5q-22 0 -36 -7q-15 -7 -24 -23q-8 -14 -15 -29t-8 -38q-1 -12 -1.5 -21.5t-0.5 -16.5v-39h199v46q0 103 64 167q65 65 183 65q115 0 145 -15q30 -14 30 -66q-1 -155 -1.5 -269.5t-0.5 -191.5q0 -9 0.5 -24
t1.5 -36q1 -42 0 -63q0 -23 -3 -42q-8 -32 -48 -32q-31 0 -46 21t-15 77q-2 81 -2 215t1 325q-16 2 -36 3t-45 1q-56 0 -89 -37q-33 -38 -33 -93v-50h89q27 0 39 -12q11 -11 13 -36q1 -21 -9 -36q-11 -15 -33 -15z" />
    <glyph glyph-name="f_f_j" unicode="ffj" horiz-adv-x="897" 
d="M540 357v-156v-156q0 -50 -53 -50q-54 0 -54 49v314h-203v-67v-109v-132q0 -57 -53 -57q-54 0 -54 54v173.5t-1 136.5h-46q-35 0 -49 10q-15 10 -15 39q0 48 54 48l56 1v55q1 97 50 159q48 62 155 62q72 0 72 -54q0 -20 -10 -33t-27 -13q-5 0 -10.5 0.5t-13.5 1.5
t-13.5 1.5t-9.5 0.5q-40 0 -64 -36t-24 -84v-62h203v44q0 106 57 171t170 65q51 0 87 -14q33 -14 33 -48q-2 -19 -13 -33q-12 -15 -28 -15q-14 0 -42 6q-29 6 -49 6q-51 0 -81 -34q-30 -35 -30 -88v-59h88h84q16 1 27 1h18q43 0 61 -21t18 -71v-398q0 -107 -43 -154
q-44 -48 -127 -48q-93 0 -93 58q0 37 26 48q12 5 26 3q2 0 6 -0.5t11 -1.5t13 -1.5t11 -0.5q18 0 30 9q11 9 18 20q6 10 9 33q3 22 3 39v46v343z" />
    <glyph glyph-name="f_j" unicode="fj" horiz-adv-x="595" 
d="M411 453q24 2 40 2t24 -1q54 -6 54 -72l-1 -418q0 -107 -43 -154q-44 -48 -127 -48q-93 0 -93 58q0 36 27 48q11 5 26 3q2 0 5.5 -0.5l10.5 -1.5t13 -1.5t11 -0.5q18 0 30 9q11 9 18 20q6 10 9 32q3 21 3 38v45v344l-192 -1v-156v-156q0 -50 -53 -50q-55 0 -55 49v178.5
t1 136.5h-24h-24q-32 0 -48 11q-14 10 -16 38q0 15 6 24t14 14t26 8t30 3h37v46q2 107 60 170q59 63 165 62q63 0 93 -14q31 -13 31 -48q0 -20 -12 -33t-30 -13q-15 0 -42 6t-46 6q-49 0 -81 -35t-33 -90v-55h109.5t74.5 1z" />
    <glyph glyph-name=".notdef" horiz-adv-x="668" 
d="M80 680h508v-680h-508v680zM125 45h418v590h-418v-590z" />
    <glyph glyph-name="NULL" horiz-adv-x="0" 
 />
    <glyph glyph-name="nonmarkingreturn" unicode="&#xd;" horiz-adv-x="250" 
 />
    <glyph glyph-name="space" unicode=" " horiz-adv-x="244" 
 />
    <glyph glyph-name="exclam" unicode="!" horiz-adv-x="245" 
d="M64 630q-1 25 14 40t44 15q33 0 45 -17t11 -57q0 -54 -3 -141.5t-8 -211.5q-3 -43 -45 -43q-40 0 -43 49l-7 140zM121 -6q-26 0 -45 17q-18 16 -18 44t20 48t48 20q29 0 47 -18t18 -46q0 -31 -19 -49q-20 -18 -51 -18v2z" />
    <glyph glyph-name="quotedbl" unicode="&#x22;" horiz-adv-x="347" 
d="M45 665q0 49 51 49q20 0 32 -13q12 -14 12 -34q0 -17 -6 -146q-3 -44 -42 -44q-38 0 -41 38q-1 11 -1.5 32t-2.5 51q-3 60 -3 68zM213 673q0 19 14 30t33 11t33 -12q13 -12 12 -30q0 -12 -6 -147q-3 -47 -42 -47q-41 0 -42 36q0 19 -3 78q-3 58 -3 81h4z" />
    <glyph glyph-name="numbersign" unicode="#" horiz-adv-x="622" 
d="M338 158h-116l-16 -108q-7 -55 -54 -55q-24 0 -36 14t-8 39l18 111h-61q-41 0 -39 47q0 45 50 45h63l25 156h-62q-39 0 -39 47q1 46 51 46h64l21 130q7 52 54 52q21 0 33 -12t9 -33l-22 -137h117l21 131q7 51 53 51q21 0 33 -12t9 -33l-22 -137h70q41 0 41 -47
q0 -45 -55 -46h-70l-25 -156h71q40 0 39 -46t-57 -46h-68l-17 -108q-5 -29 -16 -42q-12 -13 -35 -13q-52 0 -45 52zM236 250h116l25 156h-116z" />
    <glyph glyph-name="dollar" unicode="$" horiz-adv-x="529" 
d="M228 721q0 21 12 32q13 11 30 11q43 0 43 -42v-58q70 -8 124 -34q31 -16 31 -48q0 -18 -13 -32q-14 -15 -31 -15q-15 0 -45 13q-51 22 -105 22q-47 0 -81 -28q-35 -29 -35 -66q0 -19 9 -34t28 -24q10 -5 19 -8.5t18 -5.5t21 -5t26 -7l9 -3q94 -21 148 -62q52 -40 52 -123
q0 -78 -46 -130t-126 -67l1 -63q0 -44 -44 -44q-43 0 -43 39v64q-90 5 -146 37q-40 22 -40 54q0 20 14 37q13 16 33 16q12 0 42 -11q61 -33 125 -33q52 0 87 27q34 27 36 71q0 41 -33 62q-35 22 -91 35q-23 5 -42 10.5t-36 11.5t-32.5 14t-31.5 18q-31 19 -48 50
q-16 29 -16 71q0 70 51 124t125 69v60z" />
    <glyph glyph-name="percent" unicode="%" horiz-adv-x="795" 
d="M531 652q10 18 27 24q16 6 33 -2q39 -23 15 -63q-7 -13 -64 -103q-59 -92 -90 -147q-26 -47 -66 -114l-40 -67l-95 -162q-9 -17 -27 -21q-17 -4 -33 5q-17 7 -21 24q-4 16 6 34l181 294l173 298h1zM28 487q0 79 38 135t110 56q69 0 111 -50t42 -129q0 -78 -45 -126
t-109 -48q-58 0 -102 47t-44 119zM174 602q-67 0 -67 -108q0 -41 18 -69t48 -28q33 0 53 29t20 75q0 47 -18 74t-52 27h-2zM459 155q0 79 39 132t112 53q70 0 112 -49q42 -50 42 -129t-43 -126q-44 -48 -111 -48q-61 0 -105 47t-44 119zM611 268q-37 0 -53 -31
q-17 -32 -17 -79q0 -42 17 -70q16 -27 50 -27q36 0 54 26t17 74q-2 108 -69 108z" />
    <glyph glyph-name="ampersand" unicode="&#x26;" horiz-adv-x="661" 
d="M405 624q0 -16 -12 -31t-28 -15q-4 0 -31 7q-25 11 -54 11q-36 0 -60 -24t-24 -60q0 -27 12 -54q6 -14 12 -23.5t11 -16.5t12.5 -15t17.5 -19q82 -92 207 -195q12 22 12 45q2 32 -13 60q-15 29 -40 35q-44 8 -44 45q0 44 51 44h27h24q2 0 26.5 1t72.5 3q49 0 49 -40
q0 -36 -30 -42q-23 -6 -71 -6q17 -14 27 -43q11 -31 11 -59q0 -52 -25 -103q12 -9 29.5 -21.5t40.5 -28.5q26 -20 26 -39t-13 -33q-14 -15 -33 -15q-27 0 -47 16q-35 22 -66 48q-74 -66 -194 -66q-102 0 -175 59q-72 58 -72 150q0 113 105 181q-48 67 -48 132q0 70 51 123
q51 52 133 52q55 0 90 -20q30 -17 30 -42zM293 86q71 0 112 37q-62 52 -189 183l-11 11q-59 -41 -59 -111q0 -53 42 -87q41 -34 105 -34v1z" />
    <glyph glyph-name="quotesingle" unicode="'" horiz-adv-x="192" 
d="M46 668q0 45 52 45q48 0 48 -49q0 -23 -1.5 -56.5t-5.5 -79.5q-3 -50 -45 -50q-40 0 -43 42q-2 66 -3.5 103t-1.5 45z" />
    <glyph glyph-name="parenleft" unicode="(" horiz-adv-x="290" 
d="M179 689q24 33 52 33q19 0 32 -13q14 -14 14 -31q0 -10 -5 -22q-17 -29 -30.5 -54.5t-24.5 -47.5q-20 -41 -40 -123q-10 -40 -14.5 -81.5t-4.5 -85.5q0 -116 27 -201q14 -43 34 -87.5t46 -92.5q10 -16 10 -30q0 -19 -15 -32q-16 -14 -35 -14q-20 0 -30 9q-11 9 -24 33
q-122 202 -120 411q1 232 129 429h-1z" />
    <glyph glyph-name="parenright" unicode=")" horiz-adv-x="291" 
d="M110 686q127 -197 129 -429q1 -209 -120 -411q-14 -24 -24 -33q-11 -9 -30 -9t-35 14q-15 13 -15 32q0 14 10 30q35 63 54 106q19 45 36 120q17 77 17 156q0 44 -4.5 85.5t-14.5 81.5q-20 82 -40 123q-11 22 -24.5 47.5t-30.5 54.5q-5 12 -5 22q0 18 14 32t32 14
q28 0 52 -33z" />
    <glyph glyph-name="asterisk" unicode="*" horiz-adv-x="368" 
d="M59 507q-32 6 -32 37q1 16 13 25t29 4l84 -22l-2 89q-2 35 34 35q16 0 27 -9q10 -9 9 -25l-3 -91l83 29q15 5 27 -4t12 -27q0 -27 -25 -33l-78 -22l61 -74q10 -10 10 -24q0 -13 -10 -22q-11 -9 -24 -9q-20 0 -36 27l-53 74l-45 -72q-16 -28 -39 -28q-14 0 -24 9t-10 22
t9 25l55 74z" />
    <glyph glyph-name="plus" unicode="+" horiz-adv-x="490" 
d="M61 222q-22 0 -34 15q-12 14 -10 38q2 41 54 41h129v156q0 22 14 34q13 12 33 12q45 0 45 -51v-152h74h62q45 0 45 -45t-49 -46h-32h-55h-45v-57v-58v-40q0 -44 -50 -42q-42 0 -42 48v148h-79h-60v-1z" />
    <glyph glyph-name="comma" unicode="," horiz-adv-x="219" 
d="M32 -70q0 11 16 30t21 32q7 9 -9 27q-16 17 -16 38q0 27 19 45t48 18t48 -19q20 -20 20 -49q0 -85 -82 -143q-16 -11 -32 -11q-11 0 -21 9t-10 22z" />
    <glyph glyph-name="hyphen" unicode="-" horiz-adv-x="358" 
d="M83 191q-24 0 -36 14q-12 13 -12 36q0 50 54 50h183q49 0 49 -49q0 -52 -61 -52h-90h-85z" />
    <glyph glyph-name="period" unicode="." horiz-adv-x="219" 
d="M105 -6q-29 0 -47 18t-18 47q0 30 20 50t51 20q29 0 48 -19q20 -20 20 -48q0 -31 -20 -49t-53 -18z" />
    <glyph glyph-name="slash" unicode="/" horiz-adv-x="391" 
d="M271 675q13 37 46 37q18 0 36 -12t18 -29t-12 -48l-244 -615q-14 -35 -42 -35q-19 0 -37 12t-18 29q0 15 10 41l245 620h-2z" />
    <glyph glyph-name="zero" unicode="0" horiz-adv-x="625" 
d="M51 312q0 100 27 183q27 81 89 136q61 54 150 54q122 0 191 -96t69 -255q0 -158 -76 -249t-189 -91q-111 0 -187 87q-76 86 -76 230zM313 584q-45 0 -77 -23t-48 -63q-17 -41 -24 -84q-7 -41 -7 -93q0 -91 41 -158q40 -66 111 -66q72 0 117 63t45 171q0 106 -41 180
q-40 73 -114 73h-3z" />
    <glyph glyph-name="one" unicode="1" horiz-adv-x="424" 
d="M120 468q-17 -11 -34 -11q-16 0 -31 17q-15 16 -15 35q0 26 28 48q49 35 81 58t48 34q33 22 49 26q20 9 42 1q31 -10 31 -41v-114t-1 -83v-397q0 -22 -16 -34q-17 -12 -40 -12q-22 0 -38 14q-15 13 -15 39q0 17 0.5 57t1.5 105t1.5 116t0.5 89v65v63q-22 -19 -45 -37
t-48 -36v-2z" />
    <glyph glyph-name="two" unicode="2" horiz-adv-x="545" 
d="M255 578q-57 0 -110 -53q-25 -25 -54 -25q-19 0 -34 15t-15 36q0 31 42 66q74 67 168 67q97 1 167 -56q69 -57 69 -150q0 -23 -3 -42t-15 -40t-18 -33q-7 -13 -28 -36q-11 -12 -18.5 -19.5l-10.5 -10.5t-12.5 -12t-25.5 -24t-25 -24l-12 -12l-132 -124q43 -2 168 0
q15 0 40 0.5t60 1.5q22 0 36 -15q14 -16 14 -37q0 -56 -56 -54h-57h-63h-124.5t-106.5 1q-26 0 -43 17q-16 16 -16 44q0 37 41 78l182 174l19 19q8 8 12.5 13t6.5 7l6.5 6.5t10.5 11.5t10.5 11.5t6.5 7.5q4 5 14 17q9 10 12 18q2 4 4 8.5t4 9.5q5 11 6 19q1 5 1.5 9t0.5 9
q0 46 -34 74q-35 29 -87 29z" />
    <glyph glyph-name="three" unicode="3" horiz-adv-x="537" 
d="M382 220q0 54 -40 81q-41 27 -99 27h-17.5t-20.5 -1q-22 0 -37 15t-15 38q0 24 24 48q20 18 58.5 56t96.5 98q-26 -2 -112 -3q-44 -1 -71.5 -1h-39.5q-56 0 -56 50q0 21 14 37q13 15 39 15h14t34 -1t39 -1h30h42t60 1t60 1h42q54 0 54 -50q0 -29 -35 -61l-154 -157
q79 -1 138 -53q58 -51 60 -134q0 -109 -65 -171q-64 -61 -176 -63q-91 0 -168 44q-41 24 -41 56q0 23 15 38t33 15q19 0 53 -19q61 -33 111 -33q58 0 93 34q36 34 36 93z" />
    <glyph glyph-name="four" unicode="4" horiz-adv-x="575" 
d="M341 360q0 60 48 60q28 0 40 -12q12 -13 14 -38l-1 -135l70 1q49 1 49 -45q0 -55 -46 -55h-73v-92q-2 -25 -13 -36t-39 -13q-52 0 -52 49v45v47h-126h-123q-29 0 -44 18t-15 42q0 37 23 74q44 76 94.5 170t110.5 208q19 36 54 36q22 0 42 -15t20 -33q0 -10 -8 -31
q-13 -24 -31 -56t-42 -72t-40 -67.5t-24 -42.5l-73 -135l186 2l1 126h-2z" />
    <glyph glyph-name="five" unicode="5" horiz-adv-x="550" 
d="M99 622q4 25 21 42q16 16 42 16h257q53 0 53 -52q0 -51 -57 -51l-220 4l-5 -39l-22 -136q52 30 116 30q100 0 159 -58q60 -59 60 -147q0 -104 -66 -171t-175 -67q-93 0 -172 44q-27 13 -36 27q-9 13 -9 32q0 21 15 38t37 17q13 0 44 -17q67 -36 122 -36q53 0 90 34
q38 35 38 90q0 50 -32 84q-32 33 -87 33q-36 0 -84 -19t-66 -19q-27 -2 -47 15q-20 16 -15 42q5 42 21 137q16 94 21 128z" />
    <glyph glyph-name="six" unicode="6" horiz-adv-x="579" 
d="M319 579q-62 0 -107 -53t-48 -132q-1 -5 -1 -12.5v-17.5q21 31 66 51q46 20 88 20q92 0 157 -53q64 -52 64 -156q0 -103 -66 -169t-174 -66q-97 0 -160 57q-62 56 -79 162q-4 26 -5.5 55t-1.5 61q0 157 75 258q75 100 198 100q80 0 137 -27q38 -17 38 -51q0 -22 -13 -36
q-14 -15 -33 -15q-6 0 -41 11q-47 16 -91 16zM295 340q-59 -2 -95 -33q-36 -32 -36 -87q-2 -56 38 -92q39 -36 95 -36q58 0 96 36t38 97q0 56 -36 86t-97 30z" />
    <glyph glyph-name="seven" unicode="7" horiz-adv-x="525" 
d="M197 577h-27.5t-34.5 -1t-32 -1h-21q-55 0 -55 54q0 24 15 36t38 12h365q25 0 39 -14q13 -13 13 -36q0 -26 -31 -72q-67 -93 -119 -194q-53 -103 -78 -181q-14 -42 -23.5 -75.5t-14.5 -58.5q-6 -25 -18 -37t-41 -12q-61 0 -55 59q4 35 42 145q68 193 200 379q-38 2 -86 0
q-24 -1 -42.5 -1h-32.5z" />
    <glyph glyph-name="eight" unicode="8" horiz-adv-x="581" 
d="M512 498q0 -49 -26 -89q-26 -39 -68 -56q52 -17 84 -55t34 -93q2 -104 -67 -159q-68 -55 -178 -55t-180 53q-69 52 -69 144q0 60 33 102q34 43 88 62q-35 15 -62 54t-27 86q0 88 65 141t153 53q93 0 158 -52q66 -53 66 -133zM292 307q-61 0 -101 -30t-39 -85
q2 -51 37 -78q36 -27 96 -27q64 0 102 30t36 83q0 49 -37 77q-38 28 -93 30h-1zM177 487q1 -42 33 -69q31 -27 80 -27t81 30t30 77q0 38 -33 65t-79 27q-49 0 -81 -28q-33 -28 -31 -75z" />
    <glyph glyph-name="nine" unicode="9" horiz-adv-x="582" 
d="M260 97q74 0 117 55t42 159q-22 -33 -64 -53q-44 -21 -93 -21q-89 0 -156 57t-67 160q0 99 72 165t175 66q116 -1 181 -84q64 -82 64 -237q0 -194 -67 -282q-68 -89 -207 -89q-83 0 -147 33q-35 20 -35 54q0 21 14 38t33 17q15 0 45 -13q55 -21 96 -21zM283 331
q55 -2 93 33t38 90q0 56 -39 92t-94 36q-53 0 -92 -36t-39 -95q0 -55 36 -88t96 -33z" />
    <glyph glyph-name="colon" unicode=":" horiz-adv-x="219" 
d="M105 325q-29 0 -47 18t-18 47q0 30 20 50t51 20q29 0 48 -19q20 -20 20 -48q0 -31 -20 -49t-53 -18zM104 -7q-29 0 -47 18t-18 47q0 30 20 50t51 20q29 0 48 -19q20 -20 20 -48q0 -31 -20 -49t-53 -18z" />
    <glyph glyph-name="semicolon" unicode=";" horiz-adv-x="219" 
d="M34 -70q0 10 17 30q16 19 21 32q7 9 -9 27q-16 17 -16 38q0 27 18 45t47 18t48 -19q20 -20 20 -49q0 -83 -82 -143q-16 -11 -33 -11q-11 0 -21 9t-10 22v1zM106 326q-29 0 -47 18t-18 47q0 30 20 50t51 20q29 0 48 -19q20 -20 20 -48q0 -31 -20 -49t-53 -18z" />
    <glyph glyph-name="less" unicode="&#x3c;" horiz-adv-x="490" 
d="M138 265q31 -17 153 -75q121 -59 150 -75q15 -14 15 -30q0 -17 -12 -33t-30 -16q-20 0 -36 9l-305 162q-40 19 -40 60q0 37 40 59q35 22 109 62.5t188 100.5q20 11 36 11q17 0 29 -16q12 -17 12 -36q0 -17 -18 -27z" />
    <glyph glyph-name="equal" unicode="=" horiz-adv-x="490" 
d="M72 323q-23 0 -33 15q-10 14 -10 35q0 23 15 35t40 12h59h80h192q44 0 44 -48t-54 -49h-332h-1zM73 114q-23 0 -33 15q-10 14 -10 35q0 47 54 47h59h80h110h81q44 0 44 -49q0 -47 -54 -48h-332h1z" />
    <glyph glyph-name="greater" unicode="&#x3e;" horiz-adv-x="490" 
d="M60 420q-18 10 -18 27q0 19 12 36t29 17q16 0 36 -11q114 -60 188 -100.5t109 -62.5q40 -22 40 -59q0 -41 -40 -60l-305 -162q-17 -9 -36 -9q-18 0 -30 17q-12 16 -12 33q0 16 15 30q28 16 150 75q121 58 153 75l-291 155v-1z" />
    <glyph glyph-name="question" unicode="?" horiz-adv-x="487" 
d="M37 575q0 27 29 47q79 60 168 60t152 -54t63 -138q0 -32 -12 -59t-36 -48t-42 -33q-9 -6 -21 -13.5t-27 -15.5q-47 -27 -47 -62q-1 -7 2 -14q3 -6 3 -14q0 -20 -13 -32q-14 -12 -36 -12q-29 0 -45 22q-17 23 -17 58q0 68 79 114q28 16 39 24q5 4 12.5 9.5t17.5 13.5
q19 15 27 30q8 16 8 34q0 41 -31 68q-32 27 -78 27q-48 0 -97 -36q-32 -23 -51 -23q-18 0 -33 17q-15 16 -15 35zM151 51q0 29 21 47t51 18q29 0 49 -18q19 -18 19 -46q0 -31 -20 -48q-19 -16 -50 -16t-51 17q-19 16 -19 45v1z" />
    <glyph glyph-name="at" unicode="@" horiz-adv-x="931" 
d="M650 169q-9 -94 48 -94q47 0 71 59q24 58 24 150q0 116 -86 193q-85 76 -224 76q-149 0 -248 -112q-99 -113 -99 -273q0 -128 89 -215q88 -86 216 -88q81 -1 162 32q26 10 37 10q17 0 29 -15t12 -33q0 -24 -24 -37q-96 -48 -214 -48q-165 0 -282 111t-117 281
q0 127 54 234t158 173q103 66 237 66q169 0 280 -105t111 -247q0 -144 -51 -220t-146 -76q-42 0 -72 24q-29 23 -37 65q-18 -34 -56 -57q-37 -22 -80 -22q-77 0 -129 50q-51 49 -51 123q0 91 54 156t147 65q34 0 66 -17q31 -16 48 -44q1 10 6 30q13 27 42 27q24 0 36 -15
t9 -37l-9 -64zM466 312q-50 0 -80 -37q-30 -38 -30 -91q0 -44 28 -72t69 -28q52 0 81 38t29 96q0 43 -30 70t-67 27v-3z" />
    <glyph glyph-name="A" unicode="A" horiz-adv-x="649" 
d="M19 45q0 20 17 57l99 230l123 307q16 39 63 39q52 0 67 -41q8 -20 24.5 -61t40.5 -104q48 -125 66 -168q1 -1 7 -13q7 -14 8 -18q49 -125 81 -198q9 -20 9 -36t-18 -31t-43 -15q-22 0 -34 9t-21 31q-50 127 -51 138q-17 1 -60.5 1h-112.5h-98q-2 -5 -7.5 -20t-14.5 -40
t-15.5 -42t-11.5 -28q-11 -25 -21 -35q-11 -11 -31 -11q-26 0 -45 13t-19 39zM321 543q-7 -21 -33 -92t-72 -194q63 0 114 0.5t93 1.5l-101 284h-1z" />
    <glyph glyph-name="B" unicode="B" horiz-adv-x="604" 
d="M303 681q95 0 159 -50q62 -49 64 -134q0 -52 -25 -90q-26 -39 -66 -57q58 -14 92 -52q35 -40 35 -98q0 -89 -48 -138t-131 -57q-22 -2 -64.5 -3.5t-106.5 -1.5h-78q-54 0 -57 65l1 179v203v36.5t-1 49.5t-1 49.5v36.5q0 22 14 38q13 15 39 18q19 2 63 3.5t113 1.5z
M186 292l1 -198h131q59 0 96 25q38 26 38 76q0 99 -135 99zM419 495q-2 44 -34 68q-32 23 -84 25q-33 0 -62 -0.5t-54 -1.5v-66.5t1 -137.5h56h65q52 1 82 31t30 81v1z" />
    <glyph glyph-name="C" unicode="C" horiz-adv-x="609" 
d="M518 653q50 -23 50 -57q-2 -25 -13 -39q-12 -16 -35 -14q-19 0 -44 13q-56 24 -111 24q-83 0 -146 -72q-62 -71 -64 -181q-1 -99 62 -167t152 -68q64 -2 123 33q5 2 11 6l9 6l9 3q8 2 14 2q20 0 32 -18t12 -40q-2 -36 -72 -66q-72 -30 -150 -29q-128 2 -221 93
q-93 92 -92 243q1 81 30 150q28 69 75 114q46 44 105 70q57 25 120 25q85 -2 146 -27z" />
    <glyph glyph-name="D" unicode="D" horiz-adv-x="681" 
d="M74 610q0 69 102 69h118q149 -5 248 -87q99 -83 99 -231q0 -359 -380 -362q-100 0 -133 3q-23 2 -38 20t-15 44l2 241l-3 305v-2zM277 579q-33 0 -55.5 -0.5t-33.5 -1.5v-455q0 -17 12 -20t55 -3q277 0 277 250q0 114 -73 172t-183 58h1z" />
    <glyph glyph-name="E" unicode="E" horiz-adv-x="546" 
d="M89 628q3 51 71 51h25t19 -1h74t78 1t63.5 1h31.5q54 0 54 -45q2 -43 -31 -50q-11 -1 -68.5 -1h-162.5h-44v-96l-1 -94v-13h40q48 0 162 3q32 0 47 -9q16 -9 14 -38q0 -47 -52 -47h-108h-105q-1 -10 -1 -25.5v-37.5v-63v-64q40 -2 228 0q20 1 32 1.5t17 0.5q44 0 44 -49
q0 -52 -56 -54h-269q-63 0 -84 12t-22 52v37v16v42v60v78v89v121v122h4z" />
    <glyph glyph-name="F" unicode="F" horiz-adv-x="529" 
d="M79 494l-3 122q-2 26 15 44q16 18 42 18h27h28q73 0 129.5 0.5t98.5 1.5h23h21q19 0 31 -13q12 -14 12 -33q0 -50 -43 -53h-57h-76h-135v-113v-100h89l145 2q21 0 33 -14t12 -36q0 -49 -51 -50h-28.5t-43.5 1t-43 1h-27h-42h-44v-84l1 -135q0 -56 -54 -56q-31 0 -45 14
q-13 13 -13 45v11t1 22t1 23.5v16.5v53v54z" />
    <glyph glyph-name="G" unicode="G" horiz-adv-x="713" 
d="M385 683q109 0 192 -52q35 -21 35 -47q0 -20 -13 -36t-33 -16q-21 0 -53 19q-59 35 -132 35q-87 0 -156 -72t-69 -172q0 -116 62 -184q61 -67 164 -67q82 0 131 55t51 129h-113q-21 1 -33 15q-12 13 -12 33q0 46 47 48h156q38 0 51 -19q14 -20 14 -57q-2 -134 -84 -219
t-219 -85q-139 0 -232 96t-93 251q0 147 102 248q103 101 240 101z" />
    <glyph glyph-name="H" unicode="H" horiz-adv-x="702" 
d="M621 44q0 -49 -58 -49q-56 0 -56 49v84l-1 149h-63.5t-92.5 -1t-94 -1h-68l2 -234q0 -46 -59 -46q-55 0 -55 47q0 20 0.5 61t1.5 104q1 124 0 192l-4 229q0 51 59 51q54 0 54 -43v-106v-76t1 -78h32h65h86h87l51 1v134v116q1 55 57 55q55 0 55 -54v-155t-1 -139z" />
    <glyph glyph-name="I" unicode="I" horiz-adv-x="286" 
d="M88 410q0 23 -0.5 77t-1.5 142q0 26 17 40q16 13 42 13q24 0 39 -12t15 -35v-243v-82v-76l1 -183q1 -28 -14 -42q-14 -13 -41 -13q-26 0 -42 13t-16 39v42v47l2 274z" />
    <glyph glyph-name="J" unicode="J" horiz-adv-x="487" 
d="M286 628q-1 25 14 40t41 15q60 0 60 -53q0 -21 0.5 -53t1.5 -76t1.5 -77t0.5 -56v-70.5t-1 -48.5q-8 -257 -226 -257q-42 0 -78 16q-38 17 -58 34q-28 25 -28 54q0 21 14 37q13 15 35 15q20 0 57 -28q29 -23 65 -23q68 0 89 57t21 175z" />
    <glyph glyph-name="K" unicode="K" horiz-adv-x="616" 
d="M191 351q149 164 262 301q25 31 51 31q23 0 40 -16q18 -17 18 -36q0 -23 -19 -45q-20 -23 -62.5 -68.5t-107.5 -114.5l-35 -39l143 -171l84 -97q23 -23 23 -48q0 -23 -19 -39t-42 -16q-27 0 -47 26l-30 38l-186 240q-7 -8 -16.5 -18t-23.5 -24t-22.5 -23t-13.5 -14
l1 -176q0 -46 -56 -48q-27 0 -41 13q-15 13 -15 36v33v42v109.5t1 143.5t1 145v113q0 54 57 54q55 0 55 -50v-144v-138v0z" />
    <glyph glyph-name="L" unicode="L" horiz-adv-x="502" 
d="M77 630q2 25 18 38q17 14 42 14q50 0 52 -51v-63v-36.5t-1 -41.5t-1 -39v-30v-94v-93v-79v-43v-13h68t38 1l143 5q49 0 49 -47q0 -57 -52 -57l-114 1q-51 0 -86 -0.5t-55 -1.5q-56 -1 -78 11q-20 12 -25 53v38q0 42 3 126t3 119v150v134z" />
    <glyph glyph-name="M" unicode="M" horiz-adv-x="856" 
d="M217 490q-5 -37 -12 -99.5t-18 -153.5q-21 -180 -24 -201q-8 -45 -56 -45q-26 0 -41 17t-11 42q5 31 25.5 177t56.5 411q6 19 27 30q21 10 45 9q41 0 60 -55l144 -413q6 -17 9.5 -27.5t4.5 -14.5l9 24q17 41 57.5 147.5t106.5 280.5q22 52 51 60q19 1 30 0q34 -2 45 -21
q7 -24 18 -111q5 -44 12.5 -106.5t17.5 -144.5q19 -164 30 -246q1 -27 -15 -42q-17 -15 -42 -15q-49 0 -55 46q-2 12 -13 123.5t-31 325.5l-162 -424q-20 -48 -67 -47q-16 0 -28 9q-11 8 -16 17q-4 6 -12 26l-148 426z" />
    <glyph glyph-name="N" unicode="N" horiz-adv-x="713" 
d="M188 58q0 -62 -53 -62q-56 0 -58 50v93t1 157v224v110q0 22 20 36t47 14q23 0 38 -12q16 -13 33 -37l233 -329l80 -114q-1 52 -1.5 102.5t-0.5 100.5l-2 220q-1 34 11 53q12 18 45 18q53 0 53 -64v-168v-167q1 -54 1.5 -111.5t0.5 -119.5q0 -24 -19 -39q-20 -15 -48 -15
q-20 0 -34 11q-13 10 -33 38l-318 455q0 -16 1 -126t3 -318z" />
    <glyph glyph-name="O" unicode="O" horiz-adv-x="745" 
d="M374 684q134 0 232 -96q97 -96 97 -243q0 -150 -94 -253t-237 -103q-130 0 -229 93t-99 241q0 160 101 263q100 102 230 100zM591 344q-1 104 -69 172q-67 67 -159 67q-86 0 -147 -72q-62 -73 -62 -180t64 -172q64 -66 159 -66q90 0 153 75q63 76 62 175z" />
    <glyph glyph-name="P" unicode="P" horiz-adv-x="577" 
d="M84 422q0 30 -0.5 60t-1.5 60q0 41 0.5 64t1.5 28q11 41 57 44q8 1 46 1.5t108 2.5q103 0 171 -45q88 -59 87 -180q-1 -73 -47 -135q-45 -62 -117 -78q-35 -9 -166 -9h-32v-36.5t1 -54.5t1 -56.5v-43.5q0 -50 -58 -50q-27 0 -42 12t-15 33q1 32 1.5 79.5t0.5 110.5v193h4
zM198 417v-40v-42h48q86 -2 117 7q39 9 62 44q22 34 24 77q2 71 -56 101q-37 19 -102 19h-61.5t-34.5 -1v-73v-91z" />
    <glyph glyph-name="Q" unicode="Q" horiz-adv-x="760" 
d="M334 -11q-27 5 -52.5 13t-50.5 19q-48 22 -93 62q-44 39 -69 102q-25 62 -25 143q0 138 92 244q91 104 221 109q8 2 12 2q140 0 237 -91q97 -92 99 -237q1 -119 -44 -199q-44 -78 -113 -118q-12 -10 -30 -17l15 -10t21 -15t21 -15.5t16 -11.5t15.5 -8.5t19.5 -7.5
q22 -8 41 -8q22 0 39 9q16 9 24 18q7 9 18 18q10 9 24 9q23 0 39 -14q15 -14 15 -38q0 -47 -51 -81t-112 -33q-27 0 -61 14q-31 13 -54 29q-21 15 -60 45q-20 15 -34.5 26t-24.5 18q-32 23 -65 26zM587 339q0 112 -67 175q-68 63 -159 63q-79 0 -142 -73q-63 -74 -63 -174
q0 -106 65 -174q64 -68 171 -69q94 10 145 79t51 175z" />
    <glyph glyph-name="R" unicode="R" horiz-adv-x="609" 
d="M78 610q0 62 79 65q25 1 46.5 1.5t40.5 0.5h42t33 -1q103 -4 166 -60t63 -152q0 -68 -36 -119t-95 -71l142 -193q15 -20 15 -36q0 -21 -18 -36t-40 -15q-24 -2 -48 27l-154 225h-124v-99v-93q0 -57 -47 -59q-36 -2 -50 12q-14 13 -12 48q1 32 1 145.5v310.5v21t-1 30
t-1 30v21zM293 581q-28 0 -55 -0.5t-53 -1.5l1 -240h100q67 0 108 30t42 94q1 57 -36 88t-105 31z" />
    <glyph glyph-name="S" unicode="S" horiz-adv-x="568" 
d="M459 650q33 -17 33 -51q0 -17 -14 -34q-13 -16 -33 -16q-15 0 -48 13q-53 24 -112 24q-51 0 -88 -29q-36 -29 -36 -72q0 -18 9 -31q9 -14 18 -21t32 -15q11 -4 20 -6.5t15 -4.5t16.5 -4t25.5 -6q106 -23 162 -64q57 -42 57 -129q0 -95 -68 -152q-67 -56 -174 -58
q-109 0 -190 40q-41 20 -41 54q0 22 14 39t35 17q12 0 45 -11q72 -36 136 -36q59 0 96 28t37 75q0 43 -36 66q-36 22 -102 36q-23 5 -43.5 10.5t-37.5 11.5q-33 11 -66 32q-32 19 -48 51q-17 32 -17 72q0 88 72 148t169 60t172 -36z" />
    <glyph glyph-name="T" unicode="T" horiz-adv-x="574" 
d="M293 675h34t71 1t72.5 1h38.5q50 0 50 -46q0 -54 -53 -54h-166v-50q0 -50 1 -168t3 -307q0 -59 -60 -59q-52 0 -51 55l2 368q0 22 -0.5 62t-1.5 100q-20 -1 -63 -1h-111q-47 0 -47 51q0 21 12 35t37 15h31h75h128z" />
    <glyph glyph-name="U" unicode="U" horiz-adv-x="688" 
d="M77 278v186v156q0 55 53 55q32 0 45 -13t13 -43q-1 -31 -1 -115.5v-224.5q0 -92 42 -137t119 -45q71 0 113 52q43 53 44 132q1 12 0 171q-1 80 -1 123v51q0 53 57 53q28 0 42 -15q13 -14 13 -49l2 -311q0 -145 -73 -227q-74 -83 -204 -83q-121 0 -193 75t-72 210z" />
    <glyph glyph-name="V" unicode="V" horiz-adv-x="650" 
d="M34 579q-14 44 -14 49q0 23 20 38q19 15 44 15q37 0 51 -35l38 -103l152 -398q6 13 18 45q12 31 15 39l158 417q14 35 51 35q21 0 41 -15t20 -36q0 -10 -15 -49q-17 -45 -81 -201q0 -3 -16 -42q-8 -20 -18 -44t-22 -52l-84 -200q-20 -47 -69 -47q-28 0 -42 14
q-14 13 -27 45t-35.5 87.5t-55.5 133.5t-64.5 154.5t-62.5 152.5z" />
    <glyph glyph-name="W" unicode="W" horiz-adv-x="855" 
d="M31 624q-5 26 12 44q16 18 43 18q46 0 54 -44q35 -184 57 -297.5t30 -159.5q15 40 46.5 139t80.5 260q16 55 67 55q19 0 36 -12q16 -12 21 -30l136 -404q39 200 59.5 305t22.5 118q7 38 20 54q12 15 41 15q27 0 44 -16q18 -17 14 -42l-120 -566q-7 -31 -20 -47
q-12 -14 -44 -16q-30 0 -44 17t-23 45l-141 410q-14 -46 -48 -148t-88 -263q-21 -61 -70 -60q-41 1 -54 27q-14 25 -27 96q-33 161 -58.5 285.5t-42.5 215.5z" />
    <glyph glyph-name="X" unicode="X" horiz-adv-x="631" 
d="M274 224l-146 -200q-21 -28 -48 -28q-22 0 -40 15t-18 35q0 22 16 41l203 261q-5 7 -189 240q-17 23 -17 40q0 20 19 36q20 17 42 17q28 0 50 -31l166 -222l169 225q23 29 51 29q24 0 41 -16q18 -17 18 -36q0 -16 -14 -36l-195 -247l198 -249q24 -30 24 -49
q0 -20 -19 -36t-42 -16q-28 0 -54 35l-134 185l-41 52z" />
    <glyph glyph-name="Y" unicode="Y" horiz-adv-x="607" 
d="M238 280l-201 307q-16 23 -16 39q0 23 18 38t41 15q26 0 47 -32l179 -286q3 5 7.5 11.5t10.5 16.5q12 19 57 93q45 73 102 165q20 32 48 32q21 0 39 -15t18 -34q0 -18 -15 -40l-215 -327v-222q0 -22 -16 -34q-17 -12 -39 -12q-25 0 -40 15t-15 40v36v37v78v63z" />
    <glyph glyph-name="Z" unicode="Z" horiz-adv-x="556" 
d="M87 573q-23 0 -36 13t-13 36q0 53 53 53h210h33t50 1t50.5 1h35.5q55 0 55 -49q0 -23 -26 -61l-33 -50l-241 -346l-51 -75q85 0 187 3t120 3q27 0 39 -15t12 -37q0 -50 -61 -50q-63 -1 -154.5 -1h-214.5q-56 0 -63 34q-3 15 -2 27q7 37 48 93l63 87l192 270l43 66h-153
h-144z" />
    <glyph glyph-name="bracketleft" unicode="[" horiz-adv-x="312" 
d="M71 665q0 25 17 40q16 15 42 15h122q45 0 45 -49q0 -46 -47 -46h-77q2 -101 0 -209v-48.5t-1 -83.5q-2 -101 -3 -132q-1 -55 -1 -114v-124h36h41q47 0 47 -47q0 -49 -50 -49l-107 -1q-36 0 -52 16t-16 54q0 44 3 206q2 81 2.5 141t-0.5 99q2 54 0 188q-1 67 -1 103v41z
" />
    <glyph glyph-name="backslash" unicode="\" horiz-adv-x="391" 
d="M362 55q9 -27 9 -41q0 -17 -18 -29t-37 -12q-30 0 -42 35l-245 615q-12 31 -12 48t18 29t36 12q34 0 46 -37z" />
    <glyph glyph-name="bracketright" unicode="]" horiz-adv-x="312" 
d="M237 664v-55t-1 -102t-1 -106.5v-67.5q0 -75 3 -235q3 -161 3 -210q0 -38 -16 -54t-52 -16l-105 1q-50 0 -50 49q0 47 46 47h41h36v124t-1 114v47.5t-1 83.5t-1 83.5v48.5q-1 34 -1 86v123h-77q-47 0 -47 46q0 49 46 49h122q25 0 42 -15t18 -40z" />
    <glyph glyph-name="asciicircum" unicode="^" horiz-adv-x="500" 
d="M248 573q-9 -17 -28 -55.5t-48 -98.5t-48 -97t-27 -51q-12 -15 -28 -15q-18 0 -34 12t-16 30q0 16 9 36l162 305q21 40 60 40q38 0 60 -40q7 -14 162 -297q10 -19 10 -35q0 -17 -16 -29q-17 -12 -36 -12q-17 0 -29 18z" />
    <glyph glyph-name="underscore" unicode="_" horiz-adv-x="500" 
d="M59 -103q-25 0 -37 15t-12 37q2 50 56 50h190h185q48 0 48 -49q0 -51 -63 -51h-367v-2z" />
    <glyph glyph-name="grave" unicode="`" horiz-adv-x="253" 
d="M147 547q-31 29 -55.5 54t-42.5 45q-15 16 -15 33q0 16 17 31q16 15 33 15q24 0 39 -20l83 -107q10 -13 10 -27q0 -13 -12 -25t-25 -12q-15 0 -31 11z" />
    <glyph glyph-name="a" unicode="a" horiz-adv-x="572" 
d="M505 169q0 -35 1 -67t3 -61q0 -46 -57 -46q-23 0 -33 18q-10 17 -16 60q-47 -80 -147 -80q-97 0 -157 64t-60 159q0 108 66 177t165 69q89 0 135 -70q0 2 3 17q2 8 2.5 13t1.5 7q10 31 44 31q52 0 52 -61l-1 -77zM151 217q0 -56 35 -94q34 -37 86 -37q55 0 93 39
q38 40 38 102q0 65 -37 102q-38 38 -90 38q-54 0 -90 -42t-36 -108h1z" />
    <glyph glyph-name="b" unicode="b" horiz-adv-x="581" 
d="M65 672q1 52 54 52q57 0 57 -49q-1 -63 -1.5 -134.5t-0.5 -153.5q22 39 63 60q40 21 90 21q95 0 155 -69t60 -163q0 -103 -65 -174q-64 -70 -164 -70q-45 0 -85 22t-61 58l-1 -36q-8 -41 -54 -39q-47 1 -45 60l3 191l-3 424h-2zM429 232q0 55 -36 96q-36 40 -86 40
q-56 0 -95 -39t-39 -104q0 -60 38 -100q37 -39 87 -39q53 0 92 42t39 106v-2z" />
    <glyph glyph-name="c" unicode="c" horiz-adv-x="449" 
d="M391 432q22 -15 22 -40q0 -20 -12 -36t-32 -16q-13 0 -43 14q-27 11 -58 11q-52 0 -88 -45t-36 -98q0 -57 35 -95t87 -38q40 0 75 20q30 15 40 15q17 0 31 -18q13 -17 13 -37q0 -23 -19 -36q-55 -43 -141 -43q-108 0 -168 69t-60 153q1 99 68 176q66 77 170 77
q68 0 120 -32z" />
    <glyph glyph-name="d" unicode="d" horiz-adv-x="575" 
d="M508 442v-102v-103v-25.5t1 -49.5t1 -61v-60q0 -48 -52 -48q-40 0 -48 38l-4 45q-52 -85 -148 -85q-98 0 -158 67t-60 157q0 105 66 176t167 71q39 0 75 -17q34 -17 54 -48l-1 268q0 60 54 60q27 0 42 -12t14 -39zM147 218q0 -54 36 -93t87 -39q55 0 93 38t38 101
q0 64 -35 102t-87 38q-55 0 -93 -41q-37 -40 -37 -105z" />
    <glyph glyph-name="e" unicode="e" horiz-adv-x="511" 
d="M150 197q3 -46 38 -78t84 -32q52 0 97 27q22 13 39 13q19 0 32 -16q14 -17 14 -36q0 -26 -30 -45q-61 -40 -161 -40q-92 0 -157 65q-65 64 -66 156q0 106 66 180t164 74q85 0 144 -56t59 -128q0 -43 -15 -61t-64 -19q-13 -1 -27 -1h-30h-87h-99zM269 372q-47 0 -81 -32
q-33 -32 -38 -74q75 0 125.5 1t78.5 3q12 1 12 9q0 40 -28 67q-29 27 -67 27z" />
    <glyph glyph-name="f" unicode="f" horiz-adv-x="375" 
d="M226 356v-120v-101v-47v-48q0 -23 -15 -35t-38 -12q-24 0 -39 12t-14 39v89v106v118h-61q-49 0 -49 47q-2 22 12 36t42 14h57v55q2 47 12 86q11 40 33 71q23 32 63 50t96 18q35 0 64 -17q18 -11 18 -39q0 -17 -10 -30q-11 -14 -25 -14q-11 0 -32 3q-23 3 -34 2
q-39 -2 -60 -36q-20 -34 -22 -84v-63h92q28 0 40 -12t12 -36q1 -51 -46 -51z" />
    <glyph glyph-name="g" unicode="g" horiz-adv-x="569" 
d="M262 -132q55 0 95 38q39 37 39 96v59q-23 -32 -58 -51t-80 -19q-95 0 -156 66q-61 65 -61 159q0 104 65 175q64 70 162 70q85 0 134 -70l1 31q2 17 15 26t35 9q23 0 37 -13q15 -14 15 -34v-66t-1 -87t-1 -88.5v-69.5l2 -98q1 -101 -68 -169q-68 -67 -174 -67
q-86 0 -141 28q-38 20 -38 53q0 21 14 38t33 17q9 0 45 -15q45 -16 85 -16zM148 218q0 -58 36 -94t88 -36t90 36q37 36 37 101q0 67 -35 104q-34 35 -87 37q-55 0 -91 -41t-36 -105z" />
    <glyph glyph-name="h" unicode="h" horiz-adv-x="555" 
d="M67 668q0 60 58 60q53 0 53 -54v-37v-93v-74t-1 -84q19 36 57 57q37 21 84 21q84 0 131 -57q47 -58 47 -146v-65v-80v-73q-2 -47 -60 -47q-23 0 -39 12t-16 35q2 48 3.5 100t1.5 110q0 55 -25 84q-26 30 -72 30q-47 0 -81 -36q-34 -35 -34 -92v-42t1 -62t1 -59v-34
q0 -23 -15 -35t-41 -12q-24 0 -39 12t-15 35q0 12 0.5 30t1.5 41t1.5 38.5t0.5 23.5l-1 495z" />
    <glyph glyph-name="i" unicode="i" horiz-adv-x="254" 
d="M72 411q2 26 17 38t36 12q28 0 42 -13q15 -14 15 -48v-114v-113v-125q1 -27 -13 -40t-43 -13q-24 0 -39 12t-15 35v370v-1zM121 580q-31 0 -49 21q-18 22 -14 53q5 29 25 44q21 15 47 15q33 0 51 -19q18 -20 18 -49q0 -33 -21 -49q-20 -16 -55 -16h-2z" />
    <glyph glyph-name="j" unicode="j" horiz-adv-x="247" 
d="M68 417q2 20 18 32t39 12t39 -11q15 -11 15 -33v-114v-130q0 -103 -0.5 -167.5t-1.5 -90.5q-1 -61 -50 -106q-48 -45 -118 -45q-97 -1 -97 60q0 24 12 39t28 15q11 0 26 -4q16 -5 30 -3q60 0 63 96q1 52 0 286q-1 52 -1.5 93t-0.5 72zM119 578q-32 0 -51 18t-19 50t21 50
t53 18q33 0 52 -19t19 -51q0 -68 -77 -68z" />
    <glyph glyph-name="k" unicode="k" horiz-adv-x="479" 
d="M442 80q14 -17 14 -32q0 -18 -18 -36t-40 -18q-23 0 -47 31l-136 165q-10 -9 -20.5 -19.5l-21.5 -21.5l-1 -98q0 -57 -53 -57q-56 0 -54 59l2 110v219v221v45.5t-1 29.5q0 26 16 39t40 13q55 0 55 -54q0 -9 -3 -408l168 172q25 27 48 27q18 0 37 -17q18 -17 18 -36
q0 -16 -20 -39q-5 -5 -38 -36.5t-95 -89.5z" />
    <glyph glyph-name="l" unicode="l" horiz-adv-x="251" 
d="M72 669q1 25 18 39t42 14q56 0 56 -62q-2 -135 -3.5 -256.5t-1.5 -232.5q0 -13 0.5 -30.5t1.5 -40.5t1.5 -37t0.5 -19q-2 -25 -13 -36q-13 -13 -39 -14q-29 -2 -45 16q-17 18 -18 61q-3 79 0 598z" />
    <glyph glyph-name="m" unicode="m" horiz-adv-x="823" 
d="M64 243v95v53v20q0 50 56 50q42 0 48 -42l2 -35q18 37 57 58t79 21q49 0 85 -24t51 -63q23 38 63 62q41 25 87 26q87 2 129 -52t42 -142v-101q0 -17 -0.5 -49.5t-1.5 -81.5q-1 -43 -56 -43q-24 0 -39 12t-15 33q2 105 3 158t1 56q0 116 -81 116q-44 0 -72 -28
q-29 -29 -30 -79q-1 -19 -1 -45v-60v-104q-2 -56 -57 -56q-51 1 -51 45q1 99 1.5 154t0.5 68q-1 45 -23 76q-21 30 -61 30q-106 0 -106 -147l1 -185q-1 -43 -57 -43q-21 0 -37 11q-15 10 -15 35v54l3 150z" />
    <glyph glyph-name="n" unicode="n" horiz-adv-x="559" 
d="M68 396q-1 64 57 64q25 0 36 -12t12 -37l2 -35q16 39 59 64q42 24 90 24q83 0 128 -52q45 -53 45 -145v-54v-75v-86q0 -56 -59 -56q-22 0 -37 12t-15 36q0 14 0.5 37.5t1.5 56.5t1.5 57.5t0.5 40.5q-1 61 -21 97t-72 36q-38 0 -63 -12t-37 -38q-11 -24 -16 -53
q-2 -14 -3 -30t-1 -36l1 -157q0 -26 -16 -36q-17 -11 -39 -11q-55 0 -55 48q0 5 0.5 29t1.5 66q1 84 0 171z" />
    <glyph glyph-name="o" unicode="o" 
d="M292 467q19 0 30 -6q90 -14 138 -81q48 -68 48 -153q0 -102 -69 -169q-68 -67 -174 -67q-93 0 -160 63t-67 160q0 113 69 182q68 68 187 70zM397 233q0 57 -33 96t-92 42q-59 -3 -93 -45q-34 -41 -34 -112q0 -55 36 -91t81 -36q55 0 96 41q40 40 40 105h-1z" />
    <glyph glyph-name="p" unicode="p" horiz-adv-x="577" 
d="M68 414q2 50 55 50q41 0 47 -36l3 -46q22 38 63 61q40 22 90 22q95 0 154 -66q58 -65 58 -166q0 -103 -66 -172t-166 -69q-88 0 -131 61v-42v-52v-22.5t1 -37.5t1 -40v-30q0 -54 -61 -53q-49 0 -49 52l1 393l-1 193h1zM429 232q0 58 -36 96t-86 38q-54 0 -93 -40
q-39 -41 -39 -102q0 -66 33 -102t89 -36q55 0 93 42q38 43 38 107z" />
    <glyph glyph-name="q" unicode="q" horiz-adv-x="571" 
d="M501 -76v-109q-1 -46 -54 -46q-29 0 -43 13q-15 14 -14 39q1 29 1.5 88t0.5 149q-19 -31 -55 -49t-79 -18q-97 0 -159 68q-61 67 -61 159q0 108 66 177t168 69q37 0 74 -20q36 -20 57 -51l5 38q9 32 48 32q21 0 35 -12t14 -33q-3 -80 -3 -156l-1 -228v-110zM148 218
q0 -53 36 -93t87 -40q54 0 90 38q36 37 36 102q0 66 -35 104t-84 38q-55 0 -93 -41q-37 -40 -37 -108z" />
    <glyph glyph-name="r" unicode="r" horiz-adv-x="367" 
d="M70 406q-1 25 14 39q14 13 41 13q36 0 42 -36l4 -55q20 44 59 70q37 25 78 25q53 0 53 -52q0 -22 -12 -37t-34 -15h-17q-52 0 -86 -42q-35 -43 -35 -115v-25.5t1 -46.5q2 -57 0 -89q-1 -46 -57 -46q-26 0 -40 14q-14 13 -12 48q3 231 3 246v53v54z" />
    <glyph glyph-name="s" unicode="s" horiz-adv-x="455" 
d="M232 463q84 0 135 -23q31 -15 31 -39q0 -47 -43 -47q-11 0 -50 12t-71 12q-36 0 -60 -15t-24 -40q0 -30 48 -40q7 -1 47 -6q81 -10 125 -41q44 -30 44 -94q0 -70 -51 -109t-139 -39q-66 0 -123 20q-55 19 -55 45q0 54 43 54q13 0 60 -15q46 -15 85 -15q34 0 57 15t23 41
q0 28 -22 38q-23 10 -75 18q-18 2 -33 5t-28 6q-23 5 -52 20q-26 13 -40 36t-14 54q0 64 56 106q55 42 129 42z" />
    <glyph glyph-name="t" unicode="t" horiz-adv-x="370" 
d="M51 361q-43 0 -43 46q0 23 13 35t34 12h51l2 73q1 66 59 66q45 0 45 -50v-15t-1 -25t-1 -27v-20h86q22 1 34 -11t12 -35q0 -47 -42 -47h-90v-176q0 -48 12 -72t41 -24q15 0 27 4t21 4q18 0 29 -14t11 -32q0 -32 -22 -45q-27 -15 -75 -15q-148 0 -148 179q0 12 0.5 34.5
t1.5 55.5q1 66 0 100h-55z" />
    <glyph glyph-name="u" unicode="u" horiz-adv-x="565" 
d="M125 457q49 0 49 -56q-1 -60 -1.5 -104.5t-0.5 -76.5q0 -134 92 -134q65 0 92 46q26 46 28 132v140q0 27 17 41t41 14q54 0 54 -53v-43v-85v-100q1 -54 6 -138q1 -21 -14 -33t-38 -12q-43 0 -49 38q-2 9 -3 27q-1 17 -3 28q-50 -96 -150 -96q-91 0 -136 57t-45 155v100
v98q0 57 61 57v-2z" />
    <glyph glyph-name="v" unicode="v" horiz-adv-x="501" 
d="M42 361q-20 43 -18 57q1 21 19 34q17 13 40 13q21 0 33 -12q11 -11 22 -39l115 -288q66 153 117 294q16 43 51 43q22 0 40 -12t19 -31q0 -21 -11 -48l-147 -324q-25 -52 -72 -52q-25 0 -42 14q-16 13 -31 45l-136 305z" />
    <glyph glyph-name="w" unicode="w" horiz-adv-x="750" 
d="M32 407q-2 6 -2 12q0 20 20 32q19 12 42 12q37 0 46 -35q1 -2 9 -33.5t23 -92.5t26 -103t18 -65l105 290q13 33 54 33q43 0 59 -43l104 -277l56 212q11 48 21 77q11 32 45 32q23 0 42 -13q19 -14 21 -33q0 -10 -3 -19q-1 -4 -9.5 -32.5t-25.5 -82.5t-28.5 -92t-19.5 -60
q-24 -74 -30 -87q-15 -43 -64 -43q-47 0 -63 46q-8 20 -23 58.5t-36 96.5t-32 88t-12 32l-93 -245q-15 -42 -30 -60t-47 -18t-45 13q-14 13 -24 42l-105 358h1z" />
    <glyph glyph-name="x" unicode="x" horiz-adv-x="494" 
d="M143 178l44 53l-17 19q-95 106 -108 123q-18 21 -18 40q0 17 18 32q17 14 37 16q24 2 44 -23l110 -136l101 126q28 34 51 34q20 0 38 -15t18 -35q0 -8 -3 -15q-3 -6 -9 -16q-3 -5 -6 -8.5t-5 -6.5t-6 -7.5t-10 -10.5l-18 -18l-88 -101l125 -141q23 -26 23 -45
q0 -18 -18 -33t-39 -15q-26 0 -50 31l-106 132l-107 -133q-23 -30 -50 -30q-21 0 -39 15t-18 35q0 22 16 38z" />
    <glyph glyph-name="y" unicode="y" horiz-adv-x="504" 
d="M255 129q13 28 42 100t75 190q16 43 48 43q24 0 41 -13q18 -14 18 -33q0 -18 -11 -42q-125 -287 -225 -489q-60 -109 -149 -109q-78 0 -78 54q0 51 53 51q31 0 48 12q16 11 37 48q7 9 45 86l-31 65l-125 271q-17 39 -17 54q0 19 18 33q19 14 39 14q29 0 43 -27
q63 -153 95 -230t33 -79z" />
    <glyph glyph-name="z" unicode="z" horiz-adv-x="453" 
d="M240 363q-10 0 -28 -0.5t-45 -1.5q-54 -2 -84 0q-23 1 -33 15q-11 14 -11 35q0 48 59 48h36.5t52.5 -1t51.5 -1h34.5h15.5t26.5 1q31 1 49 0q41 -2 47 -30q3 -15 1 -30q-11 -35 -48 -78l-177 -204l-18 -22l144 3h12.5t18.5 1t19.5 1h13.5q23 0 35 -13q12 -14 12 -36
q0 -50 -53 -52h-12t-21 1t-23 1h-18h-28.5t-52.5 -1t-60 -1h-51q-66 0 -66 56q0 31 57 99l185 211h-38z" />
    <glyph glyph-name="braceleft" unicode="{" horiz-adv-x="300" 
d="M8 272q0 8 1 11q2 6 3 8t1.5 4t2.5 4q2 3 5 6l6 6l6 6l8 6l8 6q5 5 17 14q6 5 11 8.5t9 6.5q7 6 13 16t6 21q0 36 -18 95q-17 57 -19 96q0 61 48 105q49 44 116 44q20 0 32 -13q12 -14 12 -33t-9 -34t-25 -15q-28 0 -49 -21t-21 -49q0 -35 18 -93q17 -57 19 -93
q0 -73 -92 -115q94 -49 94 -111q0 -34 -18 -97t-18 -99q0 -27 18 -48t46 -21q15 0 26 -12q11 -13 11 -31q0 -20 -12 -32t-31 -12q-74 0 -117 45q-43 44 -43 107q0 34 18 96q19 64 20 96q0 13 -7 21q-9 11 -25 23q-20 15 -23 18q-40 25 -40 58z" />
    <glyph glyph-name="bar" unicode="|" horiz-adv-x="269" 
d="M80 676q2 26 16 38q15 12 36 12q25 0 39 -11q13 -11 15 -42v-137v-225v-136l1 -317q0 -54 -54 -54q-25 0 -38 12q-14 12 -14 36l1 326l-1 498h-1z" />
    <glyph glyph-name="braceright" unicode="}" horiz-adv-x="301" 
d="M276 267q0 -33 -40 -58q-3 -3 -23 -18q-16 -12 -25 -23q-7 -8 -7 -21q1 -32 20 -96q18 -62 18 -96q0 -63 -43 -107q-44 -45 -117 -45q-22 0 -32 12q-11 13 -11 33q0 18 11 31q10 12 26 12q28 0 46 21t18 48q0 36 -18 99t-18 97q0 62 94 111q-92 42 -92 115q2 36 19 93
q18 58 18 93q0 28 -21 49t-49 21q-16 0 -25 15t-9 34q0 20 12 32t33 12q69 0 116 -43q48 -44 48 -105q-2 -39 -19 -96q-18 -59 -18 -94q0 -11 6 -21t13 -16q4 -3 9 -6.5t11 -8.5q12 -9 17 -14l8 -6l8 -6l6 -6l6 -6q3 -3 5 -6q2 -2 2.5 -4t1.5 -4t3 -8q1 -3 1 -11z" />
    <glyph glyph-name="asciitilde" unicode="~" horiz-adv-x="500" 
d="M127 219q-19 -28 -48 -28q-20 0 -32 15t-9 38q7 40 42 72q34 31 80 31q35 0 67 -18q34 -19 56 -36q24 -18 44 -18q32 0 50 39q11 26 45 26q20 0 32 -14t11 -33q-9 -47 -42 -77t-82 -30q-41 0 -91 37t-73 37q-32 0 -53 -37z" />
    <glyph glyph-name="uni00A0" unicode="&#xa0;" horiz-adv-x="244" 
 />
    <glyph glyph-name="exclamdown" unicode="&#xa1;" horiz-adv-x="245" 
d="M79 193q4 49 43 49q42 0 45 -43q10 -195 12 -353q0 -41 -12 -57q-12 -17 -46 -17q-27 0 -43 14q-15 14 -14 39l9 228zM120 465q31 0 51 -18q19 -18 19 -49q0 -28 -18 -46t-47 -18q-28 0 -48 20q-19 19 -19 48q0 27 18 44q19 17 45 17z" />
    <glyph glyph-name="cent" unicode="&#xa2;" horiz-adv-x="479" 
d="M409 535q23 -14 23 -39q0 -20 -13 -36q-14 -17 -33 -17q-13 0 -43 14q-27 11 -60 11q-55 0 -89 -45q-35 -46 -35 -99q0 -57 35 -95t87 -38q40 0 75 20q25 15 41 15q17 0 31 -18q13 -17 13 -37q0 -22 -20 -37q-44 -35 -105 -42v-66q2 -47 -44 -47q-44 0 -44 42v74
q-85 16 -133 81q-48 64 -48 138q1 85 51 156q49 70 131 90v87q-2 22 11 35q12 12 29 12q46 0 46 -43l-1 -84q50 -5 92 -30z" />
    <glyph glyph-name="sterling" unicode="&#xa3;" horiz-adv-x="533" 
d="M83 289q-19 0 -30 14t-11 33q0 46 48 46h43q-5 25 -6 72q-3 102 49 163t142 61q58 0 99 -24q30 -18 24 -52q-3 -18 -15 -30t-27 -11q-11 0 -33 6q-23 6 -38 6q-87 0 -87 -118q0 -20 1.5 -38t3.5 -34q22 1 49 1h59q46 0 46 -44q0 -29 -13 -39q-14 -11 -49 -11h-74
q19 -121 -12 -175q95 -29 125 -29q32 0 42 22q15 25 43 25q20 0 35 -15t14 -37q-5 -48 -34 -72q-30 -24 -81 -24q-39 0 -127 22q-90 23 -106 24q-33 0 -48 -19q-1 -1 -1.5 -2t-2.5 -3t-2.5 -3t-1.5 -2l-4 -4q-2 -2 -6 -4t-7 -3q-6 -2 -9 -2h-12q-22 0 -37 15t-15 37
q0 37 27 66q27 28 62 30q4 1 42 -3q16 22 17 72q1 51 -6 87h-67z" />
    <glyph glyph-name="currency" unicode="&#xa4;" horiz-adv-x="575" 
d="M298 513q45 0 87 -27l51 60q26 29 51 29q19 0 36 -15q16 -15 16 -36q0 -8 -1 -12l-3 -9q-2 -4 -6 -8l-6 -7q-1 -2 -8 -9l-9 -9l-51 -53q32 -52 32 -104q0 -55 -30 -104l57 -58q22 -22 22 -46q0 -19 -17 -36q-16 -16 -36 -16t-48 31l-48 55q-53 -32 -105 -32q-50 0 -99 33
l-48 -55q-22 -28 -46 -28q-22 0 -38 15q-17 15 -17 35q0 21 14 38l67 67q-24 45 -24 89q0 64 33 114l-64 65q-25 24 -25 48q0 22 15 36q15 13 35 15q25 1 45 -23l63 -73q50 29 109 30h-4zM387 312q0 47 -28 78q-29 32 -75 32q-47 -2 -75 -34q-29 -34 -29 -89q0 -44 30 -72
q30 -29 69 -30q45 0 78 33t33 84z" />
    <glyph glyph-name="yen" unicode="&#xa5;" horiz-adv-x="593" 
d="M146 228q-38 0 -36 41q2 35 43 35h36h36l-190 282q-15 22 -15 39q0 19 17 36t38 17q33 0 52 -31l170 -276l165 268q24 38 53 38q21 0 39 -15t18 -34q0 -20 -21 -48l-187 -276h68q45 0 45 -37q0 -39 -42 -39h-85v-50h83q44 0 44 -37q0 -38 -41 -38h-86v-53q0 -53 -56 -53
t-56 57v50h-90q-40 0 -40 41q0 34 43 34h44h45v50h-57h-38z" />
    <glyph glyph-name="brokenbar" unicode="&#xa6;" horiz-adv-x="270" 
d="M81 157q2 50 51 50q25 0 39 -11q13 -11 15 -42v-163v-60v-76q2 -27 -12 -41t-39 -14q-24 0 -38 14t-14 38l1 166l-1 141zM78 533l-1 150q2 23 17 35t38 12q52 0 52 -51l-1 -145v-169q2 -26 -13 -39q-14 -13 -40 -13q-23 0 -36 13q-14 14 -14 37z" />
    <glyph glyph-name="section" unicode="&#xa7;" horiz-adv-x="497" 
d="M39 302q-1 69 69 124q-40 28 -40 90q-1 73 59 126q61 53 134 53t127 -26q28 -14 30 -42q0 -17 -11 -33q-11 -15 -30 -15q-12 0 -49 12q-38 12 -69 12q-35 0 -64 -23q-28 -22 -28 -57q0 -23 19 -39t37 -22q9 -3 21.5 -6t28.5 -7q83 -18 128 -54t47 -110q1 -77 -57 -135
q23 -37 23 -78q0 -82 -54 -133t-134 -51q-63 0 -117 22q-56 19 -57 54q0 19 12 36q12 16 30 16q15 0 35 -9q49 -21 93 -21q41 0 69 19t28 57q0 15 -6 27t-14 20t-25 15q-9 4 -16.5 6.5l-13.5 4.5t-15 4t-22 5q-77 19 -120 56q-41 36 -43 105zM239 365q-40 8 -62 18
q-43 -37 -43 -72q0 -34 24 -52q25 -19 67 -29l97 -30q30 41 26 78q-3 38 -31 57q-29 19 -78 30z" />
    <glyph glyph-name="dieresis" unicode="&#xa8;" horiz-adv-x="360" 
d="M93 552q-25 0 -40 17q-15 16 -15 42q0 25 17 42t44 17q26 0 42 -16t16 -42q0 -25 -17 -42q-16 -16 -45 -16zM256 553q-23 0 -40 17q-16 16 -16 41t18 42q19 17 44 17q26 0 42 -16t16 -42q0 -25 -17 -42q-16 -16 -45 -16z" />
    <glyph glyph-name="copyright" unicode="&#xa9;" horiz-adv-x="759" 
d="M381 683q137 0 235 -96q97 -96 97 -243q0 -150 -94 -253t-240 -103q-85 0 -160 39q-76 39 -125 117q-49 77 -49 177q0 82 29 152q29 69 77 116q48 46 108 72q61 26 123 26zM636 342q-1 117 -74 193q-72 75 -188 75q-108 0 -180 -81t-72 -201q0 -119 75 -192
q74 -73 188 -73q109 0 181 83q72 82 70 195v1zM484 489q17 -12 17 -29q0 -36 -32 -36q-3 0 -33 11q-24 11 -48 11q-43 0 -70 -35t-27 -80q0 -49 30 -80q30 -32 71 -32q28 0 57 15q19 12 30 12q14 0 23 -11t9 -24q0 -19 -16 -29q-43 -35 -106 -35q-79 0 -127 54t-48 125
q0 78 49 134q49 57 126 57q53 0 97 -27z" />
    <glyph glyph-name="ordfeminine" unicode="&#xaa;" horiz-adv-x="399" 
d="M357 453q0 -14 0.5 -36t1.5 -53q0 -34 -41 -34q-23 0 -30 22q0 1 -0.5 3.5l-1.5 7.5q-2 10 -3 14q-31 -49 -102 -49q-69 0 -111 45t-42 111q0 77 47 127q46 49 117 49q59 0 94 -45q2 13 3 20q7 24 32 24q39 0 39 -45q-1 -9 -1 -28.5v-50.5v-82h-2zM108 485q0 -39 24 -64
t59 -25q37 0 63 27q26 28 26 70q0 44 -25 69q-26 26 -60 26q-38 0 -62 -27t-24 -73z" />
    <glyph glyph-name="guillemotleft" unicode="&#xab;" horiz-adv-x="498" 
d="M134 237l101 -113q16 -16 16 -34q0 -11 -12 -23t-25 -13q-17 -2 -33 12l-128 121q-24 22 -24 48q0 24 21 45q34 37 129 126q13 12 29 12q13 0 27 -12q13 -12 13 -25q0 -14 -15 -30zM351 238l101 -113q16 -16 16 -34q0 -11 -12 -23t-25 -13q-17 -2 -33 12l-128 121
q-24 22 -24 48q0 24 21 45q34 37 129 126q13 12 29 12q13 0 27 -12q13 -12 13 -25q0 -14 -15 -30z" />
    <glyph glyph-name="logicalnot" unicode="&#xac;" horiz-adv-x="490" 
d="M77 221q-21 0 -33 13t-12 36q0 48 53 48h156h171q44 0 44 -52v-68v-94q0 -23 -13 -35q-14 -12 -36 -11q-23 0 -36 12t-13 33v120h-58.5t-95.5 -1t-89.5 -1h-40.5h3z" />
    <glyph glyph-name="uni00AD" unicode="&#xad;" horiz-adv-x="358" 
d="M83 191q-24 0 -36 14q-12 13 -12 36q0 50 54 50h183q49 0 49 -49q0 -52 -61 -52h-90h-85z" />
    <glyph glyph-name="registered" unicode="&#xae;" horiz-adv-x="759" 
d="M382 689q137 -2 234 -97q98 -96 98 -243q0 -151 -95 -255q-94 -103 -240 -103q-85 0 -159 40q-76 41 -125 118t-49 177q0 162 101 263q100 100 234 99zM637 343q-1 118 -74 194q-72 75 -189 75q-112 0 -181 -78t-69 -200q0 -118 75 -193t188 -75q109 0 181 84
q72 83 70 196zM264 486q0 37 45 39h77q56 0 90 -31q35 -32 35 -82q0 -34 -17 -62q-17 -27 -44 -41q8 -13 25 -35.5t43 -55.5q10 -11 10 -26q0 -12 -10 -21q-11 -9 -25 -9q-18 0 -30 17l-79 114h-33h-20v-53t1 -44q0 -34 -32 -34q-37 -1 -37 33v54v182v56zM380 465h-24h-24
v-57v-57h40q71 0 71 57q1 28 -15 42q-17 14 -47 14z" />
    <glyph glyph-name="macron" unicode="&#xaf;" horiz-adv-x="369" 
d="M85 577q-46 0 -46 43q0 45 53 45h38h41h26t34 1t31.5 1h20.5q45 0 45 -43q1 -22 -14 -34t-44 -12h-96h-46h-42z" />
    <glyph glyph-name="degree" unicode="&#xb0;" horiz-adv-x="288" 
d="M143 682q53 0 86 -34q33 -35 33 -85q0 -53 -34 -87t-88 -34q-50 0 -84 33q-35 33 -35 83q0 55 35 90t90 35zM206 563q0 29 -18 47t-46 18q-27 0 -45 -19q-18 -20 -18 -51q0 -27 18 -45t44 -18q27 0 45 18t18 50h2z" />
    <glyph glyph-name="plusminus" unicode="&#xb1;" horiz-adv-x="490" 
d="M80 307q-23 0 -33 15q-11 15 -9 38q3 43 54 43h112v127q0 23 14 35q13 12 33 12q46 0 46 -51v-124l121 1q44 0 44 -47t-48 -48h-28h-48h-41v-47v-48v-29q0 -42 -51 -42q-22 2 -32 15q-11 14 -11 35l1 118h-72h-51zM69 -1q-23 0 -33 15q-11 15 -9 35q2 44 57 44h56h77h188
q44 0 44 -47t-54 -48h-326v1z" />
    <glyph glyph-name="twosuperior" unicode="&#xb2;" horiz-adv-x="322" 
d="M149 678q-30 0 -52 -27q-14 -15 -36 -15q-15 0 -25 12q-10 11 -10 27q0 21 30 47q43 34 93 34q58 1 98 -32q39 -33 39 -87q0 -27 -13 -52q-14 -26 -27 -39q-14 -14 -45 -42l-12 -12l-50 -46h40t41 1t31.5 1h11.5q36 0 36 -39t-40 -39h-32h-31h-129q-19 0 -29 12
q-11 13 -11 30q0 28 27 54l92 89q11 11 19 18t13 12q8 8 18 23q9 13 9 26q0 19 -15 33q-14 13 -38 13z" />
    <glyph glyph-name="threesuperior" unicode="&#xb3;" horiz-adv-x="318" 
d="M206 491q0 49 -66 49h-23q-15 0 -24 10t-9 27q0 16 18 33l46 46t23 22h-64.5t-37.5 -1q-40 0 -40 37q0 16 9 27t27 11h65h116q35 0 35 -35q0 -21 -18 -37l-77 -78q41 -3 70 -31q30 -28 31 -73q0 -62 -39 -96q-40 -35 -100 -35q-55 0 -93 22q-27 13 -27 39q0 16 11 27
t24 11t34 -10q26 -14 51 -14t42 14t17 39z" />
    <glyph glyph-name="acute" unicode="&#xb4;" horiz-adv-x="254" 
d="M102 542q-14 -11 -29 -11q-12 0 -27 12t-15 26q0 12 10 26l90 104q18 21 37 21t36 -15t17 -34q0 -15 -16 -32q-46 -49 -103 -97z" />
    <glyph glyph-name="mu" unicode="&#xb5;" horiz-adv-x="566" 
d="M124 454q23 0 35 -13q12 -14 12 -36v-80v-109q0 -133 91 -133q58 0 88 48t30 124v145q0 56 56 56q55 0 56 -52v-75v-123q0 -86 20 -111l6 -6l6 -6q3 -3 5 -6q4 -6 5 -8l3 -9q2 -8 2 -12q0 -21 -13 -37t-36 -16q-33 0 -55 20q-25 23 -34 71q-45 -94 -157 -94q-22 0 -43 12
t-28 25q0 -72 -9 -132q-14 -111 -79 -111q-59 0 -59 53q0 23 20 74q19 49 21 108q1 51 1.5 100t0.5 98v78v89q0 39 14 56t45 17z" />
    <glyph glyph-name="paragraph" unicode="&#xb6;" horiz-adv-x="643" 
d="M466 579l-112 -1v-65v-171v-288q0 -62 -53 -62q-51 0 -51 51v40.5t1 93.5q1 120 0 124h-14q-206 0 -207 181q-2 90 54 143t153 53h192h42h42q59 -2 59 -54v-78v-155v-340q0 -54 -52 -54q-53 0 -53 64z" />
    <glyph glyph-name="periodcentered" unicode="&#xb7;" horiz-adv-x="219" 
d="M105 172q-29 0 -47 18t-18 47q0 30 20 50t51 20q29 0 48 -19q20 -20 20 -48q0 -31 -20 -49t-53 -18z" />
    <glyph glyph-name="cedilla" unicode="&#xb8;" horiz-adv-x="265" 
d="M103 1l60 1l-15 -49q29 0 53 -21t24 -61q0 -47 -30 -74t-76 -27q-32 0 -55 13q-24 10 -24 35q0 14 9 23t21 9q9 0 24 -7t28 -7q35 0 35 33q0 29 -38 29l-15 1q-16 0 -23 16q-8 16 -3 33z" />
    <glyph glyph-name="onesuperior" unicode="&#xb9;" horiz-adv-x="255" 
d="M76 625q-11 -6 -21 -6q-14 0 -24 12q-10 11 -10 25q0 22 22 35l74 52q19 13 38 13q16 0 27 -10q12 -11 12 -22v-52v-54v-216q0 -15 -12 -24t-28 -9q-40 0 -40 37q0 11 0.5 40t1.5 76t1.5 79.5t0.5 51.5q-7 -5 -16.5 -12.5t-23.5 -16.5z" />
    <glyph glyph-name="ordmasculine" unicode="&#xba;" horiz-adv-x="395" 
d="M366 491q0 -71 -48 -117q-49 -47 -124 -47q-71 0 -118 46q-48 46 -48 111q0 76 48 126q48 49 119 49q76 -2 123 -46q48 -45 48 -121v-1zM109 485q0 -39 25 -64t60 -25q37 0 63 27q25 26 25 69t-24 69t-61 26q-38 0 -62 -27t-24 -73z" />
    <glyph glyph-name="guillemotright" unicode="&#xbb;" horiz-adv-x="498" 
d="M46 349q-15 16 -15 30t13 26t27 12q16 0 30 -12q94 -89 129 -126q21 -21 21 -45q0 -26 -24 -48l-128 -121q-17 -14 -33 -12q-14 1 -25 13q-12 12 -12 23q0 18 16 34l101 113zM263 347q-15 16 -15 30t13 26t27 12q16 0 30 -12q94 -89 129 -126q21 -21 21 -45
q0 -26 -24 -48l-128 -121q-17 -14 -33 -12q-14 1 -25 13q-12 12 -12 23q0 18 16 34l101 113z" />
    <glyph glyph-name="onequarter" unicode="&#xbc;" horiz-adv-x="771" 
d="M607 195q0 40 34 40q38 0 40 -29v-63h30q33 0 33 -33q0 -41 -31 -41h-32v-41q0 -31 -38 -33q-36 0 -36 31v42h-132q-18 0 -30 15t-12 31q0 25 19 53l105 193q13 25 36 25q16 0 32 -11q15 -11 15 -24q0 -9 -6 -21l-107 -188l79 1v53h1zM500 651q16 27 36 27q16 0 26 -10
q11 -11 11 -24q0 -14 -10 -30q-5 -8 -21 -35t-45 -74t-50.5 -83t-36.5 -62l-201 -343q-13 -22 -33 -22q-14 0 -25 10q-12 10 -12 27q0 12 11 31l352 590zM85 547q-12 -6 -23 -6q-14 0 -24 12q-10 11 -10 25q0 20 22 35l74 52q19 13 38 13q16 0 27 -10q12 -11 12 -22v-105
v-107v-108q0 -15 -11 -24t-27 -9q-40 0 -40 37q0 11 0.5 40t1.5 76t1.5 79.5t0.5 51.5q-3 -2 -6 -4.5t-7 -4.5t-7.5 -4.5t-7.5 -5.5l-12 -9z" />
    <glyph glyph-name="onehalf" unicode="&#xbd;" horiz-adv-x="771" 
d="M496 651q16 27 36 27q16 0 26 -10q11 -11 11 -24q0 -14 -10 -30q-5 -8 -21 -35t-45 -74t-50.5 -83t-36.5 -62l-201 -343q-13 -22 -33 -22q-14 0 -25 10q-12 10 -12 27q0 12 11 31l352 590zM83 547q-12 -6 -23 -6q-14 0 -24 12q-10 11 -10 25q0 20 22 35l74 52
q19 13 38 13q16 0 27 -10q12 -11 12 -22v-105v-107v-108q0 -15 -11 -24t-27 -9q-40 0 -40 37q0 11 0.5 40t1.5 76t1.5 79.5t0.5 51.5q-3 -2 -6 -4.5t-7 -4.5t-7.5 -4.5t-7.5 -5.5l-12 -9zM592 300q-28 0 -52 -26q-13 -16 -36 -16q-14 0 -24 12q-10 11 -10 28q0 22 30 45
q40 35 91 35q58 1 98 -32q39 -33 39 -88v-9.5t-1 -9.5q-2 -9 -6 -18q-5 -9 -6 -15q-2 -7 -10 -15t-12 -14q-3 -5 -15 -15q-6 -5 -9.5 -8.5l-5.5 -5.5t-6 -5.5l-12 -10.5l-12 -10.5t-6 -5.5l-50 -47h57h45h21q36 0 36 -38q0 -39 -40 -39h-63h-128q-19 0 -29 12q-11 13 -11 31
q0 30 27 54l92 88q11 11 19 18t13 12q9 9 18 24t9 27q0 19 -15 33q-14 13 -38 13z" />
    <glyph glyph-name="threequarters" unicode="&#xbe;" horiz-adv-x="801" 
d="M637 195q0 40 34 40q38 0 40 -29v-63h30q33 0 33 -33q0 -41 -31 -41h-32v-41q0 -31 -38 -33q-36 0 -36 31v42h-132q-18 0 -30 15t-12 31q0 25 19 53l105 193q13 25 36 25q16 0 32 -11q15 -11 15 -24q0 -9 -6 -21l-107 -188l79 1v53h1zM543 651q16 27 36 27q16 0 26 -10
q11 -11 11 -24q0 -14 -10 -30q-5 -8 -21 -35t-45 -74t-50.5 -83t-36.5 -62l-201 -343q-13 -22 -33 -22q-14 0 -25 10q-12 10 -12 27q0 12 11 31l352 590zM217 418q0 49 -67 49h-23q-31 0 -31 36q0 15 17 32q27 27 44.5 44t25.5 24h-65.5t-37.5 -1q-39 0 -39 37q0 15 9 26
t26 11h66h116q34 0 34 -35q0 -21 -18 -37l-77 -78q42 -3 71 -31q30 -29 30 -73q1 -61 -38 -96q-40 -35 -101 -35q-56 0 -93 22q-28 15 -28 40q0 16 11 27t24 11t34 -10q26 -14 50 -14q27 0 44 14t17 39z" />
    <glyph glyph-name="questiondown" unicode="&#xbf;" horiz-adv-x="487" 
d="M440 -125q0 -27 -29 -47q-80 -61 -169 -61t-152 54t-63 138q0 32 12 59t36 48t42 33q9 6 21 13.5t27 15.5q47 27 47 62q2 10 -1 15q-3 6 -3 14q0 20 14 32q13 12 36 12q30 0 47 -21q17 -22 17 -58q0 -70 -79 -113q-29 -17 -39 -24q-5 -4 -12.5 -9t-17.5 -13
q-20 -15 -27 -30q-7 -14 -7 -34q0 -41 31 -66q32 -26 78 -26q49 0 96 36q28 22 51 22q18 0 33 -16q15 -17 15 -34zM326 396q0 -28 -21 -46t-51 -18t-49 18t-19 46q0 31 20 48t50 17q31 0 51 -17q19 -16 19 -45v-3z" />
    <glyph glyph-name="Agrave" unicode="&#xc0;" horiz-adv-x="649" 
d="M19 45q0 20 17 57l99 230l123 307q16 39 63 39q52 0 67 -41q8 -20 24.5 -61t40.5 -104q48 -125 66 -168q1 -1 7 -13q7 -14 8 -18q49 -125 81 -198q9 -20 9 -36t-18 -31t-43 -15q-22 0 -34 9t-21 31q-50 127 -51 138q-17 1 -60.5 1h-112.5h-98q-2 -5 -7.5 -20t-14.5 -40
t-15.5 -42t-11.5 -28q-11 -25 -21 -35q-11 -11 -31 -11q-26 0 -45 13t-19 39zM321 543q-7 -21 -33 -92t-72 -194q63 0 114 0.5t93 1.5l-101 284h-1zM332 734q-31 29 -55.5 54t-42.5 45q-15 16 -15 33q0 16 17 31q16 15 33 15q24 0 39 -20l83 -107q10 -13 10 -27
q0 -13 -12 -25t-25 -12q-15 0 -31 11z" />
    <glyph glyph-name="Aacute" unicode="&#xc1;" horiz-adv-x="649" 
d="M19 45q0 20 17 57l99 230l123 307q16 39 63 39q52 0 67 -41q8 -20 24.5 -61t40.5 -104q48 -125 66 -168q1 -1 7 -13q7 -14 8 -18q49 -125 81 -198q9 -20 9 -36t-18 -31t-43 -15q-22 0 -34 9t-21 31q-50 127 -51 138q-17 1 -60.5 1h-112.5h-98q-2 -5 -7.5 -20t-14.5 -40
t-15.5 -42t-11.5 -28q-11 -25 -21 -35q-11 -11 -31 -11q-26 0 -45 13t-19 39zM321 543q-7 -21 -33 -92t-72 -194q63 0 114 0.5t93 1.5l-101 284h-1zM313 729q-14 -11 -29 -11q-12 0 -27 12t-15 26q0 12 10 26l90 104q18 21 37 21t36 -15t17 -34q0 -15 -16 -32
q-46 -49 -103 -97z" />
    <glyph glyph-name="Acircumflex" unicode="&#xc2;" horiz-adv-x="649" 
d="M19 45q0 20 17 57l99 230l123 307q16 39 63 39q52 0 67 -41q8 -20 24.5 -61t40.5 -104q48 -125 66 -168q1 -1 7 -13q7 -14 8 -18q49 -125 81 -198q9 -20 9 -36t-18 -31t-43 -15q-22 0 -34 9t-21 31q-50 127 -51 138q-17 1 -60.5 1h-112.5h-98q-2 -5 -7.5 -20t-14.5 -40
t-15.5 -42t-11.5 -28q-11 -25 -21 -35q-11 -11 -31 -11q-26 0 -45 13t-19 39zM321 543q-7 -21 -33 -92t-72 -194q63 0 114 0.5t93 1.5l-101 284h-1zM428 714q-15 0 -29 14q-11 11 -30 29.5t-45 46.5q-66 -71 -75 -77q-13 -13 -30 -13q-12 0 -24 12t-12 24q0 14 12 29l86 95
q18 19 43 19q22 0 39 -18q51 -53 87 -96q13 -14 13 -28q0 -11 -12 -23t-25 -12z" />
    <glyph glyph-name="Atilde" unicode="&#xc3;" horiz-adv-x="649" 
d="M19 45q0 20 17 57l99 230l123 307q16 39 63 39q52 0 67 -41q8 -20 24.5 -61t40.5 -104q48 -125 66 -168q1 -1 7 -13q7 -14 8 -18q49 -125 81 -198q9 -20 9 -36t-18 -31t-43 -15q-22 0 -34 9t-21 31q-50 127 -51 138q-17 1 -60.5 1h-112.5h-98q-2 -5 -7.5 -20t-14.5 -40
t-15.5 -42t-11.5 -28q-11 -25 -21 -35q-11 -11 -31 -11q-26 0 -45 13t-19 39zM321 543q-7 -21 -33 -92t-72 -194q63 0 114 0.5t93 1.5l-101 284h-1zM234 763q-2 -26 -36 -26q-17 0 -27 12t-12 32q3 39 29 64q25 24 66 24q27 0 48 -15q11 -8 20.5 -15t17.5 -15q16 -14 33 -16
q24 0 26 32q4 28 39 28q16 0 26 -10q11 -11 11 -25q0 -50 -25 -75t-67 -25q-34 1 -67 30q-33 28 -51 30q-25 0 -30 -29z" />
    <glyph glyph-name="Adieresis" unicode="&#xc4;" horiz-adv-x="649" 
d="M19 45q0 20 17 57l99 230l123 307q16 39 63 39q52 0 67 -41q8 -20 24.5 -61t40.5 -104q48 -125 66 -168q1 -1 7 -13q7 -14 8 -18q49 -125 81 -198q9 -20 9 -36t-18 -31t-43 -15q-22 0 -34 9t-21 31q-50 127 -51 138q-17 1 -60.5 1h-112.5h-98q-2 -5 -7.5 -20t-14.5 -40
t-15.5 -42t-11.5 -28q-11 -25 -21 -35q-11 -11 -31 -11q-26 0 -45 13t-19 39zM321 543q-7 -21 -33 -92t-72 -194q63 0 114 0.5t93 1.5l-101 284h-1zM233 739q-25 0 -40 17q-15 16 -15 42q0 25 17 42t44 17q26 0 42 -16t16 -42q0 -25 -17 -42q-16 -16 -45 -16zM396 740
q-23 0 -40 17q-16 16 -16 41t18 42q19 17 44 17q26 0 42 -16t16 -42q0 -25 -17 -42q-16 -16 -45 -16z" />
    <glyph glyph-name="Aring" unicode="&#xc5;" horiz-adv-x="649" 
d="M321 846q46 0 80 -29q33 -29 33 -75q0 -30 -15 -55q-15 -26 -39 -39q7 -13 8 -15q8 -20 24.5 -60.5t40.5 -101.5t40.5 -102t25.5 -64l14 -31q58 -146 81 -198q9 -20 9 -36t-18 -31t-43 -15q-22 0 -34 9t-21 31q-50 127 -51 138q-17 1 -60.5 1h-112.5h-98q-2 -5 -7.5 -20
t-14.5 -40t-15.5 -42t-11.5 -28q-11 -25 -21 -35q-11 -11 -31 -11q-26 0 -45 13t-19 39q0 20 17 57l99 230l121 301l3.5 7t3.5 5q-56 29 -56 90q0 50 36 80t81 30zM319 543q-7 -21 -33 -92t-72 -194q63 0 114 0.5t93 1.5l-101 284h-1zM370 742q-2 23 -16 36q-16 14 -38 14
q-21 0 -36 -15t-15 -37q0 -25 15 -40t39 -15q23 0 38 17q15 16 15 39z" />
    <glyph glyph-name="AE" unicode="&#xc6;" horiz-adv-x="911" 
d="M12 55q1 19 27 54q38 52 85.5 122t106.5 161t100 152t64 93q28 42 81 40q4 0 43.5 0.5t114.5 1.5t120 1.5t60 0.5q53 0 53 -46q1 -42 -33 -49q-60 -3 -272 -3q-1 -17 -1 -40v-54l-1 -92v-17h40h78h95q52 0 52 -47t-52 -47h-215q-1 -11 -1 -26.5v-35.5v-127h74
q22 0 47.5 0.5t54.5 1.5t51.5 1h38.5q50 0 50 -48q0 -53 -57 -54h-249q-69 0 -93 12q-23 12 -25 54v107l-230 1q-3 -5 -13 -20.5t-27 -42.5t-29 -46t-20 -30q-23 -38 -60 -36q-22 0 -39 17q-17 16 -15 42zM268 259l183 2v38v39l1 75v63v65z" />
    <glyph glyph-name="Ccedilla" unicode="&#xc7;" horiz-adv-x="609" 
d="M327 -11q-118 12 -202 102q-84 89 -82 232q1 81 30 150q28 69 75 114q46 44 105 70q57 25 120 25q85 -2 146 -27q50 -23 50 -57q-2 -25 -13 -39q-12 -16 -35 -14q-19 0 -44 13q-56 24 -111 24q-83 0 -146 -72q-62 -71 -64 -181q-1 -99 62 -167t152 -68q64 -2 123 33
q5 2 11 6l9 6l9 3q8 2 14 2q20 0 32 -18t12 -40q-2 -32 -58 -60q-57 -29 -130 -33l-12 -40q29 0 53 -21t24 -61q0 -47 -30 -74t-76 -27q-32 0 -55 13q-24 10 -24 35q0 14 9 23t21 9q9 0 24 -7t28 -7q35 0 35 33q0 29 -38 29l-15 1q-16 0 -23 16q-8 16 -3 33z" />
    <glyph glyph-name="Egrave" unicode="&#xc8;" horiz-adv-x="546" 
d="M89 628q3 51 71 51h25t19 -1h74t78 1t63.5 1h31.5q54 0 54 -45q2 -43 -31 -50q-11 -1 -68.5 -1h-162.5h-44v-96l-1 -94v-13h40q48 0 162 3q32 0 47 -9q16 -9 14 -38q0 -47 -52 -47h-108h-105q-1 -10 -1 -25.5v-37.5v-63v-64q40 -2 228 0q20 1 32 1.5t17 0.5q44 0 44 -49
q0 -52 -56 -54h-269q-63 0 -84 12t-22 52v37v16v42v60v78v89v121v122h4zM318 737q-31 29 -55.5 54t-42.5 45q-15 16 -15 33q0 16 17 31q16 15 33 15q24 0 39 -20l83 -107q10 -13 10 -27q0 -13 -12 -25t-25 -12q-15 0 -31 11z" />
    <glyph glyph-name="Eacute" unicode="&#xc9;" horiz-adv-x="546" 
d="M89 628q3 51 71 51h25t19 -1h74t78 1t63.5 1h31.5q54 0 54 -45q2 -43 -31 -50q-11 -1 -68.5 -1h-162.5h-44v-96l-1 -94v-13h40q48 0 162 3q32 0 47 -9q16 -9 14 -38q0 -47 -52 -47h-108h-105q-1 -10 -1 -25.5v-37.5v-63v-64q40 -2 228 0q20 1 32 1.5t17 0.5q44 0 44 -49
q0 -52 -56 -54h-269q-63 0 -84 12t-22 52v37v16v42v60v78v89v121v122h4zM300 732q-14 -11 -29 -11q-12 0 -27 12t-15 26q0 12 10 26l90 104q16 21 36 21q19 0 36 -15t17 -34q0 -15 -16 -32q-46 -49 -103 -97h1z" />
    <glyph glyph-name="Ecircumflex" unicode="&#xca;" horiz-adv-x="546" 
d="M89 628q3 51 71 51h25t19 -1h74t78 1t63.5 1h31.5q54 0 54 -45q2 -43 -31 -50q-11 -1 -68.5 -1h-162.5h-44v-96l-1 -94v-13h40q48 0 162 3q32 0 47 -9q16 -9 14 -38q0 -47 -52 -47h-108h-105q-1 -10 -1 -25.5v-37.5v-63v-64q40 -2 228 0q20 1 32 1.5t17 0.5q44 0 44 -49
q0 -52 -56 -54h-269q-63 0 -84 12t-22 52v37v16v42v60v78v89v121v122h4zM413 717q-15 0 -29 14q-11 11 -30 29.5t-45 46.5q-66 -71 -75 -77q-13 -13 -30 -13q-12 0 -24 12t-12 24q0 14 12 29l86 95q18 19 43 19q23 0 40 -18q51 -53 87 -96q13 -14 13 -28q0 -11 -12 -23
t-25 -12z" />
    <glyph glyph-name="Edieresis" unicode="&#xcb;" horiz-adv-x="546" 
d="M89 628q3 51 71 51h25t19 -1h74t78 1t63.5 1h31.5q54 0 54 -45q2 -43 -31 -50q-11 -1 -68.5 -1h-162.5h-44v-96l-1 -94v-13h40q48 0 162 3q32 0 47 -9q16 -9 14 -38q0 -47 -52 -47h-108h-105q-1 -10 -1 -25.5v-37.5v-63v-64q40 -2 228 0q20 1 32 1.5t17 0.5q44 0 44 -49
q0 -52 -56 -54h-269q-63 0 -84 12t-22 52v37v16v42v60v78v89v121v122h4zM219 742q-25 0 -40 17q-15 16 -15 42q0 25 17 42t44 17q26 0 42 -16t16 -42q0 -25 -17 -42q-16 -16 -45 -16zM382 743q-23 0 -40 17q-16 16 -16 41t18 42q19 17 44 17q26 0 42 -16t16 -42
q0 -25 -17 -42q-16 -16 -45 -16z" />
    <glyph glyph-name="Igrave" unicode="&#xcc;" horiz-adv-x="286" 
d="M88 410q0 23 -0.5 77t-1.5 142q0 26 17 40q16 13 42 13q24 0 39 -12t15 -35v-243v-82v-76l1 -183q1 -28 -14 -42q-14 -13 -41 -13q-26 0 -42 13t-16 39v42v47l2 274zM154 736q-31 29 -55.5 54t-42.5 45q-15 16 -15 33q0 16 17 31q16 15 33 15q24 0 39 -20l83 -107
q10 -13 10 -27q0 -13 -12 -25t-25 -12q-15 0 -31 11z" />
    <glyph glyph-name="Iacute" unicode="&#xcd;" horiz-adv-x="286" 
d="M88 410q0 23 -0.5 77t-1.5 142q0 26 17 40q16 13 42 13q24 0 39 -12t15 -35v-243v-82v-76l1 -183q1 -28 -14 -42q-14 -13 -41 -13q-26 0 -42 13t-16 39v42v47l2 274zM135 731q-14 -11 -29 -11q-12 0 -27 12t-15 26q0 12 10 26l90 104q18 21 37 21t36 -15t17 -34
q0 -15 -16 -32q-46 -49 -103 -97z" />
    <glyph glyph-name="Icircumflex" unicode="&#xce;" horiz-adv-x="286" 
d="M88 410q0 23 -0.5 77t-1.5 142q0 26 17 40q16 13 42 13q24 0 39 -12t15 -35v-243v-82v-76l1 -183q1 -28 -14 -42q-14 -13 -41 -13q-26 0 -42 13t-16 39v42v47l2 274zM250 716q-15 0 -29 14q-11 11 -30 29.5t-45 46.5q-66 -71 -75 -77q-13 -13 -30 -13q-12 0 -24 12
t-12 24q0 14 12 29l86 95q18 19 43 19q22 0 39 -18q51 -53 87 -96q13 -14 13 -28q0 -11 -12 -23t-25 -12z" />
    <glyph glyph-name="Idieresis" unicode="&#xcf;" horiz-adv-x="286" 
d="M88 410q0 23 -0.5 77t-1.5 142q0 26 17 40q16 13 42 13q24 0 39 -12t15 -35v-243v-82v-76l1 -183q1 -28 -14 -42q-14 -13 -41 -13q-26 0 -42 13t-16 39v42v47l2 274zM55 741q-25 0 -40 17q-15 16 -15 42q0 25 17 42t44 17q26 0 42 -16t16 -42q0 -25 -17 -42
q-16 -16 -45 -16zM218 742q-23 0 -40 17q-16 16 -16 41t18 42q19 17 44 17q26 0 42 -16t16 -42q0 -25 -17 -42q-16 -16 -45 -16z" />
    <glyph glyph-name="Eth" unicode="&#xd0;" horiz-adv-x="685" 
d="M77 610q0 69 102 69h33h55h31q149 -5 248 -87q99 -83 99 -231q0 -359 -380 -362q-100 0 -133 3q-23 2 -38 20t-15 44l1 215h-29q-47 0 -47 47q0 48 51 48h25l-2 236zM280 579q-33 0 -55.5 -0.5t-33.5 -1.5v-203h76q48 0 48 -47q0 -49 -55 -49h-69v-156q0 -17 12 -20
t55 -3q277 0 277 250q0 114 -73 172t-183 58h1z" />
    <glyph glyph-name="Ntilde" unicode="&#xd1;" horiz-adv-x="713" 
d="M188 58q0 -62 -53 -62q-56 0 -58 50v93t1 157v224v110q0 22 20 36t47 14q23 0 38 -12q16 -13 33 -37l233 -329l80 -114q-1 52 -1.5 102.5t-0.5 100.5l-2 220q-1 34 11 53q12 18 45 18q53 0 53 -64v-168v-167q1 -54 1.5 -111.5t0.5 -119.5q0 -24 -19 -39q-20 -15 -48 -15
q-20 0 -34 11q-13 10 -33 38l-318 455q0 -16 1 -126t3 -318zM269 766q-2 -26 -36 -26q-17 0 -27 12t-12 32q3 39 29 64q25 24 66 24q27 0 48 -15q11 -8 20.5 -15t17.5 -15q16 -14 33 -16q24 0 26 32q4 28 39 28q16 0 26 -10q11 -11 11 -25q0 -50 -25 -75t-67 -25
q-34 1 -67 30q-33 28 -51 30q-25 0 -30 -29z" />
    <glyph glyph-name="Ograve" unicode="&#xd2;" horiz-adv-x="745" 
d="M374 684q134 0 232 -96q97 -96 97 -243q0 -150 -94 -253t-237 -103q-130 0 -229 93t-99 241q0 160 101 263q100 102 230 100zM591 344q-1 104 -69 172q-67 67 -159 67q-86 0 -147 -72q-62 -73 -62 -180t64 -172q64 -66 159 -66q90 0 153 75q63 76 62 175zM381 736
q-31 29 -55.5 54t-42.5 45q-15 16 -15 33q0 16 17 31q16 15 33 15q24 0 39 -20l83 -107q10 -13 10 -27q0 -13 -12 -25t-25 -12q-15 0 -31 11z" />
    <glyph glyph-name="Oacute" unicode="&#xd3;" horiz-adv-x="745" 
d="M374 684q134 0 232 -96q97 -96 97 -243q0 -150 -94 -253t-237 -103q-130 0 -229 93t-99 241q0 160 101 263q100 102 230 100zM591 344q-1 104 -69 172q-67 67 -159 67q-86 0 -147 -72q-62 -73 -62 -180t64 -172q64 -66 159 -66q90 0 153 75q63 76 62 175zM362 731
q-14 -11 -29 -11q-12 0 -27 12t-15 26q0 12 10 26l90 104q18 21 37 21t36 -15t17 -34q0 -15 -16 -32q-46 -49 -103 -97z" />
    <glyph glyph-name="Ocircumflex" unicode="&#xd4;" horiz-adv-x="745" 
d="M374 684q134 0 232 -96q97 -96 97 -243q0 -150 -94 -253t-237 -103q-130 0 -229 93t-99 241q0 160 101 263q100 102 230 100zM591 344q-1 104 -69 172q-67 67 -159 67q-86 0 -147 -72q-62 -73 -62 -180t64 -172q64 -66 159 -66q90 0 153 75q63 76 62 175zM477 716
q-15 0 -29 14q-11 11 -30 29.5t-45 46.5q-66 -71 -75 -77q-13 -13 -30 -13q-12 0 -24 12t-12 24q0 14 12 29l86 95q18 19 43 19q22 0 39 -18q51 -53 87 -96q13 -14 13 -28q0 -11 -12 -23t-25 -12z" />
    <glyph glyph-name="Otilde" unicode="&#xd5;" horiz-adv-x="745" 
d="M374 684q134 0 232 -96q97 -96 97 -243q0 -150 -94 -253t-237 -103q-130 0 -229 93t-99 241q0 160 101 263q100 102 230 100zM591 344q-1 104 -69 172q-67 67 -159 67q-86 0 -147 -72q-62 -73 -62 -180t64 -172q64 -66 159 -66q90 0 153 75q63 76 62 175zM283 765
q-2 -26 -36 -26q-17 0 -27 12t-12 32q3 39 29 64q25 24 66 24q27 0 48 -15q11 -8 20.5 -15t17.5 -15q16 -14 33 -16q24 0 26 32q4 28 39 28q16 0 26 -10q11 -11 11 -25q0 -50 -25 -75t-67 -25q-34 1 -67 30q-33 28 -51 30q-25 0 -30 -29z" />
    <glyph glyph-name="Odieresis" unicode="&#xd6;" horiz-adv-x="745" 
d="M374 684q134 0 232 -96q97 -96 97 -243q0 -150 -94 -253t-237 -103q-130 0 -229 93t-99 241q0 160 101 263q100 102 230 100zM591 344q-1 104 -69 172q-67 67 -159 67q-86 0 -147 -72q-62 -73 -62 -180t64 -172q64 -66 159 -66q90 0 153 75q63 76 62 175zM282 741
q-25 0 -40 17q-15 16 -15 42q0 25 17 42t44 17q26 0 42 -16t16 -42q0 -25 -17 -42q-16 -16 -45 -16zM445 742q-23 0 -40 17q-16 16 -16 41t18 42q19 17 44 17q26 0 42 -16t16 -42q0 -25 -17 -42q-16 -16 -45 -16z" />
    <glyph glyph-name="multiply" unicode="&#xd7;" horiz-adv-x="490" 
d="M141 227l39 42l-118 121q-15 16 -15 36q0 16 16 31t33 15q22 1 43 -21l104 -117l95 108q29 32 48 32t36 -15t17 -33q0 -5 -2 -13q-1 -6 -8 -14q-3 -4 -5.5 -7t-4.5 -5l-15 -15l-15 -15l-83 -89l114 -114q20 -20 20 -41q0 -17 -16 -32q-17 -15 -36 -15q-20 0 -45 30
l-99 108l-100 -111q-25 -28 -45 -28t-36 15q-17 15 -17 32q0 19 14 33z" />
    <glyph glyph-name="Oslash" unicode="&#xd8;" horiz-adv-x="745" 
d="M372 688q82 0 153 -38l24 37q10 16 28 16q13 0 24 -10q12 -11 12 -22t-6 -18l-26 -40q57 -48 89 -115q33 -69 33 -150q0 -150 -94 -253t-237 -103q-87 0 -166 45l-31 -48q-10 -16 -25 -16q-13 0 -25 9t-12 21q0 9 8 22l31 49q-108 94 -108 249q0 160 101 263
q100 102 230 100zM591 347q-2 106 -72 173l-256 -392q50 -31 112 -31q90 0 153 75q63 76 62 175h1zM153 336q0 -100 60 -166l253 390q-51 27 -103 27q-86 0 -147 -72q-62 -73 -62 -180z" />
    <glyph glyph-name="Ugrave" unicode="&#xd9;" horiz-adv-x="688" 
d="M77 278v186v156q0 55 53 55q32 0 45 -13t13 -43q-1 -31 -1 -115.5v-224.5q0 -92 42 -137t119 -45q71 0 113 52q43 53 44 132q1 12 0 171q-1 80 -1 123v51q0 53 57 53q28 0 42 -15q13 -14 13 -49l2 -311q0 -145 -73 -227q-74 -83 -204 -83q-121 0 -193 75t-72 210z
M361 736q-31 29 -55.5 54t-42.5 45q-15 16 -15 33q0 16 17 31q16 15 33 15q24 0 39 -20l83 -107q10 -13 10 -27q0 -13 -12 -25t-25 -12q-15 0 -31 11z" />
    <glyph glyph-name="Uacute" unicode="&#xda;" horiz-adv-x="688" 
d="M77 278v186v156q0 55 53 55q32 0 45 -13t13 -43q-1 -31 -1 -115.5v-224.5q0 -92 42 -137t119 -45q71 0 113 52q43 53 44 132q1 12 0 171q-1 80 -1 123v51q0 53 57 53q28 0 42 -15q13 -14 13 -49l2 -311q0 -145 -73 -227q-74 -83 -204 -83q-121 0 -193 75t-72 210z
M343 731q-14 -11 -29 -11q-12 0 -27 12t-15 26q0 12 10 26l90 104q16 21 36 21q19 0 36 -15t17 -34q0 -15 -16 -32q-46 -49 -103 -97h1z" />
    <glyph glyph-name="Ucircumflex" unicode="&#xdb;" horiz-adv-x="688" 
d="M77 278v186v156q0 55 53 55q32 0 45 -13t13 -43q-1 -31 -1 -115.5v-224.5q0 -92 42 -137t119 -45q71 0 113 52q43 53 44 132q1 12 0 171q-1 80 -1 123v51q0 53 57 53q28 0 42 -15q13 -14 13 -49l2 -311q0 -145 -73 -227q-74 -83 -204 -83q-121 0 -193 75t-72 210z
M456 716q-15 0 -29 14q-11 11 -30 29.5t-45 46.5q-66 -71 -75 -77q-13 -13 -30 -13q-12 0 -24 12t-12 24q0 14 12 29l86 95q18 19 43 19q23 0 40 -18q51 -53 87 -96q13 -14 13 -28q0 -11 -12 -23t-25 -12z" />
    <glyph glyph-name="Udieresis" unicode="&#xdc;" horiz-adv-x="688" 
d="M77 278v186v156q0 55 53 55q32 0 45 -13t13 -43q-1 -31 -1 -115.5v-224.5q0 -92 42 -137t119 -45q71 0 113 52q43 53 44 132q1 12 0 171q-1 80 -1 123v51q0 53 57 53q28 0 42 -15q13 -14 13 -49l2 -311q0 -145 -73 -227q-74 -83 -204 -83q-121 0 -193 75t-72 210z
M262 741q-25 0 -40 17q-15 16 -15 42q0 25 17 42t44 17q26 0 42 -16t16 -42q0 -25 -17 -42q-16 -16 -45 -16zM425 742q-23 0 -40 17q-16 16 -16 41t18 42q19 17 44 17q26 0 42 -16t16 -42q0 -25 -17 -42q-16 -16 -45 -16z" />
    <glyph glyph-name="Yacute" unicode="&#xdd;" horiz-adv-x="607" 
d="M238 280l-201 307q-16 23 -16 39q0 23 18 38t41 15q26 0 47 -32l179 -286q3 5 7.5 11.5t10.5 16.5q12 19 57 93q45 73 102 165q20 32 48 32q21 0 39 -15t18 -34q0 -18 -15 -40l-215 -327v-222q0 -22 -16 -34q-17 -12 -39 -12q-25 0 -40 15t-15 40v36v37v78v63zM299 730
q-14 -11 -29 -11q-12 0 -27 12t-15 26q0 12 10 26l90 104q16 21 36 21q19 0 36 -15t17 -34q0 -15 -16 -32q-46 -49 -103 -97h1z" />
    <glyph glyph-name="Thorn" unicode="&#xde;" horiz-adv-x="574" 
d="M75 610q1 39 15 57q13 18 45 18q57 0 57 -65v-67l99 2q119 2 189 -49q71 -51 68 -163q-1 -71 -48 -127q-46 -55 -122 -72q-31 -7 -170 -7h-18v-85q0 -56 -55 -57q-56 0 -56 56v108v118zM188 234q100 -2 141 3q103 12 105 110q1 66 -41 90t-114 24q-24 0 -46.5 -0.5
t-43.5 -1.5z" />
    <glyph glyph-name="germandbls" unicode="&#xdf;" horiz-adv-x="584" 
d="M275 330q0 31 24 60q24 28 48 54q24 25 24 51q0 79 -95 79q-48 0 -75 -38q-26 -37 -28 -108q0 -7 0.5 -46.5t1.5 -112.5q2 -146 0 -209q0 -39 -13 -53t-45 -16q-50 0 -51 63v48v114v195q0 130 60 198q60 67 160 67q87 0 137 -46q51 -47 51 -126q0 -34 -24 -67t-48 -57
t-24 -37q0 -5 2 -11q1 -3 5 -9t6 -8t4 -3.5t5 -3.5q6 -5 9 -6q2 -1 4.5 -2t6.5 -3t6.5 -3t4.5 -2t4.5 -2l7.5 -3t7.5 -2.5t4.5 -1.5q98 -42 98 -133q0 -72 -45 -115q-44 -43 -127 -43q-59 0 -96 15t-37 41q0 53 43 53q14 0 41 -7t56 -7q30 0 48 15t18 42q0 29 -20 47
q-20 19 -60 32q-44 15 -69 40t-25 72z" />
    <glyph glyph-name="agrave" unicode="&#xe0;" horiz-adv-x="572" 
d="M505 169q0 -35 1 -67t3 -61q0 -46 -57 -46q-23 0 -33 18q-10 17 -16 60q-47 -80 -147 -80q-97 0 -157 64t-60 159q0 108 66 177t165 69q89 0 135 -70q0 2 3 17q2 8 2.5 13t1.5 7q10 31 44 31q52 0 52 -61l-1 -77zM151 217q0 -56 35 -94q34 -37 86 -37q55 0 93 39
q38 40 38 102q0 65 -37 102q-38 38 -90 38q-54 0 -90 -42t-36 -108h1zM288 546q-31 29 -55.5 54t-42.5 45q-15 16 -15 33q0 16 17 31q16 15 33 15q24 0 39 -20l83 -107q10 -13 10 -27q0 -13 -12 -25t-25 -12q-15 0 -31 11z" />
    <glyph glyph-name="aacute" unicode="&#xe1;" horiz-adv-x="572" 
d="M505 169q0 -35 1 -67t3 -61q0 -46 -57 -46q-23 0 -33 18q-10 17 -16 60q-47 -80 -147 -80q-97 0 -157 64t-60 159q0 108 66 177t165 69q89 0 135 -70q0 2 3 17q2 8 2.5 13t1.5 7q10 31 44 31q52 0 52 -61l-1 -77zM151 217q0 -56 35 -94q34 -37 86 -37q55 0 93 39
q38 40 38 102q0 65 -37 102q-38 38 -90 38q-54 0 -90 -42t-36 -108h1zM270 541q-14 -11 -29 -11q-12 0 -27 12t-15 26q0 12 10 26l90 104q16 21 36 21q19 0 36 -15t17 -34q0 -15 -16 -32q-46 -49 -103 -97h1z" />
    <glyph glyph-name="acircumflex" unicode="&#xe2;" horiz-adv-x="572" 
d="M505 169q0 -35 1 -67t3 -61q0 -46 -57 -46q-23 0 -33 18q-10 17 -16 60q-47 -80 -147 -80q-97 0 -157 64t-60 159q0 108 66 177t165 69q89 0 135 -70q0 2 3 17q2 8 2.5 13t1.5 7q10 31 44 31q52 0 52 -61l-1 -77zM151 217q0 -56 35 -94q34 -37 86 -37q55 0 93 39
q38 40 38 102q0 65 -37 102q-38 38 -90 38q-54 0 -90 -42t-36 -108h1zM383 526q-15 0 -29 14q-11 11 -30 29.5t-45 46.5q-66 -71 -75 -77q-13 -13 -30 -13q-12 0 -24 12t-12 24q0 14 12 29l86 95q18 19 43 19q23 0 40 -18q51 -53 87 -96q13 -14 13 -28q0 -11 -12 -23
t-25 -12z" />
    <glyph glyph-name="atilde" unicode="&#xe3;" horiz-adv-x="572" 
d="M505 169q0 -35 1 -67t3 -61q0 -46 -57 -46q-23 0 -33 18q-10 17 -16 60q-47 -80 -147 -80q-97 0 -157 64t-60 159q0 108 66 177t165 69q89 0 135 -70q0 2 3 17q2 8 2.5 13t1.5 7q10 31 44 31q52 0 52 -61l-1 -77zM151 217q0 -56 35 -94q34 -37 86 -37q55 0 93 39
q38 40 38 102q0 65 -37 102q-38 38 -90 38q-54 0 -90 -42t-36 -108h1zM190 575q-2 -26 -36 -26q-17 0 -27 12t-12 32q3 39 29 64q25 24 66 24q27 0 48 -15q11 -8 20.5 -15t17.5 -15q16 -14 33 -16q24 0 26 32q4 28 39 28q16 0 26 -10q11 -11 11 -25q0 -50 -25 -75t-67 -25
q-34 1 -67 30q-33 28 -51 30q-25 0 -30 -29z" />
    <glyph glyph-name="adieresis" unicode="&#xe4;" horiz-adv-x="572" 
d="M505 169q0 -35 1 -67t3 -61q0 -46 -57 -46q-23 0 -33 18q-10 17 -16 60q-47 -80 -147 -80q-97 0 -157 64t-60 159q0 108 66 177t165 69q89 0 135 -70q0 2 3 17q2 8 2.5 13t1.5 7q10 31 44 31q52 0 52 -61l-1 -77zM151 217q0 -56 35 -94q34 -37 86 -37q55 0 93 39
q38 40 38 102q0 65 -37 102q-38 38 -90 38q-54 0 -90 -42t-36 -108h1zM189 551q-25 0 -40 17q-15 16 -15 42q0 25 17 42t44 17q26 0 42 -16t16 -42q0 -25 -17 -42q-16 -16 -45 -16zM352 552q-23 0 -40 17q-16 16 -16 41t18 42q19 17 44 17q26 0 42 -16t16 -42q0 -25 -17 -42
q-16 -16 -45 -16z" />
    <glyph glyph-name="aring" unicode="&#xe5;" horiz-adv-x="572" 
d="M505 169q0 -35 1 -67t3 -61q0 -46 -57 -46q-23 0 -33 18q-10 17 -16 60q-47 -80 -147 -80q-97 0 -157 64t-60 159q0 108 66 177t165 69q89 0 135 -70q0 2 3 17q2 8 2.5 13t1.5 7q10 31 44 31q52 0 52 -61l-1 -77zM151 217q0 -56 35 -94q34 -37 86 -37q55 0 93 39
q38 40 38 102q0 65 -37 102q-38 38 -90 38q-54 0 -90 -42t-36 -108h1zM275 734q46 0 80 -29q33 -29 33 -75q0 -47 -33 -80t-81 -33q-45 0 -79 30t-34 77q0 50 36 80t80 30h-2zM323 626q0 22 -15 36q-16 14 -39 14q-20 0 -35 -15t-15 -37q0 -24 15 -37q14 -13 39 -13
q23 0 38 16q15 17 14 39z" />
    <glyph glyph-name="ae" unicode="&#xe6;" horiz-adv-x="813" 
d="M464 205q1 -44 35 -78q33 -33 83 -33q54 0 97 26q30 13 39 13q17 0 30 -16q14 -17 14 -36q0 -35 -54 -60q-53 -25 -136 -25q-51 0 -99 27q-47 26 -70 68q-59 -96 -171 -96q-85 0 -139 36t-54 104q0 65 50 101q50 37 135 38q20 0 50.5 -1t71.5 -3q-2 47 -33 74
q-32 27 -79 27q-26 0 -66 -12q-20 -6 -31.5 -9t-13.5 -4q-21 -3 -36 10t-15 34q0 25 24 42q58 34 148 33q55 0 98 -25q44 -26 66 -67q25 40 72 66t97 26q85 0 142 -57t57 -129q0 -43 -14 -60t-63 -18h-165zM579 377q-49 0 -81 -31t-37 -75q10 1 31.5 1h55.5h92q34 0 34 7
q0 41 -27 70q-27 28 -66 28h-2zM237 86q42 0 74 27q31 27 36 68l3 22q-47 3 -117 3q-90 0 -90 -61q0 -29 26 -44q25 -15 66 -15h2z" />
    <glyph glyph-name="ccedilla" unicode="&#xe7;" horiz-adv-x="449" 
d="M218 -6q-86 15 -134 80q-48 64 -48 138q1 99 68 176q66 77 170 77q68 0 120 -32q22 -15 22 -40q0 -20 -12 -36t-32 -16q-13 0 -43 14q-27 11 -58 11q-52 0 -88 -45t-36 -98q0 -57 35 -95t87 -38q40 0 75 20q30 15 40 15q17 0 31 -18q13 -17 13 -37q0 -23 -19 -36
q-50 -40 -127 -43l-12 -38q29 0 53 -21t24 -61q0 -47 -30 -74t-76 -27q-32 0 -55 13q-24 10 -24 35q0 14 9 23t21 9q9 0 24 -7t28 -7q35 0 35 33q0 29 -38 29l-15 1q-16 0 -23 16q-8 16 -3 33z" />
    <glyph glyph-name="egrave" unicode="&#xe8;" horiz-adv-x="511" 
d="M150 197q3 -46 38 -78t84 -32q52 0 97 27q22 13 39 13q19 0 32 -16q14 -17 14 -36q0 -26 -30 -45q-61 -40 -161 -40q-92 0 -157 65q-65 64 -66 156q0 106 66 180t164 74q85 0 144 -56t59 -128q0 -43 -15 -61t-64 -19q-13 -1 -27 -1h-30h-87h-99zM269 372q-47 0 -81 -32
q-33 -32 -38 -74q75 0 125.5 1t78.5 3q12 1 12 9q0 40 -28 67q-29 27 -67 27zM273 543q-31 29 -55.5 54t-42.5 45q-15 16 -15 33q0 16 17 31q16 15 33 15q24 0 39 -20l83 -107q10 -13 10 -27q0 -13 -12 -25t-25 -12q-15 0 -31 11z" />
    <glyph glyph-name="eacute" unicode="&#xe9;" horiz-adv-x="511" 
d="M150 197q3 -46 38 -78t84 -32q52 0 97 27q22 13 39 13q19 0 32 -16q14 -17 14 -36q0 -26 -30 -45q-61 -40 -161 -40q-92 0 -157 65q-65 64 -66 156q0 106 66 180t164 74q85 0 144 -56t59 -128q0 -43 -15 -61t-64 -19q-13 -1 -27 -1h-30h-87h-99zM269 372q-47 0 -81 -32
q-33 -32 -38 -74q75 0 125.5 1t78.5 3q12 1 12 9q0 40 -28 67q-29 27 -67 27zM255 538q-14 -11 -29 -11q-12 0 -27 12t-15 26q0 12 10 26l90 104q16 21 36 21q19 0 36 -15t17 -34q0 -15 -16 -32q-46 -49 -103 -97h1z" />
    <glyph glyph-name="ecircumflex" unicode="&#xea;" horiz-adv-x="511" 
d="M150 197q3 -46 38 -78t84 -32q52 0 97 27q22 13 39 13q19 0 32 -16q14 -17 14 -36q0 -26 -30 -45q-61 -40 -161 -40q-92 0 -157 65q-65 64 -66 156q0 106 66 180t164 74q85 0 144 -56t59 -128q0 -43 -15 -61t-64 -19q-13 -1 -27 -1h-30h-87h-99zM269 372q-47 0 -81 -32
q-33 -32 -38 -74q75 0 125.5 1t78.5 3q12 1 12 9q0 40 -28 67q-29 27 -67 27zM368 523q-15 0 -29 14q-11 11 -30 29.5t-45 46.5q-66 -71 -75 -77q-13 -13 -30 -13q-12 0 -24 12t-12 24q0 14 12 29l86 95q18 19 43 19q23 0 40 -18q51 -53 87 -96q13 -14 13 -28q0 -11 -12 -23
t-25 -12z" />
    <glyph glyph-name="edieresis" unicode="&#xeb;" horiz-adv-x="511" 
d="M150 197q3 -46 38 -78t84 -32q52 0 97 27q22 13 39 13q19 0 32 -16q14 -17 14 -36q0 -26 -30 -45q-61 -40 -161 -40q-92 0 -157 65q-65 64 -66 156q0 106 66 180t164 74q85 0 144 -56t59 -128q0 -43 -15 -61t-64 -19q-13 -1 -27 -1h-30h-87h-99zM269 372q-47 0 -81 -32
q-33 -32 -38 -74q75 0 125.5 1t78.5 3q12 1 12 9q0 40 -28 67q-29 27 -67 27zM174 548q-25 0 -40 17q-15 16 -15 42q0 25 17 42t44 17q26 0 42 -16t16 -42q0 -25 -17 -42q-16 -16 -45 -16zM337 549q-23 0 -40 17q-16 16 -16 41t18 42q19 17 44 17q26 0 42 -16t16 -42
q0 -25 -17 -42q-16 -16 -45 -16z" />
    <glyph glyph-name="igrave" unicode="&#xec;" horiz-adv-x="252" 
d="M71 412q2 26 17 38t36 12q28 0 42 -13q15 -14 15 -48q1 -38 0 -114q-2 -77 0 -114v-125q1 -27 -13 -40t-43 -13q-24 0 -39 12t-15 35v370zM138 547q-31 29 -55.5 54t-42.5 45q-15 16 -15 33q0 16 17 31q16 15 33 15q24 0 39 -20l83 -107q10 -13 10 -27q0 -13 -12 -25
t-25 -12q-15 0 -31 11z" />
    <glyph glyph-name="iacute" unicode="&#xed;" horiz-adv-x="252" 
d="M71 412q2 26 17 38t36 12q28 0 42 -13q15 -14 15 -48q1 -38 0 -114q-2 -77 0 -114v-125q1 -27 -13 -40t-43 -13q-24 0 -39 12t-15 35v370zM120 542q-14 -11 -29 -11q-12 0 -27 12t-15 26q0 12 10 26l90 104q16 21 36 21q19 0 36 -15t17 -34q0 -15 -16 -32
q-46 -49 -103 -97h1z" />
    <glyph glyph-name="icircumflex" unicode="&#xee;" horiz-adv-x="252" 
d="M71 412q2 26 17 38t36 12q28 0 42 -13q15 -14 15 -48q1 -38 0 -114q-2 -77 0 -114v-125q1 -27 -13 -40t-43 -13q-24 0 -39 12t-15 35v370zM233 527q-15 0 -29 14q-11 11 -30 29.5t-45 46.5q-66 -71 -75 -77q-13 -13 -30 -13q-12 0 -24 12t-12 24q0 14 12 29l86 95
q18 19 43 19q23 0 40 -18q51 -53 87 -96q13 -14 13 -28q0 -11 -12 -23t-25 -12z" />
    <glyph glyph-name="idieresis" unicode="&#xef;" horiz-adv-x="252" 
d="M71 412q2 26 17 38t36 12q28 0 42 -13q15 -14 15 -48q1 -38 0 -114q-2 -77 0 -114v-125q1 -27 -13 -40t-43 -13q-24 0 -39 12t-15 35v370zM39 552q-25 0 -40 17q-15 16 -15 42q0 25 17 42t44 17q26 0 42 -16t16 -42q0 -25 -17 -42q-16 -16 -45 -16zM202 553q-23 0 -40 17
q-16 16 -16 41t18 42q19 17 44 17q26 0 42 -16t16 -42q0 -25 -17 -42q-16 -16 -45 -16z" />
    <glyph glyph-name="eth" unicode="&#xf0;" horiz-adv-x="558" 
d="M416 594q95 -118 95 -294q0 -31 -1 -53.5t-3 -36.5q-12 -104 -75 -159q-64 -56 -159 -56q-99 0 -166 63t-67 163t66 162t154 63q82 3 135 -71q-2 91 -66 161l-56 -38q-10 -7 -21 -7q-10 0 -21 11q-10 10 -10 21q0 17 20 29l37 26q-43 33 -95 45q-22 7 -31 26q-9 18 -1 38
q23 50 82 32q79 -23 140 -78l49 34q11 8 20 8q12 0 21 -12t9 -25q0 -11 -26 -31zM271 349q-52 0 -88 -36t-36 -90q0 -59 35 -96q34 -36 84 -36q53 0 90 37t37 93q-2 55 -36 93q-34 37 -87 37z" />
    <glyph glyph-name="ntilde" unicode="&#xf1;" horiz-adv-x="559" 
d="M68 396q-1 64 57 64q25 0 36 -12t12 -37l2 -35q16 39 59 64q42 24 90 24q83 0 128 -52q45 -53 45 -145v-54v-75v-86q0 -56 -59 -56q-22 0 -37 12t-15 36q0 14 0.5 37.5t1.5 56.5t1.5 57.5t0.5 40.5q-1 61 -21 97t-72 36q-38 0 -63 -12t-37 -38q-11 -24 -16 -53
q-2 -14 -3 -30t-1 -36l1 -157q0 -26 -16 -36q-17 -11 -39 -11q-55 0 -55 48q0 5 0.5 29t1.5 66q1 84 0 171zM197 574q-2 -26 -36 -26q-17 0 -27 12t-12 32q3 39 29 64q25 24 66 24q27 0 48 -15q11 -8 20.5 -15t17.5 -15q16 -14 33 -16q24 0 26 32q4 28 39 28q16 0 26 -10
q11 -11 11 -25q0 -50 -25 -75t-67 -25q-34 1 -67 30q-33 28 -51 30q-25 0 -30 -29z" />
    <glyph glyph-name="ograve" unicode="&#xf2;" 
d="M292 467q19 0 30 -6q90 -14 138 -81q48 -68 48 -153q0 -102 -69 -169q-68 -67 -174 -67q-93 0 -160 63t-67 160q0 113 69 182q68 68 187 70zM397 233q0 57 -33 96t-92 42q-59 -3 -93 -45q-34 -41 -34 -112q0 -55 36 -91t81 -36q55 0 96 41q40 40 40 105h-1zM279 548
q-31 29 -55.5 54t-42.5 45q-15 16 -15 33q0 16 17 31q16 15 33 15q24 0 39 -20l83 -107q10 -13 10 -27q0 -13 -12 -25t-25 -12q-15 0 -31 11z" />
    <glyph glyph-name="oacute" unicode="&#xf3;" 
d="M292 467q19 0 30 -6q90 -14 138 -81q48 -68 48 -153q0 -102 -69 -169q-68 -67 -174 -67q-93 0 -160 63t-67 160q0 113 69 182q68 68 187 70zM397 233q0 57 -33 96t-92 42q-59 -3 -93 -45q-34 -41 -34 -112q0 -55 36 -91t81 -36q55 0 96 41q40 40 40 105h-1zM261 543
q-14 -11 -29 -11q-12 0 -27 12t-15 26q0 12 10 26l90 104q16 21 36 21q19 0 36 -15t17 -34q0 -15 -16 -32q-46 -49 -103 -97h1z" />
    <glyph glyph-name="ocircumflex" unicode="&#xf4;" 
d="M292 467q19 0 30 -6q90 -14 138 -81q48 -68 48 -153q0 -102 -69 -169q-68 -67 -174 -67q-93 0 -160 63t-67 160q0 113 69 182q68 68 187 70zM397 233q0 57 -33 96t-92 42q-59 -3 -93 -45q-34 -41 -34 -112q0 -55 36 -91t81 -36q55 0 96 41q40 40 40 105h-1zM374 528
q-15 0 -29 14q-11 11 -30 29.5t-45 46.5q-66 -71 -75 -77q-13 -13 -30 -13q-12 0 -24 12t-12 24q0 14 12 29l86 95q18 19 43 19q23 0 40 -18q51 -53 87 -96q13 -14 13 -28q0 -11 -12 -23t-25 -12z" />
    <glyph glyph-name="otilde" unicode="&#xf5;" 
d="M292 467q19 0 30 -6q90 -14 138 -81q48 -68 48 -153q0 -102 -69 -169q-68 -67 -174 -67q-93 0 -160 63t-67 160q0 113 69 182q68 68 187 70zM397 233q0 57 -33 96t-92 42q-59 -3 -93 -45q-34 -41 -34 -112q0 -55 36 -91t81 -36q55 0 96 41q40 40 40 105h-1zM181 577
q-2 -26 -36 -26q-17 0 -27 12t-12 32q3 39 29 64q25 24 66 24q27 0 48 -15q11 -8 20.5 -15t17.5 -15q16 -14 33 -16q24 0 26 32q4 28 39 28q16 0 26 -10q11 -11 11 -25q0 -50 -25 -75t-67 -25q-34 1 -67 30q-33 28 -51 30q-25 0 -30 -29z" />
    <glyph glyph-name="odieresis" unicode="&#xf6;" 
d="M292 467q19 0 30 -6q90 -14 138 -81q48 -68 48 -153q0 -102 -69 -169q-68 -67 -174 -67q-93 0 -160 63t-67 160q0 113 69 182q68 68 187 70zM397 233q0 57 -33 96t-92 42q-59 -3 -93 -45q-34 -41 -34 -112q0 -55 36 -91t81 -36q55 0 96 41q40 40 40 105h-1zM180 553
q-25 0 -40 17q-15 16 -15 42q0 25 17 42t44 17q26 0 42 -16t16 -42q0 -25 -17 -42q-16 -16 -45 -16zM343 554q-23 0 -40 17q-16 16 -16 41t18 42q19 17 44 17q26 0 42 -16t16 -42q0 -25 -17 -42q-16 -16 -45 -16z" />
    <glyph glyph-name="divide" unicode="&#xf7;" horiz-adv-x="490" 
d="M72 225q-20 -1 -31 14t-9 35q1 43 51 42l331 -1q23 0 33 -13q11 -14 11 -31q0 -44 -53 -46q-29 -2 -168 0q-70 1 -111 1h-54v-1zM245 391q-24 0 -43 17q-18 16 -18 42q0 27 19 45t48 18q27 0 45 -18t18 -45q0 -29 -18 -45q-17 -16 -48 -16zM239 32q-25 0 -42 17t-17 42
q0 27 18 45t47 18q25 0 44 -17q18 -17 18 -44q0 -29 -18 -45q-17 -16 -48 -16h-2z" />
    <glyph glyph-name="oslash" unicode="&#xf8;" 
d="M290 466q16 0 30 -6q28 -5 54 -18l18 28q10 18 27 18q10 0 21 -8t11 -18q0 -11 -12 -30l-13 -21q80 -68 80 -183q0 -104 -69 -171q-68 -67 -173 -67q-42 0 -87 19l-20 -34q-10 -16 -24 -16q-11 0 -21 9t-10 20q0 10 9 24l16 26q-89 65 -89 177t69 181q68 68 187 70h-4z
M144 215q0 -51 36 -87l142 229q-23 10 -51 12q-59 -2 -93 -42t-34 -111v-1zM394 231q0 53 -30 86l-137 -223q18 -8 33 -8q56 0 96 40t40 105h-2z" />
    <glyph glyph-name="ugrave" unicode="&#xf9;" horiz-adv-x="565" 
d="M125 457q49 0 49 -56q-1 -60 -1.5 -104.5t-0.5 -76.5q0 -134 92 -134q65 0 92 46q26 46 28 132v140q0 27 17 41t41 14q54 0 54 -53v-43v-85v-100q1 -54 6 -138q1 -21 -14 -33t-38 -12q-43 0 -49 38q-2 9 -3 27q-1 17 -3 28q-50 -96 -150 -96q-91 0 -136 57t-45 155v100
v98q0 57 61 57v-2zM291 545q-31 29 -55.5 54t-42.5 45q-15 16 -15 33q0 16 17 31q16 15 33 15q24 0 39 -20l83 -107q10 -13 10 -27q0 -13 -12 -25t-25 -12q-15 0 -31 11z" />
    <glyph glyph-name="uacute" unicode="&#xfa;" horiz-adv-x="565" 
d="M125 457q49 0 49 -56q-1 -60 -1.5 -104.5t-0.5 -76.5q0 -134 92 -134q65 0 92 46q26 46 28 132v140q0 27 17 41t41 14q54 0 54 -53v-43v-85v-100q1 -54 6 -138q1 -21 -14 -33t-38 -12q-43 0 -49 38q-2 9 -3 27q-1 17 -3 28q-50 -96 -150 -96q-91 0 -136 57t-45 155v100
v98q0 57 61 57v-2zM272 540q-14 -11 -29 -11q-12 0 -27 12t-15 26q0 12 10 26l90 104q18 21 37 21t36 -15t17 -34q0 -15 -16 -32q-46 -49 -103 -97z" />
    <glyph glyph-name="ucircumflex" unicode="&#xfb;" horiz-adv-x="565" 
d="M125 457q49 0 49 -56q-1 -60 -1.5 -104.5t-0.5 -76.5q0 -134 92 -134q65 0 92 46q26 46 28 132v140q0 27 17 41t41 14q54 0 54 -53v-43v-85v-100q1 -54 6 -138q1 -21 -14 -33t-38 -12q-43 0 -49 38q-2 9 -3 27q-1 17 -3 28q-50 -96 -150 -96q-91 0 -136 57t-45 155v100
v98q0 57 61 57v-2zM387 525q-15 0 -29 14q-11 11 -30 29.5t-45 46.5q-66 -71 -75 -77q-13 -13 -30 -13q-12 0 -24 12t-12 24q0 14 12 29l86 95q18 19 43 19q22 0 39 -18q51 -53 87 -96q13 -14 13 -28q0 -11 -12 -23t-25 -12z" />
    <glyph glyph-name="udieresis" unicode="&#xfc;" horiz-adv-x="565" 
d="M125 457q49 0 49 -56q-1 -60 -1.5 -104.5t-0.5 -76.5q0 -134 92 -134q65 0 92 46q26 46 28 132v140q0 27 17 41t41 14q54 0 54 -53v-43v-85v-100q1 -54 6 -138q1 -21 -14 -33t-38 -12q-43 0 -49 38q-2 9 -3 27q-1 17 -3 28q-50 -96 -150 -96q-91 0 -136 57t-45 155v100
v98q0 57 61 57v-2zM192 550q-25 0 -40 17q-15 16 -15 42q0 25 17 42t44 17q26 0 42 -16t16 -42q0 -25 -17 -42q-16 -16 -45 -16zM355 551q-23 0 -40 17q-16 16 -16 41t18 42q19 17 44 17q26 0 42 -16t16 -42q0 -25 -17 -42q-16 -16 -45 -16z" />
    <glyph glyph-name="yacute" unicode="&#xfd;" horiz-adv-x="504" 
d="M255 129q13 28 42 100t75 190q16 43 48 43q24 0 41 -13q18 -14 18 -33q0 -18 -11 -42q-125 -287 -225 -489q-60 -109 -149 -109q-78 0 -78 54q0 51 53 51q31 0 48 12q16 11 37 48q7 9 45 86l-31 65l-125 271q-17 39 -17 54q0 19 18 33q19 14 39 14q29 0 43 -27
q63 -153 95 -230t33 -79zM239 543q-14 -11 -29 -11q-12 0 -27 12t-15 26q0 12 10 26l90 104q16 21 36 21q19 0 36 -15t17 -34q0 -15 -16 -32q-46 -49 -103 -97h1z" />
    <glyph glyph-name="thorn" unicode="&#xfe;" horiz-adv-x="577" 
d="M168 -169q0 -50 -55 -50q-30 0 -42 15q-12 16 -11 47l2 405l-3 419q1 27 16 40q14 13 37 13q58 0 58 -49v-165v-92l-1 -25q44 77 150 77q94 0 156 -69q61 -68 61 -163q0 -103 -66 -173q-66 -71 -162 -71q-95 0 -138 76v-48t1 -69q1 -80 0 -117zM421 231q0 59 -36 98
t-87 39q-60 0 -97 -37t-37 -106q0 -65 35 -103q34 -37 90 -37q55 0 94 41q39 40 39 107z" />
    <glyph glyph-name="ydieresis" unicode="&#xff;" horiz-adv-x="504" 
d="M255 129q13 28 42 100t75 190q16 43 48 43q24 0 41 -13q18 -14 18 -33q0 -18 -11 -42q-125 -287 -225 -489q-60 -109 -149 -109q-78 0 -78 54q0 51 53 51q31 0 48 12q16 11 37 48q7 9 45 86l-31 65l-125 271q-17 39 -17 54q0 19 18 33q19 14 39 14q29 0 43 -27
q63 -153 95 -230t33 -79zM158 553q-25 0 -40 17q-15 16 -15 42q0 25 17 42t44 17q26 0 42 -16t16 -42q0 -25 -17 -42q-16 -16 -45 -16zM321 554q-23 0 -40 17q-16 16 -16 41t18 42q19 17 44 17q26 0 42 -16t16 -42q0 -25 -17 -42q-16 -16 -45 -16z" />
    <glyph glyph-name="Amacron" unicode="&#x100;" horiz-adv-x="649" 
d="M19 45q0 20 17 57l99 230l123 307q16 39 63 39q52 0 67 -41q8 -20 24.5 -61t40.5 -104q48 -125 66 -168q1 -1 7 -13q7 -14 8 -18q49 -125 81 -198q9 -20 9 -36t-18 -31t-43 -15q-22 0 -34 9t-21 31q-50 127 -51 138q-17 1 -60.5 1h-112.5h-98q-2 -5 -7.5 -20t-14.5 -40
t-15.5 -42t-11.5 -28q-11 -25 -21 -35q-11 -11 -31 -11q-26 0 -45 13t-19 39zM321 543q-7 -21 -33 -92t-72 -194q63 0 114 0.5t93 1.5l-101 284h-1zM224 764q-46 0 -46 43q0 45 53 45h38h41h26t34 1t31.5 1h20.5q45 0 45 -43q1 -22 -14 -34t-44 -12h-96h-46h-42z" />
    <glyph glyph-name="amacron" unicode="&#x101;" horiz-adv-x="572" 
d="M505 169q0 -35 1 -67t3 -61q0 -46 -57 -46q-23 0 -33 18q-10 17 -16 60q-47 -80 -147 -80q-97 0 -157 64t-60 159q0 108 66 177t165 69q89 0 135 -70q0 2 3 17q2 8 2.5 13t1.5 7q10 31 44 31q52 0 52 -61l-1 -77zM151 217q0 -56 35 -94q34 -37 86 -37q55 0 93 39
q38 40 38 102q0 65 -37 102q-38 38 -90 38q-54 0 -90 -42t-36 -108h1zM180 576q-46 0 -46 43q0 45 53 45h38h41h26t34 1t31.5 1h20.5q45 0 45 -43q1 -22 -14 -34t-44 -12h-96h-46h-42z" />
    <glyph glyph-name="Abreve" unicode="&#x102;" horiz-adv-x="649" 
d="M19 45q0 20 17 57l99 230l123 307q16 39 63 39q52 0 67 -41q8 -20 24.5 -61t40.5 -104q48 -125 66 -168q1 -1 7 -13q7 -14 8 -18q49 -125 81 -198q9 -20 9 -36t-18 -31t-43 -15q-22 0 -34 9t-21 31q-50 127 -51 138q-17 1 -60.5 1h-112.5h-98q-2 -5 -7.5 -20t-14.5 -40
t-15.5 -42t-11.5 -28q-11 -25 -21 -35q-11 -11 -31 -11q-26 0 -45 13t-19 39zM321 543q-7 -21 -33 -92t-72 -194q63 0 114 0.5t93 1.5l-101 284h-1zM424 877q17 0 27 -10t10 -24q0 -56 -39 -93q-40 -38 -99 -38q-54 0 -93 36q-40 36 -41 90q0 16 11 29q10 12 27 12
q15 0 24 -9q10 -10 11 -22q1 -26 18 -43q16 -16 44 -16q27 0 44 18q16 18 18 42q2 32 36 32z" />
    <glyph glyph-name="abreve" unicode="&#x103;" horiz-adv-x="572" 
d="M505 169q0 -35 1 -67t3 -61q0 -46 -57 -46q-23 0 -33 18q-10 17 -16 60q-47 -80 -147 -80q-97 0 -157 64t-60 159q0 108 66 177t165 69q89 0 135 -70q0 2 3 17q2 8 2.5 13t1.5 7q10 31 44 31q52 0 52 -61l-1 -77zM151 217q0 -56 35 -94q34 -37 86 -37q55 0 93 39
q38 40 38 102q0 65 -37 102q-38 38 -90 38q-54 0 -90 -42t-36 -108h1zM380 689q17 0 27 -10t10 -24q0 -56 -39 -93q-40 -38 -99 -38q-54 0 -93 36q-40 36 -41 90q0 16 11 29q10 12 27 12q15 0 24 -9q10 -10 11 -22q1 -26 18 -43q16 -16 44 -16q27 0 44 18q16 18 18 42
q2 32 36 32z" />
    <glyph glyph-name="Aogonek" unicode="&#x104;" horiz-adv-x="649" 
d="M525 -109q0 -17 9 -27t24 -10q9 0 20 3q10 3 18 3q13 0 22 -12t9 -28q0 -47 -72 -47q-46 0 -78 26q-31 25 -31 75q0 68 85 128q-12 8 -22 29q-50 127 -51 138q-17 1 -60.5 1h-112.5h-98q-2 -5 -7.5 -20t-14.5 -40t-15.5 -42t-11.5 -28q-11 -25 -21 -35q-11 -11 -31 -11
q-26 0 -45 13t-19 39q0 20 17 57l99 230l123 307q16 39 63 39q52 0 67 -41q8 -20 24.5 -61t40.5 -104q48 -125 66 -168l14 -31q58 -146 81 -198q9 -20 9 -36q0 -20 -25 -36q-75 -65 -75 -108zM322 541q-7 -21 -33 -92t-72 -194q63 0 114 0.5t93 1.5l-101 284h-1z" />
    <glyph glyph-name="aogonek" unicode="&#x105;" horiz-adv-x="572" 
d="M505 168q0 -61 3 -124q0 -31 -25 -44q-77 -59 -77 -105q0 -17 9 -27t24 -10q5 0 10 0.5t10 1.5t9.5 1.5t8.5 0.5q14 0 23 -11t9 -27q0 -47 -72 -47q-46 0 -78 26q-31 25 -31 75q0 70 93 133q-14 17 -17 62q-47 -80 -147 -80q-97 0 -157 64t-60 159q0 108 66 177t165 69
q89 0 135 -70v17q0 9 2 15q7 36 48 36q52 0 52 -56l-1 -82zM150 216q0 -56 35 -94q34 -37 86 -37q56 0 94 39q37 38 37 102q0 65 -37 102q-38 38 -88 38q-55 0 -91 -42t-36 -108z" />
    <glyph glyph-name="Cacute" unicode="&#x106;" horiz-adv-x="609" 
d="M518 653q50 -23 50 -57q-2 -25 -13 -39q-12 -16 -35 -14q-19 0 -44 13q-56 24 -111 24q-83 0 -146 -72q-62 -71 -64 -181q-1 -99 62 -167t152 -68q64 -2 123 33q5 2 11 6l9 6l9 3q8 2 14 2q20 0 32 -18t12 -40q-2 -36 -72 -66q-72 -30 -150 -29q-128 2 -221 93
q-93 92 -92 243q1 81 30 150q28 69 75 114q46 44 105 70q57 25 120 25q85 -2 146 -27zM356 728q-14 -11 -29 -11q-12 0 -27 12t-15 26q0 12 10 26l90 104q16 21 36 21q19 0 36 -15t17 -34q0 -15 -16 -32q-46 -49 -103 -97h1z" />
    <glyph glyph-name="cacute" unicode="&#x107;" horiz-adv-x="449" 
d="M391 432q22 -15 22 -40q0 -20 -12 -36t-32 -16q-13 0 -43 14q-27 11 -58 11q-52 0 -88 -45t-36 -98q0 -57 35 -95t87 -38q40 0 75 20q30 15 40 15q17 0 31 -18q13 -17 13 -37q0 -23 -19 -36q-55 -43 -141 -43q-108 0 -168 69t-60 153q1 99 68 176q66 77 170 77
q68 0 120 -32zM256 541q-14 -11 -29 -11q-12 0 -27 12t-15 26q0 12 10 26l90 104q18 21 37 21t36 -15t17 -34q0 -15 -16 -32q-46 -49 -103 -97z" />
    <glyph glyph-name="Ccircumflex" unicode="&#x108;" horiz-adv-x="609" 
d="M518 653q50 -23 50 -57q-2 -25 -13 -39q-12 -16 -35 -14q-19 0 -44 13q-56 24 -111 24q-83 0 -146 -72q-62 -71 -64 -181q-1 -99 62 -167t152 -68q64 -2 123 33q5 2 11 6l9 6l9 3q8 2 14 2q20 0 32 -18t12 -40q-2 -36 -72 -66q-72 -30 -150 -29q-128 2 -221 93
q-93 92 -92 243q1 81 30 150q28 69 75 114q46 44 105 70q57 25 120 25q85 -2 146 -27zM469 713q-15 0 -29 14q-11 11 -30 29.5t-45 46.5q-66 -71 -75 -77q-13 -13 -30 -13q-12 0 -24 12t-12 24q0 14 12 29l86 95q18 19 43 19q23 0 40 -18q51 -53 87 -96q13 -14 13 -28
q0 -11 -12 -23t-25 -12z" />
    <glyph glyph-name="ccircumflex" unicode="&#x109;" horiz-adv-x="449" 
d="M391 432q22 -15 22 -40q0 -20 -12 -36t-32 -16q-13 0 -43 14q-27 11 -58 11q-52 0 -88 -45t-36 -98q0 -57 35 -95t87 -38q40 0 75 20q30 15 40 15q17 0 31 -18q13 -17 13 -37q0 -23 -19 -36q-55 -43 -141 -43q-108 0 -168 69t-60 153q1 99 68 176q66 77 170 77
q68 0 120 -32zM371 526q-15 0 -29 14q-11 11 -30 29.5t-45 46.5q-66 -71 -75 -77q-13 -13 -30 -13q-12 0 -24 12t-12 24q0 14 12 29l86 95q18 19 43 19q22 0 39 -18q51 -53 87 -96q13 -14 13 -28q0 -11 -12 -23t-25 -12z" />
    <glyph glyph-name="Cdotaccent" unicode="&#x10a;" horiz-adv-x="609" 
d="M518 653q50 -23 50 -57q-2 -25 -13 -39q-12 -16 -35 -14q-19 0 -44 13q-56 24 -111 24q-83 0 -146 -72q-62 -71 -64 -181q-1 -99 62 -167t152 -68q64 -2 123 33q5 2 11 6l9 6l9 3q8 2 14 2q20 0 32 -18t12 -40q-2 -36 -72 -66q-72 -30 -150 -29q-128 2 -221 93
q-93 92 -92 243q1 81 30 150q28 69 75 114q46 44 105 70q57 25 120 25q85 -2 146 -27zM357 745q-29 0 -47 21q-18 20 -16 51q4 27 24 42q19 15 47 15q30 0 47 -18q17 -19 17 -46q0 -32 -19 -48q-20 -17 -51 -17h-2z" />
    <glyph glyph-name="cdotaccent" unicode="&#x10b;" horiz-adv-x="449" 
d="M391 432q22 -15 22 -40q0 -20 -12 -36t-32 -16q-13 0 -43 14q-27 11 -58 11q-52 0 -88 -45t-36 -98q0 -57 35 -95t87 -38q40 0 75 20q30 15 40 15q17 0 31 -18q13 -17 13 -37q0 -23 -19 -36q-55 -43 -141 -43q-108 0 -168 69t-60 153q1 99 68 176q66 77 170 77
q68 0 120 -32zM258 558q-29 0 -47 21q-18 20 -16 51q4 27 24 42q19 15 47 15q30 0 47 -18q17 -19 17 -46q0 -32 -19 -48q-20 -17 -51 -17h-2z" />
    <glyph glyph-name="Ccaron" unicode="&#x10c;" horiz-adv-x="609" 
d="M518 653q50 -23 50 -57q-2 -25 -13 -39q-12 -16 -35 -14q-19 0 -44 13q-56 24 -111 24q-83 0 -146 -72q-62 -71 -64 -181q-1 -99 62 -167t152 -68q64 -2 123 33q5 2 11 6l9 6l9 3q8 2 14 2q20 0 32 -18t12 -40q-2 -36 -72 -66q-72 -30 -150 -29q-128 2 -221 93
q-93 92 -92 243q1 81 30 150q28 69 75 114q46 44 105 70q57 25 120 25q85 -2 146 -27zM256 892q13 0 30 -14q15 -14 75 -75q56 60 74 77q13 13 30 13q12 0 24 -12t12 -24q0 -16 -12 -29q-8 -11 -84 -96q-18 -19 -44 -19q-23 0 -39 18q-28 31 -49.5 55t-37.5 42
q-13 14 -13 29q0 12 12 24t26 12z" />
    <glyph glyph-name="ccaron" unicode="&#x10d;" horiz-adv-x="449" 
d="M391 432q22 -15 22 -40q0 -20 -12 -36t-32 -16q-13 0 -43 14q-27 11 -58 11q-52 0 -88 -45t-36 -98q0 -57 35 -95t87 -38q40 0 75 20q30 15 40 15q17 0 31 -18q13 -17 13 -37q0 -23 -19 -36q-55 -43 -141 -43q-108 0 -168 69t-60 153q1 99 68 176q66 77 170 77
q68 0 120 -32zM157 705q13 0 30 -14q15 -14 75 -75q56 60 74 77q13 13 30 13q12 0 24 -12t12 -24q0 -16 -12 -29q-8 -11 -84 -96q-18 -19 -44 -19q-23 0 -39 18q-28 31 -49.5 55t-37.5 42q-13 14 -13 29q0 12 12 24t26 12z" />
    <glyph glyph-name="Dcaron" unicode="&#x10e;" horiz-adv-x="681" 
d="M74 610q0 69 102 69h118q149 -5 248 -87q99 -83 99 -231q0 -359 -380 -362q-100 0 -133 3q-23 2 -38 20t-15 44l2 241l-3 305v-2zM277 579q-33 0 -55.5 -0.5t-33.5 -1.5v-455q0 -17 12 -20t55 -3q277 0 277 250q0 114 -73 172t-183 58h1zM227 894q13 0 30 -14
q15 -14 75 -75q56 60 74 77q13 13 30 13q12 0 24 -12t12 -24q0 -16 -12 -29q-8 -11 -84 -96q-18 -19 -44 -19q-24 0 -40 18q-28 31 -49.5 55t-37.5 42q-13 14 -13 29q0 12 12 24t26 12z" />
    <glyph glyph-name="dcaron" unicode="&#x10f;" horiz-adv-x="695" 
d="M613 614q-16 1 -28 15q-12 13 -12 36q-1 24 17 42t41 18q30 0 48 -19q18 -20 18 -54q0 -35 -22 -70q-22 -36 -55 -55q-9 -6 -19 -6q-9 0 -19 8q-9 7 -9 18q0 13 11 22q31 24 31 44v3zM507 440v-102v-103v-25.5t1 -49.5t1 -61v-60q0 -48 -52 -48q-40 0 -48 38l-4 45
q-52 -85 -148 -85q-98 0 -158 67t-60 157q0 105 66 176t167 71q39 0 75 -17q34 -17 54 -48l-1 268q0 60 54 60q27 0 42 -12t14 -39zM146 216q0 -54 36 -93t87 -39q55 0 93 38t38 101q0 64 -35 102t-87 38q-55 0 -93 -41q-37 -40 -37 -105z" />
    <glyph glyph-name="Dcroat" unicode="&#x110;" horiz-adv-x="685" 
d="M77 610q0 69 102 69h33h55h31q149 -5 248 -87q99 -83 99 -231q0 -359 -380 -362q-100 0 -133 3q-23 2 -38 20t-15 44l1 215h-29q-47 0 -47 47q0 48 51 48h25l-2 236zM280 579q-33 0 -55.5 -0.5t-33.5 -1.5v-203h76q48 0 48 -47q0 -49 -55 -49h-69v-156q0 -17 12 -20
t55 -3q277 0 277 250q0 114 -73 172t-183 58h1z" />
    <glyph glyph-name="dcroat" unicode="&#x111;" horiz-adv-x="575" 
d="M507 617h35q46 0 46 -44t-50 -44h-31v-72v-102v-102v-28v-25t1 -47t1 -57v-55q0 -48 -52 -48q-40 0 -48 38l-4 45q-52 -85 -148 -85q-98 0 -158 67t-60 157q0 105 66 176t167 71q85 0 129 -65v133h-77q-48 0 -48 44t48 44h77v51q0 54 56 54q52 0 52 -48zM146 218
q0 -54 36 -93t87 -39q55 0 93 38t38 101q0 64 -35 102t-87 38q-55 0 -93 -41q-37 -40 -37 -105z" />
    <glyph glyph-name="Emacron" unicode="&#x112;" horiz-adv-x="546" 
d="M89 628q3 51 71 51h25t19 -1h74t78 1t63.5 1h31.5q54 0 54 -45q2 -43 -31 -50q-11 -1 -68.5 -1h-162.5h-44v-96l-1 -94v-13h40q48 0 162 3q32 0 47 -9q16 -9 14 -38q0 -47 -52 -47h-108h-105q-1 -10 -1 -25.5v-37.5v-63v-64q40 -2 228 0q20 1 32 1.5t17 0.5q44 0 44 -49
q0 -52 -56 -54h-269q-63 0 -84 12t-22 52v37v16v42v60v78v89v121v122h4zM210 767q-46 0 -46 43q0 45 53 45h38h41h26t34 1t31.5 1h20.5q45 0 45 -43q1 -22 -14 -34t-44 -12h-96h-46h-42z" />
    <glyph glyph-name="emacron" unicode="&#x113;" horiz-adv-x="511" 
d="M150 197q3 -46 38 -78t84 -32q52 0 97 27q22 13 39 13q19 0 32 -16q14 -17 14 -36q0 -26 -30 -45q-61 -40 -161 -40q-92 0 -157 65q-65 64 -66 156q0 106 66 180t164 74q85 0 144 -56t59 -128q0 -43 -15 -61t-64 -19q-13 -1 -27 -1h-30h-87h-99zM269 372q-47 0 -81 -32
q-33 -32 -38 -74q75 0 125.5 1t78.5 3q12 1 12 9q0 40 -28 67q-29 27 -67 27zM163 573q-46 0 -46 43q0 45 53 45h39h42h26t34 1t31.5 1h20.5q45 0 45 -43q1 -22 -14 -34t-44 -12h-96h-46h-42z" />
    <glyph glyph-name="Ebreve" unicode="&#x114;" horiz-adv-x="546" 
d="M89 628q3 51 71 51h25t19 -1h74t78 1t63.5 1h31.5q54 0 54 -45q2 -43 -31 -50q-11 -1 -68.5 -1h-162.5h-44v-96l-1 -94v-13h40q48 0 162 3q32 0 47 -9q16 -9 14 -38q0 -47 -52 -47h-108h-105q-1 -10 -1 -25.5v-37.5v-63v-64q40 -2 228 0q20 1 32 1.5t17 0.5q44 0 44 -49
q0 -52 -56 -54h-269q-63 0 -84 12t-22 52v37v16v42v60v78v89v121v122h4zM410 880q17 0 27 -10t10 -24q0 -56 -39 -93q-40 -38 -99 -38q-54 0 -93 36q-40 36 -41 90q0 16 11 29q10 12 27 12q15 0 24 -9q10 -10 11 -22q1 -26 18 -43q16 -16 44 -16q27 0 44 18q16 18 18 42
q2 32 36 32z" />
    <glyph glyph-name="ebreve" unicode="&#x115;" horiz-adv-x="511" 
d="M150 197q3 -46 38 -78t84 -32q52 0 97 27q22 13 39 13q19 0 32 -16q14 -17 14 -36q0 -26 -30 -45q-61 -40 -161 -40q-92 0 -157 65q-65 64 -66 156q0 106 66 180t164 74q85 0 144 -56t59 -128q0 -43 -15 -61t-64 -19q-13 -1 -27 -1h-30h-87h-99zM269 372q-47 0 -81 -32
q-33 -32 -38 -74q75 0 125.5 1t78.5 3q12 1 12 9q0 40 -28 67q-29 27 -67 27zM365 686q17 0 27 -10t10 -24q0 -56 -39 -93q-40 -38 -99 -38q-54 0 -93 36q-40 36 -41 90q0 16 11 29q10 12 27 12q15 0 24 -9q10 -10 11 -22q1 -26 18 -43q16 -16 44 -16q27 0 44 18
q16 18 18 42q2 32 36 32z" />
    <glyph glyph-name="Edotaccent" unicode="&#x116;" horiz-adv-x="546" 
d="M89 628q3 51 71 51h25t19 -1h74t78 1t63.5 1h31.5q54 0 54 -45q2 -43 -31 -50q-11 -1 -68.5 -1h-162.5h-44v-96l-1 -94v-13h40q48 0 162 3q32 0 47 -9q16 -9 14 -38q0 -47 -52 -47h-108h-105q-1 -10 -1 -25.5v-37.5v-63v-64q40 -2 228 0q20 1 32 1.5t17 0.5q44 0 44 -49
q0 -52 -56 -54h-269q-63 0 -84 12t-22 52v37v16v42v60v78v89v121v122h4zM301 749q-29 0 -47 21q-18 20 -16 51q4 27 24 42q19 15 47 15q30 0 47 -18q17 -19 17 -46q0 -32 -19 -48q-20 -17 -51 -17h-2z" />
    <glyph glyph-name="edotaccent" unicode="&#x117;" horiz-adv-x="511" 
d="M150 197q3 -46 38 -78t84 -32q52 0 97 27q22 13 39 13q19 0 32 -16q14 -17 14 -36q0 -26 -30 -45q-61 -40 -161 -40q-92 0 -157 65q-65 64 -66 156q0 106 66 180t164 74q85 0 144 -56t59 -128q0 -43 -15 -61t-64 -19q-13 -1 -27 -1h-30h-87h-99zM269 372q-47 0 -81 -32
q-33 -32 -38 -74q75 0 125.5 1t78.5 3q12 1 12 9q0 40 -28 67q-29 27 -67 27zM256 555q-29 0 -47 21q-18 20 -16 51q4 27 24 42q19 15 47 15q30 0 47 -18q17 -19 17 -46q0 -32 -19 -48q-20 -17 -51 -17h-2z" />
    <glyph glyph-name="Eogonek" unicode="&#x118;" horiz-adv-x="546" 
d="M398 -107q0 -17 9 -27t24 -10q5 0 10 0.5t10 1.5t9.5 1.5t8.5 0.5q30 0 30 -39q0 -37 -56 -45q-15 -2 -33 1q-40 4 -66 29q-26 24 -26 68q0 67 72 120h-206q-63 0 -84 12t-22 52v11v15v14v13t1 32q2 43 3 109q1 34 1 67v65v112v112q1 40 17 56q15 15 54 15h26t18 -1h74
t78 1t63.5 1h31.5q54 0 54 -45q2 -43 -31 -50q-11 -1 -68.5 -1h-163.5h-43q-1 -17 -1 -63v-124v-16h40q15 0 37.5 0.5t51.5 1.5t51 1.5t36 0.5q48 0 48 -48q0 -25 -13 -37q-14 -12 -48 -12h-204v-96v-96h135h141q44 0 44 -47q0 -43 -38 -51q-29 -15 -52 -45q-22 -29 -22 -57
z" />
    <glyph glyph-name="eogonek" unicode="&#x119;" horiz-adv-x="511" 
d="M150 193q3 -46 38 -78t84 -32q52 0 97 27q22 13 39 13q19 0 32 -16q14 -17 14 -36q0 -26 -30 -45q-31 -20 -49 -34t-37 -42q-18 -27 -18 -57q0 -18 9 -28t24 -10q10 0 21 3q10 3 18 3q14 0 23 -11t9 -29q0 -23 -21 -35t-53 -12q-46 0 -78 26q-31 25 -31 75q0 64 60 117
q-12 -1 -21.5 -1.5t-16.5 -0.5q-92 0 -157 65q-65 64 -66 156q0 106 66 180t164 74q85 0 144 -56t59 -128q0 -43 -15 -61t-64 -19q-13 -1 -27 -1h-30h-87h-99zM269 368q-47 0 -81 -32q-33 -32 -38 -74q75 0 125.5 1t78.5 3q12 1 12 9q0 40 -28 67q-29 27 -67 27z" />
    <glyph glyph-name="Ecaron" unicode="&#x11a;" horiz-adv-x="546" 
d="M89 628q3 51 71 51h25t19 -1h74t78 1t63.5 1h31.5q54 0 54 -45q2 -43 -31 -50q-11 -1 -68.5 -1h-162.5h-44v-96l-1 -94v-13h40q48 0 162 3q32 0 47 -9q16 -9 14 -38q0 -47 -52 -47h-108h-105q-1 -10 -1 -25.5v-37.5v-63v-64q40 -2 228 0q20 1 32 1.5t17 0.5q44 0 44 -49
q0 -52 -56 -54h-269q-63 0 -84 12t-22 52v37v16v42v60v78v89v121v122h4zM200 896q13 0 30 -14q15 -14 75 -75q56 60 74 77q13 13 30 13q12 0 24 -12t12 -24q0 -16 -12 -29q-8 -11 -84 -96q-18 -19 -44 -19q-23 0 -39 18q-28 31 -49.5 55t-37.5 42q-13 14 -13 29q0 12 12 24
t26 12z" />
    <glyph glyph-name="ecaron" unicode="&#x11b;" horiz-adv-x="511" 
d="M150 197q3 -46 38 -78t84 -32q52 0 97 27q22 13 39 13q19 0 32 -16q14 -17 14 -36q0 -26 -30 -45q-61 -40 -161 -40q-92 0 -157 65q-65 64 -66 156q0 106 66 180t164 74q85 0 144 -56t59 -128q0 -43 -15 -61t-64 -19q-13 -1 -27 -1h-30h-87h-99zM269 372q-47 0 -81 -32
q-33 -32 -38 -74q75 0 125.5 1t78.5 3q12 1 12 9q0 40 -28 67q-29 27 -67 27zM155 702q13 0 30 -14q15 -14 75 -75q56 60 74 77q13 13 30 13q12 0 24 -12t12 -24q0 -16 -12 -29q-8 -11 -84 -96q-18 -19 -44 -19q-23 0 -39 18q-28 31 -49.5 55t-37.5 42q-13 14 -13 29
q0 12 12 24t26 12z" />
    <glyph glyph-name="Gcircumflex" unicode="&#x11c;" horiz-adv-x="713" 
d="M385 683q109 0 192 -52q35 -21 35 -47q0 -20 -13 -36t-33 -16q-21 0 -53 19q-59 35 -132 35q-87 0 -156 -72t-69 -172q0 -116 62 -184q61 -67 164 -67q82 0 131 55t51 129h-113q-21 1 -33 15q-12 13 -12 33q0 46 47 48h156q38 0 51 -19q14 -20 14 -57q-2 -134 -84 -219
t-219 -85q-139 0 -232 96t-93 251q0 147 102 248q103 101 240 101zM486 713q-15 0 -29 14q-11 11 -30 29.5t-45 46.5q-66 -71 -75 -77q-13 -13 -30 -13q-12 0 -24 12t-12 24q0 14 12 29l86 95q18 19 43 19q22 0 39 -18q51 -53 87 -96q13 -14 13 -28q0 -11 -12 -23t-25 -12z
" />
    <glyph glyph-name="gcircumflex" unicode="&#x11d;" horiz-adv-x="569" 
d="M262 -132q55 0 95 38q39 37 39 96v59q-23 -32 -58 -51t-80 -19q-95 0 -156 66q-61 65 -61 159q0 104 65 175q64 70 162 70q85 0 134 -70l1 31q2 17 15 26t35 9q23 0 37 -13q15 -14 15 -34v-66t-1 -87t-1 -88.5v-69.5l2 -98q1 -101 -68 -169q-68 -67 -174 -67
q-86 0 -141 28q-38 20 -38 53q0 21 14 38t33 17q9 0 45 -15q45 -16 85 -16zM148 218q0 -58 36 -94t88 -36t90 36q37 36 37 101q0 67 -35 104q-34 35 -87 37q-55 0 -91 -41t-36 -105zM388 523q-15 0 -29 14q-11 11 -30 29.5t-45 46.5q-66 -71 -75 -77q-13 -13 -30 -13
q-12 0 -24 12t-12 24q0 14 12 29l86 95q18 19 43 19q22 0 39 -18q51 -53 87 -96q13 -14 13 -28q0 -11 -12 -23t-25 -12z" />
    <glyph glyph-name="Gbreve" unicode="&#x11e;" horiz-adv-x="713" 
d="M385 683q109 0 192 -52q35 -21 35 -47q0 -20 -13 -36t-33 -16q-21 0 -53 19q-59 35 -132 35q-87 0 -156 -72t-69 -172q0 -116 62 -184q61 -67 164 -67q82 0 131 55t51 129h-113q-21 1 -33 15q-12 13 -12 33q0 46 47 48h156q38 0 51 -19q14 -20 14 -57q-2 -134 -84 -219
t-219 -85q-139 0 -232 96t-93 251q0 147 102 248q103 101 240 101zM482 876q17 0 27 -10t10 -24q0 -56 -39 -93q-40 -38 -99 -38q-54 0 -93 36q-40 36 -41 90q0 16 11 29q10 12 27 12q15 0 24 -9q10 -10 11 -22q1 -26 18 -43q16 -16 44 -16q27 0 44 18q16 18 18 42
q2 32 36 32z" />
    <glyph glyph-name="gbreve" unicode="&#x11f;" horiz-adv-x="569" 
d="M262 -132q55 0 95 38q39 37 39 96v59q-23 -32 -58 -51t-80 -19q-95 0 -156 66q-61 65 -61 159q0 104 65 175q64 70 162 70q85 0 134 -70l1 31q2 17 15 26t35 9q23 0 37 -13q15 -14 15 -34v-66t-1 -87t-1 -88.5v-69.5l2 -98q1 -101 -68 -169q-68 -67 -174 -67
q-86 0 -141 28q-38 20 -38 53q0 21 14 38t33 17q9 0 45 -15q45 -16 85 -16zM148 218q0 -58 36 -94t88 -36t90 36q37 36 37 101q0 67 -35 104q-34 35 -87 37q-55 0 -91 -41t-36 -105zM384 686q17 0 27 -10t10 -24q0 -56 -39 -93q-40 -38 -99 -38q-54 0 -93 36q-40 36 -41 90
q0 16 11 29q10 12 27 12q15 0 24 -9q10 -10 11 -22q1 -26 18 -43q16 -16 44 -16q27 0 44 18q16 18 18 42q2 32 36 32z" />
    <glyph glyph-name="Gdotaccent" unicode="&#x120;" horiz-adv-x="713" 
d="M385 683q109 0 192 -52q35 -21 35 -47q0 -20 -13 -36t-33 -16q-21 0 -53 19q-59 35 -132 35q-87 0 -156 -72t-69 -172q0 -116 62 -184q61 -67 164 -67q82 0 131 55t51 129h-113q-21 1 -33 15q-12 13 -12 33q0 46 47 48h156q38 0 51 -19q14 -20 14 -57q-2 -134 -84 -219
t-219 -85q-139 0 -232 96t-93 251q0 147 102 248q103 101 240 101zM373 745q-29 0 -47 21q-18 20 -16 51q4 27 24 42q19 15 47 15q30 0 47 -18q17 -19 17 -46q0 -32 -19 -48q-20 -17 -51 -17h-2z" />
    <glyph glyph-name="gdotaccent" unicode="&#x121;" horiz-adv-x="569" 
d="M262 -132q55 0 95 38q39 37 39 96v59q-23 -32 -58 -51t-80 -19q-95 0 -156 66q-61 65 -61 159q0 104 65 175q64 70 162 70q85 0 134 -70l1 31q2 17 15 26t35 9q23 0 37 -13q15 -14 15 -34v-66t-1 -87t-1 -88.5v-69.5l2 -98q1 -101 -68 -169q-68 -67 -174 -67
q-86 0 -141 28q-38 20 -38 53q0 21 14 38t33 17q9 0 45 -15q45 -16 85 -16zM148 218q0 -58 36 -94t88 -36t90 36q37 36 37 101q0 67 -35 104q-34 35 -87 37q-55 0 -91 -41t-36 -105zM274 555q-29 0 -47 21q-18 20 -16 51q4 27 24 42q19 15 47 15q30 0 47 -18q17 -19 17 -46
q0 -32 -19 -48q-20 -17 -51 -17h-2z" />
    <glyph glyph-name="Gcommaaccent" unicode="&#x122;" horiz-adv-x="713" 
d="M385 683q109 0 192 -52q35 -21 35 -47q0 -20 -13 -36t-33 -16q-21 0 -53 19q-59 35 -132 35q-87 0 -156 -72t-69 -172q0 -116 62 -184q61 -67 164 -67q82 0 131 55t51 129h-113q-21 1 -33 15q-12 13 -12 33q0 46 47 48h156q38 0 51 -19q14 -20 14 -57q-2 -134 -84 -219
t-219 -85q-139 0 -232 96t-93 251q0 147 102 248q103 101 240 101zM298 -204q0 7 14 23q13 15 18 24q4 7 -9 22q-13 14 -13 30q0 21 15 36t38 15q22 0 39 -15q16 -15 16 -39q0 -61 -67 -110q-18 -8 -27 -8q-11 0 -18 6t-7 17z" />
    <glyph glyph-name="gcommaaccent" unicode="&#x123;" horiz-adv-x="569" 
d="M329 678q0 -8 -15 -24q-15 -17 -15 -30q0 -2 11 -16t11 -30q0 -21 -15 -36t-38 -15t-39 15t-16 39q0 58 68 108q11 8 25 8q11 0 17 -6t6 -17v4zM262 -128q55 0 95 38q39 37 39 96v59q-23 -32 -58 -51t-80 -19q-95 0 -156 66q-61 65 -61 159q0 104 65 175q64 70 162 70
q85 0 134 -70l1 31q2 17 15 26t35 9q23 0 37 -13q15 -14 15 -34v-66t-1 -87t-1 -88.5v-69.5l2 -98q1 -101 -68 -169q-68 -67 -174 -67q-86 0 -141 28q-38 20 -38 53q0 21 14 38t33 17q9 0 45 -15q45 -16 85 -16zM148 222q0 -58 36 -94t88 -36t90 36q37 36 37 101
q0 67 -35 104q-34 35 -87 37q-55 0 -91 -41t-36 -105z" />
    <glyph glyph-name="Hcircumflex" unicode="&#x124;" horiz-adv-x="702" 
d="M621 44q0 -49 -58 -49q-56 0 -56 49v84l-1 149h-63.5t-92.5 -1t-94 -1h-68l2 -234q0 -46 -59 -46q-55 0 -55 47q0 20 0.5 61t1.5 104q1 124 0 192l-4 229q0 51 59 51q54 0 54 -43v-106v-76t1 -78h32h65h86h87l51 1v134v116q1 55 57 55q55 0 55 -54v-155t-1 -139zM454 717
q-15 0 -29 14q-11 11 -30 29.5t-45 46.5q-66 -71 -75 -77q-13 -13 -30 -13q-12 0 -24 12t-12 24q0 14 12 29l86 95q18 19 43 19q22 0 39 -18q51 -53 87 -96q13 -14 13 -28q0 -11 -12 -23t-25 -12z" />
    <glyph glyph-name="hcircumflex" unicode="&#x125;" horiz-adv-x="555" 
d="M67 668q0 60 58 60q53 0 53 -54v-37v-93v-74t-1 -84q19 36 57 57q37 21 84 21q84 0 131 -57q47 -58 47 -146v-65v-80v-73q-2 -47 -60 -47q-23 0 -39 12t-16 35q2 48 3.5 100t1.5 110q0 55 -25 84q-26 30 -72 30q-47 0 -81 -36q-34 -35 -34 -92v-42t1 -62t1 -59v-34
q0 -23 -15 -35t-41 -12q-24 0 -39 12t-15 35q0 12 0.5 30t1.5 41t1.5 38.5t0.5 23.5l-1 495zM229 733q-15 0 -29 14q-11 11 -30 29.5t-45 46.5q-66 -71 -75 -77q-13 -13 -30 -13q-12 0 -24 12t-12 24q0 14 12 29l86 95q18 19 43 19q22 0 39 -18q51 -53 87 -96q13 -14 13 -28
q0 -11 -12 -23t-25 -12z" />
    <glyph glyph-name="Hbar" unicode="&#x126;" horiz-adv-x="702" 
d="M626 40q0 -49 -58 -49q-59 0 -57 66v67v75v75h-157h-162v-117q0 -39 0.5 -68t1.5 -49q0 -46 -59 -46q-55 0 -55 47v186v186v66h-33q-39 0 -39 39t45 39h27v72q0 52 56 52q55 0 55 -46v-78h320v73q0 53 55 53q54 0 54 -54v-72h30q41 0 41 -37q0 -41 -44 -41h-27v-145z
M512 373v102h-319v-102h319z" />
    <glyph glyph-name="hbar" unicode="&#x127;" horiz-adv-x="555" 
d="M69 671q0 59 58 59q53 0 53 -53l-1 -64h67q43 0 45 -39q0 -43 -52 -43h-61q-1 -17 -1 -53v-91q19 36 57 57q37 21 84 21q84 0 131 -57q47 -58 47 -146v-219q-2 -47 -60 -47q-23 0 -39 12t-16 35q2 48 3.5 100t1.5 110q0 55 -25 84q-26 30 -72 30q-47 0 -81 -36
q-34 -35 -34 -92v-42t1 -62t1 -59v-34q0 -23 -15 -35t-41 -12q-24 0 -39 12t-15 35q0 12 0.5 30t1.5 41t1.5 38.5t0.5 23.5l-1 356h-38q-42 0 -42 39q0 43 47 43h33v58v0z" />
    <glyph glyph-name="Itilde" unicode="&#x128;" horiz-adv-x="286" 
d="M88 410q0 23 -0.5 77t-1.5 142q0 26 17 40q16 13 42 13q24 0 39 -12t15 -35v-243v-82v-76l1 -183q1 -28 -14 -42q-14 -13 -41 -13q-26 0 -42 13t-16 39v42v47l2 274zM56 765q-2 -26 -36 -26q-17 0 -27 12t-12 32q3 39 29 64q25 24 66 24q27 0 48 -15q11 -8 20.5 -15
t17.5 -15q16 -14 33 -16q24 0 26 32q4 28 39 28q16 0 26 -10q11 -11 11 -25q0 -50 -25 -75t-67 -25q-34 1 -67 30q-33 28 -51 30q-25 0 -30 -29z" />
    <glyph glyph-name="itilde" unicode="&#x129;" horiz-adv-x="252" 
d="M71 412q2 26 17 38t36 12q28 0 42 -13q15 -14 15 -48q1 -38 0 -114q-2 -77 0 -114v-125q1 -27 -13 -40t-43 -13q-24 0 -39 12t-15 35v370zM40 576q-2 -26 -36 -26q-17 0 -27 12t-12 32q3 39 29 64q25 24 66 24q27 0 48 -15q11 -8 20.5 -15t17.5 -15q16 -14 33 -16
q24 0 26 32q4 28 39 28q16 0 26 -10q11 -11 11 -25q0 -50 -25 -75t-67 -25q-34 1 -67 30q-33 28 -51 30q-25 0 -30 -29z" />
    <glyph glyph-name="Imacron" unicode="&#x12a;" horiz-adv-x="286" 
d="M88 410q0 23 -0.5 77t-1.5 142q0 26 17 40q16 13 42 13q24 0 39 -12t15 -35v-243v-82v-76l1 -183q1 -28 -14 -42q-14 -13 -41 -13q-26 0 -42 13t-16 39v42v47l2 274zM46 766q-46 0 -46 43q0 45 53 45h38h41h26t34 1t31.5 1h20.5q45 0 45 -43q1 -22 -14 -34t-44 -12h-96
h-46h-42z" />
    <glyph glyph-name="imacron" unicode="&#x12b;" horiz-adv-x="252" 
d="M71 412q2 26 17 38t36 12q28 0 42 -13q15 -14 15 -48q1 -38 0 -114q-2 -77 0 -114v-125q1 -27 -13 -40t-43 -13q-24 0 -39 12t-15 35v370zM28 577q-46 0 -46 43q0 45 53 45h39h42h26t34 1t31.5 1h20.5q45 0 45 -43q1 -22 -14 -34t-44 -12h-96h-46h-42z" />
    <glyph glyph-name="Ibreve" unicode="&#x12c;" horiz-adv-x="286" 
d="M88 410q0 23 -0.5 77t-1.5 142q0 26 17 40q16 13 42 13q24 0 39 -12t15 -35v-243v-82v-76l1 -183q1 -28 -14 -42q-14 -13 -41 -13q-26 0 -42 13t-16 39v42v47l2 274zM246 879q17 0 27 -10t10 -24q0 -56 -39 -93q-40 -38 -99 -38q-54 0 -93 36q-40 36 -41 90q0 16 11 29
q10 12 27 12q15 0 24 -9q10 -10 11 -22q1 -26 18 -43q16 -16 44 -16q27 0 44 18q16 18 18 42q2 32 36 32z" />
    <glyph glyph-name="ibreve" unicode="&#x12d;" horiz-adv-x="252" 
d="M71 412q2 26 17 38t36 12q28 0 42 -13q15 -14 15 -48q1 -38 0 -114q-2 -77 0 -114v-125q1 -27 -13 -40t-43 -13q-24 0 -39 12t-15 35v370zM230 690q17 0 27 -10t10 -24q0 -56 -39 -93q-40 -38 -99 -38q-54 0 -93 36q-40 36 -41 90q0 16 11 29q10 12 27 12q15 0 24 -9
q10 -10 11 -22q1 -26 18 -43q16 -16 44 -16q27 0 44 18q16 18 18 42q2 32 36 32z" />
    <glyph glyph-name="Iogonek" unicode="&#x12e;" horiz-adv-x="286" 
d="M88 411q0 45 -0.5 98.5t-1.5 117.5q0 56 57 56q22 0 39 -12q16 -12 16 -36v-219v-40v-75v-67v-91v-93q0 -39 -24 -49q-74 -60 -74 -106q0 -17 9 -27t24 -10q5 0 10 0.5t10 1.5t9.5 1.5t8.5 0.5q13 0 22 -12t9 -28q0 -22 -21 -34t-52 -12q-47 0 -76 25q-30 25 -30 75
q0 71 85 129q-21 13 -21 55v32v62v53t1 75t1 75v54h-1z" />
    <glyph glyph-name="iogonek" unicode="&#x12f;" horiz-adv-x="254" 
d="M71 409q2 26 17 38t36 12q28 0 42 -13q15 -14 15 -48v-114v-113v-125q0 -33 -23 -47q-64 -55 -64 -105q0 -17 9 -27t24 -10q9 0 20 3q10 3 18 3q14 0 23 -11t9 -29q0 -47 -72 -47q-46 0 -78 26q-31 25 -31 75q0 67 77 126q-21 12 -21 39v370zM120 578q-31 0 -49 21
q-18 22 -14 53q5 29 25 44q21 15 47 15q33 0 51 -19q18 -20 18 -49q0 -33 -21 -49q-20 -16 -55 -16h-2z" />
    <glyph glyph-name="Idotaccent" unicode="&#x130;" horiz-adv-x="286" 
d="M88 410q0 23 -0.5 77t-1.5 142q0 26 17 40q16 13 42 13q24 0 39 -12t15 -35v-243v-82v-76l1 -183q1 -28 -14 -42q-14 -13 -41 -13q-26 0 -42 13t-16 39v42v47l2 274zM137 748q-29 0 -47 21q-18 20 -16 51q4 27 24 42q19 15 47 15q30 0 47 -18q17 -19 17 -46
q0 -32 -19 -48q-20 -17 -51 -17h-2z" />
    <glyph glyph-name="dotlessi" unicode="&#x131;" horiz-adv-x="252" 
d="M71 412q2 26 17 38t36 12q28 0 42 -13q15 -14 15 -48q1 -38 0 -114q-2 -77 0 -114v-125q1 -27 -13 -40t-43 -13q-24 0 -39 12t-15 35v370v0z" />
    <glyph glyph-name="IJ" unicode="&#x132;" horiz-adv-x="774" 
d="M88 410q0 23 -0.5 77t-1.5 142q0 26 17 40q16 13 42 13q24 0 39 -12t15 -35v-243v-82v-76l1 -183q1 -28 -14 -42q-14 -13 -41 -13q-26 0 -42 13t-16 39v42v47l2 274zM571 627q-1 25 14 40t41 15q60 0 60 -53q0 -21 0.5 -53t1.5 -76t1.5 -77t0.5 -56v-70.5t-1 -48.5
q-8 -257 -226 -257q-42 0 -78 16q-38 17 -58 34q-28 25 -28 54q0 21 14 37q13 15 35 15q20 0 57 -28q29 -23 65 -23q68 0 89 57t21 175z" />
    <glyph glyph-name="ij" unicode="&#x133;" horiz-adv-x="501" 
d="M72 411q2 26 17 38t36 12q28 0 42 -13q15 -14 15 -48v-114v-113v-125q1 -27 -13 -40t-43 -13q-24 0 -39 12t-15 35v370v-1zM121 580q-31 0 -49 21q-18 22 -14 53q5 29 25 44q21 15 47 15q33 0 51 -19q18 -20 18 -49q0 -33 -21 -49q-20 -16 -55 -16h-2zM320 416
q2 20 18 32t39 12t39 -11q15 -11 15 -33v-114v-130q0 -103 -0.5 -167.5t-1.5 -90.5q-1 -61 -50 -106q-48 -45 -118 -45q-97 -1 -97 60q0 24 12 39t28 15q11 0 26 -4q16 -5 30 -3q60 0 63 96q1 52 0 286q-1 52 -1.5 93t-0.5 72zM371 577q-32 0 -51 18t-19 50t21 50t53 18
q33 0 52 -19t19 -51q0 -68 -77 -68z" />
    <glyph glyph-name="Jcircumflex" unicode="&#x134;" horiz-adv-x="487" 
d="M286 628q-1 25 14 40t41 15q60 0 60 -53q0 -21 0.5 -53t1.5 -76t1.5 -77t0.5 -56v-70.5t-1 -48.5q-8 -257 -226 -257q-42 0 -78 16q-38 17 -58 34q-28 25 -28 54q0 21 14 37q13 15 35 15q20 0 57 -28q29 -23 65 -23q68 0 89 57t21 175zM448 715q-15 0 -29 14
q-11 11 -30 29.5t-45 46.5q-66 -71 -75 -77q-13 -13 -30 -13q-12 0 -24 12t-12 24q0 14 12 29l86 95q18 19 43 19q23 0 40 -18q51 -53 87 -96q13 -14 13 -28q0 -11 -12 -23t-25 -12z" />
    <glyph glyph-name="jcircumflex" unicode="&#x135;" horiz-adv-x="245" 
d="M67 417q2 20 18 32t39 12t39 -11q15 -11 15 -33v-114v-130q0 -103 -0.5 -167.5t-1.5 -90.5q-1 -61 -50 -106q-48 -45 -118 -45q-97 -1 -97 60q0 24 12 39t28 15q11 0 26 -4q16 -5 30 -3q60 0 63 96q1 52 0 286q-1 52 -1.5 93t-0.5 72zM230 526q-15 0 -29 14
q-11 11 -30 29.5t-45 46.5q-66 -71 -75 -77q-13 -13 -30 -13q-12 0 -24 12t-12 24q0 14 12 29l86 95q18 19 43 19q22 0 39 -18q51 -53 87 -96q13 -14 13 -28q0 -11 -12 -23t-25 -12z" />
    <glyph glyph-name="Kcommaaccent" unicode="&#x136;" horiz-adv-x="616" 
d="M191 351q149 164 262 301q25 31 51 31q23 0 40 -16q18 -17 18 -36q0 -23 -19 -45q-20 -23 -62.5 -68.5t-107.5 -114.5l-35 -39l143 -171l84 -97q23 -23 23 -48q0 -23 -19 -39t-42 -16q-27 0 -47 26l-30 38l-186 240q-7 -8 -16.5 -18t-23.5 -24t-22.5 -23t-13.5 -14
l1 -176q0 -46 -56 -48q-27 0 -41 13q-15 13 -15 36v33v42v109.5t1 143.5t1 145v113q0 54 57 54q55 0 55 -50v-144v-138zM249 -200q0 7 14 23q13 15 18 24q4 7 -9 22q-13 14 -13 30q0 21 15 36t38 15q22 0 39 -15q16 -15 16 -39q0 -61 -67 -110q-18 -8 -27 -8q-11 0 -18 6
t-7 17z" />
    <glyph glyph-name="kcommaaccent" unicode="&#x137;" horiz-adv-x="479" 
d="M442 80q14 -17 14 -32q0 -18 -18 -36t-40 -18q-23 0 -47 31l-136 165q-10 -9 -20.5 -19.5l-21.5 -21.5l-1 -98q0 -57 -53 -57q-56 0 -54 59l2 110v219v221v45.5t-1 29.5q0 26 16 39t40 13q55 0 55 -54q0 -9 -3 -408l168 172q25 27 48 27q18 0 37 -17q18 -17 18 -36
q0 -16 -20 -39q-5 -5 -38 -36.5t-95 -89.5zM194 -200q0 7 14 23q13 15 18 24q4 7 -9 22q-13 14 -13 30q0 21 15 36t38 15q22 0 39 -15q16 -15 16 -39q0 -61 -67 -110q-18 -8 -27 -8q-11 0 -18 6t-7 17z" />
    <glyph glyph-name="kgreenlandic" unicode="&#x138;" horiz-adv-x="479" 
d="M440 84q17 -20 17 -36q0 -19 -18 -35q-19 -17 -40 -17q-23 0 -47 31l-136 162l-43 -1l-1 -135q0 -57 -53 -57q-56 0 -54 59l1 113l-1 243q0 26 16 39q17 14 40 14q53 0 53 -57l-1 -123h32q24 1 45 33q11 16 21.5 33.5t21.5 37.5q23 39 46 54q26 19 60 19q20 0 35 -15
t14 -36q0 -31 -35 -45q-31 -13 -64 -66q-32 -52 -51 -64z" />
    <glyph glyph-name="Lacute" unicode="&#x139;" horiz-adv-x="502" 
d="M77 630q2 25 18 38q17 14 42 14q50 0 52 -51v-63v-36.5t-1 -41.5t-1 -39v-30v-94v-93v-79v-43v-13h68t38 1l143 5q49 0 49 -47q0 -57 -52 -57l-114 1q-51 0 -86 -0.5t-55 -1.5q-56 -1 -78 11q-20 12 -25 53v38q0 42 3 126t3 119v150v134zM128 731q-14 -11 -29 -11
q-12 0 -27 12t-15 26q0 12 10 26l90 104q18 21 37 21t36 -15t17 -34q0 -15 -16 -32q-46 -49 -103 -97z" />
    <glyph glyph-name="lacute" unicode="&#x13a;" horiz-adv-x="251" 
d="M148 761q-14 -12 -30 -12q-14 0 -27 12q-14 12 -14 26t10 27l72 89q18 21 38 21q19 0 36 -15t17 -34q0 -15 -16 -32zM70 669q1 25 18 39t42 14q56 0 56 -62q-2 -135 -3.5 -256.5t-1.5 -232.5q0 -13 0.5 -30.5t1.5 -40.5t1.5 -37t0.5 -19q-2 -25 -13 -36q-13 -13 -39 -14
q-29 -2 -45 16q-17 18 -18 61q-3 79 0 598z" />
    <glyph glyph-name="Lcommaaccent" unicode="&#x13b;" horiz-adv-x="502" 
d="M77 630q2 25 18 38q17 14 42 14q50 0 52 -51v-63v-36.5t-1 -41.5t-1 -39v-30v-94v-93v-79v-43v-13h68t38 1l143 5q49 0 49 -47q0 -57 -52 -57l-114 1q-51 0 -86 -0.5t-55 -1.5q-56 -1 -78 11q-20 12 -25 53v38q0 42 3 126t3 119v150v134zM212 -201q0 7 14 23q13 15 18 24
q4 7 -9 22q-13 14 -13 30q0 21 15 36t38 15q22 0 39 -15q16 -15 16 -39q0 -61 -67 -110q-18 -8 -27 -8q-11 0 -18 6t-7 17z" />
    <glyph glyph-name="lcommaaccent" unicode="&#x13c;" horiz-adv-x="251" 
d="M72 669q1 25 18 39t42 14q56 0 56 -62q-2 -135 -3.5 -256.5t-1.5 -232.5q0 -13 0.5 -30.5t1.5 -40.5t1.5 -37t0.5 -19q-2 -25 -13 -36q-13 -13 -39 -14q-29 -2 -45 16q-17 18 -18 61q-3 79 0 598zM68 -200q0 7 14 23q13 15 18 24q4 7 -9 22q-13 14 -13 30q0 21 15 36
t38 15q22 0 39 -15q16 -15 16 -39q0 -61 -67 -110q-18 -8 -27 -8q-11 0 -18 6t-7 17z" />
    <glyph glyph-name="Lcaron" unicode="&#x13d;" horiz-adv-x="512" 
d="M418 570q-17 1 -30 15q-14 13 -15 36q0 26 18 44t44 18q31 0 51 -21q19 -20 19 -57q0 -36 -23 -73q-23 -36 -57 -57q-10 -7 -20 -7q-11 0 -21 8q-9 7 -9 18q0 13 12 24q32 24 32 44v4zM77 634q2 25 18 38q17 14 42 14q50 0 52 -51v-63v-36.5t-1 -41.5t-1 -39v-30v-94v-93
v-79v-43v-13h68t38 1l143 5q49 0 49 -47q0 -57 -52 -57l-114 1q-51 0 -86 -0.5t-55 -1.5q-56 -1 -78 11q-20 12 -25 53v38q0 42 3 126t3 119v150v134z" />
    <glyph glyph-name="lcaron" unicode="&#x13e;" horiz-adv-x="367" 
d="M285 614q-16 1 -28 15q-12 13 -12 36q-1 24 17 42t41 18q30 0 48 -19q18 -20 18 -54q0 -35 -22 -70q-22 -36 -55 -55q-9 -6 -19 -6q-9 0 -19 8q-9 7 -9 18q0 13 11 22q31 24 31 44v3zM71 667q1 25 18 39t42 14q56 0 56 -62q-2 -135 -3.5 -256.5t-1.5 -232.5
q0 -13 0.5 -30.5t1.5 -40.5t1.5 -37t0.5 -19q-2 -25 -13 -36q-13 -13 -39 -14q-29 -2 -45 16q-17 18 -18 61q-3 79 0 598z" />
    <glyph glyph-name="Ldot" unicode="&#x13f;" horiz-adv-x="502" 
d="M77 630q2 25 18 38q17 14 42 14q50 0 52 -51v-63v-36.5t-1 -41.5t-1 -39v-30v-94v-93v-79v-43v-13h68t38 1l143 5q49 0 49 -47q0 -57 -52 -57l-114 1q-51 0 -86 -0.5t-55 -1.5q-56 -1 -78 11q-20 12 -25 53v38q0 42 3 126t3 119v150v134zM389 289q-29 0 -47 18t-18 47
q0 30 20 50t51 20q29 0 48 -19q20 -20 20 -48q0 -31 -20 -49t-53 -18z" />
    <glyph glyph-name="ldot" unicode="&#x140;" horiz-adv-x="398" 
d="M72 669q1 25 18 39t42 14q56 0 56 -62q-2 -135 -3.5 -256.5t-1.5 -232.5q0 -13 0.5 -30.5t1.5 -40.5t1.5 -37t0.5 -19q-2 -25 -13 -36q-13 -13 -39 -14q-29 -2 -45 16q-17 18 -18 61q-3 79 0 598zM316 231q-29 0 -47 18t-18 47q0 30 20 50t51 20q29 0 48 -19
q20 -20 20 -48q0 -31 -20 -49t-53 -18z" />
    <glyph glyph-name="Lslash" unicode="&#x141;" horiz-adv-x="502" 
d="M80 630q2 25 18 38q17 14 42 14q52 0 52 -52l-2 -189v-46l57 33q17 11 36 11q16 0 28 -16q12 -17 12 -34q0 -26 -36 -45l-98 -55v-56l-1 -135h66t38 1l143 4q49 1 49 -45q0 -57 -52 -57l-257 -1q-56 -2 -78 13q-23 15 -21 56l3 134v28l-27 -15q-12 -6 -21 -6
q-17 0 -29 16t-12 33q1 25 33 42l58 33v297z" />
    <glyph glyph-name="lslash" unicode="&#x142;" horiz-adv-x="271" 
d="M84 248l-21 -13q-18 -12 -31 -12q-17 0 -29 15t-12 32q0 27 31 46l62 39v149v149q0 68 57 68q55 0 55 -56q-1 -72 -1.5 -132.5t-0.5 -110.5l23 15q10 7 23 7q17 0 29 -15t12 -34q0 -27 -36 -48l-53 -34v-150q0 -8 0.5 -22.5t1.5 -35.5t1.5 -34.5t0.5 -19.5q0 -56 -50 -56
q-34 0 -49 18t-15 59z" />
    <glyph glyph-name="Nacute" unicode="&#x143;" horiz-adv-x="713" 
d="M188 58q0 -62 -53 -62q-56 0 -58 50v93t1 157v224v110q0 22 20 36t47 14q23 0 38 -12q16 -13 33 -37l233 -329l80 -114q-1 52 -1.5 102.5t-0.5 100.5l-2 220q-1 34 11 53q12 18 45 18q53 0 53 -64v-168v-167q1 -54 1.5 -111.5t0.5 -119.5q0 -24 -19 -39q-20 -15 -48 -15
q-20 0 -34 11q-13 10 -33 38l-318 455q0 -16 1 -126t3 -318zM348 732q-14 -11 -29 -11q-12 0 -27 12t-15 26q0 12 10 26l90 104q18 21 37 21t36 -15t17 -34q0 -15 -16 -32q-46 -49 -103 -97z" />
    <glyph glyph-name="nacute" unicode="&#x144;" horiz-adv-x="559" 
d="M68 396q-1 64 57 64q25 0 36 -12t12 -37l2 -35q16 39 59 64q42 24 90 24q83 0 128 -52q45 -53 45 -145v-54v-75v-86q0 -56 -59 -56q-22 0 -37 12t-15 36q0 14 0.5 37.5t1.5 56.5t1.5 57.5t0.5 40.5q-1 61 -21 97t-72 36q-38 0 -63 -12t-37 -38q-11 -24 -16 -53
q-2 -14 -3 -30t-1 -36l1 -157q0 -26 -16 -36q-17 -11 -39 -11q-55 0 -55 48q0 5 0.5 29t1.5 66q1 84 0 171zM277 540q-14 -11 -29 -11q-12 0 -27 12t-15 26q0 12 10 26l90 104q16 21 36 21q19 0 36 -15t17 -34q0 -15 -16 -32q-46 -49 -103 -97h1z" />
    <glyph glyph-name="Ncommaaccent" unicode="&#x145;" horiz-adv-x="713" 
d="M188 58q0 -62 -53 -62q-56 0 -58 50v93t1 157v224v110q0 22 20 36t47 14q23 0 38 -12q16 -13 33 -37l233 -329l80 -114q-1 52 -1.5 102.5t-0.5 100.5l-2 220q-1 34 11 53q12 18 45 18q53 0 53 -64v-168v-167q1 -54 1.5 -111.5t0.5 -119.5q0 -24 -19 -39q-20 -15 -48 -15
q-20 0 -34 11q-13 10 -33 38l-318 455q0 -16 1 -126t3 -318zM296 -200q0 7 14 23q13 15 18 24q4 7 -9 22q-13 14 -13 30q0 21 15 36t38 15q22 0 39 -15q16 -15 16 -39q0 -61 -67 -110q-18 -8 -27 -8q-11 0 -18 6t-7 17z" />
    <glyph glyph-name="ncommaaccent" unicode="&#x146;" horiz-adv-x="559" 
d="M68 396q-1 64 57 64q25 0 36 -12t12 -37l2 -35q16 39 59 64q42 24 90 24q83 0 128 -52q45 -53 45 -145v-54v-75v-86q0 -56 -59 -56q-22 0 -37 12t-15 36q0 14 0.5 37.5t1.5 56.5t1.5 57.5t0.5 40.5q-1 61 -21 97t-72 36q-38 0 -63 -12t-37 -38q-11 -24 -16 -53
q-2 -14 -3 -30t-1 -36l1 -157q0 -26 -16 -36q-17 -11 -39 -11q-55 0 -55 48q0 5 0.5 29t1.5 66q1 84 0 171zM220 -202q0 7 14 23q13 15 18 24q4 7 -9 22q-13 14 -13 30q0 21 15 36t38 15q22 0 39 -15q16 -15 16 -39q0 -61 -67 -110q-18 -8 -27 -8q-11 0 -18 6t-7 17z" />
    <glyph glyph-name="Ncaron" unicode="&#x147;" horiz-adv-x="713" 
d="M188 58q0 -62 -53 -62q-56 0 -58 50v93t1 157v224v110q0 22 20 36t47 14q23 0 38 -12q16 -13 33 -37l233 -329l80 -114q-1 52 -1.5 102.5t-0.5 100.5l-2 220q-1 34 11 53q12 18 45 18q53 0 53 -64v-168v-167q1 -54 1.5 -111.5t0.5 -119.5q0 -24 -19 -39q-20 -15 -48 -15
q-20 0 -34 11q-13 10 -33 38l-318 455q0 -16 1 -126t3 -318zM250 896q13 0 30 -14q15 -14 75 -75q56 60 74 77q13 13 30 13q12 0 24 -12t12 -24q0 -16 -12 -29q-8 -11 -84 -96q-18 -19 -44 -19q-24 0 -40 18q-28 31 -49.5 55t-37.5 42q-13 14 -13 29q0 12 12 24t26 12z" />
    <glyph glyph-name="ncaron" unicode="&#x148;" horiz-adv-x="559" 
d="M68 396q-1 64 57 64q25 0 36 -12t12 -37l2 -35q16 39 59 64q42 24 90 24q83 0 128 -52q45 -53 45 -145v-54v-75v-86q0 -56 -59 -56q-22 0 -37 12t-15 36q0 14 0.5 37.5t1.5 56.5t1.5 57.5t0.5 40.5q-1 61 -21 97t-72 36q-38 0 -63 -12t-37 -38q-11 -24 -16 -53
q-2 -14 -3 -30t-1 -36l1 -157q0 -26 -16 -36q-17 -11 -39 -11q-55 0 -55 48q0 5 0.5 29t1.5 66q1 84 0 171zM177 704q13 0 30 -14q15 -14 75 -75q56 60 74 77q13 13 30 13q12 0 24 -12t12 -24q0 -16 -12 -29q-8 -11 -84 -96q-18 -19 -44 -19q-23 0 -39 18q-28 31 -49.5 55
t-37.5 42q-13 14 -13 29q0 12 12 24t26 12z" />
    <glyph glyph-name="napostrophe" unicode="&#x149;" horiz-adv-x="559" 
d="M43 614q-16 1 -28 15q-12 13 -12 36q-1 24 17 42t42 18q30 0 48 -19q18 -20 18 -54q0 -35 -22 -70q-22 -36 -55 -55q-9 -6 -19 -6q-9 0 -19 8q-9 7 -9 18q0 13 11 22q31 24 31 44v3zM66 394q-1 64 57 64q25 0 36 -12t12 -37l2 -35q16 39 59 64q42 24 90 24q83 0 128 -52
q45 -53 45 -145v-54v-75v-86q0 -56 -59 -56q-22 0 -37 12t-15 36q0 14 0.5 37.5t1.5 56.5t1.5 57.5t0.5 40.5q-1 61 -21 97t-72 36q-38 0 -63 -12t-37 -38q-11 -24 -16 -53q-2 -14 -3 -30t-1 -36l1 -157q0 -26 -16 -36q-17 -11 -39 -11q-55 0 -55 48q0 5 0.5 29t1.5 66
q1 84 0 171z" />
    <glyph glyph-name="Eng" unicode="&#x14a;" horiz-adv-x="713" 
d="M187 57q0 -62 -53 -62q-56 0 -58 50v93t1 157v224v110q0 22 20 36t47 14q23 0 38 -12q16 -13 33 -37l233 -329l78 -113v202l-2 220q-1 34 11 53q12 18 45 18q53 0 53 -64v-666q0 -79 -42 -133q-42 -53 -117 -55q-96 0 -96 58q0 24 12 38t29 14q9 0 24 -3t28 -3
q58 1 58 103v42l-345 490q0 -16 1 -126t3 -318z" />
    <glyph glyph-name="eng" unicode="&#x14b;" horiz-adv-x="559" 
d="M386 234q0 132 -91 132q-38 0 -63 -12t-37 -38q-11 -24 -16 -53q-2 -14 -3 -30t-1 -36l1 -157q0 -26 -16 -36q-17 -11 -39 -11q-55 0 -55 48q0 5 0.5 29t1.5 66q1 84 0 171l-1 88q-1 64 57 64q25 0 36 -12t12 -37l2 -35q16 39 59 64q42 24 90 24q83 0 128 -52
q45 -53 45 -145v-334q0 -77 -48 -122t-121 -45q-95 -2 -95 57q0 24 12 39t28 15q9 0 24 -3q17 -3 29 -2q64 0 64 98v268z" />
    <glyph glyph-name="Omacron" unicode="&#x14c;" horiz-adv-x="745" 
d="M374 684q134 0 232 -96q97 -96 97 -243q0 -150 -94 -253t-237 -103q-130 0 -229 93t-99 241q0 160 101 263q100 102 230 100zM591 344q-1 104 -69 172q-67 67 -159 67q-86 0 -147 -72q-62 -73 -62 -180t64 -172q64 -66 159 -66q90 0 153 75q63 76 62 175zM273 766
q-46 0 -46 43q0 45 53 45h38h41h26t34 1t31.5 1h20.5q45 0 45 -43q1 -22 -14 -34t-44 -12h-96h-46h-42z" />
    <glyph glyph-name="omacron" unicode="&#x14d;" 
d="M292 467q19 0 30 -6q90 -14 138 -81q48 -68 48 -153q0 -102 -69 -169q-68 -67 -174 -67q-93 0 -160 63t-67 160q0 113 69 182q68 68 187 70zM397 233q0 57 -33 96t-92 42q-59 -3 -93 -45q-34 -41 -34 -112q0 -55 36 -91t81 -36q55 0 96 41q40 40 40 105h-1zM169 578
q-46 0 -46 43q0 45 53 45h39h42h26t34 1t31.5 1h20.5q45 0 45 -43q1 -22 -14 -34t-44 -12h-96h-46h-42z" />
    <glyph glyph-name="Obreve" unicode="&#x14e;" horiz-adv-x="745" 
d="M374 684q134 0 232 -96q97 -96 97 -243q0 -150 -94 -253t-237 -103q-130 0 -229 93t-99 241q0 160 101 263q100 102 230 100zM591 344q-1 104 -69 172q-67 67 -159 67q-86 0 -147 -72q-62 -73 -62 -180t64 -172q64 -66 159 -66q90 0 153 75q63 76 62 175zM473 879
q17 0 27 -10t10 -24q0 -56 -39 -93q-40 -38 -99 -38q-54 0 -93 36q-40 36 -41 90q0 16 11 29q10 12 27 12q15 0 24 -9q10 -10 11 -22q1 -26 18 -43q16 -16 44 -16q27 0 44 18q16 18 18 42q2 32 36 32z" />
    <glyph glyph-name="obreve" unicode="&#x14f;" 
d="M292 467q19 0 30 -6q90 -14 138 -81q48 -68 48 -153q0 -102 -69 -169q-68 -67 -174 -67q-93 0 -160 63t-67 160q0 113 69 182q68 68 187 70zM397 233q0 57 -33 96t-92 42q-59 -3 -93 -45q-34 -41 -34 -112q0 -55 36 -91t81 -36q55 0 96 41q40 40 40 105h-1zM371 691
q17 0 27 -10t10 -24q0 -56 -39 -93q-40 -38 -99 -38q-54 0 -93 36q-40 36 -41 90q0 16 11 29q10 12 27 12q15 0 24 -9q10 -10 11 -22q1 -26 18 -43q16 -16 44 -16q27 0 44 18q16 18 18 42q2 32 36 32z" />
    <glyph glyph-name="Ohungarumlaut" unicode="&#x150;" horiz-adv-x="745" 
d="M374 684q134 0 232 -96q97 -96 97 -243q0 -150 -94 -253t-237 -103q-130 0 -229 93t-99 241q0 160 101 263q100 102 230 100zM591 344q-1 104 -69 172q-67 67 -159 67q-86 0 -147 -72q-62 -73 -62 -180t64 -172q64 -66 159 -66q90 0 153 75q63 76 62 175zM320 731
q-14 -15 -27 -15q-16 0 -27 10q-12 10 -12 25q0 12 8 23l67 102q16 25 36 25q18 0 32 -12t14 -30q0 -16 -10 -29zM473 728q-14 -15 -25 -15q-15 0 -27 9t-12 24q0 10 9 24l73 102q15 25 35 25q18 0 33 -12t15 -28q0 -18 -12 -34z" />
    <glyph glyph-name="ohungarumlaut" unicode="&#x151;" 
d="M292 467q19 0 30 -6q90 -14 138 -81q48 -68 48 -153q0 -102 -69 -169q-68 -67 -174 -67q-93 0 -160 63t-67 160q0 113 69 182q68 68 187 70zM397 233q0 57 -33 96t-92 42q-59 -3 -93 -45q-34 -41 -34 -112q0 -55 36 -91t81 -36q55 0 96 41q40 40 40 105h-1zM212 543
q-14 -15 -28 -15q-16 0 -27 10q-12 10 -12 25q0 12 8 23l67 102q16 25 36 25q18 0 32 -12t14 -30q0 -16 -10 -29zM365 540q-14 -15 -25 -15q-15 0 -27 9t-12 24q0 10 9 24l73 102q15 25 35 25q18 0 33 -12t15 -28q0 -18 -12 -34z" />
    <glyph glyph-name="OE" unicode="&#x152;" horiz-adv-x="1071" 
d="M379 683q81 0 140 -31q61 -32 92 -81q0 13 0.5 24t1.5 21q4 31 20 45t47 14h30t54 -1h57.5t68.5 1t59.5 1h31.5q24 0 38 -12t14 -32q0 -53 -47 -53h-267q-1 -33 -1.5 -56.5t-0.5 -37.5v-47v-31v-17v-9v-4h42h189q20 -1 31 -12q10 -10 10 -33q-2 -47 -53 -47h-220
q-1 -5 -1 -11.5v-15.5v-162h75q22 0 47.5 0.5t54.5 1.5t52.5 1h40.5q50 0 50 -48q0 -29 -16 -41q-17 -12 -49 -12h-155t-104 -1q-49 0 -70 15q-22 15 -26 54q-3 16 -3 46q-82 -121 -239 -121q-133 0 -231 92t-98 240q0 81 29 153q29 71 77 116q49 46 108 71q60 25 123 24z
M613 346q-2 107 -69 170q-68 63 -168 63q-88 0 -154 -72t-66 -178q0 -104 68 -172t164 -66q102 0 164 75q61 75 60 180h1z" />
    <glyph glyph-name="oe" unicode="&#x153;" horiz-adv-x="855" 
d="M297 451q47 -2 89 -27q42 -26 63 -66q22 44 71 73q47 28 101 28q88 0 144 -55q57 -56 57 -129q0 -43 -13 -57t-63 -16q-94 -2 -154 -3t-86 -1q5 -45 38 -77q34 -32 80 -32q34 0 80 20t59 20q18 0 31 -16t13 -36q0 -21 -26 -42q-59 -44 -164 -44q-53 0 -99 28
q-47 29 -71 72q-68 -99 -189 -99q-90 0 -157 65q-66 64 -66 158q0 108 69 179t172 71q14 0 24 -7zM389 220q0 59 -33 98q-33 40 -91 41q-58 -1 -91 -42t-33 -111q0 -54 36 -90t81 -36q57 0 95 39q38 40 38 105zM618 367q-46 0 -79 -33t-37 -76q204 4 216 9q0 44 -28 71
q-29 27 -72 27v2z" />
    <glyph glyph-name="Racute" unicode="&#x154;" horiz-adv-x="609" 
d="M78 610q0 62 79 65q25 1 46.5 1.5t40.5 0.5h42t33 -1q103 -4 166 -60t63 -152q0 -68 -36 -119t-95 -71l142 -193q15 -20 15 -36q0 -21 -18 -36t-40 -15q-24 -2 -48 27l-154 225h-124v-99v-93q0 -57 -47 -59q-36 -2 -50 12q-14 13 -12 48q1 32 1 145.5v310.5v21t-1 30
t-1 30v21zM293 581q-28 0 -55 -0.5t-53 -1.5l1 -240h100q67 0 108 30t42 94q1 57 -36 88t-105 31zM288 728q-14 -11 -29 -11q-12 0 -27 12t-15 26q0 12 10 26l90 104q16 21 36 21q19 0 36 -15t17 -34q0 -15 -16 -32q-46 -49 -103 -97h1z" />
    <glyph glyph-name="racute" unicode="&#x155;" horiz-adv-x="367" 
d="M70 406q-1 25 14 39q14 13 41 13q36 0 42 -36l4 -55q20 44 59 70q37 25 78 25q53 0 53 -52q0 -22 -12 -37t-34 -15h-17q-52 0 -86 -42q-35 -43 -35 -115v-25.5t1 -46.5q2 -57 0 -89q-1 -46 -57 -46q-26 0 -40 14q-14 13 -12 48q3 231 3 246v53v54zM204 539
q-14 -11 -29 -11q-12 0 -27 12t-15 26q0 12 10 26l90 104q16 21 36 21q19 0 36 -15t17 -34q0 -15 -16 -32q-46 -49 -103 -97h1z" />
    <glyph glyph-name="Rcommaaccent" unicode="&#x156;" horiz-adv-x="609" 
d="M78 610q0 62 79 65q25 1 46.5 1.5t40.5 0.5h42t33 -1q103 -4 166 -60t63 -152q0 -68 -36 -119t-95 -71l142 -193q15 -20 15 -36q0 -21 -18 -36t-40 -15q-24 -2 -48 27l-154 225h-124v-99v-93q0 -57 -47 -59q-36 -2 -50 12q-14 13 -12 48q1 32 1 145.5v310.5v21t-1 30
t-1 30v21zM293 581q-28 0 -55 -0.5t-53 -1.5l1 -240h100q67 0 108 30t42 94q1 57 -36 88t-105 31zM254 -204q0 7 14 23q13 15 18 24q4 7 -9 22q-13 14 -13 30q0 21 15 36t38 15q22 0 39 -15q16 -15 16 -39q0 -61 -67 -110q-18 -8 -27 -8q-11 0 -18 6t-7 17z" />
    <glyph glyph-name="rcommaaccent" unicode="&#x157;" horiz-adv-x="367" 
d="M70 406q-1 25 14 39q14 13 41 13q36 0 42 -36l4 -55q20 44 59 70q37 25 78 25q53 0 53 -52q0 -22 -12 -37t-34 -15h-17q-52 0 -86 -42q-35 -43 -35 -115v-25.5t1 -46.5q2 -57 0 -89q-1 -46 -57 -46q-26 0 -40 14q-14 13 -12 48q3 231 3 246v53v54zM59 -203q0 7 14 23
q13 15 18 24q4 7 -9 22q-13 14 -13 30q0 21 15 36t38 15q22 0 39 -15q16 -15 16 -39q0 -61 -67 -110q-18 -8 -27 -8q-11 0 -18 6t-7 17z" />
    <glyph glyph-name="Rcaron" unicode="&#x158;" horiz-adv-x="609" 
d="M78 610q0 62 79 65q25 1 46.5 1.5t40.5 0.5h42t33 -1q103 -4 166 -60t63 -152q0 -68 -36 -119t-95 -71l142 -193q15 -20 15 -36q0 -21 -18 -36t-40 -15q-24 -2 -48 27l-154 225h-124v-99v-93q0 -57 -47 -59q-36 -2 -50 12q-14 13 -12 48q1 32 1 145.5v310.5v21t-1 30
t-1 30v21zM293 581q-28 0 -55 -0.5t-53 -1.5l1 -240h100q67 0 108 30t42 94q1 57 -36 88t-105 31zM188 892q13 0 30 -14q15 -14 75 -75q56 60 74 77q13 13 30 13q12 0 24 -12t12 -24q0 -16 -12 -29q-8 -11 -84 -96q-18 -19 -44 -19q-23 0 -39 18q-28 31 -49.5 55t-37.5 42
q-13 14 -13 29q0 12 12 24t26 12z" />
    <glyph glyph-name="rcaron" unicode="&#x159;" horiz-adv-x="367" 
d="M70 406q-1 25 14 39q14 13 41 13q36 0 42 -36l4 -55q20 44 59 70q37 25 78 25q53 0 53 -52q0 -22 -12 -37t-34 -15h-17q-52 0 -86 -42q-35 -43 -35 -115v-25.5t1 -46.5q2 -57 0 -89q-1 -46 -57 -46q-26 0 -40 14q-14 13 -12 48q3 231 3 246v53v54zM104 703q13 0 30 -14
q15 -14 75 -75q56 60 74 77q13 13 30 13q12 0 24 -12t12 -24q0 -16 -12 -29q-8 -11 -84 -96q-18 -19 -44 -19q-23 0 -39 18q-28 31 -49.5 55t-37.5 42q-13 14 -13 29q0 12 12 24t26 12z" />
    <glyph glyph-name="Sacute" unicode="&#x15a;" horiz-adv-x="568" 
d="M459 650q33 -17 33 -51q0 -17 -14 -34q-13 -16 -33 -16q-15 0 -48 13q-53 24 -112 24q-51 0 -88 -29q-36 -29 -36 -72q0 -18 9 -31q9 -14 18 -21t32 -15q11 -4 20 -6.5t15 -4.5t16.5 -4t25.5 -6q106 -23 162 -64q57 -42 57 -129q0 -95 -68 -152q-67 -56 -174 -58
q-109 0 -190 40q-41 20 -41 54q0 22 14 39t35 17q12 0 45 -11q72 -36 136 -36q59 0 96 28t37 75q0 43 -36 66q-36 22 -102 36q-23 5 -43.5 10.5t-37.5 11.5q-33 11 -66 32q-32 19 -48 51q-17 32 -17 72q0 88 72 148t169 60t172 -36zM278 731q-14 -11 -29 -11q-12 0 -27 12
t-15 26q0 12 10 26l90 104q16 21 36 21q19 0 36 -15t17 -34q0 -15 -16 -32q-46 -49 -103 -97h1z" />
    <glyph glyph-name="sacute" unicode="&#x15b;" horiz-adv-x="455" 
d="M232 463q84 0 135 -23q31 -15 31 -39q0 -47 -43 -47q-11 0 -50 12t-71 12q-36 0 -60 -15t-24 -40q0 -30 48 -40q7 -1 47 -6q81 -10 125 -41q44 -30 44 -94q0 -70 -51 -109t-139 -39q-66 0 -123 20q-55 19 -55 45q0 54 43 54q13 0 60 -15q46 -15 85 -15q34 0 57 15t23 41
q0 28 -22 38q-23 10 -75 18q-18 2 -33 5t-28 6q-23 5 -52 20q-26 13 -40 36t-14 54q0 64 56 106q55 42 129 42zM225 541q-14 -11 -29 -11q-12 0 -27 12t-15 26q0 12 10 26l90 104q16 21 36 21q19 0 36 -15t17 -34q0 -15 -16 -32q-46 -49 -103 -97h1z" />
    <glyph glyph-name="Scircumflex" unicode="&#x15c;" horiz-adv-x="568" 
d="M459 650q33 -17 33 -51q0 -17 -14 -34q-13 -16 -33 -16q-15 0 -48 13q-53 24 -112 24q-51 0 -88 -29q-36 -29 -36 -72q0 -18 9 -31q9 -14 18 -21t32 -15q11 -4 20 -6.5t15 -4.5t16.5 -4t25.5 -6q106 -23 162 -64q57 -42 57 -129q0 -95 -68 -152q-67 -56 -174 -58
q-109 0 -190 40q-41 20 -41 54q0 22 14 39t35 17q12 0 45 -11q72 -36 136 -36q59 0 96 28t37 75q0 43 -36 66q-36 22 -102 36q-23 5 -43.5 10.5t-37.5 11.5q-33 11 -66 32q-32 19 -48 51q-17 32 -17 72q0 88 72 148t169 60t172 -36zM391 716q-15 0 -29 14q-11 11 -30 29.5
t-45 46.5q-66 -71 -75 -77q-13 -13 -30 -13q-12 0 -24 12t-12 24q0 14 12 29l86 95q18 19 43 19q23 0 40 -18q51 -53 87 -96q13 -14 13 -28q0 -11 -12 -23t-25 -12z" />
    <glyph glyph-name="scircumflex" unicode="&#x15d;" horiz-adv-x="455" 
d="M232 463q84 0 135 -23q31 -15 31 -39q0 -47 -43 -47q-11 0 -50 12t-71 12q-36 0 -60 -15t-24 -40q0 -30 48 -40q7 -1 47 -6q81 -10 125 -41q44 -30 44 -94q0 -70 -51 -109t-139 -39q-66 0 -123 20q-55 19 -55 45q0 54 43 54q13 0 60 -15q46 -15 85 -15q34 0 57 15t23 41
q0 28 -22 38q-23 10 -75 18q-18 2 -33 5t-28 6q-23 5 -52 20q-26 13 -40 36t-14 54q0 64 56 106q55 42 129 42zM338 526q-15 0 -29 14q-11 11 -30 29.5t-45 46.5q-66 -71 -75 -77q-13 -13 -30 -13q-12 0 -24 12t-12 24q0 14 12 29l86 95q18 19 43 19q23 0 40 -18
q51 -53 87 -96q13 -14 13 -28q0 -11 -12 -23t-25 -12z" />
    <glyph glyph-name="Scedilla" unicode="&#x15e;" horiz-adv-x="568" 
d="M244 -7q-91 4 -163 39q-41 20 -41 54q0 22 14 39t35 17q12 0 45 -11q72 -36 136 -36q59 0 96 28t37 75q0 43 -36 66q-36 22 -102 36q-23 5 -43.5 10.5t-37.5 11.5q-33 11 -66 32q-32 19 -48 51q-17 32 -17 72q0 88 72 148t169 60t172 -36q33 -17 33 -51q0 -17 -14 -34
q-13 -16 -33 -16q-15 0 -48 13q-53 24 -112 24q-51 0 -88 -29q-36 -29 -36 -72q0 -18 9 -31q9 -14 18 -21t32 -15q11 -4 20 -6.5t15 -4.5t16.5 -4t25.5 -6q106 -23 162 -64q57 -42 57 -129q0 -88 -57 -143q-58 -56 -151 -65l-13 -42q29 0 53 -21t24 -61q0 -47 -30 -74
t-76 -27q-32 0 -55 13q-25 10 -25 35q0 14 9 23t23 9q9 0 24 -7t28 -7q34 0 34 33q0 29 -37 29l-15 1q-17 0 -24 16q-8 17 -2 33z" />
    <glyph glyph-name="scedilla" unicode="&#x15f;" horiz-adv-x="455" 
d="M196 -9q-58 4 -105 23q-45 18 -45 41q0 54 43 54q13 0 60 -15q46 -15 85 -15q34 0 57 15t23 41q0 28 -22 38q-23 10 -75 18q-18 2 -33 5t-28 6q-23 5 -52 20q-26 13 -40 36t-14 54q0 64 56 106q55 42 129 42q84 0 135 -23q31 -15 31 -39q0 -47 -43 -47q-11 0 -50 12
t-71 12q-36 0 -60 -15t-24 -40q0 -30 48 -40q7 -1 47 -6q81 -10 125 -41q44 -30 44 -94q0 -63 -42 -100q-42 -38 -114 -45l-13 -41q29 0 53 -21t24 -61q0 -47 -30 -74t-76 -27q-27 0 -54 13q-25 10 -25 32q0 13 9 24t20 11q9 0 24 -7t29 -7q35 0 35 33q0 29 -38 29l-15 1
q-16 0 -23 16q-8 16 -3 33z" />
    <glyph glyph-name="Scaron" unicode="&#x160;" horiz-adv-x="568" 
d="M459 650q33 -17 33 -51q0 -17 -14 -34q-13 -16 -33 -16q-15 0 -48 13q-53 24 -112 24q-51 0 -88 -29q-36 -29 -36 -72q0 -18 9 -31q9 -14 18 -21t32 -15q11 -4 20 -6.5t15 -4.5t16.5 -4t25.5 -6q106 -23 162 -64q57 -42 57 -129q0 -95 -68 -152q-67 -56 -174 -58
q-109 0 -190 40q-41 20 -41 54q0 22 14 39t35 17q12 0 45 -11q72 -36 136 -36q59 0 96 28t37 75q0 43 -36 66q-36 22 -102 36q-23 5 -43.5 10.5t-37.5 11.5q-33 11 -66 32q-32 19 -48 51q-17 32 -17 72q0 88 72 148t169 60t172 -36zM178 895q13 0 30 -14q15 -14 75 -75
q56 60 74 77q13 13 30 13q12 0 24 -12t12 -24q0 -16 -12 -29q-8 -11 -84 -96q-18 -19 -44 -19q-23 0 -39 18q-28 31 -49.5 55t-37.5 42q-13 14 -13 29q0 12 12 24t26 12z" />
    <glyph glyph-name="scaron" unicode="&#x161;" horiz-adv-x="455" 
d="M232 463q84 0 135 -23q31 -15 31 -39q0 -47 -43 -47q-11 0 -50 12t-71 12q-36 0 -60 -15t-24 -40q0 -30 48 -40q7 -1 47 -6q81 -10 125 -41q44 -30 44 -94q0 -70 -51 -109t-139 -39q-66 0 -123 20q-55 19 -55 45q0 54 43 54q13 0 60 -15q46 -15 85 -15q34 0 57 15t23 41
q0 28 -22 38q-23 10 -75 18q-18 2 -33 5t-28 6q-23 5 -52 20q-26 13 -40 36t-14 54q0 64 56 106q55 42 129 42zM125 705q13 0 30 -14q15 -14 75 -75q56 60 74 77q13 13 30 13q12 0 24 -12t12 -24q0 -16 -12 -29q-8 -11 -84 -96q-18 -19 -44 -19q-23 0 -39 18
q-28 31 -49.5 55t-37.5 42q-13 14 -13 29q0 12 12 24t26 12z" />
    <glyph glyph-name="uni0162" unicode="&#x162;" horiz-adv-x="574" 
d="M294 675h34t71 1t72.5 1h38.5q50 0 50 -46q0 -54 -53 -54h-166v-50q0 -50 1 -168t3 -307q0 -47 -36 -56l-13 -46q29 0 53 -21t24 -61q0 -47 -30 -74t-76 -27q-32 0 -55 13q-24 10 -24 35q0 14 9 23t21 9q9 0 24 -7t28 -7q35 0 35 33q0 29 -38 29l-15 1q-15 0 -22 16
q-8 16 -3 33l24 58q-20 13 -18 45l2 368q0 22 -0.5 62t-1.5 100q-20 -1 -63 -1h-111q-47 0 -47 51q0 21 12 35t37 15h31h75h128z" />
    <glyph glyph-name="uni0163" unicode="&#x163;" horiz-adv-x="370" 
d="M52 361q-43 0 -43 46q0 23 13 35t34 12h51l2 73q1 66 59 66q45 0 45 -50v-15t-1 -25t-1 -27v-20h86q22 1 34 -11t12 -35q0 -47 -42 -47h-90v-176q0 -48 12 -72t41 -24q15 0 27 4t21 4q18 0 29 -14t11 -32q0 -32 -22 -45q-29 -15 -72 -15l-15 -41q29 0 53 -21t24 -61
q0 -47 -30 -74t-76 -27q-32 0 -55 13q-25 10 -25 35q0 14 9 23t23 9q9 0 24 -7t28 -7q34 0 34 33q0 29 -37 29l-15 1q-17 0 -24 16q-8 17 -2 33l22 54q-90 27 -90 171q0 12 0.5 34.5t1.5 55.5q1 66 0 100h-55z" />
    <glyph glyph-name="Tcaron" unicode="&#x164;" horiz-adv-x="574" 
d="M293 675h34t71 1t72.5 1h38.5q50 0 50 -46q0 -54 -53 -54h-166v-50q0 -50 1 -168t3 -307q0 -59 -60 -59q-52 0 -51 55l2 368q0 22 -0.5 62t-1.5 100q-20 -1 -63 -1h-111q-47 0 -47 51q0 21 12 35t37 15h31h75h128zM178 893q13 0 30 -14q15 -14 75 -75q56 60 74 77
q13 13 30 13q12 0 24 -12t12 -24q0 -16 -12 -29q-8 -11 -84 -96q-18 -19 -44 -19q-24 0 -40 18q-28 31 -49.5 55t-37.5 42q-13 14 -13 29q0 12 12 24t26 12z" />
    <glyph glyph-name="tcaron" unicode="&#x165;" horiz-adv-x="482" 
d="M399 594q-16 1 -28 15q-12 13 -12 36q-1 25 17 43t42 18q30 0 48 -20t18 -54q0 -35 -22 -70q-22 -36 -55 -55q-9 -6 -20 -6q-9 0 -19 8q-9 7 -9 18q0 13 11 22q31 24 31 44v3zM50 359q-43 0 -43 46q0 23 13 35t34 12h51l2 73q1 66 59 66q45 0 45 -50v-15t-1 -25t-1 -27
v-20h86q22 1 34 -11t12 -35q0 -47 -42 -47h-90v-176q0 -48 12 -72t41 -24q15 0 27 4t21 4q18 0 29 -14t11 -32q0 -32 -22 -45q-27 -15 -75 -15q-148 0 -148 179q0 12 0.5 34.5t1.5 55.5q1 66 0 100h-55z" />
    <glyph glyph-name="Tbar" unicode="&#x166;" horiz-adv-x="570" 
d="M292 676q8 0 34 0.5t70 1.5t71.5 1.5t38.5 0.5q50 0 50 -47q0 -54 -53 -54l-163 1v-207h87q47 0 47 -47q0 -46 -55 -46h-79l2 -225q2 -59 -59 -59q-52 0 -51 55l1 229h-86q-49 0 -49 44q0 49 52 49h83l-1 206h-87.5t-84.5 -1q-47 0 -47 51q0 49 49 49h30h74h127z" />
    <glyph glyph-name="tbar" unicode="&#x167;" horiz-adv-x="370" 
d="M49 360q-43 0 -43 46q0 23 13 35t34 12h51l2 73q1 66 59 66q45 0 45 -50v-15t-1 -25t-1 -27v-20h86q22 1 34 -11t12 -35q0 -47 -42 -47h-90v-85h70q43 0 43 -40q0 -41 -50 -41l-63 -1v-19q0 -46 12 -65q12 -20 42 -20q15 0 27 4t21 4q18 0 29 -14t11 -32q0 -32 -22 -45
q-27 -15 -75 -15q-73 0 -109 42t-36 133v28h-45q-43 0 -43 40q0 41 48 41h40v85h-55z" />
    <glyph glyph-name="Utilde" unicode="&#x168;" horiz-adv-x="688" 
d="M77 278v186v156q0 55 53 55q32 0 45 -13t13 -43q-1 -31 -1 -115.5v-224.5q0 -92 42 -137t119 -45q71 0 113 52q43 53 44 132q1 12 0 171q-1 80 -1 123v51q0 53 57 53q28 0 42 -15q13 -14 13 -49l2 -311q0 -145 -73 -227q-74 -83 -204 -83q-121 0 -193 75t-72 210z
M263 765q-2 -26 -36 -26q-17 0 -27 12t-12 32q3 39 29 64q25 24 66 24q27 0 48 -15q11 -8 20.5 -15t17.5 -15q16 -14 33 -16q24 0 26 32q4 28 39 28q16 0 26 -10q11 -11 11 -25q0 -50 -25 -75t-67 -25q-34 1 -67 30q-33 28 -51 30q-25 0 -30 -29z" />
    <glyph glyph-name="utilde" unicode="&#x169;" horiz-adv-x="565" 
d="M125 457q49 0 49 -56q-1 -60 -1.5 -104.5t-0.5 -76.5q0 -134 92 -134q65 0 92 46q26 46 28 132v140q0 27 17 41t41 14q54 0 54 -53v-43v-85v-100q1 -54 6 -138q1 -21 -14 -33t-38 -12q-43 0 -49 38q-2 9 -3 27q-1 17 -3 28q-50 -96 -150 -96q-91 0 -136 57t-45 155v100
v98q0 57 61 57v-2zM193 574q-2 -26 -36 -26q-17 0 -27 12t-12 32q3 39 29 64q25 24 66 24q27 0 48 -15q11 -8 20.5 -15t17.5 -15q16 -14 33 -16q24 0 26 32q4 28 39 28q16 0 26 -10q11 -11 11 -25q0 -50 -25 -75t-67 -25q-34 1 -67 30q-33 28 -51 30q-25 0 -30 -29z" />
    <glyph glyph-name="Umacron" unicode="&#x16a;" horiz-adv-x="688" 
d="M77 278v186v156q0 55 53 55q32 0 45 -13t13 -43q-1 -31 -1 -115.5v-224.5q0 -92 42 -137t119 -45q71 0 113 52q43 53 44 132q1 12 0 171q-1 80 -1 123v51q0 53 57 53q28 0 42 -15q13 -14 13 -49l2 -311q0 -145 -73 -227q-74 -83 -204 -83q-121 0 -193 75t-72 210z
M251 766q-46 0 -46 43q0 45 53 45h39h42h26t34 1t31.5 1h20.5q45 0 45 -43q1 -22 -14 -34t-44 -12h-96h-46h-42z" />
    <glyph glyph-name="umacron" unicode="&#x16b;" horiz-adv-x="565" 
d="M125 457q49 0 49 -56q-1 -60 -1.5 -104.5t-0.5 -76.5q0 -134 92 -134q65 0 92 46q26 46 28 132v140q0 27 17 41t41 14q54 0 54 -53v-43v-85v-100q1 -54 6 -138q1 -21 -14 -33t-38 -12q-43 0 -49 38q-2 9 -3 27q-1 17 -3 28q-50 -96 -150 -96q-91 0 -136 57t-45 155v100
v98q0 57 61 57v-2zM183 575q-46 0 -46 43q0 45 53 45h38h41h26t34 1t31.5 1h20.5q45 0 45 -43q1 -22 -14 -34t-44 -12h-96h-46h-42z" />
    <glyph glyph-name="Ubreve" unicode="&#x16c;" horiz-adv-x="688" 
d="M77 278v186v156q0 55 53 55q32 0 45 -13t13 -43q-1 -31 -1 -115.5v-224.5q0 -92 42 -137t119 -45q71 0 113 52q43 53 44 132q1 12 0 171q-1 80 -1 123v51q0 53 57 53q28 0 42 -15q13 -14 13 -49l2 -311q0 -145 -73 -227q-74 -83 -204 -83q-121 0 -193 75t-72 210z
M453 879q17 0 27 -10t10 -24q0 -56 -39 -93q-40 -38 -99 -38q-54 0 -93 36q-40 36 -41 90q0 16 11 29q10 12 27 12q15 0 24 -9q10 -10 11 -22q1 -26 18 -43q16 -16 44 -16q27 0 44 18q16 18 18 42q2 32 36 32z" />
    <glyph glyph-name="ubreve" unicode="&#x16d;" horiz-adv-x="565" 
d="M125 457q49 0 49 -56q-1 -60 -1.5 -104.5t-0.5 -76.5q0 -134 92 -134q65 0 92 46q26 46 28 132v140q0 27 17 41t41 14q54 0 54 -53v-43v-85v-100q1 -54 6 -138q1 -21 -14 -33t-38 -12q-43 0 -49 38q-2 9 -3 27q-1 17 -3 28q-50 -96 -150 -96q-91 0 -136 57t-45 155v100
v98q0 57 61 57v-2zM383 688q17 0 27 -10t10 -24q0 -56 -39 -93q-40 -38 -99 -38q-54 0 -93 36q-40 36 -41 90q0 16 11 29q10 12 27 12q15 0 24 -9q10 -10 11 -22q1 -26 18 -43q16 -16 44 -16q27 0 44 18q16 18 18 42q2 32 36 32z" />
    <glyph glyph-name="Uring" unicode="&#x16e;" horiz-adv-x="688" 
d="M77 278v186v156q0 55 53 55q32 0 45 -13t13 -43q-1 -31 -1 -115.5v-224.5q0 -92 42 -137t119 -45q71 0 113 52q43 53 44 132q1 12 0 171q-1 80 -1 123v51q0 53 57 53q28 0 42 -15q13 -14 13 -49l2 -311q0 -145 -73 -227q-74 -83 -204 -83q-121 0 -193 75t-72 210z
M347 904q46 0 80 -29q33 -29 33 -75q0 -47 -33 -80t-81 -33q-45 0 -79 30t-34 77q0 50 36 80t80 30h-2zM395 796q0 22 -15 36q-16 14 -39 14q-20 0 -35 -15t-15 -37q0 -24 15 -37q14 -13 39 -13q23 0 38 16q15 17 14 39z" />
    <glyph glyph-name="uring" unicode="&#x16f;" horiz-adv-x="565" 
d="M125 457q49 0 49 -56q-1 -60 -1.5 -104.5t-0.5 -76.5q0 -134 92 -134q65 0 92 46q26 46 28 132v140q0 27 17 41t41 14q54 0 54 -53v-43v-85v-100q1 -54 6 -138q1 -21 -14 -33t-38 -12q-43 0 -49 38q-2 9 -3 27q-1 17 -3 28q-50 -96 -150 -96q-91 0 -136 57t-45 155v100
v98q0 57 61 57v-2zM278 733q46 0 80 -29q33 -29 33 -75q0 -47 -33 -80t-81 -33q-45 0 -79 30t-34 77q0 50 36 80t80 30h-2zM326 625q0 22 -15 36q-16 14 -39 14q-20 0 -35 -15t-15 -37q0 -24 15 -37q14 -13 39 -13q23 0 38 16q15 17 14 39z" />
    <glyph glyph-name="Uhungarumlaut" unicode="&#x170;" horiz-adv-x="688" 
d="M77 278v186v156q0 55 53 55q32 0 45 -13t13 -43q-1 -31 -1 -115.5v-224.5q0 -92 42 -137t119 -45q71 0 113 52q43 53 44 132q1 12 0 171q-1 80 -1 123v51q0 53 57 53q28 0 42 -15q13 -14 13 -49l2 -311q0 -145 -73 -227q-74 -83 -204 -83q-121 0 -193 75t-72 210z
M295 731q-14 -15 -28 -15q-16 0 -27 10q-12 10 -12 25q0 12 8 23l67 102q16 25 36 25q18 0 32 -12t14 -30q0 -16 -10 -29zM448 728q-14 -15 -25 -15q-15 0 -27 9t-12 24q0 10 9 24l73 102q15 25 35 25q18 0 33 -12t15 -28q0 -18 -12 -34z" />
    <glyph glyph-name="uhungarumlaut" unicode="&#x171;" horiz-adv-x="565" 
d="M125 457q49 0 49 -56q-1 -60 -1.5 -104.5t-0.5 -76.5q0 -134 92 -134q65 0 92 46q26 46 28 132v140q0 27 17 41t41 14q54 0 54 -53v-43v-85v-100q1 -54 6 -138q1 -21 -14 -33t-38 -12q-43 0 -49 38q-2 9 -3 27q-1 17 -3 28q-50 -96 -150 -96q-91 0 -136 57t-45 155v100
v98q0 57 61 57v-2zM222 540q-14 -15 -27 -15q-16 0 -27 10q-12 10 -12 25q0 12 8 23l67 102q16 25 36 25q18 0 32 -12t14 -30q0 -16 -10 -29zM375 537q-14 -15 -25 -15q-15 0 -27 9t-12 24q0 10 9 24l73 102q15 25 35 25q18 0 33 -12t15 -28q0 -18 -12 -34z" />
    <glyph glyph-name="Uogonek" unicode="&#x172;" horiz-adv-x="688" 
d="M338 -108q0 -17 9 -27t24 -10q9 0 20 3q10 3 18 3q13 0 22 -12t9 -28q0 -47 -72 -47q-46 0 -78 26q-31 25 -31 75q0 67 71 118q-119 7 -187 80q-67 71 -67 204v186v156q0 55 53 55q32 0 45 -13t13 -43q-1 -31 -1 -115.5v-224.5q0 -92 42 -137t119 -45q71 0 113 52
q43 53 44 132q1 12 0 171q-1 80 -1 123v51q0 53 57 53q28 0 42 -15q13 -14 13 -49l2 -311q0 -121 -54 -202t-151 -100q-74 -47 -74 -105v-4z" />
    <glyph glyph-name="uogonek" unicode="&#x173;" horiz-adv-x="565" 
d="M398 -107q0 -17 9 -27t24 -10q9 0 20 3q10 3 18 3q13 0 22 -12t9 -28q0 -47 -72 -47q-46 0 -78 26q-31 25 -31 75q0 72 91 132q-11 7 -12 24l-6 54q-50 -96 -150 -96q-91 0 -136 57t-45 155v100v98q0 57 61 57q49 0 49 -56q-1 -58 -1.5 -103t-0.5 -77q0 -134 92 -134
q65 0 92 46q26 46 28 132v140q0 27 17 41t41 14q54 0 54 -53v-43v-85v-100q1 -54 6 -138q1 -28 -23 -39q-77 -60 -77 -106z" />
    <glyph glyph-name="Wcircumflex" unicode="&#x174;" horiz-adv-x="855" 
d="M31 624q-5 26 12 44q16 18 43 18q46 0 54 -44q35 -184 57 -297.5t30 -159.5q15 40 46.5 139t80.5 260q16 55 67 55q19 0 36 -12q16 -12 21 -30l136 -404q39 200 59.5 305t22.5 118q7 38 20 54q12 15 41 15q27 0 44 -16q18 -17 14 -42l-120 -566q-7 -31 -20 -47
q-12 -14 -44 -16q-30 0 -44 17t-23 45l-141 410q-14 -46 -48 -148t-88 -263q-21 -61 -70 -60q-41 1 -54 27q-14 25 -27 96q-33 161 -58.5 285.5t-42.5 215.5zM527 718q-15 0 -29 14q-11 11 -30 29.5t-45 46.5q-66 -71 -75 -77q-13 -13 -30 -13q-12 0 -24 12t-12 24
q0 14 12 29l86 95q18 19 43 19q22 0 39 -18q51 -53 87 -96q13 -14 13 -28q0 -11 -12 -23t-25 -12z" />
    <glyph glyph-name="wcircumflex" unicode="&#x175;" horiz-adv-x="750" 
d="M32 407q-2 6 -2 12q0 20 20 32q19 12 42 12q37 0 46 -35q1 -2 9 -33.5t23 -92.5t26 -103t18 -65l105 290q13 33 54 33q43 0 59 -43l104 -277l56 212q11 48 21 77q11 32 45 32q23 0 42 -13q19 -14 21 -33q0 -10 -3 -19q-1 -4 -9.5 -32.5t-25.5 -82.5t-28.5 -92t-19.5 -60
q-24 -74 -30 -87q-15 -43 -64 -43q-47 0 -63 46q-8 20 -23 58.5t-36 96.5t-32 88t-12 32l-93 -245q-15 -42 -30 -60t-47 -18t-45 13q-14 13 -24 42l-105 358h1zM478 527q-15 0 -29 14q-11 11 -30 29.5t-45 46.5q-66 -71 -75 -77q-13 -13 -30 -13q-12 0 -24 12t-12 24
q0 14 12 29l86 95q18 19 43 19q23 0 40 -18q51 -53 87 -96q13 -14 13 -28q0 -11 -12 -23t-25 -12z" />
    <glyph glyph-name="Ycircumflex" unicode="&#x176;" horiz-adv-x="607" 
d="M238 280l-201 307q-16 23 -16 39q0 23 18 38t41 15q26 0 47 -32l179 -286q3 5 7.5 11.5t10.5 16.5q12 19 57 93q45 73 102 165q20 32 48 32q21 0 39 -15t18 -34q0 -18 -15 -40l-215 -327v-222q0 -22 -16 -34q-17 -12 -39 -12q-25 0 -40 15t-15 40v36v37v78v63zM412 715
q-15 0 -29 14q-11 11 -30 29.5t-45 46.5q-66 -71 -75 -77q-13 -13 -30 -13q-12 0 -24 12t-12 24q0 14 12 29l86 95q18 19 43 19q23 0 40 -18q51 -53 87 -96q13 -14 13 -28q0 -11 -12 -23t-25 -12z" />
    <glyph glyph-name="ycircumflex" unicode="&#x177;" horiz-adv-x="504" 
d="M255 129q13 28 42 100t75 190q16 43 48 43q24 0 41 -13q18 -14 18 -33q0 -18 -11 -42q-125 -287 -225 -489q-60 -109 -149 -109q-78 0 -78 54q0 51 53 51q31 0 48 12q16 11 37 48q7 9 45 86l-31 65l-125 271q-17 39 -17 54q0 19 18 33q19 14 39 14q29 0 43 -27
q63 -153 95 -230t33 -79zM352 528q-15 0 -29 14q-11 11 -30 29.5t-45 46.5q-66 -71 -75 -77q-13 -13 -30 -13q-12 0 -24 12t-12 24q0 14 12 29l86 95q18 19 43 19q23 0 40 -18q51 -53 87 -96q13 -14 13 -28q0 -11 -12 -23t-25 -12z" />
    <glyph glyph-name="Ydieresis" unicode="&#x178;" horiz-adv-x="607" 
d="M238 280l-201 307q-16 23 -16 39q0 23 18 38t41 15q26 0 47 -32l179 -286q3 5 7.5 11.5t10.5 16.5q12 19 57 93q45 73 102 165q20 32 48 32q21 0 39 -15t18 -34q0 -18 -15 -40l-215 -327v-222q0 -22 -16 -34q-17 -12 -39 -12q-25 0 -40 15t-15 40v36v37v78v63zM218 740
q-25 0 -40 17q-15 16 -15 42q0 25 17 42t44 17q26 0 42 -16t16 -42q0 -25 -17 -42q-16 -16 -45 -16zM381 741q-23 0 -40 17q-16 16 -16 41t18 42q19 17 44 17q26 0 42 -16t16 -42q0 -25 -17 -42q-16 -16 -45 -16z" />
    <glyph glyph-name="Zacute" unicode="&#x179;" horiz-adv-x="556" 
d="M87 573q-23 0 -36 13t-13 36q0 53 53 53h210h33t50 1t50.5 1h35.5q55 0 55 -49q0 -23 -26 -61l-33 -50l-241 -346l-51 -75q85 0 187 3t120 3q27 0 39 -15t12 -37q0 -50 -61 -50q-63 -1 -154.5 -1h-214.5q-56 0 -63 34q-3 15 -2 27q7 37 48 93l63 87l192 270l43 66h-153
h-144zM271 729q-14 -11 -29 -11q-12 0 -27 12t-15 26q0 12 10 26l90 104q16 21 36 21q19 0 36 -15t17 -34q0 -15 -16 -32q-46 -49 -103 -97h1z" />
    <glyph glyph-name="zacute" unicode="&#x17a;" horiz-adv-x="453" 
d="M240 363q-10 0 -28 -0.5t-45 -1.5q-54 -2 -84 0q-23 1 -33 15q-11 14 -11 35q0 48 59 48h36.5t52.5 -1t51.5 -1h34.5h15.5t26.5 1q31 1 49 0q41 -2 47 -30q3 -15 1 -30q-11 -35 -48 -78l-177 -204l-18 -22l144 3h12.5t18.5 1t19.5 1h13.5q23 0 35 -13q12 -14 12 -36
q0 -50 -53 -52h-12t-21 1t-23 1h-18h-28.5t-52.5 -1t-60 -1h-51q-66 0 -66 56q0 31 57 99l185 211h-38zM221 541q-14 -11 -29 -11q-12 0 -27 12t-15 26q0 12 10 26l90 104q16 21 36 21q19 0 36 -15t17 -34q0 -15 -16 -32q-46 -49 -103 -97h1z" />
    <glyph glyph-name="Zdotaccent" unicode="&#x17b;" horiz-adv-x="556" 
d="M87 573q-23 0 -36 13t-13 36q0 53 53 53h210h33t50 1t50.5 1h35.5q55 0 55 -49q0 -23 -26 -61l-33 -50l-241 -346l-51 -75q85 0 187 3t120 3q27 0 39 -15t12 -37q0 -50 -61 -50q-63 -1 -154.5 -1h-214.5q-56 0 -63 34q-3 15 -2 27q7 37 48 93l63 87l192 270l43 66h-153
h-144zM272 746q-29 0 -47 21q-18 20 -16 51q4 27 24 42q19 15 47 15q30 0 47 -18q17 -19 17 -46q0 -32 -19 -48q-20 -17 -51 -17h-2z" />
    <glyph glyph-name="zdotaccent" unicode="&#x17c;" horiz-adv-x="453" 
d="M240 363q-10 0 -28 -0.5t-45 -1.5q-54 -2 -84 0q-23 1 -33 15q-11 14 -11 35q0 48 59 48h36.5t52.5 -1t51.5 -1h34.5h15.5t26.5 1q31 1 49 0q41 -2 47 -30q3 -15 1 -30q-11 -35 -48 -78l-177 -204l-18 -22l144 3h12.5t18.5 1t19.5 1h13.5q23 0 35 -13q12 -14 12 -36
q0 -50 -53 -52h-12t-21 1t-23 1h-18h-28.5t-52.5 -1t-60 -1h-51q-66 0 -66 56q0 31 57 99l185 211h-38zM221 558q-29 0 -47 21q-18 20 -16 51q4 27 24 42q19 15 47 15q30 0 47 -18q17 -19 17 -46q0 -32 -19 -48q-20 -17 -51 -17h-2z" />
    <glyph glyph-name="Zcaron" unicode="&#x17d;" horiz-adv-x="556" 
d="M87 573q-23 0 -36 13t-13 36q0 53 53 53h210h33t50 1t50.5 1h35.5q55 0 55 -49q0 -23 -26 -61l-33 -50l-241 -346l-51 -75q85 0 187 3t120 3q27 0 39 -15t12 -37q0 -50 -61 -50q-63 -1 -154.5 -1h-214.5q-56 0 -63 34q-3 15 -2 27q7 37 48 93l63 87l192 270l43 66h-153
h-144zM172 893q13 0 30 -14q15 -14 75 -75q56 60 74 77q13 13 30 13q12 0 24 -12t12 -24q0 -16 -12 -29q-8 -11 -84 -96q-18 -19 -44 -19q-24 0 -40 18q-28 31 -49.5 55t-37.5 42q-13 14 -13 29q0 12 12 24t26 12z" />
    <glyph glyph-name="zcaron" unicode="&#x17e;" horiz-adv-x="453" 
d="M240 363q-10 0 -28 -0.5t-45 -1.5q-54 -2 -84 0q-23 1 -33 15q-11 14 -11 35q0 48 59 48h36.5t52.5 -1t51.5 -1h34.5h15.5t26.5 1q31 1 49 0q41 -2 47 -30q3 -15 1 -30q-11 -35 -48 -78l-177 -204l-18 -22l144 3h12.5t18.5 1t19.5 1h13.5q23 0 35 -13q12 -14 12 -36
q0 -50 -53 -52h-12t-21 1t-23 1h-18h-28.5t-52.5 -1t-60 -1h-51q-66 0 -66 56q0 31 57 99l185 211h-38zM121 705q13 0 30 -14q15 -14 75 -75q56 60 74 77q13 13 30 13q12 0 24 -12t12 -24q0 -16 -12 -29q-8 -11 -84 -96q-18 -19 -44 -19q-23 0 -39 18q-28 31 -49.5 55
t-37.5 42q-13 14 -13 29q0 12 12 24t26 12z" />
    <glyph glyph-name="florin" unicode="&#x192;" horiz-adv-x="452" 
d="M259 359l-45 -369q-28 -220 -190 -220q-36 0 -57 10q-26 12 -26 47q0 22 13 35q14 14 33 14q4 0 9 -0.5t11 -1.5t11 -1.5t9 -0.5q29 0 47 21t24 45t12 66l43 355h-54q-28 0 -41 11q-12 10 -12 36q0 22 15 36q16 14 42 14h63q3 24 6 45t7 38q8 36 24 74t41 63q24 24 65 41
q42 17 95 17q63 0 63 -52q0 -17 -11 -31q-10 -13 -27 -13q-6 0 -12.5 0.5t-13.5 1.5t-13 1.5t-11 0.5q-29 -2 -48 -18q-20 -17 -30 -46q-5 -15 -9 -29t-7 -28t-5.5 -29.5t-4.5 -34.5h89q26 0 37 -12q10 -12 12 -36q0 -21 -14 -37q-14 -15 -38 -15z" />
    <glyph glyph-name="AEacute" unicode="&#x1fc;" horiz-adv-x="911" 
d="M12 55q1 19 27 54q38 52 85.5 122t106.5 161t100 152t64 93q28 42 81 40q4 0 43.5 0.5t114.5 1.5t120 1.5t60 0.5q53 0 53 -46q1 -42 -33 -49q-60 -3 -272 -3q-1 -17 -1 -40v-54l-1 -92v-17h40h78h95q52 0 52 -47t-52 -47h-215q-1 -11 -1 -26.5v-35.5v-127h74
q22 0 47.5 0.5t54.5 1.5t51.5 1h38.5q50 0 50 -48q0 -53 -57 -54h-249q-69 0 -93 12q-23 12 -25 54v107l-230 1q-3 -5 -13 -20.5t-27 -42.5t-29 -46t-20 -30q-23 -38 -60 -36q-22 0 -39 17q-17 16 -15 42zM268 259l183 2v38v39l1 75v63v65zM534 731q-14 -11 -29 -11
q-12 0 -27 12t-15 26q0 12 10 26l90 104q18 21 37 21t36 -15t17 -34q0 -15 -16 -32q-46 -49 -103 -97z" />
    <glyph glyph-name="aeacute" unicode="&#x1fd;" horiz-adv-x="813" 
d="M464 205q1 -44 35 -78q33 -33 83 -33q54 0 97 26q30 13 39 13q17 0 30 -16q14 -17 14 -36q0 -35 -54 -60q-53 -25 -136 -25q-51 0 -99 27q-47 26 -70 68q-59 -96 -171 -96q-85 0 -139 36t-54 104q0 65 50 101q50 37 135 38q20 0 50.5 -1t71.5 -3q-2 47 -33 74
q-32 27 -79 27q-26 0 -66 -12q-20 -6 -31.5 -9t-13.5 -4q-21 -3 -36 10t-15 34q0 25 24 42q58 34 148 33q55 0 98 -25q44 -26 66 -67q25 40 72 66t97 26q85 0 142 -57t57 -129q0 -43 -14 -60t-63 -18h-165zM579 377q-49 0 -81 -31t-37 -75q10 1 31.5 1h55.5h92q34 0 34 7
q0 41 -27 70q-27 28 -66 28h-2zM237 86q42 0 74 27q31 27 36 68l3 22q-47 3 -117 3q-90 0 -90 -61q0 -29 26 -44q25 -15 66 -15h2zM414 546q-14 -11 -29 -11q-12 0 -27 12t-15 26q0 12 10 26l90 104q18 21 37 21t36 -15t17 -34q0 -15 -16 -32q-46 -49 -103 -97z" />
    <glyph glyph-name="Oslashacute" unicode="&#x1fe;" horiz-adv-x="745" 
d="M372 688q82 0 153 -38l24 37q10 16 28 16q13 0 24 -10q12 -11 12 -22t-6 -18l-26 -40q57 -48 89 -115q33 -69 33 -150q0 -150 -94 -253t-237 -103q-87 0 -166 45l-31 -48q-10 -16 -25 -16q-13 0 -25 9t-12 21q0 9 8 22l31 49q-108 94 -108 249q0 160 101 263
q100 102 230 100zM591 347q-2 106 -72 173l-256 -392q50 -31 112 -31q90 0 153 75q63 76 62 175h1zM153 336q0 -100 60 -166l253 390q-51 27 -103 27q-86 0 -147 -72q-62 -73 -62 -180zM361 735q-14 -11 -29 -11q-12 0 -27 12t-15 26q0 12 10 26l90 104q18 21 37 21t36 -15
t17 -34q0 -15 -16 -32q-46 -49 -103 -97z" />
    <glyph glyph-name="oslashacute" unicode="&#x1ff;" 
d="M290 466q16 0 30 -6q28 -5 54 -18l18 28q10 18 27 18q10 0 21 -8t11 -18q0 -11 -12 -30l-13 -21q80 -68 80 -183q0 -104 -69 -171q-68 -67 -173 -67q-42 0 -87 19l-20 -34q-10 -16 -24 -16q-11 0 -21 9t-10 20q0 10 9 24l16 26q-89 65 -89 177t69 181q68 68 187 70h-4z
M144 215q0 -51 36 -87l142 229q-23 10 -51 12q-59 -2 -93 -42t-34 -111v-1zM394 231q0 53 -30 86l-137 -223q18 -8 33 -8q56 0 96 40t40 105h-2zM258 541q-14 -11 -29 -11q-12 0 -27 12t-15 26q0 12 10 26l90 104q16 21 36 21q19 0 36 -15t17 -34q0 -15 -16 -32
q-46 -49 -103 -97h1z" />
    <glyph glyph-name="uni0218" unicode="&#x218;" horiz-adv-x="568" 
d="M459 650q33 -17 33 -51q0 -17 -14 -34q-13 -16 -33 -16q-15 0 -48 13q-53 24 -112 24q-51 0 -88 -29q-36 -29 -36 -72q0 -18 9 -31q9 -14 18 -21t32 -15q11 -4 20 -6.5t15 -4.5t16.5 -4t25.5 -6q106 -23 162 -64q57 -42 57 -129q0 -95 -68 -152q-67 -56 -174 -58
q-109 0 -190 40q-41 20 -41 54q0 22 14 39t35 17q12 0 45 -11q72 -36 136 -36q59 0 96 28t37 75q0 43 -36 66q-36 22 -102 36q-23 5 -43.5 10.5t-37.5 11.5q-33 11 -66 32q-32 19 -48 51q-17 32 -17 72q0 88 72 148t169 60t172 -36zM222 -201q0 7 14 23q13 15 18 24
q4 7 -9 22q-13 14 -13 30q0 21 15 36t38 15q22 0 39 -15q16 -15 16 -39q0 -61 -67 -110q-18 -8 -27 -8q-11 0 -18 6t-7 17z" />
    <glyph glyph-name="uni0219" unicode="&#x219;" horiz-adv-x="455" 
d="M232 463q84 0 135 -23q31 -15 31 -39q0 -47 -43 -47q-11 0 -50 12t-71 12q-36 0 -60 -15t-24 -40q0 -30 48 -40q7 -1 47 -6q81 -10 125 -41q44 -30 44 -94q0 -70 -51 -109t-139 -39q-66 0 -123 20q-55 19 -55 45q0 54 43 54q13 0 60 -15q46 -15 85 -15q34 0 57 15t23 41
q0 28 -22 38q-23 10 -75 18q-18 2 -33 5t-28 6q-23 5 -52 20q-26 13 -40 36t-14 54q0 64 56 106q55 42 129 42zM172 -201q0 7 14 23q13 15 18 24q4 7 -9 22q-13 14 -13 30q0 21 15 36t38 15q22 0 39 -15q16 -15 16 -39q0 -61 -67 -110q-18 -8 -27 -8q-11 0 -18 6t-7 17z" />
    <glyph glyph-name="uni021A" unicode="&#x21a;" horiz-adv-x="574" 
d="M293 675h34t71 1t72.5 1h38.5q50 0 50 -46q0 -54 -53 -54h-166v-50q0 -50 1 -168t3 -307q0 -59 -60 -59q-52 0 -51 55l2 368q0 22 -0.5 62t-1.5 100q-20 -1 -63 -1h-111q-47 0 -47 51q0 21 12 35t37 15h31h75h128zM225 -203q0 7 14 23q13 15 18 24q4 7 -9 22
q-13 14 -13 30q0 21 15 36t38 15q22 0 39 -15q16 -15 16 -39q0 -61 -67 -110q-18 -8 -27 -8q-11 0 -18 6t-7 17z" />
    <glyph glyph-name="uni021B" unicode="&#x21b;" horiz-adv-x="370" 
d="M51 361q-43 0 -43 46q0 23 13 35t34 12h51l2 73q1 66 59 66q45 0 45 -50v-15t-1 -25t-1 -27v-20h86q22 1 34 -11t12 -35q0 -47 -42 -47h-90v-176q0 -48 12 -72t41 -24q15 0 27 4t21 4q18 0 29 -14t11 -32q0 -32 -22 -45q-27 -15 -75 -15q-148 0 -148 179q0 12 0.5 34.5
t1.5 55.5q1 66 0 100h-55zM158 -201q0 7 14 23q13 15 18 24q4 7 -9 22q-13 14 -13 30q0 21 15 36t38 15q22 0 39 -15q16 -15 16 -39q0 -61 -67 -110q-18 -8 -27 -8q-11 0 -18 6t-7 17z" />
    <glyph glyph-name="dotlessj" unicode="&#x237;" horiz-adv-x="245" 
d="M67 417q2 20 18 32t39 12t39 -11q15 -11 15 -33v-114v-130q0 -103 -0.5 -167.5t-1.5 -90.5q-1 -61 -50 -106q-48 -45 -118 -45q-97 -1 -97 60q0 24 12 39t28 15q11 0 26 -4q16 -5 30 -3q60 0 63 96q1 52 0 286q-1 52 -1.5 93t-0.5 72z" />
    <glyph glyph-name="circumflex" unicode="&#x2c6;" horiz-adv-x="361" 
d="M287 527q-15 0 -29 14q-11 11 -30 29.5t-45 46.5q-66 -71 -75 -77q-13 -13 -30 -13q-12 0 -24 12t-12 24q0 14 12 29l86 95q18 19 43 19q22 0 39 -18q51 -53 87 -96q13 -14 13 -28q0 -11 -12 -23t-25 -12z" />
    <glyph glyph-name="caron" unicode="&#x2c7;" horiz-adv-x="357" 
d="M72 708q13 0 30 -14q15 -14 75 -75q56 60 74 77q13 13 30 13q12 0 24 -12t12 -24q0 -17 -12 -30q-8 -11 -84 -96q-18 -19 -44 -19q-24 0 -40 18q-28 31 -49.5 55t-37.5 42q-13 14 -13 29q0 12 12 24t26 12h-3z" />
    <glyph glyph-name="breve" unicode="&#x2d8;" horiz-adv-x="359" 
d="M282 692q17 0 27 -10t10 -24q0 -56 -39 -93q-40 -38 -99 -38q-54 0 -93 36q-40 36 -41 90q0 16 11 29q10 12 27 12q15 0 24 -9q10 -10 11 -22q1 -26 18 -43q16 -16 44 -16q27 0 44 18q16 18 18 42q2 32 36 32z" />
    <glyph glyph-name="dotaccent" unicode="&#x2d9;" horiz-adv-x="209" 
d="M98 559q-29 0 -47 21q-18 20 -16 51q4 27 24 42q19 15 47 15q30 0 47 -18q17 -19 17 -46q0 -32 -19 -48q-20 -17 -51 -17h-2z" />
    <glyph glyph-name="ring" unicode="&#x2da;" horiz-adv-x="307" 
d="M153 735q46 0 80 -29q33 -29 33 -75q0 -47 -33 -80t-81 -33q-45 0 -79 30t-34 77q0 50 36 80t80 30h-2zM201 627q0 22 -15 36q-16 14 -39 14q-20 0 -35 -15t-15 -37q0 -24 15 -37q14 -13 39 -13q23 0 38 16q15 17 14 39z" />
    <glyph glyph-name="ogonek" unicode="&#x2db;" horiz-adv-x="260" 
d="M120 -106q0 -17 9 -27t24 -10q9 0 20 3q10 3 18 3q13 0 22 -12t9 -28q0 -47 -72 -47q-46 0 -78 26q-31 25 -31 75q0 72 96 134l74 1q-32 -24 -48 -39q-17 -15 -30 -36q-14 -22 -14 -41z" />
    <glyph glyph-name="tilde" unicode="&#x2dc;" horiz-adv-x="396" 
d="M114 576q-2 -26 -36 -26q-17 0 -27 12t-12 32q3 39 29 64q25 24 66 24q27 0 48 -15q11 -8 20.5 -15t17.5 -15q16 -14 33 -16q24 0 26 32q4 28 39 28q16 0 26 -10q11 -11 11 -25q0 -50 -25 -75t-67 -25q-34 1 -67 30q-33 28 -51 30q-25 0 -30 -29z" />
    <glyph glyph-name="hungarumlaut" unicode="&#x2dd;" horiz-adv-x="392" 
d="M104 542q-14 -15 -28 -15q-16 0 -27 10q-12 10 -12 25q0 12 8 23l67 102q16 25 36 25q18 0 32 -12t14 -30q0 -16 -10 -29zM257 539q-14 -15 -25 -15q-15 0 -27 9t-12 24q0 10 9 24l73 102q15 25 35 25q18 0 33 -12t15 -28q0 -18 -12 -34z" />
    <glyph glyph-name="pi" unicode="&#x3c0;" horiz-adv-x="664" 
d="M379 580h-130v-52q0 -194 3 -474q1 -60 -60 -60q-52 0 -52 56q3 366 3 368q0 23 -0.5 63t-1.5 98q-15 0 -33.5 -0.5t-40.5 -1.5q-46 0 -46 51q0 48 49 49h66h66q13 0 57 0.5t120 1.5t131 1.5t90 0.5q46 0 46 -47q0 -29 -10 -40q-11 -12 -36 -12l-60 1l-1 -52
q0 -4 1.5 -122t3.5 -353q0 -59 -60 -59q-52 0 -52 56q1 123 1.5 214t0.5 153l-1 163z" />
    <glyph glyph-name="Wgrave" unicode="&#x1e80;" horiz-adv-x="855" 
d="M31 624q-5 26 12 44q16 18 43 18q46 0 54 -44q35 -184 57 -297.5t30 -159.5q15 40 46.5 139t80.5 260q16 55 67 55q19 0 36 -12q16 -12 21 -30l136 -404q39 200 59.5 305t22.5 118q7 38 20 54q12 15 41 15q27 0 44 -16q18 -17 14 -42l-120 -566q-7 -31 -20 -47
q-12 -14 -44 -16q-30 0 -44 17t-23 45l-141 410q-14 -46 -48 -148t-88 -263q-21 -61 -70 -60q-41 1 -54 27q-14 25 -27 96q-33 161 -58.5 285.5t-42.5 215.5zM431 738q-31 29 -55.5 54t-42.5 45q-15 16 -15 33q0 16 17 31q16 15 33 15q24 0 39 -20l83 -107q10 -13 10 -27
q0 -13 -12 -25t-25 -12q-15 0 -31 11z" />
    <glyph glyph-name="wgrave" unicode="&#x1e81;" horiz-adv-x="750" 
d="M32 407q-2 6 -2 12q0 20 20 32q19 12 42 12q37 0 46 -35q1 -2 9 -33.5t23 -92.5t26 -103t18 -65l105 290q13 33 54 33q43 0 59 -43l104 -277l56 212q11 48 21 77q11 32 45 32q23 0 42 -13q19 -14 21 -33q0 -10 -3 -19q-1 -4 -9.5 -32.5t-25.5 -82.5t-28.5 -92t-19.5 -60
q-24 -74 -30 -87q-15 -43 -64 -43q-47 0 -63 46q-8 20 -23 58.5t-36 96.5t-32 88t-12 32l-93 -245q-15 -42 -30 -60t-47 -18t-45 13q-14 13 -24 42l-105 358h1zM383 547q-31 29 -55.5 54t-42.5 45q-15 16 -15 33q0 16 17 31q16 15 33 15q24 0 39 -20l83 -107q10 -13 10 -27
q0 -13 -12 -25t-25 -12q-15 0 -31 11z" />
    <glyph glyph-name="Wacute" unicode="&#x1e82;" horiz-adv-x="855" 
d="M31 624q-5 26 12 44q16 18 43 18q46 0 54 -44q35 -184 57 -297.5t30 -159.5q15 40 46.5 139t80.5 260q16 55 67 55q19 0 36 -12q16 -12 21 -30l136 -404q39 200 59.5 305t22.5 118q7 38 20 54q12 15 41 15q27 0 44 -16q18 -17 14 -42l-120 -566q-7 -31 -20 -47
q-12 -14 -44 -16q-30 0 -44 17t-23 45l-141 410q-14 -46 -48 -148t-88 -263q-21 -61 -70 -60q-41 1 -54 27q-14 25 -27 96q-33 161 -58.5 285.5t-42.5 215.5zM413 733q-14 -11 -29 -11q-12 0 -27 12t-15 26q0 12 10 26l90 104q16 21 36 21q19 0 36 -15t17 -34q0 -15 -16 -32
q-46 -49 -103 -97h1z" />
    <glyph glyph-name="wacute" unicode="&#x1e83;" horiz-adv-x="750" 
d="M32 407q-2 6 -2 12q0 20 20 32q19 12 42 12q37 0 46 -35q1 -2 9 -33.5t23 -92.5t26 -103t18 -65l105 290q13 33 54 33q43 0 59 -43l104 -277l56 212q11 48 21 77q11 32 45 32q23 0 42 -13q19 -14 21 -33q0 -10 -3 -19q-1 -4 -9.5 -32.5t-25.5 -82.5t-28.5 -92t-19.5 -60
q-24 -74 -30 -87q-15 -43 -64 -43q-47 0 -63 46q-8 20 -23 58.5t-36 96.5t-32 88t-12 32l-93 -245q-15 -42 -30 -60t-47 -18t-45 13q-14 13 -24 42l-105 358h1zM365 542q-14 -11 -29 -11q-12 0 -27 12t-15 26q0 12 10 26l90 104q16 21 36 21q19 0 36 -15t17 -34
q0 -15 -16 -32q-46 -49 -103 -97h1z" />
    <glyph glyph-name="Wdieresis" unicode="&#x1e84;" horiz-adv-x="855" 
d="M31 624q-5 26 12 44q16 18 43 18q46 0 54 -44q35 -184 57 -297.5t30 -159.5q15 40 46.5 139t80.5 260q16 55 67 55q19 0 36 -12q16 -12 21 -30l136 -404q39 200 59.5 305t22.5 118q7 38 20 54q12 15 41 15q27 0 44 -16q18 -17 14 -42l-120 -566q-7 -31 -20 -47
q-12 -14 -44 -16q-30 0 -44 17t-23 45l-141 410q-14 -46 -48 -148t-88 -263q-21 -61 -70 -60q-41 1 -54 27q-14 25 -27 96q-33 161 -58.5 285.5t-42.5 215.5zM332 743q-25 0 -40 17q-15 16 -15 42q0 25 17 42t44 17q26 0 42 -16t16 -42q0 -25 -17 -42q-16 -16 -45 -16z
M495 744q-23 0 -40 17q-16 16 -16 41t18 42q19 17 44 17q26 0 42 -16t16 -42q0 -25 -17 -42q-16 -16 -45 -16z" />
    <glyph glyph-name="wdieresis" unicode="&#x1e85;" horiz-adv-x="750" 
d="M32 407q-2 6 -2 12q0 20 20 32q19 12 42 12q37 0 46 -35q1 -2 9 -33.5t23 -92.5t26 -103t18 -65l105 290q13 33 54 33q43 0 59 -43l104 -277l56 212q11 48 21 77q11 32 45 32q23 0 42 -13q19 -14 21 -33q0 -10 -3 -19q-1 -4 -9.5 -32.5t-25.5 -82.5t-28.5 -92t-19.5 -60
q-24 -74 -30 -87q-15 -43 -64 -43q-47 0 -63 46q-8 20 -23 58.5t-36 96.5t-32 88t-12 32l-93 -245q-15 -42 -30 -60t-47 -18t-45 13q-14 13 -24 42l-105 358h1zM284 552q-25 0 -40 17q-15 16 -15 42q0 25 17 42t44 17q26 0 42 -16t16 -42q0 -25 -17 -42q-16 -16 -45 -16z
M447 553q-23 0 -40 17q-16 16 -16 41t18 42q19 17 44 17q26 0 42 -16t16 -42q0 -25 -17 -42q-16 -16 -45 -16z" />
    <glyph glyph-name="uni1E9E" unicode="&#x1e9e;" horiz-adv-x="674" 
d="M454 566q-12 5 -48 11q-38 6 -63 6q-71 0 -114 -54q-44 -55 -44 -138v-51.5t1 -98.5t1 -106v-74q-2 -36 -15 -51q-13 -14 -45 -16q-54 0 -54 61v40v100v189q0 142 78 223t201 81q53 0 107 -12q56 -12 83 -28q34 -19 34 -57q0 -22 -11 -36l-139 -171q34 -8 56 -15
q24 -8 54 -24q30 -17 48 -36q19 -21 32 -51t13 -69q0 -80 -57 -138t-148 -58q-63 0 -105 19q-44 20 -44 48q0 22 12 39q12 16 35 16q9 0 42 -11t62 -11q42 0 69 27t27 67q0 52 -39 81t-112 42q-51 13 -51 55q0 23 15 44z" />
    <glyph glyph-name="Ygrave" unicode="&#x1ef2;" horiz-adv-x="607" 
d="M238 280l-201 307q-16 23 -16 39q0 23 18 38t41 15q26 0 47 -32l179 -286q3 5 7.5 11.5t10.5 16.5q12 19 57 93q45 73 102 165q20 32 48 32q21 0 39 -15t18 -34q0 -18 -15 -40l-215 -327v-222q0 -22 -16 -34q-17 -12 -39 -12q-25 0 -40 15t-15 40v36v37v78v63zM317 735
q-31 29 -55.5 54t-42.5 45q-15 16 -15 33q0 16 17 31q16 15 33 15q24 0 39 -20l83 -107q10 -13 10 -27q0 -13 -12 -25t-25 -12q-15 0 -31 11z" />
    <glyph glyph-name="ygrave" unicode="&#x1ef3;" horiz-adv-x="504" 
d="M255 129q13 28 42 100t75 190q16 43 48 43q24 0 41 -13q18 -14 18 -33q0 -18 -11 -42q-125 -287 -225 -489q-60 -109 -149 -109q-78 0 -78 54q0 51 53 51q31 0 48 12q16 11 37 48q7 9 45 86l-31 65l-125 271q-17 39 -17 54q0 19 18 33q19 14 39 14q29 0 43 -27
q63 -153 95 -230t33 -79zM257 548q-31 29 -55.5 54t-42.5 45q-15 16 -15 33q0 16 17 31q16 15 33 15q24 0 39 -20l83 -107q10 -13 10 -27q0 -13 -12 -25t-25 -12q-15 0 -31 11z" />
    <glyph glyph-name="endash" unicode="&#x2013;" horiz-adv-x="500" 
d="M59 188q-25 0 -37 15t-12 37q2 50 56 50h190h185q48 0 48 -49q0 -51 -63 -51h-367v-2z" />
    <glyph glyph-name="emdash" unicode="&#x2014;" horiz-adv-x="1000" 
d="M74 190q-25 0 -37 15t-12 36q2 50 56 50h426h420q47 0 47 -49q0 -51 -62 -51h-421h-417v-1z" />
    <glyph glyph-name="quoteleft" unicode="&#x2018;" horiz-adv-x="212" 
d="M121 605q17 -2 30 -16q13 -15 15 -39q0 -26 -19 -45t-45 -19q-32 0 -51 21q-19 20 -19 58q0 37 24 75t59 59q13 7 21 7q11 0 21 -8q9 -8 9 -20q0 -14 -12 -24q-33 -26 -33 -46v-3v0z" />
    <glyph glyph-name="quoteright" unicode="&#x2019;" horiz-adv-x="212" 
d="M83 587q-17 1 -30 15q-13 13 -15 38q0 27 19 46t45 19q31 0 51 -21q20 -22 20 -57q0 -38 -24 -75q-24 -38 -58 -60q-13 -7 -21 -7q-12 0 -21 9t-9 20q0 13 12 25q33 25 33 45v4z" />
    <glyph glyph-name="quotesinglbase" unicode="&#x201a;" horiz-adv-x="212" 
d="M83 0q-17 1 -30 15q-13 13 -15 38q0 27 19 46t45 19q31 0 51 -21q20 -22 20 -57q0 -38 -24 -75q-24 -38 -58 -60q-13 -7 -21 -7q-12 0 -21 9t-9 20q0 13 12 25q33 25 33 45v4z" />
    <glyph glyph-name="quotedblleft" unicode="&#x201c;" horiz-adv-x="377" 
d="M121 605q16 -2 30 -15q13 -13 15 -38q0 -27 -19 -46t-45 -19q-32 0 -51 21q-19 20 -19 57t24 75q24 37 59 60q13 7 21 7q12 0 21 -9t9 -19q0 -13 -12 -25q-33 -26 -33 -45v-4zM286 605q16 -2 30 -15q13 -13 15 -38q0 -27 -19 -46t-45 -19q-32 0 -51 21q-19 20 -19 57
t24 75q24 37 59 60q13 7 21 7q12 0 21 -9t9 -19q0 -13 -12 -25q-33 -26 -33 -45v-4z" />
    <glyph glyph-name="quotedblright" unicode="&#x201d;" horiz-adv-x="378" 
d="M83 585q-16 1 -30 17q-14 15 -15 39q0 26 19 45t45 19q31 0 51 -21q20 -22 20 -58q0 -38 -24 -75t-58 -58q-13 -7 -21 -7q-11 0 -21 8q-9 7 -9 20t12 24q33 25 33 46v3zM248 583q-16 1 -30 17q-14 15 -15 39q0 26 19 45t45 19q31 0 51 -21q20 -22 20 -58q0 -38 -24 -75
t-58 -58q-13 -7 -21 -7q-11 0 -21 8q-9 7 -9 20t12 24q33 25 33 46v3z" />
    <glyph glyph-name="quotedblbase" unicode="&#x201e;" horiz-adv-x="378" 
d="M83 0q-17 1 -30 15q-13 13 -15 38q0 27 19 46t45 19q31 0 51 -21q20 -22 20 -57q0 -38 -24 -75q-24 -38 -58 -60q-13 -7 -21 -7q-12 0 -21 9t-9 20q0 13 12 25q33 25 33 45v4zM247 -1q-17 1 -30 15q-13 13 -13 38q-1 27 18 46t45 19q31 0 51 -21q20 -22 20 -57
q0 -38 -24 -75t-59 -60q-10 -7 -21 -7t-20 9t-9 20q0 14 12 25q32 26 32 45v4z" />
    <glyph glyph-name="dagger" unicode="&#x2020;" horiz-adv-x="527" 
d="M78 383q-23 0 -36 13q-14 13 -12 39q0 49 52 49h46h82l-1 185q0 56 54 56q30 0 42 -13q12 -14 12 -49v-45t-1 -57t-1 -51.5v-27.5l137 1q47 0 47 -49q0 -50 -59 -50h-125v-103t1 -159t1 -158v-101q0 -25 -14 -41q-14 -15 -39 -15q-24 0 -40 14q-15 13 -15 39v140v141v123
v123l-131 -1v-3z" />
    <glyph glyph-name="daggerdbl" unicode="&#x2021;" horiz-adv-x="527" 
d="M76 385q-50 0 -49 52q0 46 53 46h127l-2 192q0 23 15 35t39 12q27 0 41 -12t14 -43v-37.5t-1 -50.5t-1 -53v-44l138 2q47 0 47 -49q0 -50 -59 -50l-126 2v-48t1 -73t1 -77.5v-60.5l136 2q47 0 47 -48q0 -51 -59 -51l-125 2q0 -12 0.5 -32.5t1.5 -49.5t1.5 -49.5
t0.5 -32.5q0 -61 -56 -61q-54 0 -54 57l2 169l-115 -1q-65 0 -65 49t56 49l124 -2v57v202l-131 -2z" />
    <glyph glyph-name="bullet" unicode="&#x2022;" horiz-adv-x="342" 
d="M166 96q-61 0 -101 38q-39 37 -39 99q0 65 42 104t106 39q60 0 99 -40q39 -41 39 -100q0 -65 -40 -102t-105 -37z" />
    <glyph glyph-name="ellipsis" unicode="&#x2026;" horiz-adv-x="658" 
d="M105 -6q-29 0 -47 18t-18 47q0 30 20 50t51 20q29 0 48 -19q20 -20 20 -48q0 -31 -20 -49t-53 -18zM324 -7q-29 0 -48 18t-19 47q0 30 21 50q22 20 52 20q29 0 48 -19t19 -48q0 -31 -20 -49t-53 -18v-1zM543 -8q-29 0 -47 18t-18 47q0 30 20 50t51 20q29 0 48 -19
q20 -20 20 -48q0 -31 -20 -49t-53 -18z" />
    <glyph glyph-name="perthousand" unicode="&#x2030;" horiz-adv-x="1146" 
d="M530 651q22 40 61 22q37 -23 15 -63q-3 -5 -63 -99q-30 -48 -52.5 -85t-38.5 -66q-12 -22 -27.5 -48.5t-35.5 -58.5q-38 -62 -43 -73l-95 -162q-9 -17 -28 -21t-34 5q-14 7 -19 24q-4 16 6 34l182 294l173 298zM26 486q0 79 38 135t110 56q69 0 110 -50t41 -129
q0 -77 -44 -126q-44 -48 -108 -48q-58 0 -102 47q-43 46 -43 119zM174 601q-68 0 -68 -108q0 -41 18 -69t49 -28q32 0 52 29q19 28 19 75t-18 74t-52 27zM457 154q0 79 39 132t113 53q70 0 112 -49q42 -50 42 -129t-43 -126q-44 -48 -111 -48q-61 0 -105 47t-44 119z
M608 267q-37 0 -53 -31q-17 -32 -17 -79q0 -43 18 -70t50 -27q36 0 54 26t17 74q-2 108 -69 108v-1zM804 154q0 79 39 132t113 53q70 0 112 -49q42 -50 42 -129t-43 -126q-44 -48 -111 -48q-61 0 -105 47t-44 119zM955 267q-37 0 -53 -31q-17 -32 -17 -79q0 -43 18 -70
t50 -27q36 0 54 26t17 74q-2 108 -69 108v-1z" />
    <glyph glyph-name="guilsinglleft" unicode="&#x2039;" horiz-adv-x="296" 
d="M141 237l101 -113q16 -16 16 -34q0 -11 -12 -23t-25 -13q-17 -2 -33 12l-128 121q-24 22 -24 48q0 24 21 45q34 37 129 126q13 12 29 12q13 0 27 -12q13 -12 13 -25q0 -14 -15 -30z" />
    <glyph glyph-name="guilsinglright" unicode="&#x203a;" horiz-adv-x="296" 
d="M56 349q-15 16 -15 30t13 26t27 12q16 0 29 -11q41 -38 73 -69.5t55 -56.5q21 -23 21 -45q0 -26 -24 -50l-128 -120q-17 -14 -33 -14q-14 1 -25 13q-12 12 -12 23q0 18 16 35l101 113z" />
    <glyph glyph-name="fraction" unicode="&#x2044;" horiz-adv-x="446" 
d="M366 651q16 27 36 27q16 0 26 -10q11 -11 11 -24q0 -14 -10 -30q-5 -8 -21 -35t-45 -74t-50.5 -83t-36.5 -62l-201 -343q-13 -22 -33 -22q-14 0 -25 10q-12 10 -12 27q0 12 11 31l352 590z" />
    <glyph glyph-name="zerosuperior" unicode="&#x2070;" horiz-adv-x="366" 
d="M28 547q0 95 40 153t114 58q73 0 113 -52q41 -53 41 -144q0 -90 -44 -142q-44 -51 -108 -51t-109 48t-45 130h-2zM182 681q-74 0 -74 -130q0 -46 20 -78t51 -32q36 0 57 32q21 31 21 86q0 54 -20 89t-56 35z" />
    <glyph glyph-name="foursuperior" unicode="&#x2074;" horiz-adv-x="343" 
d="M193 566q0 39 34 39q37 0 39 -29v-63l30 1q33 0 33 -33q0 -42 -31 -42h-31v-41q-1 -31 -39 -31q-36 -2 -36 31v23v19h-133q-16 0 -28 15t-12 31q0 25 18 52l105 194q16 25 37 25q16 0 32 -11q15 -11 15 -24q0 -9 -6 -21l-107 -188l80 1v54v-2z" />
    <glyph glyph-name="fivesuperior" unicode="&#x2075;" horiz-adv-x="325" 
d="M57 712q1 17 14 30q12 12 29 12h141q37 0 37 -39q0 -36 -39 -36l-111 1l-3 -18l-8 -54q27 13 51 13q57 0 92 -33t35 -87q0 -59 -36 -96q-36 -38 -102 -38q-58 0 -100 24q-28 16 -28 40q0 14 11 27q10 12 27 12q11 0 27 -10q29 -16 62 -16q23 0 42 14q18 13 18 39
q0 25 -16 38q-17 14 -42 14q-15 0 -39 -9t-37 -9q-20 0 -33 12q-14 12 -9 30q1 18 9 66q4 24 6.5 42.5t4.5 32.5z" />
    <glyph glyph-name="sixsuperior" unicode="&#x2076;" horiz-adv-x="343" 
d="M191 681q-29 0 -51 -22q-23 -23 -24 -54q-1 -4 -1 -17q11 14 33 23t42 9q55 0 91 -30t36 -91q0 -59 -38 -95t-102 -36q-116 0 -137 120q-2 15 -3.5 31t-1.5 33q0 89 44 147q43 57 114 57q46 0 76 -14q25 -13 25 -36q0 -17 -9 -27t-24 -10q-9 0 -24 5q-27 7 -45 7h-1z
M177 554q-28 0 -44 -15q-17 -15 -17 -42q0 -26 17 -41q16 -15 42 -15q27 0 45 15t18 42q0 26 -16 41q-17 15 -45 15z" />
    <glyph glyph-name="sevensuperior" unicode="&#x2077;" horiz-adv-x="311" 
d="M187 679h-25.5t-38.5 -1t-40 -1h-30q-38 0 -38 39q0 18 12 27t28 9h200q18 0 27 -10q9 -11 9 -25q0 -20 -18 -45q-67 -97 -102 -191q-15 -42 -24 -75q-8 -35 -42 -35q-21 0 -32 11t-9 29q4 28 27 84q37 96 99 186z" />
    <glyph glyph-name="eightsuperior" unicode="&#x2078;" horiz-adv-x="345" 
d="M301 648q0 -26 -12 -47t-34 -30q26 -7 43 -29q16 -20 16 -50q1 -61 -38 -93q-38 -31 -105 -31q-63 0 -103 31t-40 85q0 31 17 54q16 22 45 33q-18 6 -31 28t-13 48q0 51 38 81q37 30 87 30q55 0 94 -30t39 -78zM170 535q-28 0 -45 -13q-18 -14 -18 -37q0 -22 17 -36
q16 -13 42 -13q29 0 48 14q18 13 18 38q0 22 -18 36q-17 13 -43 13zM118 639q1 -19 15 -31q13 -12 35 -12t38 14q15 13 15 33q0 17 -15 29t-37 12t-35 -12q-14 -12 -14 -32z" />
    <glyph glyph-name="ninesuperior" unicode="&#x2079;" horiz-adv-x="346" 
d="M155 445q32 0 53 23q21 22 21 66q-27 -31 -75 -31q-49 0 -87 32q-37 31 -37 90t41 95q40 36 101 36q72 0 107 -48q35 -49 35 -131q0 -108 -39 -159t-121 -51q-48 0 -87 18q-21 10 -21 38q0 16 10 27q10 12 25 12q3 0 27 -6q23 -10 49 -10zM165 567q27 -2 45 15
q18 16 18 43q0 24 -18 41q-19 17 -43 17q-25 0 -42 -16q-18 -17 -18 -43q0 -25 16 -40t42 -15v-2z" />
    <glyph glyph-name="zeroinferior" unicode="&#x2080;" horiz-adv-x="366" 
d="M28 7q0 95 40 153t114 58q73 0 113 -52q41 -53 41 -144q0 -90 -44 -142q-44 -51 -108 -51t-109 48t-45 130h-2zM182 141q-74 0 -74 -130q0 -46 20 -78t51 -32q36 0 57 32q21 31 21 86q0 54 -20 89t-56 35z" />
    <glyph glyph-name="oneinferior" unicode="&#x2081;" horiz-adv-x="255" 
d="M77 85q-11 -6 -22 -6q-14 0 -24 12q-10 11 -10 25q0 22 22 35l74 52q19 13 38 13q16 0 27 -10q12 -11 12 -22v-52v-54v-216q0 -15 -12 -24t-28 -9q-40 0 -40 37q0 11 0.5 40t1.5 76t1.5 79.5t0.5 51.5q-7 -5 -16.5 -12.5t-23.5 -16.5z" />
    <glyph glyph-name="twoinferior" unicode="&#x2082;" horiz-adv-x="322" 
d="M150 138q-30 0 -52 -27q-14 -15 -36 -15q-14 0 -24 12q-11 13 -11 27q0 21 30 47q43 34 93 34q58 1 98 -32q39 -33 39 -87q0 -27 -13 -52q-14 -26 -27 -39q-14 -14 -45 -42l-12 -12l-50 -46h40t41 1t31.5 1h11.5q35 0 35 -39t-39 -39h-32h-31h-128q-18 0 -30 12t-12 31
q0 27 27 53l92 89q11 11 19 18t13 12q8 8 18 23q9 13 9 26q0 19 -15 33q-14 13 -38 13z" />
    <glyph glyph-name="threeinferior" unicode="&#x2083;" horiz-adv-x="318" 
d="M206 -51q0 49 -66 49h-23q-15 0 -24 10t-9 27q0 16 18 33l69 69h-64.5t-37.5 -1q-40 0 -40 37q0 16 9 27t27 11h65h116q35 0 35 -35q0 -21 -18 -37l-77 -78q41 -3 70 -31q30 -28 31 -73q0 -62 -39 -96q-40 -35 -100 -35q-55 0 -93 22q-27 13 -27 39q0 15 11 28
q10 12 24 12q9 0 34 -11q33 -14 51 -14q25 0 42 14t17 39z" />
    <glyph glyph-name="fourinferior" unicode="&#x2084;" horiz-adv-x="343" 
d="M192 26q0 39 34 39q37 0 39 -29v-63l30 1q33 0 33 -33q0 -42 -31 -42h-31v-41q-1 -31 -39 -31q-36 -2 -36 31v23v19h-40h-52h-40q-16 0 -28 15t-12 31q0 25 18 52l105 194q16 25 37 25q16 0 32 -11q15 -11 15 -24q0 -9 -6 -21l-107 -188l80 1v54z" />
    <glyph glyph-name="fiveinferior" unicode="&#x2085;" horiz-adv-x="325" 
d="M57 172q1 17 14 30q12 12 29 12h141q37 0 37 -39q0 -38 -39 -36l-111 1l-3 -18l-8 -54q27 13 51 13q57 0 92 -33t35 -87q0 -59 -36 -96q-36 -38 -102 -38q-58 0 -100 24q-28 16 -28 40q0 14 11 27q10 12 27 12q11 0 27 -10q29 -16 62 -16q23 0 42 14q18 13 18 39
q0 25 -16 38q-17 14 -42 14q-15 0 -39 -9t-37 -9q-20 0 -33 12q-14 12 -9 30q1 18 9 66q4 24 6.5 42.5t4.5 32.5z" />
    <glyph glyph-name="sixinferior" unicode="&#x2086;" horiz-adv-x="343" 
d="M191 141q-29 0 -51 -22q-23 -23 -24 -54q-1 -4 -1 -17q11 14 33 23t42 9q55 0 91 -30t36 -91q0 -59 -38 -95t-102 -36q-116 0 -137 120q-2 15 -3.5 31t-1.5 33q0 89 44 147q43 57 114 57q46 0 76 -14q25 -13 25 -36q0 -17 -9 -27t-24 -10q-9 0 -24 5q-27 7 -45 7h-1z
M177 14q-28 0 -44 -15q-17 -15 -17 -42q0 -26 17 -41q16 -15 42 -15q27 0 45 15t18 42q0 26 -16 41q-17 15 -45 15z" />
    <glyph glyph-name="seveninferior" unicode="&#x2087;" horiz-adv-x="311" 
d="M187 139h-25.5t-38.5 -1t-40 -1h-30q-38 0 -38 39q0 18 12 27t28 9h200q18 0 27 -10q9 -11 9 -25q0 -20 -18 -45q-67 -97 -102 -191q-15 -42 -24 -75q-8 -35 -42 -35q-21 0 -32 11t-9 29q4 28 27 84q37 96 99 186z" />
    <glyph glyph-name="eightinferior" unicode="&#x2088;" horiz-adv-x="345" 
d="M301 108q0 -26 -12 -47t-34 -30q26 -7 43 -29q16 -20 16 -50q1 -61 -38 -93q-38 -31 -105 -31q-63 0 -103 30t-40 84q0 66 62 89q-18 6 -31 28t-13 48q0 51 38 81q37 30 87 30q55 0 94 -30t39 -78zM169 -5q-28 0 -45 -13q-18 -14 -18 -39q2 -23 18 -35t42 -12q29 0 48 14
q18 13 18 38q0 22 -18 36q-17 13 -43 13zM117 99q1 -19 15 -31q13 -12 35 -12t38 14q15 13 15 33q0 17 -15 29t-37 12q-19 0 -34 -12t-15 -32z" />
    <glyph glyph-name="nineinferior" unicode="&#x2089;" horiz-adv-x="346" 
d="M155 -95q32 0 53 23q21 22 21 66q-27 -31 -75 -31q-49 0 -87 32q-37 31 -37 90t41 95q40 36 101 36q72 0 107 -48q35 -49 35 -131q0 -108 -39 -159t-121 -51q-48 0 -87 18q-21 10 -21 38q0 16 10 27q10 12 25 12q3 0 27 -6q23 -10 49 -10zM165 27q27 -2 45 15
q18 16 18 43q0 24 -18 41q-19 17 -43 17q-25 0 -42 -16q-18 -17 -18 -43q0 -25 16 -40t42 -15v-2z" />
    <glyph glyph-name="franc" unicode="&#x20a3;" horiz-adv-x="538" 
d="M45 113q-43 0 -43 40q0 46 45 46h47l1 282v25t-1 35t-1 35v26q-2 22 6 42q12 37 50 37h27h28h42.5t72.5 1t76 1h52q35 0 51 -10t16 -36q0 -53 -55 -53l-254 1v-112v-73l192 1q45 0 45 -49t-52 -49h-93h-93v-104h51h49q46 0 46 -42q0 -44 -51 -44h-94v-56q0 -30 -12 -45
t-41 -15q-57 0 -57 51v64h-47z" />
    <glyph glyph-name="lira" unicode="&#x20a4;" horiz-adv-x="546" 
d="M96 223q-44 0 -42 39q0 36 47 36h43v47h-42q-25 0 -36 8q-10 7 -10 29q0 36 49 36h38v21v23q3 100 60 157t142 57q57 0 93 -21q30 -17 30 -48q0 -17 -13 -33q-14 -17 -33 -17q-13 0 -33 7t-40 7q-42 0 -69 -33t-27 -96v-22h92q47 0 47 -33q0 -39 -45 -39h-94v-47h95
q38 0 38 -35q0 -21 -10 -30q-11 -9 -37 -9h-85v-112q114 -29 135 -29q20 0 40 23t42 23q20 0 36 -14q15 -14 14 -36q-2 -48 -34 -72q-33 -24 -82 -24q-35 0 -126 21q-46 11 -72.5 16.5t-34.5 6.5q-29 0 -45 -18q-3 -3 -6 -7q-4 -6 -7 -7q-2 -1 -3.5 -2t-3.5 -3q-3 -2 -11 -4
q-4 -1 -15 -1q-22 0 -36 20q-16 18 -13 42q8 32 30 53q23 22 54 29q10 2 32 2v97h-49z" />
    <glyph glyph-name="Euro" unicode="&#x20ac;" horiz-adv-x="584" 
d="M514 668q35 -14 35 -49q0 -21 -12 -37t-34 -16q-10 0 -41 9q-32 9 -59 9q-58 0 -103 -36t-69 -100q35 1 81.5 1h103.5q39 0 39 -39q0 -38 -41 -38h-202q-3 -20 -3 -42q0 -19 1 -24h193q37 0 37 -37q0 -23 -12 -32t-40 -9h-89.5t-72.5 1q42 -129 181 -129q23 0 61 11
t49 11q18 -2 30 -21q12 -20 12 -39q0 -33 -46 -51q-45 -18 -121 -16q-104 1 -181 63q-76 61 -100 173h-24h-21q-44 0 -44 40q0 36 44 36h37v19q0 15 0.5 26t1.5 19h-31q-40 0 -40 35q0 19 12 30q13 11 34 11h40q31 109 111 174q79 64 177 63q65 -2 107 -19z" />
    <glyph glyph-name="uni20B9" unicode="&#x20b9;" horiz-adv-x="530" 
d="M80 584q-22 0 -34 14q-12 13 -10 32q0 45 53 45h183h177q45 0 45 -43q0 -46 -57 -46h-39h-52q43 -35 48 -87h57q43 0 43 -42q0 -46 -57 -46h-46q-13 -55 -51 -94q-37 -38 -93 -52l175 -179q19 -19 19 -42q0 -21 -15 -36t-40 -16q-25 0 -51 29l-201 218h-40q-23 0 -35 14
q-12 13 -12 35q0 44 49 44h55q103 0 127 77h-198q-22 0 -34 14q-12 13 -10 32q0 44 53 44h107.5t87.5 -1q-13 77 -111 88h-92z" />
    <glyph glyph-name="uni20BA" unicode="&#x20ba;" 
d="M249 255q-1 -88 0 -145q57 -2 99 27q42 28 60 69q11 25 24 35t36 9q52 -3 46 -61q-13 -70 -73 -121q-61 -52 -149 -65q-14 -2 -36 -3t-51 -1q-32 0 -51 13q-20 13 -18 45v161l-55 -18q-20 -7 -36 2q-15 9 -18 24q-7 37 40 52l69 23v53l-61 -20q-21 -8 -35 0q-13 7 -18 26
q-9 36 40 51l75 26v192q0 25 15 39q16 14 42 14q25 0 40 -12t15 -35v-86.5t-1 -73.5l95 32q42 12 55 -24q12 -37 -39 -55l-110 -37v-53l99 34q43 13 54 -24q10 -38 -39 -54z" />
    <glyph glyph-name="uni20BD" unicode="&#x20bd;" horiz-adv-x="623" 
d="M83 262q-48 0 -48 44q0 47 54 47l37 1l-1 227q0 47 18 71q18 25 69 26q55 3 125 3q114 0 181 -52t67 -153t-65 -157q-64 -55 -183 -55h-98v-69h136q48 0 48 -43q0 -47 -54 -47h-130v-28v-28q0 -56 -57 -56q-56 0 -56 55v57h-44q-49 0 -49 44q0 46 53 46h40v68h-43v-1z
M239 354h51h52q136 0 136 119q0 111 -141 111q-38 0 -63 -0.5t-36 -1.5v-69v-89z" />
    <glyph glyph-name="uni2113" unicode="&#x2113;" horiz-adv-x="438" 
d="M255 -8q-61 0 -105 38q-44 37 -48 93v6v12v14q-24 -8 -38 -6t-23 15t-9 30q0 34 38 42q11 2 29 12l-2 62q-5 75 -6.5 118.5t-0.5 57.5q1 21 3 39.5t5 34.5q6 30 23 63q16 31 48 48t77 17q71 0 108 -46q37 -47 39 -117q2 -71 -34 -141q-36 -71 -96 -129q-30 -32 -69 -55
v-16q0 -42 17 -70q16 -27 51 -27q24 0 60 17q22 12 35 12q16 0 28 -14t12 -32q0 -26 -19 -39q-56 -36 -120 -36zM180 465v-49q0 -14 0.5 -28.5t1.5 -31.5t1 -29.5v-22.5q34 27 69 72q44 70 46 132q0 90 -56 90q-61 0 -61 -134z" />
    <glyph glyph-name="trademark" unicode="&#x2122;" horiz-adv-x="676" 
d="M182 676h66q28 0 28 -28q0 -32 -29 -32h-70l1 -191v-22v-24q0 -32 -35 -32q-31 0 -31 30l1 174v36t-1 30q-5 -1 -13 -1h-20h-41q-26 0 -26 31q0 29 28 29h109h33zM361 567l-22 -192q-4 -25 -31 -25q-15 0 -24 9q-10 9 -8 23q4 23 9.5 61.5t13.5 95.5t12 86t5 32
q6 23 40 23q25 -2 36 -30l68 -201l74 199q9 25 32 30h13q19 0 27 -15l31 -236l6 -48q1 -15 -8 -24t-23 -9q-28 0 -31 26l-20 188l-66 -180q-12 -23 -38 -23q-8 0 -15 5q-6 5 -8 8l-6 12z" />
    <glyph glyph-name="Omega" unicode="&#x2126;" horiz-adv-x="706" 
d="M89 -5q-25 0 -39 14q-13 13 -13 36q0 26 15 41t39 15q32 0 57.5 -0.5t44.5 -1.5q-64 41 -109 108q-45 66 -45 155q0 139 89 230q88 90 222 90q140 0 228 -88t87 -223q-1 -85 -42 -154q-40 -68 -104 -117h19t29 1t27.5 1h14.5q60 0 60 -52t-55 -52h-173q-21 -1 -37 12
t-16 39q0 31 29 63q66 55 103 115q37 59 37 145q0 92 -60 152t-148 60q-90 0 -148 -61t-58 -160q0 -80 39 -137q40 -58 109 -114q29 -23 29 -59q0 -24 -15 -39t-43 -14z" />
    <glyph glyph-name="estimated" unicode="&#x212e;" horiz-adv-x="691" 
d="M190 292v-212q71 -50 153 -50q70 0 129 38q58 37 91 90q5 5 12 2l23 -16q1 -2 0 -6q-44 -65 -109 -105q-67 -41 -145 -41q-128 0 -213 94q-86 95 -86 225t86 224q85 93 213 93t215 -93t87 -225v-12q0 -5 -4 -5zM495 329v209q-69 51 -152 51q-85 0 -153 -53v-207h305z" />
    <glyph glyph-name="onethird" unicode="&#x2153;" horiz-adv-x="771" 
d="M496 651q16 27 36 27q16 0 26 -10q11 -11 11 -24q0 -14 -10 -30q-5 -8 -21 -35t-45 -74t-50.5 -83t-36.5 -62l-201 -343q-13 -22 -33 -22q-14 0 -25 10q-12 10 -12 27q0 12 11 31l352 590zM655 115q0 49 -67 49h-23q-31 0 -31 36q0 13 17 33q4 4 12 11.5t20 19.5t21.5 21
t16.5 16h-51h-51q-39 0 -39 36q0 16 9 27t26 11h66h57h59q34 0 34 -34q0 -21 -18 -37l-77 -79q41 -2 71 -30q30 -29 30 -75q1 -61 -38 -96q-38 -34 -101 -34q-56 0 -92 21q-28 16 -28 40q0 15 11 28q10 12 24 12q13 0 34 -10q27 -15 50 -15q27 0 44 14t17 39zM80 543
q-12 -6 -23 -6q-14 0 -24 12q-10 11 -10 25q0 20 22 35l74 52q19 13 38 13q16 0 27 -10q12 -11 12 -22v-105v-107v-108q0 -15 -11 -24t-27 -9q-40 0 -40 37q0 11 0.5 40t1.5 76t1.5 79.5t0.5 51.5q-3 -2 -6 -4.5t-7 -4.5t-7.5 -4.5t-7.5 -5.5l-12 -9z" />
    <glyph glyph-name="twothirds" unicode="&#x2154;" horiz-adv-x="811" 
d="M555 652q16 27 36 27q16 0 26 -10q11 -11 11 -24q0 -11 -10 -30l-154 -254l-202 -343q-13 -22 -33 -22q-14 0 -25 10q-12 10 -12 27q0 10 11 30l352 590v-1zM697 116q0 49 -67 49h-23q-31 0 -31 36q0 13 17 33q4 4 12 11.5t20 19.5t21.5 21t16.5 16h-51h-51q-39 0 -39 36
q0 16 9 27t26 11h66h57h59q34 0 34 -34q0 -21 -18 -37l-77 -79q41 -2 71 -30q30 -29 30 -75q1 -61 -38 -96q-38 -34 -101 -34q-56 0 -92 21q-28 16 -28 40q0 15 11 28q10 12 24 12q13 0 34 -10q27 -15 50 -15q27 0 44 14t17 39zM160 602q-30 0 -52 -27q-14 -15 -36 -15
q-14 0 -24 12q-10 11 -10 27q0 23 30 47q40 34 90 34q58 1 98 -32q39 -33 39 -87v-9.5t-1 -9.5q-1 -8 -6 -19t-6 -16q-2 -6 -10 -16q-9 -11 -12 -15q-3 -5 -15 -15q-6 -5 -9.5 -8.5l-5.5 -5.5t-6 -5.5l-12 -10.5l-12 -10.5t-6 -5.5l-50 -46h40.5t40.5 1l42 1q36 0 36 -39
t-40 -39h-32h-31h-128q-15 0 -28 11q-12 10 -12 30q0 30 27 54l92 89q11 11 19 18t13 12q8 8 18 23q9 13 9 26q0 19 -15 33q-14 13 -38 13h3z" />
    <glyph glyph-name="oneeighth" unicode="&#x215b;" horiz-adv-x="791" 
d="M502 652q16 27 36 27q16 0 26 -10q11 -11 11 -24q0 -11 -10 -30l-154 -254l-202 -343q-13 -22 -33 -22q-14 0 -25 10q-12 10 -12 27q0 10 11 30l352 590v-1zM738 278q0 -26 -12 -47t-34 -31q59 -20 59 -81q1 -61 -38 -93q-38 -31 -105 -31q-63 0 -103 30t-40 84
q0 64 62 87q-18 6 -31 28t-13 48q0 50 38 80q37 30 87 30q55 0 94 -30t39 -78zM607 165q-26 0 -45 -14q-18 -14 -18 -38q0 -23 17 -35q16 -12 42 -12q29 0 48 14q18 13 18 38q0 22 -18 36q-19 14 -43 14zM555 267q1 -19 15 -31q13 -12 35 -12t38 14q15 13 15 35q0 17 -15 29
t-37 12t-35 -12q-14 -12 -14 -32zM83 549q-11 -6 -21 -6q-14 0 -24 12q-10 11 -10 25q0 22 22 35l74 52q19 13 38 13q16 0 27 -10q12 -11 12 -22v-52v-54v-216q0 -15 -12 -24t-28 -9q-40 0 -40 37q0 11 0.5 40t1.5 76t1.5 79.5t0.5 51.5q-7 -5 -16.5 -12.5t-23.5 -16.5z" />
    <glyph glyph-name="threeeighths" unicode="&#x215c;" horiz-adv-x="821" 
d="M543 651q16 27 36 27q16 0 26 -10q11 -11 11 -24q0 -14 -10 -30q-5 -8 -21 -35t-45 -74t-50.5 -83t-36.5 -62l-201 -343q-13 -22 -33 -22q-14 0 -25 10q-12 10 -12 27q0 12 11 31l352 590zM761 275q0 -26 -12 -47t-34 -31q28 -7 45 -29q16 -20 16 -50q1 -61 -38 -93
q-38 -31 -106 -31q-63 0 -103 30t-40 84q0 64 63 87q-18 6 -31 28t-13 48q0 50 38 80q37 30 87 30q55 0 93 -30t38 -78zM632 163q-28 0 -45 -13q-18 -14 -18 -39q0 -23 16 -35t42 -12q65 0 65 51q0 22 -17 36t-44 14zM580 265q0 -19 14 -31q13 -12 35 -12q23 0 39 14
q15 13 15 35q0 17 -15 29t-38 12q-20 0 -33 -12q-14 -12 -14 -32zM208 415q0 49 -67 49h-23q-31 0 -31 36q0 15 17 32q27 27 44.5 44t25.5 24h-65.5t-37.5 -1q-39 0 -39 37q0 15 9 26t26 11h66h116q34 0 34 -35q0 -21 -18 -37l-77 -78q42 -3 71 -31q30 -29 30 -73
q1 -61 -38 -96q-40 -35 -101 -35q-56 0 -93 22q-28 15 -28 40q0 16 11 27t24 11t34 -10q26 -14 50 -14q27 0 44 14t17 39z" />
    <glyph glyph-name="fiveeighths" unicode="&#x215d;" horiz-adv-x="821" 
d="M544 651q16 27 36 27q16 0 26 -10q11 -11 11 -24q0 -14 -10 -30q-5 -8 -21 -35t-45 -74t-50.5 -83t-36.5 -62l-201 -343q-13 -22 -33 -22q-14 0 -25 10q-12 10 -12 27q0 12 11 31l352 590zM762 275q0 -26 -12 -47t-34 -31q28 -7 45 -29q16 -20 16 -50q1 -61 -38 -93
q-38 -31 -106 -31q-63 0 -103 30t-40 84q0 64 63 87q-18 6 -31 28t-13 48q0 50 38 80q37 30 87 30q55 0 93 -30t38 -78zM633 163q-28 0 -45 -13q-18 -14 -18 -39q0 -23 16 -35t42 -12q65 0 65 51q0 22 -17 36t-44 14zM581 265q0 -19 14 -31q13 -12 35 -12q23 0 39 14
q15 13 15 35q0 17 -15 29t-38 12q-20 0 -33 -12q-14 -12 -14 -32zM62 633q1 18 12 30q10 12 27 12h141q38 0 38 -39q0 -36 -40 -36l-110 1l-3 -18l-8 -54q25 13 50 13q58 0 93 -33t35 -87q0 -59 -36 -96q-36 -38 -102 -38q-57 0 -99 24q-28 15 -28 40q0 14 11 27
q10 12 27 12q10 0 27 -10q28 -16 63 -16q24 0 41 14t17 39t-16 38q-17 14 -42 14q-15 0 -39 -9t-36 -9q-20 0 -33 12t-10 31q1 13 9 63q7 49 12 78z" />
    <glyph glyph-name="seveneighths" unicode="&#x215e;" horiz-adv-x="791" 
d="M496 652q16 27 36 27q16 0 26 -10q11 -11 11 -24q0 -11 -10 -30l-154 -254l-202 -343q-13 -22 -33 -22q-14 0 -25 10q-12 10 -12 27q0 10 11 30l352 590v-1zM735 276q0 -26 -12 -47t-34 -31q28 -7 45 -29q16 -20 16 -50q1 -61 -38 -93q-38 -31 -106 -31q-63 0 -103 30
t-40 84q0 64 63 87q-18 6 -31 28t-13 48q0 50 38 80q37 30 87 30q55 0 93 -30t38 -78zM606 164q-28 0 -45 -13q-18 -14 -18 -39q0 -23 16 -35t42 -12q65 0 65 51q0 22 -17 36t-44 14zM554 266q0 -19 14 -31q13 -12 35 -12q23 0 39 14q15 13 15 35q0 17 -15 29t-38 12
q-20 0 -33 -12q-14 -12 -14 -32zM201 604h-64h-70q-38 0 -38 39q0 35 39 35h99h99q36 0 36 -37q0 -19 -18 -46q-67 -94 -102 -191q-11 -31 -24 -74q-5 -20 -13 -28q-9 -9 -29 -9q-21 0 -32 11t-9 29q2 15 8.5 36t17.5 49q39 98 98 185z" />
    <glyph glyph-name="arrowleft" unicode="&#x2190;" horiz-adv-x="717" 
d="M36 241q0 31 25 57l177 167q14 11 30 11q20 0 34 -15q13 -14 13 -36q0 -6 -1 -9t-3 -7q-1 -2 -2 -3.5t-3 -3.5l-4 -6l-6 -6l-6 -6l-114 -103l456 3q46 0 46 -48q0 -23 -12 -35t-33 -12l-218 2l-237 2l117 -102q24 -20 24 -39t-14 -33q-13 -13 -35 -13q-15 0 -31 11
l-176 165q-26 20 -26 57z" />
    <glyph glyph-name="arrowup" unicode="&#x2191;" horiz-adv-x="550" 
d="M276 686q32 0 60 -31l162 -175q13 -13 13 -30q0 -21 -13 -34t-36 -13q-18 0 -39 23l-103 117l2 -499q0 -47 -48 -47t-48 46l4 499l-108 -127q-16 -22 -39 -22q-20 0 -34 14q-13 13 -13 35q0 13 14 30l169 187q22 27 57 27z" />
    <glyph glyph-name="arrowright" unicode="&#x2192;" horiz-adv-x="717" 
d="M678 240q0 -37 -26 -57l-178 -169q-14 -12 -30 -12q-20 0 -36 14q-15 13 -15 33q0 19 25 40l119 106l-237 -2l-218 -2q-21 0 -33 12t-12 35q0 48 46 48l457 -3l-119 106q-24 22 -24 39q0 22 13 36q13 15 34 15q16 0 30 -11l180 -171q25 -25 25 -57h-1z" />
    <glyph glyph-name="arrowdown" unicode="&#x2193;" horiz-adv-x="550" 
d="M276 -4q-37 0 -57 26l-173 191q-14 14 -14 30q0 21 15 35q16 14 35 14q23 0 41 -24l110 -130l-4 500q0 46 48 46q47 0 47 -47l-2 -500l105 119q22 24 39 24q23 0 36 -13q14 -14 14 -36q0 -15 -13 -29l-165 -177q-30 -30 -61 -30z" />
    <glyph glyph-name="partialdiff" unicode="&#x2202;" horiz-adv-x="559" 
d="M227 618q-34 10 -34 43q0 34 27 48q27 13 65 1q94 -26 168 -117q74 -92 75 -235q0 -89 -15 -152q-24 -105 -91 -160t-162 -55q-92 0 -153 55q-62 55 -63 144q0 100 68 177q67 76 171 78q42 2 77 -16q36 -18 56 -53q-5 94 -55 159q-51 66 -136 87zM288 344q-56 0 -97 -41
q-40 -40 -40 -99q-1 -54 29 -86t77 -32q55 0 96 37q43 38 47 93t-27 93q-31 37 -84 37z" />
    <glyph glyph-name="Delta" unicode="&#x2206;" horiz-adv-x="636" 
d="M565 -1h-301t-193 -1q-24 0 -40 14q-15 13 -15 38q0 19 17 56l101 229l123 306q15 39 61 39q50 0 65 -41l146 -362l75 -177q14 -37 14 -53q0 -20 -13 -33q-14 -14 -39 -14zM146 96h168h173l-169 442z" />
    <glyph glyph-name="product" unicode="&#x220f;" horiz-adv-x="572" 
d="M329 583l-147 -1v-51q0 -147 3 -570q2 -59 -57 -59q-52 0 -51 55v88.5t1 143.5t1 143.5v88.5q0 23 -0.5 63t-1.5 100q-2 47 16 72q18 26 62 24h132h130q38 0 57 -25t19 -67v-55q0 -4 1 -145.5l3 -424.5q1 -60 -59 -60q-53 0 -51 56v231v231l-1 162h-57z" />
    <glyph glyph-name="summation" unicode="&#x2211;" horiz-adv-x="542" 
d="M90 537q-8 8 -13 14.5t-9 11.5q-7 8 -13 24q-6 15 -6 33q0 25 17 40q17 16 44 17h67h77t88 1t73.5 1h34.5q53 0 54 -46q0 -47 -41 -49h-286l180 -224q29 -31 31 -63v-12q0 -4 -2 -12q-1 -4 -3 -10t-4 -10q-2 -3 -3 -5l-2 -4t-5 -8q-2 -3 -5 -6l-6 -6l-6 -6l-181 -230
q20 0 81.5 0.5t164.5 1.5q19 1 30.5 1.5t16.5 0.5q46 0 46 -48q0 -54 -57 -54h-299q-62 0 -84 15t-22 51t44 86l193 251z" />
    <glyph glyph-name="minus" unicode="&#x2212;" horiz-adv-x="490" 
d="M74 221q-23 0 -33 15q-10 14 -10 35q0 47 54 47h59h80h110h81q44 0 44 -49q0 -47 -54 -48h-332h1z" />
    <glyph glyph-name="uni2215" unicode="&#x2215;" horiz-adv-x="446" 
d="M362 651q16 27 36 27q16 0 26 -10q11 -11 11 -24q0 -14 -10 -30q-5 -8 -21 -35t-45 -74t-50.5 -83t-36.5 -62l-201 -343q-13 -22 -33 -22q-14 0 -25 10q-12 10 -12 27q0 12 11 31l352 590z" />
    <glyph glyph-name="uni2219" unicode="&#x2219;" horiz-adv-x="219" 
d="M105 172q-29 0 -47 18t-18 47q0 30 20 50t51 20q29 0 48 -19q20 -20 20 -48q0 -31 -20 -49t-53 -18z" />
    <glyph glyph-name="radical" unicode="&#x221a;" horiz-adv-x="639" 
d="M75 348q-28 -5 -45 7t-19 41q-2 43 48 54l86 21q33 6 50 -3q16 -9 30 -45q2 -5 6.5 -17.5t12.5 -34.5t18 -48t22 -57t25.5 -64t28.5 -69q1 2 6 17l14 42l15.5 46.5t10.5 30.5l122 374q13 41 51 43q24 0 41 -12t17 -34q0 -12 -15 -54l-121 -337l-69 -185q-14 -37 -28 -51
q-15 -15 -43 -15q-29 0 -43 14q-14 13 -27 48l-125 305z" />
    <glyph glyph-name="infinity" unicode="&#x221e;" horiz-adv-x="718" 
d="M201 449q91 0 150 -104q27 49 68 81q40 31 90 33q82 0 132 -53t50 -135q0 -85 -46 -138q-47 -54 -126 -54q-91 0 -168 110q-65 -104 -159 -104q-72 1 -120 54q-48 52 -48 129q0 79 51 132t127 53zM504 364q-32 0 -61 -28t-49 -69q23 -36 54 -65q31 -30 60 -30q40 0 63 26
t23 66q0 43 -24 72q-24 28 -66 27v1zM199 176q33 0 62 30q29 31 45 64q-49 88 -107 88q-35 0 -59 -25q-24 -26 -24 -66q0 -41 22 -66t61 -25z" />
    <glyph glyph-name="integral" unicode="&#x222b;" horiz-adv-x="340" 
d="M253 687q21 0 35 -13q15 -14 15 -36q0 -47 -40 -48h-9t-11 1q-12 1 -25 0q-49 -1 -39 -142q5 -50 40 -187t37 -201q0 -80 -31 -133q-14 -27 -49 -47q-36 -21 -79 -21q-27 0 -44 13t-19 36q-1 25 11 41q12 15 31 15h7.5t10.5 -1t11 -1h9q51 -2 35 121q-8 45 -17 91t-20 96
t-18 86t-11 59t-6 45t-2 42q0 39 18 80q18 40 44 60q58 50 119 50z" />
    <glyph glyph-name="approxequal" unicode="&#x2248;" horiz-adv-x="490" 
d="M125 325q-20 -27 -48 -27q-20 0 -32 17t-8 39q9 35 44 62q34 27 81 27q35 0 62 -15t48 -30q20 -14 43 -16q30 0 46 28q18 24 45 24q19 0 33 -14t12 -32q-17 -95 -117 -95q-39 0 -85 29q-45 28 -69 30q-35 0 -51 -27h-4zM130 128l-4 -4l-4 -4l-4 -4l-4 -4l-4 -4
q-2 -2 -6 -4t-7 -3t-9 -1h-9q-19 0 -31 16t-9 37q8 37 39 62q32 26 80 26q43 0 88 -27q44 -26 68 -28q32 0 47 27q22 25 45 25q19 0 33 -14q13 -14 12 -33q-6 -44 -37 -69t-81 -25q-38 0 -84 27q-47 28 -72 29q-35 0 -53 -23z" />
    <glyph glyph-name="notequal" unicode="&#x2260;" horiz-adv-x="490" 
d="M231 117l-19 -52q-11 -30 -36 -30q-16 0 -28 9t-12 24q0 6 3 15l12 34h-78q-23 0 -33 15q-10 14 -10 35q0 47 54 47h102l41 112h-154q-23 0 -33 15q-10 14 -10 35q0 23 15 35t40 12l179 -1l21 58q10 27 33 27q14 0 26 -9t12 -22q0 -12 -5 -24l-12 -32h76q44 0 44 -48
t-54 -49h-101l-40 -112h151q44 0 44 -49q0 -47 -54 -48z" />
    <glyph glyph-name="lessequal" unicode="&#x2264;" horiz-adv-x="490" 
d="M74 0q-43 0 -43 49q0 45 54 45h59h80h192q44 0 44 -46q0 -47 -54 -48h-332zM427 504l-36 -18t-94 -46t-101.5 -49.5t-57.5 -29.5q19 -10 57 -27t96 -43t94.5 -43t51.5 -25q16 -10 16 -30q0 -22 -13 -36q-14 -15 -34 -14q-14 0 -30 9l-305 151q-40 19 -40 60q0 37 40 58
l297 155q17 11 36 11q18 -2 30 -16q12 -15 12 -36t-19 -31z" />
    <glyph glyph-name="greaterequal" unicode="&#x2265;" horiz-adv-x="490" 
d="M83 0q-54 1 -54 48q0 46 44 46h192h80h59q54 0 54 -45q0 -49 -43 -49h-332zM61 502q-20 11 -20 33q0 20 12 35q12 14 30 16q19 0 36 -11l297 -155q40 -21 40 -58q0 -41 -40 -60l-305 -151q-20 -9 -30 -9q-20 -1 -34 14q-13 14 -13 36q0 19 17 30q15 8 51.5 25t94.5 43
t96 43t57 27q-18 10 -58 30t-103 51q-125 61 -126 63z" />
    <glyph glyph-name="star" unicode="&#x22c6;" horiz-adv-x="536" 
d="M470 344q15 1 24 -6q9 -8 9 -20q0 -14 -21 -30q-8 -5 -22 -15t-36 -24q-44 -29 -60 -39q20 -40 38 -76.5t33 -70.5q3 -9 3 -12q0 -14 -10 -23q-11 -9 -21 -9q-9 0 -17 5q-11 9 -26.5 23.5t-36.5 34.5t-36 33.5t-24 21.5q-17 -14 -48 -45q-16 -16 -27 -26.5t-18 -16.5
q-2 -2 -5 -4.5t-7 -5.5t-6 -5l-4 -4q-4 -4 -7 -6q-2 -2 -4 -2.5t-4 -1.5t-7 -1q-14 0 -24 9t-10 22q0 2 2 12q12 28 36 78q24 49 33 69q0 2 -3 7q-20 12 -57 36q-19 12 -35 22.5t-30 18.5q-13 9 -13 22q0 11 8 21q8 9 18 8q5 0 20.5 -1t41.5 -3t45.5 -3t32.5 -1q6 0 15 30
q9 29 18 71q5 20 7.5 32t3.5 15q8 26 30 26q28 0 31 -23q6 -29 18 -84q6 -28 9.5 -44.5t4.5 -21.5q41 1 76 3t64 5z" />
    <glyph glyph-name="triagup" unicode="&#x25b2;" horiz-adv-x="456" 
d="M178 410q1 1 3 5q1 2 3 4l3 3l3 3l3 3l4 2q2 2 5 2h6h7q22 0 33 -20q19 -32 51 -93q31 -62 48 -87q4 -7 8.5 -14.5t9.5 -16.5t9.5 -15.5t7.5 -11.5t6.5 -10t7.5 -12t6.5 -12l4.5 -9t4 -7.5t4 -7.5q4 -7 6 -14q2 -8 2 -11q0 -15 -11 -26t-26 -11q-7 0 -16 3t-15 6t-15 9
q-11 7 -13 8q-44 27 -93 27h-9t-9 -1l-15 -2q-6 -2 -15 -6q-8 -4 -14 -6t-16 -7t-16 -7q-6 -4 -16 -9q-6 -3 -10.5 -5.5t-8.5 -4.5q-6 -4 -18 -7q-11 -3 -19 -3q-17 0 -27 12q-10 11 -10 26q0 10 7 23l51 98q30 52 93 204z" />
    <glyph glyph-name="triagrt" unicode="&#x25ba;" horiz-adv-x="442" 
d="M386 280q3 -3 7 -6t7 -6l4 -6q3 -5 3 -9v-12q0 -23 -19 -33q-5 -4 -23.5 -14.5t-50.5 -28.5q-63 -36 -93 -57q-113 -79 -145 -79q-16 0 -26 12q-11 13 -11 27q0 7 3 16t6 15q3 7 10 16l9 14q29 49 29 97q0 13 -3 27q-2 7 -3 12t-2 8q-2 7 -12 26q-5 10 -8 15.5t-4 7.5
q-2 3 -9 17l-9 19q-3 7 -6 18q-3 10 -3 20q0 16 11 27q10 10 24 10q8 0 21 -7l103 -52q78 -47 189 -93z" />
    <glyph glyph-name="triagdn" unicode="&#x25bc;" horiz-adv-x="444" 
d="M177 78q-48 115 -93 195l-51 98q-7 13 -7 23q0 15 10 26q10 12 27 12q14 0 23 -4q12 -5 29 -15q19 -11 20 -12q6 -2 16 -7t16 -7t14 -6q9 -5 15 -6l15 -2q5 -1 9 -1h9q49 0 93 27q4 1 14 8q9 6 15 9t15 6t16 3q15 0 26 -11t11 -26q0 -7 -1 -11q-2 -7 -6 -14
q-2 -4 -3.5 -7.5t-3.5 -7.5l-4.5 -9t-6.5 -12q-8 -15 -13 -22q-3 -5 -7 -11.5t-9 -15.5t-9.5 -16.5t-8.5 -14.5l-97 -172q-11 -20 -33 -20q-7 0 -10 1q-6 2 -7 2q-3 0 -6 3q-2 2 -2.5 3t-1.5 2l-4 6l-4 6h-5z" />
    <glyph glyph-name="triaglf" unicode="&#x25c4;" horiz-adv-x="442" 
d="M55 276q118 51 192 93l101 52q13 7 21 7q14 0 24 -10q11 -11 11 -27q0 -13 -3 -23q-4 -13 -13 -29q-11 -19 -12 -20l-9 -19q-3 -7 -5 -11.5t-4 -7.5t-3.5 -7t-3.5 -9q-4 -10 -6 -20q-1 -5 -1 -10v-10q0 -48 29 -97l9 -13q7 -9 10 -16q3 -6 6 -15t3 -16q0 -15 -12 -27
t-25 -12q-16 0 -65 29q-24 14 -43.5 26.5t-35.5 23.5q-11 8 -23 16t-25 16t-28 16.5t-33 19.5q-36 21 -57 33q-19 10 -19 33v12q0 4 3 9l4 6q3 3 7 6t7 6z" />
    <glyph glyph-name="lozenge" unicode="&#x25ca;" horiz-adv-x="538" 
d="M53 406q42 68 74.5 121.5t55.5 94.5q19 34 38 51q17 16 44 16q30 2 47 -12q16 -14 39 -51l143 -237q13 -25 13 -42q0 -24 -13 -47l-151 -248q-16 -29 -33 -43q-16 -13 -45 -13q-25 0 -42 14q-17 13 -33 42l-130 215q-2 1 -6 9l-3.5 7t-3.5 5t-3.5 5l-3.5 7q-4 7 -6 14
q-1 4 -3 14q-1 5 -1 15q0 28 23 62v1zM405 345l-136 240l-138 -242l138 -237z" />
    <glyph glyph-name="uni261A" unicode="&#x261a;" horiz-adv-x="1031" 
d="M971 409v-58v-58v-46.5t1 -64.5t1 -64.5v-46.5v-12.5t-1 -10.5q-2 -10 -7 -15l-9 -9q-3 -3 -16 -4q-7 -1 -11.5 -1.5t-6.5 -0.5h-24q-10 -1 -24 -1h-34h-7h-20.5t-13.5 1q-12 2 -21 7q-11 6 -14 18t-3 34q-59 -2 -148 -25q-98 -27 -193 -27q-21 0 -40 3q-18 3 -41 11
q-20 7 -34 24q-13 16 -13 39q0 13 6 21q-26 6 -42 25t-16 45q0 20 16 27q-22 7 -39 23q-16 15 -16 36q0 31 13 40h-57t-42 1q-97 1 -97 66q0 8 2 18q1 7 8 14l10 10q3 3 14 7q5 2 8.5 2.5t5.5 1.5q6 2 17 2h17h19h17q151 0 270 -3q-23 7 -39 30q-16 22 -16 39q0 28 17 47
q16 18 44 18q15 0 23 -6q99 -68 160 -99q12 -6 26 -12t31 -11q57 -22 123 -25q7 30 55 30h22.5t31.5 -1t31.5 -1h21.5q11 0 25 -9q13 -9 13 -21z" />
    <glyph glyph-name="uni261B" unicode="&#x261b;" horiz-adv-x="1031" 
d="M51 416q0 12 13 21t25 9q9 0 22.5 0.5t31.5 1.5t31.5 1.5t21.5 0.5q47 0 55 -30q66 3 123 25q17 5 31 11t26 12q61 31 160 99q7 6 23 6q27 0 44 -18q17 -19 17 -46q0 -17 -16 -39q-17 -23 -39 -30q118 3 271 3h15h16h15q12 0 15 -1q4 -1 14 -3q9 -2 13 -4l11 -7
q6 -5 9 -10q4 -8 5 -13q1 -4 1.5 -7.5t0.5 -8.5q0 -65 -97 -66q-17 -1 -42 -1h-57q13 -9 13 -40q0 -21 -16 -36q-17 -16 -39 -23q16 -7 16 -27q0 -26 -16 -45t-42 -25q6 -8 6 -21q0 -23 -13 -39q-14 -17 -34 -24q-11 -4 -21 -6l-20 -4q-20 -3 -40 -3q-96 0 -193 27
q-89 23 -148 25q0 -41 -14 -50t-57 -9h-3h-3h-34t-24 1q-50 1 -60 9q-14 11 -14 47v46.5t1 64.5t1 64.5v46.5v58v58z" />
    <glyph glyph-name="uni261C" unicode="&#x261c;" horiz-adv-x="1031" 
d="M972 406v-58v-58v-46.5t1 -64.5t1 -64.5v-46.5v-12.5t-1 -10.5q-2 -10 -7 -15l-9 -9q-3 -3 -16 -4q-7 -1 -11.5 -1.5t-6.5 -0.5h-24q-10 -1 -24 -1h-34h-7h-20.5t-13.5 1q-12 2 -21 7q-11 6 -14 18t-3 34q-59 -2 -148 -25q-99 -28 -222 -28q-20 0 -39 3q-17 3 -39 11
q-20 8 -32 24t-12 39q0 13 5 21q-27 6 -41 25q-15 19 -15 45q0 19 15 27q-56 20 -56 57q0 21 13 30h-39q-7 0 -16 0.5t-21 1.5q-23 1 -37 6q-13 4 -29 14q-14 8 -22 23q-7 13 -7 33q0 28 21 43t42 18t53 3q45 0 131 -3q43 -2 70.5 -2.5t40.5 -1.5q-29 17 -29 60q0 28 17 50
q16 21 42 21q14 0 24 -5q63 -37 103 -60t60 -33q12 -6 26 -12t31 -11q66 -25 123 -28q5 17 18 23t38 6h22.5t31.5 -1t31.5 -1h22.5q12 0 24 -9t12 -21zM305 75q0 -7 5 -12q4 -4 13 -7q5 -2 9 -2.5t9 -1.5t10 -1.5t11 -0.5h20h18h12q68 0 117 11q18 4 63 15q23 5 42.5 9.5
t36.5 7.5q34 6 63 6q19 0 24 -1q6 7 6 102v134v31q-33 4 -69.5 13t-76.5 24q-87 31 -204 109q-26 -2 -26 -30q0 -20 12 -36q11 -15 24 -25q12 -9 33 -21l6 -4q-12 -6 -33 -6q-22 0 -56 0.5t-81 1.5t-81 1.5t-56 0.5h-21h-27q-5 0 -10 -0.5t-12 -1.5q-12 -1 -19 -8
q-6 -6 -6 -16q0 -18 11 -27q10 -8 21 -10q5 -1 12.5 -1h17.5h276q7 0 12 -4q6 -5 6 -10q0 -16 -17 -16q-26 -1 -57 -1.5t-69 -0.5h-18.5t-12.5 -1q-10 -1 -19 -9t-9 -24q0 -10 8 -16q8 -7 25 -8q9 -1 15.5 -1.5t11.5 -0.5h32h48h49q15 0 15 -13q0 -17 -15 -17h-24t-28 -1
t-27.5 -1h-23.5q-42 0 -42 -32q0 -26 68 -26q11 0 24 0.5t27 1.5t24.5 1.5t17.5 0.5q22 0 22 -18q0 -4 -3 -7q-2 -2 -9 -4q-8 -2 -10 -2h-13h-13q-7 -1 -13.5 -1h-13.5h-20q-20 -2 -27 -9q-8 -8 -8 -27z" />
    <glyph glyph-name="uni261E" unicode="&#x261e;" horiz-adv-x="1031" 
d="M52 415q0 12 12 21t24 9q8 0 21.5 0.5t32.5 1.5t32.5 1.5t21.5 0.5q24 0 38 -6t18 -22q57 3 123 28q17 5 31 11t26 12q20 10 60 33t103 60q10 5 24 5q25 0 42 -21q17 -22 17 -49q0 -43 -29 -60q13 1 40.5 2t70.5 3q85 3 131 3h21.5t17.5 -1t16.5 -2.5t18.5 -4.5
q20 -6 30 -19t10 -35q0 -20 -7 -33t-22 -22q-13 -8 -29 -13q-14 -5 -37 -6q-12 -1 -21 -1.5t-16 -0.5h-39q12 -8 12 -30q0 -38 -55 -57q15 -8 15 -27q0 -26 -15 -45q-14 -19 -41 -25q5 -8 5 -21q0 -23 -12 -39t-32 -24q-22 -8 -39 -11q-20 -3 -39 -3q-123 0 -222 28
q-89 23 -148 25q0 -41 -14 -50t-57 -9h-3h-3h-34t-24 1q-50 1 -60 9q-14 11 -14 47v46.5t1 64.5t1 64.5v46.5v58v58zM707 86q0 19 -9 27t-28 9h-19q-7 0 -13.5 0.5t-13.5 1.5h-13h-13q-2 0 -10 2q-5 1 -9 5q-3 3 -3 7q0 18 22 18h17.5t24.5 -1t27 -1h24q68 0 68 26
q0 32 -42 32q-11 0 -23.5 0.5t-27.5 1.5t-28 1.5t-24 0.5q-15 0 -15 17q0 13 15 13h48h49h32q5 0 11.5 0.5t15.5 1.5q17 1 25 8q8 6 8 17q0 16 -9 24t-19 9q-5 1 -12.5 1.5t-18.5 0.5q-38 0 -69 0.5t-57 1.5q-17 0 -17 16q0 6 6 11q7 5 12 5h276q10 0 17.5 0.5t12.5 1.5
q10 1 21 11q11 9 11 27q0 10 -6 16q-7 7 -19 8q-7 1 -12 1.5t-10 0.5h-27h-21q-23 0 -57 -0.5t-80 -1.5t-80 -1.5t-57 -0.5q-21 0 -33 6q47 28 61 45q13 17 13 41q0 28 -26 30q-117 -78 -204 -109q-40 -15 -76.5 -24t-69.5 -13v-31v-134q0 -95 6 -102q5 1 24 1q28 0 63 -6
q17 -3 36.5 -7.5t42.5 -9.5q45 -11 63 -15q49 -11 117 -11h12h18h20q6 0 11 0.5t10 1.5t9 2t9 3q7 2 13 8q5 5 5 12z" />
    <glyph glyph-name="smileface" unicode="&#x263a;" horiz-adv-x="757" 
d="M380 685q136 0 231 -96q95 -97 95 -242q0 -153 -91 -254q-92 -102 -235 -102q-131 0 -231 93t-100 238q0 162 99 263t233 101zM658 346q-2 128 -82 210q-81 82 -204 82q-122 0 -198 -87q-77 -88 -77 -220q0 -127 86 -210q85 -82 204 -82q115 0 193 92q78 91 78 213v2z
M230 310q16 0 21 -24q6 -46 44 -73q37 -27 89 -27q53 0 85 28t43 72q4 24 21 24q26 0 26 -20v-3q-12 -68 -60 -108q-47 -40 -114 -40q-71 0 -123 42q-53 42 -56 108q0 21 25 21h-1zM280 389q-18 0 -30 12t-12 32t14 32q13 12 33 12t32 -13q12 -14 12 -33t-14 -30t-35 -11v-1
zM473 389q-18 0 -30 12t-12 32t14 32q13 12 33 12t32 -13q12 -14 12 -33t-14 -30t-35 -11v-1z" />
    <glyph glyph-name="heart" unicode="&#x2665;" horiz-adv-x="607" 
d="M426 471q60 0 96 -33t36 -89q0 -38 -27 -81t-61 -76q-17 -17 -35 -36t-38 -42t-34 -43t-24 -37q-14 -26 -32 -26q-20 0 -32 26q-14 28 -53 68q-40 39 -77 71q-36 30 -67 77q-30 45 -30 86q0 57 39 93t90 36q91 0 126 -80q36 88 124 88z" />
    <glyph glyph-name="commaaccent" unicode="&#xf6c3;" horiz-adv-x="193" 
d="M39 -200q0 7 14 23q13 15 18 24q4 7 -9 22q-13 14 -13 30q0 21 15 36t38 15q22 0 39 -15q16 -15 16 -39q0 -61 -67 -110q-18 -8 -27 -8q-11 0 -18 6t-7 17z" />
    </font>
</defs>
</svg>
